<svg width="260" height="80" viewBox="0 0 260 80" fill="none" xmlns="http://www.w3.org/2000/svg">
<path d="M130 79.7189V18C130 8.05887 121.941 0 112 0H47.7234V10.7224H0V79.7189H130Z" fill="black"/>
<rect x="3.23926" y="14.3135" width="16.4977" height="62.0628" fill="#527FD8"/>
<rect x="70.8022" y="3.31505" width="19.6401" height="73.0613" fill="#EA2A36"/>
<rect x="3.23926" y="48.0944" width="32.9954" height="28.2818" fill="#527FD8"/>
<path d="M26.0225 14.3135H67.6596L58.863 76.3763H34.2326L26.0225 14.3135Z" fill="#EBDB27"/>
<path d="M51.1611 3.31505H70.8013V48.0946H66.1611C57.8769 48.0946 51.1611 41.3788 51.1611 33.0946V3.31505Z" fill="#EA2A36"/>
<path d="M128.151 76.3764L92.0135 76.3764L92.0135 3.31505L113.151 3.31505C121.436 3.31505 128.151 10.0308 128.151 18.315L128.151 76.3764Z" fill="#00C83B"/>
<line x1="70.3022" y1="29.24" x2="70.3022" y2="3.31503" stroke="black"/>
<line x1="46.7334" y1="48.0944" x2="46.7334" y2="14.3134" stroke="black"/>
<line x1="110.083" y1="29.74" x2="92.0136" y2="29.74" stroke="black"/>
<line x1="128.351" y1="40.697" x2="110.282" y2="48.5531" stroke="black"/>
<path d="M260 79.7189V18C260 8.05887 251.941 0 242 0H177.723V10.7224H130V79.7189H260Z" fill="black"/>
<rect x="133.214" y="14.3135" width="16.3718" height="62.0628" fill="white"/>
<rect x="200.262" y="3.31505" width="19.4902" height="73.0613" fill="white"/>
<rect x="133.214" y="48.0944" width="32.7436" height="28.2818" fill="white"/>
<path d="M155.824 14.3135H197.143L188.414 76.3763H163.971L155.824 14.3135Z" fill="white"/>
<path d="M180.771 3.31505H200.261V48.0946H195.771C187.486 48.0946 180.771 41.3788 180.771 33.0946V3.31505Z" fill="white"/>
<path d="M257.173 76.3764L221.311 76.3764L221.311 3.31505L242.173 3.31505C250.458 3.31505 257.173 10.0308 257.173 18.315L257.173 76.3764Z" fill="white"/>
<line x1="199.762" y1="29.24" x2="199.762" y2="3.31503" stroke="black"/>
<line x1="176.373" y1="48.0944" x2="176.373" y2="14.3134" stroke="black"/>
<line x1="239.242" y1="29.74" x2="221.311" y2="29.74" stroke="black"/>
<line y1="-0.5" x2="19.5765" y2="-0.5" transform="matrix(-0.915946 0.401301 -0.396162 -0.918181 257.173 40.2385)" stroke="black"/>
</svg>
