<svg fill="none" height="48" viewBox="0 0 48 48" width="48" xmlns="http://www.w3.org/2000/svg"><path d="m36.2523 11.258c0-1.28059-.8647-1.6692-2.103-1.99194-1.8113-.47236-5.5384-1.26557-10.15-1.26557s-8.3396.79227-10.1509 1.26463c-1.2373.32368-2.1021.71135-2.1021 1.99288v17.9231.0066.0066c.016 1.4905.7236 2.9056 1.8932 3.7873l9.6221 7.2951.7377.559.7386-.559 9.625-7.297c1.1818-.8911 1.8894-2.3119 1.8894-3.7986z" fill="#fff"/><path d="m23.9998 8c-4.6116 0-8.3396.7932-10.1509 1.26556-1.2374.32274-2.1021.7104-2.1021 1.99194v17.9232.0065.0066c.0151 1.4905.7226 2.9057 1.8932 3.7873l9.6221 7.2952.7377.5589.7386-.5589 9.6249-7.2971c1.1819-.891 1.8894-2.3119 1.8894-3.7976v-17.9241c0-1.2806-.8647-1.6692-2.103-1.99194-1.8113-.47236-5.5384-1.26556-10.1499-1.26556zm-.2682.92493.2908.89866h.9446l-.764.55511.2917.8977-.7631-.5552-.765.5552.2917-.8977-.764-.55511h.9447zm-10.2045 1.30977.2916.8987h.9448l-.7641.5551.2917.8977-.764-.5552-.7641.5552.2917-.8977-.764-.5551h.9447zm20.1907 0 .2917.8987h.9448l-.7641.5551.2916.8977-.764-.5552-.764.5552.2917-.8977-.764-.5551h.9446zm-4.4515 1.5074c.0894.0123.1778.0245.2653.0377.2616.0367.5147.0762.7594.1157.2465.0405.4855.0819.7132.1242l-6.4361 4.8863v-3.3469c1.0134.6013 1.6975.5401 2.1388.2597.2522-.16.4253-.3924.5335-.6126 1.0981.3228 2.3166-.3584 2.0259-1.4641zm-11.791.192c.0084.094.0273.1835.0536.2691.0009.0038.0019.0075.0028.0113.0009.0037.0028.0066.0038.0104.2813.8553 1.4255 1.2984 2.4794.9879.1966.399.668.749 1.3257.8403.4423.0612.9692.0037 1.5526-.2353v4.3604l-4.0281 3.059c.0131-.0969.0216-.2004.0216-.3124v-.0348-.0621-.0283c.4404-.2719.8289-.8016 1.0237-1.4716.0866-.2973.1223-.5918.1195-.8684-.0809.0357-.1665.0601-.2474.0761-.2136.0414-.3971.0292-.398.0292.3528-.0273.6087-.1618.7752-.286.049-.0414.1026-.0913.1591-.1487.3481-.3557.5777-.7688.7142-1.2477l.6624-2.3166c-.3462-.032-.6803.1327-.8666.4263l-.3199.5043-.3134.4958c-.0705.1186-.1966.2259-.3396.3031-.2202-.1722-.3915-.3077-.527-.4141-.0207-.016-.0404-.032-.0592-.047l-.2089-.877.3039-.5419c.0875-.1572.1157-.3369.0866-.5091-.0188-.1054-.0593-.2089-.1214-.302-.0499-.0734-.1534-.0903-.2287-.0423l-.7631.4873c-.0216-.0216-.0423-.0386-.0639-.0518-.048-.0301-.097-.0375-.1497-.0291-.0772.0132-.1628.0631-.2634.1308l-.1949.1421-.2898.2117-.222-.0084-.1543-.0067c-.1506 0-.2108.271-.0715.4705.1157.1656.207.3802.2691.6389.0009.0038.0028.0076.0038.0113.0037.0189.0074.0376.0121.0565.0029.015.0067.0291.0095.0442.0489.2409.0743.5166.0743.8233 0 .685-.3688 2.1501-.844 3.1051-.0226.0414-.0461.0828-.0687.1252l-.3575.5956c-.0574.0866-.0443.2173.0235.3114.0489.0678.127.1167.2287.1167 0 0 .2869.3613.3772 1.0567.0414.3161.0424.702-.0432 1.1536l-.6775.5147-.7189.5458.001-11.616c.3453-.0819.7377-.1693 1.1714-.2559.3369-.0678.7001-.1356 1.0859-.2014zm17.2819 1.9042-.3071.2352-.6537.5001zm-2.3669 1.8115v17.5399l-3.3577 2.5452v-17.5151l.0003-.0002 3.3573-2.5697zm-5.1734.448.2916.8976h.9448l-.7641.5552.2917.8986-.764-.5551-.7641.5551.2917-.8986-.764-.5552h.9447zm-13.6898 1.784.2916.8976h.9448l-.7641.5552.2917.8986-.764-.5551-.7641.5541.2917-.8976-.764-.5552h.9447zm12.1473 2.9077v17.4909l-1.6746 1.2695-1.6832-1.2759v-14.9147l-3.3582 2.5698v9.7989l2.187 1.6582-6.9483-5.267c0-.0002-.0006-.0004-.0008-.0007l1.4038 1.0637v-4.6829l3.3581-2.5706 3.3582-2.5697zm-5.0555.0704.2927.8986h.9438l-.7641.5552.2917.8976-.7641-.5542-.764.5542.2926-.8976-.7649-.5552h.9447zm-7.0918 5.1009.2916.8985h.9448l-.7641.5552.2917.8977-.764-.5543-.7641.5543.2917-.8977-.764-.5552h.9447zm1.8343 2.7211-1.0174.7789-1.166.8918 1.1658-.8925zm-2.346 1.7952c.1588.4565.4055.8762.729 1.2297-.3236-.3532-.5704-.773-.7292-1.2296zm21.472.9548c-.012.0158-.0234.0319-.0356.0475-.0131.0166-.0267.0329-.0401.0494.0135-.0166.0271-.033.0402-.0497.0122-.0155.0236-.0315.0355-.0472zm-.3363.3851c-.1075.1066-.2224.2066-.3448.2994-.0019.0009-.0028.0019-.0037.0028l-1.2753.9667 1.2792-.9698c.1219-.0927.2369-.1927.3446-.2991z" fill="#262f61"/><path d="m35.2128 27.3108v-13.8215l-.7631.5843-2.0597 1.5761v17.5401l1.4161-1.0736c.2437-.1854.4601-.3999.6455-.637.4855-.6192.7612-1.3926.7612-2.1934zm-6.1806-9.0912-3.3582 2.5697v17.4912l3.3582-2.5453zm-10.0742 7.7095v9.799l3.3582 2.5462v-14.9149zm-3.3582 2.5701-1.2562.9616-1.3286 1.0163c.2258.6492.6295 1.2241 1.179 1.64l1.4058 1.0652z" fill="#ce3524"/></svg>