<svg xmlns="http://www.w3.org/2000/svg" viewBox="0 0 93.9 93.9"><title>Borussia Dortmund logo</title><circle cx="46.95" cy="46.95" r="46.95" style="fill:#ffe500"/><circle cx="46.95" cy="46.95" r="44.69" style="fill:#1d1d1b"/><circle cx="46.95" cy="46.95" r="42.21" style="fill:#ffe500"/><path d="M518.91,548a5.2,5.2,0,0,1-5.39-5.05c0-.39,0-.57,0-.85h2.94c.85,0,.71,1.15.71,1.15,0,.89,1,1.29,1.68,1.31a1.64,1.64,0,0,0,1.6-1.67v-1.72a4.5,4.5,0,0,1-1.68.3,5.48,5.48,0,0,1-5.26-5.21V535a5.19,5.19,0,0,1,5.27-5.08h.11a5.06,5.06,0,0,1,5,5.15v7.76A5,5,0,0,1,518.91,548Z" transform="translate(-465.05 -465.05)" style="fill:#1d1d1b"/><path d="M518.79,533.54h0a1.61,1.61,0,0,1,1.61,1.61v1a1.61,1.61,0,0,1-1.61,1.61h-.05a1.61,1.61,0,0,1-1.61-1.61h0v-1A1.61,1.61,0,0,1,518.79,533.54Z" transform="translate(-465.05 -465.05)" style="fill:#ffe500"/><path d="M486.7,523v-8.24h4.8c4,0,5.39,7.21.23,8.23Zm0-14.51v-7.86h5.42c3.52,0,4.24,6.78.21,7.86Zm-6.47-14.38v35h11c8.91,0,13.43-10.81,7.24-17.47a.08.08,0,0,1,0-.05s0-.07,0-.07c5.15-5.81,3-16-6.58-17.47Z" transform="translate(-465.05 -465.05)" style="fill:#1d1d1b"/><path d="M532.31,523v-8.24h4.77c4,0,5.39,7.21.23,8.23Zm0-14.51v-7.86h5.39c3.52,0,4.24,6.78.21,7.86Zm-6.5-14.38v35h11c8.91,0,13.43-10.81,7.24-17.47a.08.08,0,0,1,0-.05s0-.07,0-.07c5.15-5.81,3-16-6.58-17.47Z" transform="translate(-465.05 -465.05)" style="fill:#1d1d1b"/><path d="M505.08,529.9h.12a5.15,5.15,0,0,1,5.15,5.15h0v7.77A5.15,5.15,0,0,1,505.2,548h-.12a5.15,5.15,0,0,1-5.15-5.15h0V535a5.15,5.15,0,0,1,5.15-5.15Z" transform="translate(-465.05 -465.05)" style="fill:#1d1d1b"/><path d="M505.11,533.59h.05a1.61,1.61,0,0,1,1.61,1.61h0v7.72a1.61,1.61,0,0,1-1.61,1.61h-.05a1.61,1.61,0,0,1-1.61-1.61h0V535.2a1.61,1.61,0,0,1,1.61-1.61Z" transform="translate(-465.05 -465.05)" style="fill:#ffe500"/><polygon points="32.96 11.54 44.44 47.08 49.41 47.08 60.76 11.54 53.81 11.54 46.91 35.26 40.07 11.54 32.96 11.54" style="fill:#1d1d1b"/></svg>