<svg width="1440" height="1024" viewBox="0 0 1440 1024" fill="none" xmlns="http://www.w3.org/2000/svg">
<g clip-path="url(#clip0_1391_169)">
<rect width="1440" height="1024" fill="white"/>
<rect width="1440" height="1022" transform="matrix(1 0 0 -1 0 1022)" fill="#E9EDF1"/>
<path d="M304.195 127.932C304.195 147.3 288.581 163 269.32 163L246.07 163C226.809 163 211.195 147.3 211.195 127.932L211.195 25.0676C211.195 5.70029 226.809 -9.99999 246.07 -9.99999L269.32 -9.99999C288.581 -9.99999 304.195 5.7003 304.195 25.0676L304.195 127.932Z" fill="#E3E8ED"/>
<path d="M202.195 127.932C202.195 147.3 186.339 163 166.779 163L152.612 163C133.052 163 117.195 147.3 117.195 127.932L117.195 25.0676C117.195 5.70028 133.052 -10 152.612 -10L166.779 -10C186.339 -10 202.195 5.70029 202.195 25.0676L202.195 127.932Z" fill="#E3E8ED"/>
<path d="M108.195 127.932C108.195 147.3 92.5812 163 73.3203 163L50.0703 163C30.8094 163 15.1953 147.3 15.1953 127.932L15.1953 -9.99999L73.3203 -9.99999C92.5813 -9.99999 108.195 5.70029 108.195 25.0676L108.195 127.932Z" fill="#E3E8ED"/>
<path fill-rule="evenodd" clip-rule="evenodd" d="M66.1953 51L108.195 51V58L66.1953 58V51Z" fill="#E9EDF1"/>
<path fill-rule="evenodd" clip-rule="evenodd" d="M258.195 51L258.195 95L251.195 95L251.195 51L258.195 51Z" fill="#E9EDF1"/>
<path fill-rule="evenodd" clip-rule="evenodd" d="M162.195 51L162.195 95L155.195 95L155.195 51L162.195 51Z" fill="#E9EDF1"/>
<path fill-rule="evenodd" clip-rule="evenodd" d="M57.0387 94.8662L14.7965 76.5L12 82.9319L54.2422 101.298L57.0387 94.8662Z" fill="#E9EDF1"/>
<path d="M716.195 127.932C716.195 147.3 700.581 163 681.32 163L658.07 163C638.809 163 623.195 147.3 623.195 127.932L623.195 25.0676C623.195 5.70029 638.809 -9.99999 658.07 -9.99999L681.32 -9.99999C700.581 -9.99999 716.195 5.7003 716.195 25.0676L716.195 127.932Z" fill="#E3E8ED"/>
<path d="M614.195 127.932C614.195 147.3 598.339 163 578.779 163L564.612 163C545.052 163 529.195 147.3 529.195 127.932L529.195 25.0676C529.195 5.70028 545.052 -10 564.612 -10L578.779 -10C598.339 -10 614.195 5.70029 614.195 25.0676L614.195 127.932Z" fill="#E3E8ED"/>
<path d="M520.195 127.932C520.195 147.3 504.581 163 485.32 163L462.07 163C442.809 163 427.195 147.3 427.195 127.932L427.195 -9.99999L485.32 -9.99999C504.581 -9.99999 520.195 5.70029 520.195 25.0676L520.195 127.932Z" fill="#E3E8ED"/>
<path fill-rule="evenodd" clip-rule="evenodd" d="M478.195 51L520.195 51V58L478.195 58V51Z" fill="#E9EDF1"/>
<path fill-rule="evenodd" clip-rule="evenodd" d="M670.195 51L670.195 95L663.195 95L663.195 51L670.195 51Z" fill="#E9EDF1"/>
<path fill-rule="evenodd" clip-rule="evenodd" d="M574.195 51L574.195 95L567.195 95L567.195 51L574.195 51Z" fill="#E9EDF1"/>
<path fill-rule="evenodd" clip-rule="evenodd" d="M469.039 94.8662L426.796 76.5L424 82.9319L466.242 101.298L469.039 94.8662Z" fill="#E9EDF1"/>
<path d="M1128.2 127.932C1128.2 147.3 1112.58 163 1093.32 163L1070.07 163C1050.81 163 1035.2 147.3 1035.2 127.932L1035.2 25.0676C1035.2 5.70029 1050.81 -9.99999 1070.07 -9.99999L1093.32 -9.99999C1112.58 -9.99999 1128.2 5.7003 1128.2 25.0676L1128.2 127.932Z" fill="#E3E8ED"/>
<path d="M1026.2 127.932C1026.2 147.3 1010.34 163 990.779 163L976.612 163C957.052 163 941.195 147.3 941.195 127.932L941.195 25.0676C941.195 5.70028 957.052 -10 976.612 -10L990.779 -10C1010.34 -10 1026.2 5.70029 1026.2 25.0676L1026.2 127.932Z" fill="#E3E8ED"/>
<path d="M932.195 127.932C932.195 147.3 916.581 163 897.32 163L874.07 163C854.809 163 839.195 147.3 839.195 127.932L839.195 -9.99999L897.32 -9.99999C916.581 -9.99999 932.195 5.70029 932.195 25.0676L932.195 127.932Z" fill="#E3E8ED"/>
<path fill-rule="evenodd" clip-rule="evenodd" d="M890.195 51L932.195 51V58L890.195 58V51Z" fill="#E9EDF1"/>
<path fill-rule="evenodd" clip-rule="evenodd" d="M1082.2 51L1082.2 95L1075.2 95L1075.2 51L1082.2 51Z" fill="#E9EDF1"/>
<path fill-rule="evenodd" clip-rule="evenodd" d="M986.195 51L986.195 95L979.195 95L979.195 51L986.195 51Z" fill="#E9EDF1"/>
<path fill-rule="evenodd" clip-rule="evenodd" d="M881.039 94.8662L838.796 76.5L836 82.9319L878.242 101.298L881.039 94.8662Z" fill="#E9EDF1"/>
<path d="M1438.2 127.932C1438.2 147.3 1422.34 163 1402.78 163L1388.61 163C1369.05 163 1353.2 147.3 1353.2 127.932L1353.2 25.0676C1353.2 5.70028 1369.05 -10 1388.61 -10L1402.78 -10C1422.34 -10 1438.2 5.70029 1438.2 25.0676L1438.2 127.932Z" fill="#E3E8ED"/>
<path d="M1344.2 127.932C1344.2 147.3 1328.58 163 1309.32 163L1286.07 163C1266.81 163 1251.2 147.3 1251.2 127.932L1251.2 -9.99999L1309.32 -9.99999C1328.58 -9.99999 1344.2 5.70029 1344.2 25.0676L1344.2 127.932Z" fill="#E3E8ED"/>
<path fill-rule="evenodd" clip-rule="evenodd" d="M1302.2 51L1344.2 51V58L1302.2 58V51Z" fill="#E9EDF1"/>
<path fill-rule="evenodd" clip-rule="evenodd" d="M1398.2 51L1398.2 95L1391.2 95L1391.2 51L1398.2 51Z" fill="#E9EDF1"/>
<path fill-rule="evenodd" clip-rule="evenodd" d="M1293.04 94.8662L1250.8 76.5L1248 82.9319L1290.24 101.298L1293.04 94.8662Z" fill="#E9EDF1"/>
<path d="M99.1953 351.932C99.1953 371.3 83.5812 387 64.3203 387L41.0703 387C21.8094 387 6.1953 371.3 6.1953 351.932L6.19531 249.068C6.19531 229.7 21.8094 214 41.0703 214L64.3203 214C83.5813 214 99.1953 229.7 99.1953 249.068L99.1953 351.932Z" fill="#E3E8ED"/>
<path fill-rule="evenodd" clip-rule="evenodd" d="M53.1953 275L53.1953 319L46.1953 319L46.1953 275L53.1953 275Z" fill="#E9EDF1"/>
<path d="M99.1953 799.932C99.1953 819.3 83.5812 835 64.3203 835L41.0703 835C21.8094 835 6.1953 819.3 6.1953 799.932L6.19531 697.068C6.19531 677.7 21.8094 662 41.0703 662L64.3203 662C83.5813 662 99.1953 677.7 99.1953 697.068L99.1953 799.932Z" fill="#E3E8ED"/>
<path fill-rule="evenodd" clip-rule="evenodd" d="M53.1953 723L53.1953 767L46.1953 767L46.1953 723L53.1953 723Z" fill="#E9EDF1"/>
<path d="M511.195 351.932C511.195 371.3 495.581 387 476.32 387L453.07 387C433.809 387 418.195 371.3 418.195 351.932L418.195 249.068C418.195 229.7 433.809 214 453.07 214L476.32 214C495.581 214 511.195 229.7 511.195 249.068L511.195 351.932Z" fill="#E3E8ED"/>
<path d="M409.195 351.932C409.195 371.3 393.339 387 373.779 387L359.612 387C340.052 387 324.195 371.3 324.195 351.932L324.195 249.068C324.195 229.7 340.052 214 359.612 214L373.779 214C393.339 214 409.195 229.7 409.195 249.068L409.195 351.932Z" fill="#E3E8ED"/>
<path d="M315.195 351.932C315.195 371.3 299.581 387 280.32 387L257.07 387C237.809 387 222.195 371.3 222.195 351.932L222.195 214L280.32 214C299.581 214 315.195 229.7 315.195 249.068L315.195 351.932Z" fill="#E3E8ED"/>
<path fill-rule="evenodd" clip-rule="evenodd" d="M273.195 275H315.195V282H273.195V275Z" fill="#E9EDF1"/>
<path fill-rule="evenodd" clip-rule="evenodd" d="M465.195 275L465.195 319L458.195 319L458.195 275L465.195 275Z" fill="#E9EDF1"/>
<path fill-rule="evenodd" clip-rule="evenodd" d="M369.195 275L369.195 319L362.195 319L362.195 275L369.195 275Z" fill="#E9EDF1"/>
<path fill-rule="evenodd" clip-rule="evenodd" d="M264.039 318.866L221.796 300.5L219 306.932L261.242 325.298L264.039 318.866Z" fill="#E9EDF1"/>
<path d="M304.195 575.932C304.195 595.3 288.581 611 269.32 611L246.07 611C226.809 611 211.195 595.3 211.195 575.932L211.195 473.068C211.195 453.7 226.809 438 246.07 438L269.32 438C288.581 438 304.195 453.7 304.195 473.068L304.195 575.932Z" fill="#E3E8ED"/>
<path d="M202.195 575.932C202.195 595.3 186.339 611 166.779 611L152.612 611C133.052 611 117.195 595.3 117.195 575.932L117.195 473.068C117.195 453.7 133.052 438 152.612 438L166.779 438C186.339 438 202.195 453.7 202.195 473.068L202.195 575.932Z" fill="#E3E8ED"/>
<path d="M108.195 575.932C108.195 595.3 92.5812 611 73.3203 611L50.0703 611C30.8094 611 15.1953 595.3 15.1953 575.932L15.1953 438L73.3203 438C92.5813 438 108.195 453.7 108.195 473.068L108.195 575.932Z" fill="#E3E8ED"/>
<path fill-rule="evenodd" clip-rule="evenodd" d="M66.1953 499H108.195V506H66.1953V499Z" fill="#E9EDF1"/>
<path fill-rule="evenodd" clip-rule="evenodd" d="M258.195 499L258.195 543L251.195 543L251.195 499L258.195 499Z" fill="#E9EDF1"/>
<path fill-rule="evenodd" clip-rule="evenodd" d="M162.195 499L162.195 543L155.195 543L155.195 499L162.195 499Z" fill="#E9EDF1"/>
<path fill-rule="evenodd" clip-rule="evenodd" d="M57.0387 542.866L14.7965 524.5L12 530.932L54.2422 549.298L57.0387 542.866Z" fill="#E9EDF1"/>
<path d="M511.195 799.932C511.195 819.3 495.581 835 476.32 835L453.07 835C433.809 835 418.195 819.3 418.195 799.932L418.195 697.068C418.195 677.7 433.809 662 453.07 662L476.32 662C495.581 662 511.195 677.7 511.195 697.068L511.195 799.932Z" fill="#E3E8ED"/>
<path d="M409.195 799.932C409.195 819.3 393.339 835 373.779 835L359.612 835C340.052 835 324.195 819.3 324.195 799.932L324.195 697.068C324.195 677.7 340.052 662 359.612 662L373.779 662C393.339 662 409.195 677.7 409.195 697.068L409.195 799.932Z" fill="#E3E8ED"/>
<path d="M315.195 799.932C315.195 819.3 299.581 835 280.32 835L257.07 835C237.809 835 222.195 819.3 222.195 799.932L222.195 662L280.32 662C299.581 662 315.195 677.7 315.195 697.068L315.195 799.932Z" fill="#E3E8ED"/>
<path fill-rule="evenodd" clip-rule="evenodd" d="M273.195 723H315.195V730H273.195V723Z" fill="#E9EDF1"/>
<path fill-rule="evenodd" clip-rule="evenodd" d="M465.195 723L465.195 767L458.195 767L458.195 723L465.195 723Z" fill="#E9EDF1"/>
<path fill-rule="evenodd" clip-rule="evenodd" d="M369.195 723L369.195 767L362.195 767L362.195 723L369.195 723Z" fill="#E9EDF1"/>
<path fill-rule="evenodd" clip-rule="evenodd" d="M264.039 766.866L221.796 748.5L219 754.932L261.242 773.298L264.039 766.866Z" fill="#E9EDF1"/>
<path d="M304.195 1023.93C304.195 1043.3 288.581 1059 269.32 1059L246.07 1059C226.809 1059 211.195 1043.3 211.195 1023.93L211.195 921.068C211.195 901.7 226.809 886 246.07 886L269.32 886C288.581 886 304.195 901.7 304.195 921.068L304.195 1023.93Z" fill="#E3E8ED"/>
<path d="M202.195 1023.93C202.195 1043.3 186.339 1059 166.779 1059L152.612 1059C133.052 1059 117.195 1043.3 117.195 1023.93L117.195 921.068C117.195 901.7 133.052 886 152.612 886L166.779 886C186.339 886 202.195 901.7 202.195 921.068L202.195 1023.93Z" fill="#E3E8ED"/>
<path d="M108.195 1023.93C108.195 1043.3 92.5812 1059 73.3203 1059L50.0703 1059C30.8094 1059 15.1953 1043.3 15.1953 1023.93L15.1953 886L73.3203 886C92.5813 886 108.195 901.7 108.195 921.068L108.195 1023.93Z" fill="#E3E8ED"/>
<path fill-rule="evenodd" clip-rule="evenodd" d="M66.1953 947H108.195V954H66.1953V947Z" fill="#E9EDF1"/>
<path fill-rule="evenodd" clip-rule="evenodd" d="M258.195 947L258.195 991L251.195 991L251.195 947L258.195 947Z" fill="#E9EDF1"/>
<path fill-rule="evenodd" clip-rule="evenodd" d="M162.195 947L162.195 991L155.195 991L155.195 947L162.195 947Z" fill="#E9EDF1"/>
<path fill-rule="evenodd" clip-rule="evenodd" d="M57.0387 990.866L14.7965 972.5L12 978.932L54.2422 997.298L57.0387 990.866Z" fill="#E9EDF1"/>
<path d="M923.195 351.932C923.195 371.3 907.581 387 888.32 387L865.07 387C845.809 387 830.195 371.3 830.195 351.932L830.195 249.068C830.195 229.7 845.809 214 865.07 214L888.32 214C907.581 214 923.195 229.7 923.195 249.068L923.195 351.932Z" fill="#E3E8ED"/>
<path d="M821.195 351.932C821.195 371.3 805.339 387 785.779 387L771.612 387C752.052 387 736.195 371.3 736.195 351.932L736.195 249.068C736.195 229.7 752.052 214 771.612 214L785.779 214C805.339 214 821.195 229.7 821.195 249.068L821.195 351.932Z" fill="#E3E8ED"/>
<path d="M727.195 351.932C727.195 371.3 711.581 387 692.32 387L669.07 387C649.809 387 634.195 371.3 634.195 351.932L634.195 214L692.32 214C711.581 214 727.195 229.7 727.195 249.068L727.195 351.932Z" fill="#E3E8ED"/>
<path fill-rule="evenodd" clip-rule="evenodd" d="M685.195 275H727.195V282H685.195V275Z" fill="#E9EDF1"/>
<path fill-rule="evenodd" clip-rule="evenodd" d="M877.195 275L877.195 319L870.195 319L870.195 275L877.195 275Z" fill="#E9EDF1"/>
<path fill-rule="evenodd" clip-rule="evenodd" d="M781.195 275L781.195 319L774.195 319L774.195 275L781.195 275Z" fill="#E9EDF1"/>
<path fill-rule="evenodd" clip-rule="evenodd" d="M676.039 318.866L633.796 300.5L631 306.932L673.242 325.298L676.039 318.866Z" fill="#E9EDF1"/>
<path d="M716.195 575.932C716.195 595.3 700.581 611 681.32 611L658.07 611C638.809 611 623.195 595.3 623.195 575.932L623.195 473.068C623.195 453.7 638.809 438 658.07 438L681.32 438C700.581 438 716.195 453.7 716.195 473.068L716.195 575.932Z" fill="#E3E8ED"/>
<path d="M614.195 575.932C614.195 595.3 598.339 611 578.779 611L564.612 611C545.052 611 529.195 595.3 529.195 575.932L529.195 473.068C529.195 453.7 545.052 438 564.612 438L578.779 438C598.339 438 614.195 453.7 614.195 473.068L614.195 575.932Z" fill="#E3E8ED"/>
<path d="M520.195 575.932C520.195 595.3 504.581 611 485.32 611L462.07 611C442.809 611 427.195 595.3 427.195 575.932L427.195 438L485.32 438C504.581 438 520.195 453.7 520.195 473.068L520.195 575.932Z" fill="#E3E8ED"/>
<path fill-rule="evenodd" clip-rule="evenodd" d="M478.195 499H520.195V506H478.195V499Z" fill="#E9EDF1"/>
<path fill-rule="evenodd" clip-rule="evenodd" d="M670.195 499L670.195 543L663.195 543L663.195 499L670.195 499Z" fill="#E9EDF1"/>
<path fill-rule="evenodd" clip-rule="evenodd" d="M574.195 499L574.195 543L567.195 543L567.195 499L574.195 499Z" fill="#E9EDF1"/>
<path fill-rule="evenodd" clip-rule="evenodd" d="M469.039 542.866L426.796 524.5L424 530.932L466.242 549.298L469.039 542.866Z" fill="#E9EDF1"/>
<path d="M923.195 799.932C923.195 819.3 907.581 835 888.32 835L865.07 835C845.809 835 830.195 819.3 830.195 799.932L830.195 697.068C830.195 677.7 845.809 662 865.07 662L888.32 662C907.581 662 923.195 677.7 923.195 697.068L923.195 799.932Z" fill="#E3E8ED"/>
<path d="M821.195 799.932C821.195 819.3 805.339 835 785.779 835L771.612 835C752.052 835 736.195 819.3 736.195 799.932L736.195 697.068C736.195 677.7 752.052 662 771.612 662L785.779 662C805.339 662 821.195 677.7 821.195 697.068L821.195 799.932Z" fill="#E3E8ED"/>
<path d="M727.195 799.932C727.195 819.3 711.581 835 692.32 835L669.07 835C649.809 835 634.195 819.3 634.195 799.932L634.195 662L692.32 662C711.581 662 727.195 677.7 727.195 697.068L727.195 799.932Z" fill="#E3E8ED"/>
<path fill-rule="evenodd" clip-rule="evenodd" d="M685.195 723H727.195V730H685.195V723Z" fill="#E9EDF1"/>
<path fill-rule="evenodd" clip-rule="evenodd" d="M877.195 723L877.195 767L870.195 767L870.195 723L877.195 723Z" fill="#E9EDF1"/>
<path fill-rule="evenodd" clip-rule="evenodd" d="M781.195 723L781.195 767L774.195 767L774.195 723L781.195 723Z" fill="#E9EDF1"/>
<path fill-rule="evenodd" clip-rule="evenodd" d="M676.039 766.866L633.796 748.5L631 754.932L673.242 773.298L676.039 766.866Z" fill="#E9EDF1"/>
<path d="M716.195 1023.93C716.195 1043.3 700.581 1059 681.32 1059L658.07 1059C638.809 1059 623.195 1043.3 623.195 1023.93L623.195 921.068C623.195 901.7 638.809 886 658.07 886L681.32 886C700.581 886 716.195 901.7 716.195 921.068L716.195 1023.93Z" fill="#E3E8ED"/>
<path d="M614.195 1023.93C614.195 1043.3 598.339 1059 578.779 1059L564.612 1059C545.052 1059 529.195 1043.3 529.195 1023.93L529.195 921.068C529.195 901.7 545.052 886 564.612 886L578.779 886C598.339 886 614.195 901.7 614.195 921.068L614.195 1023.93Z" fill="#E3E8ED"/>
<path d="M520.195 1023.93C520.195 1043.3 504.581 1059 485.32 1059L462.07 1059C442.809 1059 427.195 1043.3 427.195 1023.93L427.195 886L485.32 886C504.581 886 520.195 901.7 520.195 921.068L520.195 1023.93Z" fill="#E3E8ED"/>
<path fill-rule="evenodd" clip-rule="evenodd" d="M478.195 947H520.195V954H478.195V947Z" fill="#E9EDF1"/>
<path fill-rule="evenodd" clip-rule="evenodd" d="M670.195 947L670.195 991L663.195 991L663.195 947L670.195 947Z" fill="#E9EDF1"/>
<path fill-rule="evenodd" clip-rule="evenodd" d="M574.195 947L574.195 991L567.195 991L567.195 947L574.195 947Z" fill="#E9EDF1"/>
<path fill-rule="evenodd" clip-rule="evenodd" d="M469.039 990.866L426.796 972.5L424 978.932L466.242 997.298L469.039 990.866Z" fill="#E9EDF1"/>
<path d="M1335.2 351.932C1335.2 371.3 1319.58 387 1300.32 387L1277.07 387C1257.81 387 1242.2 371.3 1242.2 351.932L1242.2 249.068C1242.2 229.7 1257.81 214 1277.07 214L1300.32 214C1319.58 214 1335.2 229.7 1335.2 249.068L1335.2 351.932Z" fill="#E3E8ED"/>
<path d="M1233.2 351.932C1233.2 371.3 1217.34 387 1197.78 387L1183.61 387C1164.05 387 1148.2 371.3 1148.2 351.932L1148.2 249.068C1148.2 229.7 1164.05 214 1183.61 214L1197.78 214C1217.34 214 1233.2 229.7 1233.2 249.068L1233.2 351.932Z" fill="#E3E8ED"/>
<path d="M1139.2 351.932C1139.2 371.3 1123.58 387 1104.32 387L1081.07 387C1061.81 387 1046.2 371.3 1046.2 351.932L1046.2 214L1104.32 214C1123.58 214 1139.2 229.7 1139.2 249.068L1139.2 351.932Z" fill="#E3E8ED"/>
<path fill-rule="evenodd" clip-rule="evenodd" d="M1097.2 275H1139.2V282H1097.2V275Z" fill="#E9EDF1"/>
<path fill-rule="evenodd" clip-rule="evenodd" d="M1289.2 275L1289.2 319L1282.2 319L1282.2 275L1289.2 275Z" fill="#E9EDF1"/>
<path fill-rule="evenodd" clip-rule="evenodd" d="M1193.2 275L1193.2 319L1186.2 319L1186.2 275L1193.2 275Z" fill="#E9EDF1"/>
<path fill-rule="evenodd" clip-rule="evenodd" d="M1088.04 318.866L1045.8 300.5L1043 306.932L1085.24 325.298L1088.04 318.866Z" fill="#E9EDF1"/>
<path d="M1128.2 575.932C1128.2 595.3 1112.58 611 1093.32 611L1070.07 611C1050.81 611 1035.2 595.3 1035.2 575.932L1035.2 473.068C1035.2 453.7 1050.81 438 1070.07 438L1093.32 438C1112.58 438 1128.2 453.7 1128.2 473.068L1128.2 575.932Z" fill="#E3E8ED"/>
<path d="M1026.2 575.932C1026.2 595.3 1010.34 611 990.779 611L976.612 611C957.052 611 941.195 595.3 941.195 575.932L941.195 473.068C941.195 453.7 957.052 438 976.612 438L990.779 438C1010.34 438 1026.2 453.7 1026.2 473.068L1026.2 575.932Z" fill="#E3E8ED"/>
<path d="M932.195 575.932C932.195 595.3 916.581 611 897.32 611L874.07 611C854.809 611 839.195 595.3 839.195 575.932L839.195 438L897.32 438C916.581 438 932.195 453.7 932.195 473.068L932.195 575.932Z" fill="#E3E8ED"/>
<path fill-rule="evenodd" clip-rule="evenodd" d="M890.195 499H932.195V506H890.195V499Z" fill="#E9EDF1"/>
<path fill-rule="evenodd" clip-rule="evenodd" d="M1082.2 499L1082.2 543L1075.2 543L1075.2 499L1082.2 499Z" fill="#E9EDF1"/>
<path fill-rule="evenodd" clip-rule="evenodd" d="M986.195 499L986.195 543L979.195 543L979.195 499L986.195 499Z" fill="#E9EDF1"/>
<path fill-rule="evenodd" clip-rule="evenodd" d="M881.039 542.866L838.796 524.5L836 530.932L878.242 549.298L881.039 542.866Z" fill="#E9EDF1"/>
<path d="M1335.2 799.932C1335.2 819.3 1319.58 835 1300.32 835L1277.07 835C1257.81 835 1242.2 819.3 1242.2 799.932L1242.2 697.068C1242.2 677.7 1257.81 662 1277.07 662L1300.32 662C1319.58 662 1335.2 677.7 1335.2 697.068L1335.2 799.932Z" fill="#E3E8ED"/>
<path d="M1233.2 799.932C1233.2 819.3 1217.34 835 1197.78 835L1183.61 835C1164.05 835 1148.2 819.3 1148.2 799.932L1148.2 697.068C1148.2 677.7 1164.05 662 1183.61 662L1197.78 662C1217.34 662 1233.2 677.7 1233.2 697.068L1233.2 799.932Z" fill="#E3E8ED"/>
<path d="M1139.2 799.932C1139.2 819.3 1123.58 835 1104.32 835L1081.07 835C1061.81 835 1046.2 819.3 1046.2 799.932L1046.2 662L1104.32 662C1123.58 662 1139.2 677.7 1139.2 697.068L1139.2 799.932Z" fill="#E3E8ED"/>
<path fill-rule="evenodd" clip-rule="evenodd" d="M1097.2 723H1139.2V730H1097.2V723Z" fill="#E9EDF1"/>
<path fill-rule="evenodd" clip-rule="evenodd" d="M1289.2 723L1289.2 767L1282.2 767L1282.2 723L1289.2 723Z" fill="#E9EDF1"/>
<path fill-rule="evenodd" clip-rule="evenodd" d="M1193.2 723L1193.2 767L1186.2 767L1186.2 723L1193.2 723Z" fill="#E9EDF1"/>
<path fill-rule="evenodd" clip-rule="evenodd" d="M1088.04 766.866L1045.8 748.5L1043 754.932L1085.24 773.298L1088.04 766.866Z" fill="#E9EDF1"/>
<path d="M1128.2 1023.93C1128.2 1043.3 1112.58 1059 1093.32 1059L1070.07 1059C1050.81 1059 1035.2 1043.3 1035.2 1023.93L1035.2 921.068C1035.2 901.7 1050.81 886 1070.07 886L1093.32 886C1112.58 886 1128.2 901.7 1128.2 921.068L1128.2 1023.93Z" fill="#E3E8ED"/>
<path d="M1026.2 1023.93C1026.2 1043.3 1010.34 1059 990.779 1059L976.612 1059C957.052 1059 941.195 1043.3 941.195 1023.93L941.195 921.068C941.195 901.7 957.052 886 976.612 886L990.779 886C1010.34 886 1026.2 901.7 1026.2 921.068L1026.2 1023.93Z" fill="#E3E8ED"/>
<path d="M932.195 1023.93C932.195 1043.3 916.581 1059 897.32 1059L874.07 1059C854.809 1059 839.195 1043.3 839.195 1023.93L839.195 886L897.32 886C916.581 886 932.195 901.7 932.195 921.068L932.195 1023.93Z" fill="#E3E8ED"/>
<path fill-rule="evenodd" clip-rule="evenodd" d="M890.195 947H932.195V954H890.195V947Z" fill="#E9EDF1"/>
<path fill-rule="evenodd" clip-rule="evenodd" d="M1082.2 947L1082.2 991L1075.2 991L1075.2 947L1082.2 947Z" fill="#E9EDF1"/>
<path fill-rule="evenodd" clip-rule="evenodd" d="M986.195 947L986.195 991L979.195 991L979.195 947L986.195 947Z" fill="#E9EDF1"/>
<path fill-rule="evenodd" clip-rule="evenodd" d="M881.039 990.866L838.796 972.5L836 978.932L878.242 997.298L881.039 990.866Z" fill="#E9EDF1"/>
<path d="M1438.2 575.932C1438.2 595.3 1422.34 611 1402.78 611L1388.61 611C1369.05 611 1353.2 595.3 1353.2 575.932L1353.2 473.068C1353.2 453.7 1369.05 438 1388.61 438L1402.78 438C1422.34 438 1438.2 453.7 1438.2 473.068L1438.2 575.932Z" fill="#E3E8ED"/>
<path d="M1344.2 575.932C1344.2 595.3 1328.58 611 1309.32 611L1286.07 611C1266.81 611 1251.2 595.3 1251.2 575.932L1251.2 438L1309.32 438C1328.58 438 1344.2 453.7 1344.2 473.068L1344.2 575.932Z" fill="#E3E8ED"/>
<path fill-rule="evenodd" clip-rule="evenodd" d="M1302.2 499H1344.2V506H1302.2V499Z" fill="#E9EDF1"/>
<path fill-rule="evenodd" clip-rule="evenodd" d="M1398.2 499L1398.2 543L1391.2 543L1391.2 499L1398.2 499Z" fill="#E9EDF1"/>
<path fill-rule="evenodd" clip-rule="evenodd" d="M1293.04 542.866L1250.8 524.5L1248 530.932L1290.24 549.298L1293.04 542.866Z" fill="#E9EDF1"/>
<path d="M1438.2 1023.93C1438.2 1043.3 1422.34 1059 1402.78 1059L1388.61 1059C1369.05 1059 1353.2 1043.3 1353.2 1023.93L1353.2 921.068C1353.2 901.7 1369.05 886 1388.61 886L1402.78 886C1422.34 886 1438.2 901.7 1438.2 921.068L1438.2 1023.93Z" fill="#E3E8ED"/>
<path d="M1344.2 1023.93C1344.2 1043.3 1328.58 1059 1309.32 1059L1286.07 1059C1266.81 1059 1251.2 1043.3 1251.2 1023.93L1251.2 886L1309.32 886C1328.58 886 1344.2 901.7 1344.2 921.068L1344.2 1023.93Z" fill="#E3E8ED"/>
<path fill-rule="evenodd" clip-rule="evenodd" d="M1302.2 947H1344.2V954H1302.2V947Z" fill="#E9EDF1"/>
<path fill-rule="evenodd" clip-rule="evenodd" d="M1398.2 947L1398.2 991L1391.2 991L1391.2 947L1398.2 947Z" fill="#E9EDF1"/>
<path fill-rule="evenodd" clip-rule="evenodd" d="M1293.04 990.866L1250.8 972.5L1248 978.932L1290.24 997.298L1293.04 990.866Z" fill="#E9EDF1"/>
<path d="M687.188 558.312C685.802 558.312 684.519 558.069 683.34 557.584C682.179 557.099 681.156 556.423 680.272 555.556C679.388 554.689 678.704 553.684 678.218 552.54C677.733 551.379 677.49 550.131 677.49 548.796C677.49 547.444 677.733 546.196 678.218 545.052C678.704 543.908 679.38 542.911 680.246 542.062C681.113 541.195 682.127 540.528 683.288 540.06C684.467 539.575 685.75 539.332 687.136 539.332C688.506 539.332 689.771 539.575 690.932 540.06C692.111 540.528 693.134 541.195 694 542.062C694.884 542.911 695.569 543.917 696.054 545.078C696.54 546.222 696.782 547.47 696.782 548.822C696.782 550.157 696.54 551.405 696.054 552.566C695.569 553.71 694.893 554.715 694.026 555.582C693.16 556.431 692.137 557.099 690.958 557.584C689.797 558.069 688.54 558.312 687.188 558.312ZM687.136 554.594C688.228 554.594 689.182 554.351 689.996 553.866C690.828 553.381 691.47 552.705 691.92 551.838C692.371 550.954 692.596 549.94 692.596 548.796C692.596 547.929 692.466 547.149 692.206 546.456C691.946 545.745 691.574 545.139 691.088 544.636C690.603 544.116 690.022 543.726 689.346 543.466C688.688 543.189 687.951 543.05 687.136 543.05C686.044 543.05 685.082 543.293 684.25 543.778C683.436 544.246 682.803 544.913 682.352 545.78C681.902 546.629 681.676 547.635 681.676 548.796C681.676 549.663 681.806 550.451 682.066 551.162C682.326 551.873 682.69 552.488 683.158 553.008C683.644 553.511 684.224 553.901 684.9 554.178C685.576 554.455 686.322 554.594 687.136 554.594ZM705.093 558.286C703.793 558.286 702.615 558 701.557 557.428C700.517 556.839 699.694 556.041 699.087 555.036C698.481 554.031 698.177 552.904 698.177 551.656C698.177 550.408 698.481 549.29 699.087 548.302C699.694 547.314 700.517 546.534 701.557 545.962C702.597 545.373 703.776 545.078 705.093 545.078C706.411 545.078 707.589 545.364 708.629 545.936C709.669 546.508 710.493 547.297 711.099 548.302C711.706 549.29 712.009 550.408 712.009 551.656C712.009 552.904 711.706 554.031 711.099 555.036C710.493 556.041 709.669 556.839 708.629 557.428C707.589 558 706.411 558.286 705.093 558.286ZM705.093 554.672C705.665 554.672 706.168 554.551 706.601 554.308C707.035 554.048 707.364 553.693 707.589 553.242C707.832 552.774 707.953 552.245 707.953 551.656C707.953 551.067 707.832 550.555 707.589 550.122C707.347 549.671 707.009 549.325 706.575 549.082C706.159 548.822 705.665 548.692 705.093 548.692C704.539 548.692 704.045 548.822 703.611 549.082C703.178 549.325 702.84 549.671 702.597 550.122C702.355 550.573 702.233 551.093 702.233 551.682C702.233 552.254 702.355 552.774 702.597 553.242C702.84 553.693 703.178 554.048 703.611 554.308C704.045 554.551 704.539 554.672 705.093 554.672ZM721.27 558.26C720.421 558.26 719.641 558.095 718.93 557.766C718.219 557.437 717.639 556.986 717.188 556.414C716.737 555.825 716.477 555.157 716.408 554.412V549.082C716.477 548.337 716.737 547.661 717.188 547.054C717.639 546.447 718.219 545.971 718.93 545.624C719.641 545.277 720.421 545.104 721.27 545.104C722.466 545.104 723.523 545.39 724.442 545.962C725.378 546.534 726.106 547.314 726.626 548.302C727.163 549.29 727.432 550.417 727.432 551.682C727.432 552.947 727.163 554.074 726.626 555.062C726.106 556.05 725.378 556.83 724.442 557.402C723.523 557.974 722.466 558.26 721.27 558.26ZM720.542 554.672C721.114 554.672 721.608 554.542 722.024 554.282C722.457 554.022 722.795 553.667 723.038 553.216C723.281 552.765 723.402 552.254 723.402 551.682C723.402 551.093 723.281 550.573 723.038 550.122C722.795 549.671 722.457 549.325 722.024 549.082C721.608 548.822 721.123 548.692 720.568 548.692C720.013 548.692 719.519 548.822 719.086 549.082C718.67 549.325 718.341 549.671 718.098 550.122C717.855 550.573 717.734 551.093 717.734 551.682C717.734 552.254 717.847 552.765 718.072 553.216C718.315 553.667 718.653 554.022 719.086 554.282C719.519 554.542 720.005 554.672 720.542 554.672ZM713.99 563.33V545.364H717.968V548.614L717.318 551.682L717.916 554.75V563.33H713.99ZM734.055 558.312C733.309 558.312 732.573 558.217 731.845 558.026C731.134 557.835 730.467 557.567 729.843 557.22C729.236 556.856 728.716 556.44 728.283 555.972L730.545 553.684C730.961 554.135 731.455 554.49 732.027 554.75C732.599 554.993 733.223 555.114 733.899 555.114C734.367 555.114 734.722 555.045 734.965 554.906C735.225 554.767 735.355 554.577 735.355 554.334C735.355 554.022 735.199 553.788 734.887 553.632C734.592 553.459 734.211 553.311 733.743 553.19C733.275 553.051 732.781 552.904 732.261 552.748C731.741 552.592 731.247 552.375 730.779 552.098C730.311 551.821 729.929 551.439 729.635 550.954C729.34 550.451 729.193 549.819 729.193 549.056C729.193 548.241 729.401 547.539 729.817 546.95C730.233 546.343 730.822 545.867 731.585 545.52C732.347 545.173 733.24 545 734.263 545C735.337 545 736.325 545.191 737.227 545.572C738.145 545.936 738.891 546.482 739.463 547.21L737.201 549.498C736.802 549.03 736.351 548.701 735.849 548.51C735.363 548.319 734.887 548.224 734.419 548.224C733.968 548.224 733.63 548.293 733.405 548.432C733.179 548.553 733.067 548.735 733.067 548.978C733.067 549.238 733.214 549.446 733.509 549.602C733.803 549.758 734.185 549.897 734.653 550.018C735.121 550.139 735.615 550.287 736.135 550.46C736.655 550.633 737.149 550.867 737.617 551.162C738.085 551.457 738.466 551.855 738.761 552.358C739.055 552.843 739.203 553.485 739.203 554.282C739.203 555.513 738.735 556.492 737.799 557.22C736.88 557.948 735.632 558.312 734.055 558.312ZM743.857 558.286C743.181 558.286 742.618 558.052 742.167 557.584C741.716 557.116 741.491 556.553 741.491 555.894C741.491 555.201 741.716 554.629 742.167 554.178C742.618 553.71 743.181 553.476 743.857 553.476C744.55 553.476 745.114 553.71 745.547 554.178C745.998 554.629 746.223 555.201 746.223 555.894C746.223 556.553 745.998 557.116 745.547 557.584C745.114 558.052 744.55 558.286 743.857 558.286ZM751.652 558.286C750.976 558.286 750.413 558.052 749.962 557.584C749.511 557.116 749.286 556.553 749.286 555.894C749.286 555.201 749.511 554.629 749.962 554.178C750.413 553.71 750.976 553.476 751.652 553.476C752.345 553.476 752.909 553.71 753.342 554.178C753.793 554.629 754.018 555.201 754.018 555.894C754.018 556.553 753.793 557.116 753.342 557.584C752.909 558.052 752.345 558.286 751.652 558.286ZM759.447 558.286C758.771 558.286 758.208 558.052 757.757 557.584C757.306 557.116 757.081 556.553 757.081 555.894C757.081 555.201 757.306 554.629 757.757 554.178C758.208 553.71 758.771 553.476 759.447 553.476C760.14 553.476 760.704 553.71 761.137 554.178C761.588 554.629 761.813 555.201 761.813 555.894C761.813 556.553 761.588 557.116 761.137 557.584C760.704 558.052 760.14 558.286 759.447 558.286Z" fill="black"/>
<path fill-rule="evenodd" clip-rule="evenodd" d="M681 521H702H706H733H738H758C766.284 521 773 514.284 773 506L773 462C773 453.716 766.284 447 758 447L733 447L706 447L666 447L666 506C666 514.284 672.716 521 681 521Z" fill="black"/>
<path fill-rule="evenodd" clip-rule="evenodd" d="M662 443L758 443C768.493 443 777 451.507 777 462L777 506C777 516.493 768.493 525 758 525H681C670.507 525 662 516.493 662 506L662 443ZM758 447C766.284 447 773 453.716 773 462L773 506C773 514.284 766.284 521 758 521H681C672.716 521 666 514.284 666 506L666 447L758 447Z" fill="black"/>
<rect x="773" y="521" width="40" height="74" rx="15" transform="rotate(-180 773 521)" fill="#EBDB27"/>
<rect x="738" y="521" width="36" height="74" rx="15" transform="rotate(-180 738 521)" fill="#E9EDF1"/>
<path d="M706 506C706 514.284 699.284 521 691 521L681 521C672.716 521 666 514.284 666 506L666 447L691 447C699.284 447 706 453.716 706 462L706 506Z" fill="#EA2A36"/>
<line x1="706.068" y1="473.425" x2="687.999" y2="473.425" stroke="black"/>
<line x1="752.5" y1="492" x2="752.5" y2="473" stroke="black"/>
<line x1="720.5" y1="492" x2="720.5" y2="473" stroke="black"/>
<line y1="-0.5" x2="19.7029" y2="-0.5" transform="matrix(0.91707 0.398726 0.398726 -0.91707 666 484)" stroke="black"/>
</g>
<defs>
<clipPath id="clip0_1391_169">
<rect width="1440" height="1024" fill="white"/>
</clipPath>
</defs>
</svg>
