<svg width="390" height="844" viewBox="0 0 390 844" fill="none" xmlns="http://www.w3.org/2000/svg">
<g clip-path="url(#clip0_1391_116)">
<rect width="390" height="844" fill="white"/>
<rect width="390" height="844" transform="matrix(1 0 0 -1 0 844)" fill="#E9EDF1"/>
<path d="M338.195 37.9324C338.195 57.2997 322.581 73 303.32 73L280.07 73C260.809 73 245.195 57.2997 245.195 37.9324L245.195 -64.9324C245.195 -84.2997 260.809 -100 280.07 -100L303.32 -100C322.581 -100 338.195 -84.2997 338.195 -64.9324L338.195 37.9324Z" fill="#E3E8ED"/>
<path d="M236.195 37.9324C236.195 57.2997 220.339 73 200.779 73L186.612 73C167.052 73 151.195 57.2997 151.195 37.9324L151.195 -64.9324C151.195 -84.2997 167.052 -100 186.612 -100L200.779 -100C220.339 -100 236.195 -84.2997 236.195 -64.9324L236.195 37.9324Z" fill="#E3E8ED"/>
<path d="M142.195 37.9324C142.195 57.2997 126.581 73 107.32 73L84.0703 73C64.8094 73 49.1953 57.2997 49.1953 37.9324L49.1953 -100L107.32 -100C126.581 -100 142.195 -84.2997 142.195 -64.9324L142.195 37.9324Z" fill="#E3E8ED"/>
<path fill-rule="evenodd" clip-rule="evenodd" d="M292.195 -39L292.195 5L285.195 5L285.195 -39L292.195 -39Z" fill="#E9EDF1"/>
<path fill-rule="evenodd" clip-rule="evenodd" d="M196.195 -39L196.195 5L189.195 5L189.195 -39L196.195 -39Z" fill="#E9EDF1"/>
<path fill-rule="evenodd" clip-rule="evenodd" d="M91.0387 4.86619L48.7965 -13.5L46 -7.06812L88.2422 11.2981L91.0387 4.86619Z" fill="#E9EDF1"/>
<path d="M133.195 261.932C133.195 281.3 117.581 297 98.3203 297L75.0703 297C55.8094 297 40.1953 281.3 40.1953 261.932L40.1953 159.068C40.1953 139.7 55.8094 124 75.0703 124L98.3203 124C117.581 124 133.195 139.7 133.195 159.068L133.195 261.932Z" fill="#E3E8ED"/>
<path d="M31.1953 261.932C31.1953 281.3 15.3387 297 -4.22136 297L-18.388 297C-37.9481 297 -53.8047 281.3 -53.8047 261.932L-53.8047 159.068C-53.8047 139.7 -37.9481 124 -18.388 124L-4.22134 124C15.3387 124 31.1953 139.7 31.1953 159.068L31.1953 261.932Z" fill="#E3E8ED"/>
<path fill-rule="evenodd" clip-rule="evenodd" d="M87.1953 185L87.1953 229L80.1953 229L80.1953 185L87.1953 185Z" fill="#E9EDF1"/>
<path d="M133.195 709.932C133.195 729.3 117.581 745 98.3203 745L75.0703 745C55.8094 745 40.1953 729.3 40.1953 709.932L40.1953 607.068C40.1953 587.7 55.8094 572 75.0703 572L98.3203 572C117.581 572 133.195 587.7 133.195 607.068L133.195 709.932Z" fill="#E3E8ED"/>
<path d="M31.1953 709.932C31.1953 729.3 15.3387 745 -4.22136 745L-18.388 745C-37.9481 745 -53.8047 729.3 -53.8047 709.932L-53.8047 607.068C-53.8047 587.7 -37.9481 572 -18.388 572L-4.22134 572C15.3387 572 31.1953 587.7 31.1953 607.068L31.1953 709.932Z" fill="#E3E8ED"/>
<path fill-rule="evenodd" clip-rule="evenodd" d="M87.1953 633L87.1953 677L80.1953 677L80.1953 633L87.1953 633Z" fill="#E9EDF1"/>
<path d="M443.195 261.932C443.195 281.3 427.339 297 407.779 297L393.612 297C374.052 297 358.195 281.3 358.195 261.932L358.195 159.068C358.195 139.7 374.052 124 393.612 124L407.779 124C427.339 124 443.195 139.7 443.195 159.068L443.195 261.932Z" fill="#E3E8ED"/>
<path d="M349.195 261.932C349.195 281.3 333.581 297 314.32 297L291.07 297C271.809 297 256.195 281.3 256.195 261.932L256.195 124L314.32 124C333.581 124 349.195 139.7 349.195 159.068L349.195 261.932Z" fill="#E3E8ED"/>
<path fill-rule="evenodd" clip-rule="evenodd" d="M307.195 185H349.195V192H307.195V185Z" fill="#E9EDF1"/>
<path fill-rule="evenodd" clip-rule="evenodd" d="M298.039 228.866L255.796 210.5L253 216.932L295.242 235.298L298.039 228.866Z" fill="#E9EDF1"/>
<path d="M338.195 485.932C338.195 505.3 322.581 521 303.32 521L280.07 521C260.809 521 245.195 505.3 245.195 485.932L245.195 383.068C245.195 363.7 260.809 348 280.07 348L303.32 348C322.581 348 338.195 363.7 338.195 383.068L338.195 485.932Z" fill="#E3E8ED"/>
<path d="M236.195 485.932C236.195 505.3 220.339 521 200.779 521L186.612 521C167.052 521 151.195 505.3 151.195 485.932L151.195 383.068C151.195 363.7 167.052 348 186.612 348L200.779 348C220.339 348 236.195 363.7 236.195 383.068L236.195 485.932Z" fill="#E3E8ED"/>
<path d="M142.195 485.932C142.195 505.3 126.581 521 107.32 521L84.0703 521C64.8094 521 49.1953 505.3 49.1953 485.932L49.1953 348L107.32 348C126.581 348 142.195 363.7 142.195 383.068L142.195 485.932Z" fill="#E3E8ED"/>
<path fill-rule="evenodd" clip-rule="evenodd" d="M100.195 409H142.195V416H100.195V409Z" fill="#E9EDF1"/>
<path fill-rule="evenodd" clip-rule="evenodd" d="M292.195 409L292.195 453L285.195 453L285.195 409L292.195 409Z" fill="#E9EDF1"/>
<path fill-rule="evenodd" clip-rule="evenodd" d="M196.195 409L196.195 453L189.195 453L189.195 409L196.195 409Z" fill="#E9EDF1"/>
<path fill-rule="evenodd" clip-rule="evenodd" d="M91.0387 452.866L48.7965 434.5L46 440.932L88.2422 459.298L91.0387 452.866Z" fill="#E9EDF1"/>
<path d="M443.195 709.932C443.195 729.3 427.339 745 407.779 745L393.612 745C374.052 745 358.195 729.3 358.195 709.932L358.195 607.068C358.195 587.7 374.052 572 393.612 572L407.779 572C427.339 572 443.195 587.7 443.195 607.068L443.195 709.932Z" fill="#E3E8ED"/>
<path d="M349.195 709.932C349.195 729.3 333.581 745 314.32 745L291.07 745C271.809 745 256.195 729.3 256.195 709.932L256.195 572L314.32 572C333.581 572 349.195 587.7 349.195 607.068L349.195 709.932Z" fill="#E3E8ED"/>
<path fill-rule="evenodd" clip-rule="evenodd" d="M307.195 633H349.195V640H307.195V633Z" fill="#E9EDF1"/>
<path fill-rule="evenodd" clip-rule="evenodd" d="M298.039 676.866L255.796 658.5L253 664.932L295.242 683.298L298.039 676.866Z" fill="#E9EDF1"/>
<path d="M338.195 933.932C338.195 953.3 322.581 969 303.32 969L280.07 969C260.809 969 245.195 953.3 245.195 933.932L245.195 831.068C245.195 811.7 260.809 796 280.07 796L303.32 796C322.581 796 338.195 811.7 338.195 831.068L338.195 933.932Z" fill="#E3E8ED"/>
<path d="M236.195 933.932C236.195 953.3 220.339 969 200.779 969L186.612 969C167.052 969 151.195 953.3 151.195 933.932L151.195 831.068C151.195 811.7 167.052 796 186.612 796L200.779 796C220.339 796 236.195 811.7 236.195 831.068L236.195 933.932Z" fill="#E3E8ED"/>
<path d="M142.195 933.932C142.195 953.3 126.581 969 107.32 969L84.0703 969C64.8094 969 49.1953 953.3 49.1953 933.932L49.1953 796L107.32 796C126.581 796 142.195 811.7 142.195 831.068L142.195 933.932Z" fill="#E3E8ED"/>
<path fill-rule="evenodd" clip-rule="evenodd" d="M152 418H173H177H204H209H229C237.284 418 244 411.284 244 403L244 359C244 350.716 237.284 344 229 344L204 344L177 344L137 344L137 403C137 411.284 143.716 418 152 418Z" fill="black"/>
<path fill-rule="evenodd" clip-rule="evenodd" d="M133 340L229 340C239.493 340 248 348.507 248 359L248 403C248 413.493 239.493 422 229 422H152C141.507 422 133 413.493 133 403L133 340ZM229 344C237.284 344 244 350.716 244 359L244 403C244 411.284 237.284 418 229 418H152C143.716 418 137 411.284 137 403L137 344L229 344Z" fill="black"/>
<rect x="244" y="418" width="40" height="74" rx="15" transform="rotate(-180 244 418)" fill="#EBDB27"/>
<rect x="209" y="418" width="36" height="74" rx="15" transform="rotate(-180 209 418)" fill="#E9EDF1"/>
<path d="M177 403C177 411.284 170.284 418 162 418L152 418C143.716 418 137 411.284 137 403L137 344L162 344C170.284 344 177 350.716 177 359L177 403Z" fill="#EA2A36"/>
<line x1="177.068" y1="370.425" x2="158.999" y2="370.425" stroke="black"/>
<line x1="223.5" y1="389" x2="223.5" y2="370" stroke="black"/>
<line x1="191.5" y1="389" x2="191.5" y2="370" stroke="black"/>
<line y1="-0.5" x2="19.7029" y2="-0.5" transform="matrix(0.91707 0.398726 0.398726 -0.91707 137 381)" stroke="black"/>
<path d="M165.188 461.312C163.802 461.312 162.519 461.069 161.34 460.584C160.179 460.099 159.156 459.423 158.272 458.556C157.388 457.689 156.704 456.684 156.218 455.54C155.733 454.379 155.49 453.131 155.49 451.796C155.49 450.444 155.733 449.196 156.218 448.052C156.704 446.908 157.38 445.911 158.246 445.062C159.113 444.195 160.127 443.528 161.288 443.06C162.467 442.575 163.75 442.332 165.136 442.332C166.506 442.332 167.771 442.575 168.932 443.06C170.111 443.528 171.134 444.195 172 445.062C172.884 445.911 173.569 446.917 174.054 448.078C174.54 449.222 174.782 450.47 174.782 451.822C174.782 453.157 174.54 454.405 174.054 455.566C173.569 456.71 172.893 457.715 172.026 458.582C171.16 459.431 170.137 460.099 168.958 460.584C167.797 461.069 166.54 461.312 165.188 461.312ZM165.136 457.594C166.228 457.594 167.182 457.351 167.996 456.866C168.828 456.381 169.47 455.705 169.92 454.838C170.371 453.954 170.596 452.94 170.596 451.796C170.596 450.929 170.466 450.149 170.206 449.456C169.946 448.745 169.574 448.139 169.088 447.636C168.603 447.116 168.022 446.726 167.346 446.466C166.688 446.189 165.951 446.05 165.136 446.05C164.044 446.05 163.082 446.293 162.25 446.778C161.436 447.246 160.803 447.913 160.352 448.78C159.902 449.629 159.676 450.635 159.676 451.796C159.676 452.663 159.806 453.451 160.066 454.162C160.326 454.873 160.69 455.488 161.158 456.008C161.644 456.511 162.224 456.901 162.9 457.178C163.576 457.455 164.322 457.594 165.136 457.594ZM183.093 461.286C181.793 461.286 180.615 461 179.557 460.428C178.517 459.839 177.694 459.041 177.087 458.036C176.481 457.031 176.177 455.904 176.177 454.656C176.177 453.408 176.481 452.29 177.087 451.302C177.694 450.314 178.517 449.534 179.557 448.962C180.597 448.373 181.776 448.078 183.093 448.078C184.411 448.078 185.589 448.364 186.629 448.936C187.669 449.508 188.493 450.297 189.099 451.302C189.706 452.29 190.009 453.408 190.009 454.656C190.009 455.904 189.706 457.031 189.099 458.036C188.493 459.041 187.669 459.839 186.629 460.428C185.589 461 184.411 461.286 183.093 461.286ZM183.093 457.672C183.665 457.672 184.168 457.551 184.601 457.308C185.035 457.048 185.364 456.693 185.589 456.242C185.832 455.774 185.953 455.245 185.953 454.656C185.953 454.067 185.832 453.555 185.589 453.122C185.347 452.671 185.009 452.325 184.575 452.082C184.159 451.822 183.665 451.692 183.093 451.692C182.539 451.692 182.045 451.822 181.611 452.082C181.178 452.325 180.84 452.671 180.597 453.122C180.355 453.573 180.233 454.093 180.233 454.682C180.233 455.254 180.355 455.774 180.597 456.242C180.84 456.693 181.178 457.048 181.611 457.308C182.045 457.551 182.539 457.672 183.093 457.672ZM199.27 461.26C198.421 461.26 197.641 461.095 196.93 460.766C196.219 460.437 195.639 459.986 195.188 459.414C194.737 458.825 194.477 458.157 194.408 457.412V452.082C194.477 451.337 194.737 450.661 195.188 450.054C195.639 449.447 196.219 448.971 196.93 448.624C197.641 448.277 198.421 448.104 199.27 448.104C200.466 448.104 201.523 448.39 202.442 448.962C203.378 449.534 204.106 450.314 204.626 451.302C205.163 452.29 205.432 453.417 205.432 454.682C205.432 455.947 205.163 457.074 204.626 458.062C204.106 459.05 203.378 459.83 202.442 460.402C201.523 460.974 200.466 461.26 199.27 461.26ZM198.542 457.672C199.114 457.672 199.608 457.542 200.024 457.282C200.457 457.022 200.795 456.667 201.038 456.216C201.281 455.765 201.402 455.254 201.402 454.682C201.402 454.093 201.281 453.573 201.038 453.122C200.795 452.671 200.457 452.325 200.024 452.082C199.608 451.822 199.123 451.692 198.568 451.692C198.013 451.692 197.519 451.822 197.086 452.082C196.67 452.325 196.341 452.671 196.098 453.122C195.855 453.573 195.734 454.093 195.734 454.682C195.734 455.254 195.847 455.765 196.072 456.216C196.315 456.667 196.653 457.022 197.086 457.282C197.519 457.542 198.005 457.672 198.542 457.672ZM191.99 466.33V448.364H195.968V451.614L195.318 454.682L195.916 457.75V466.33H191.99ZM212.055 461.312C211.309 461.312 210.573 461.217 209.845 461.026C209.134 460.835 208.467 460.567 207.843 460.22C207.236 459.856 206.716 459.44 206.283 458.972L208.545 456.684C208.961 457.135 209.455 457.49 210.027 457.75C210.599 457.993 211.223 458.114 211.899 458.114C212.367 458.114 212.722 458.045 212.965 457.906C213.225 457.767 213.355 457.577 213.355 457.334C213.355 457.022 213.199 456.788 212.887 456.632C212.592 456.459 212.211 456.311 211.743 456.19C211.275 456.051 210.781 455.904 210.261 455.748C209.741 455.592 209.247 455.375 208.779 455.098C208.311 454.821 207.929 454.439 207.635 453.954C207.34 453.451 207.193 452.819 207.193 452.056C207.193 451.241 207.401 450.539 207.817 449.95C208.233 449.343 208.822 448.867 209.585 448.52C210.347 448.173 211.24 448 212.263 448C213.337 448 214.325 448.191 215.227 448.572C216.145 448.936 216.891 449.482 217.463 450.21L215.201 452.498C214.802 452.03 214.351 451.701 213.849 451.51C213.363 451.319 212.887 451.224 212.419 451.224C211.968 451.224 211.63 451.293 211.405 451.432C211.179 451.553 211.067 451.735 211.067 451.978C211.067 452.238 211.214 452.446 211.509 452.602C211.803 452.758 212.185 452.897 212.653 453.018C213.121 453.139 213.615 453.287 214.135 453.46C214.655 453.633 215.149 453.867 215.617 454.162C216.085 454.457 216.466 454.855 216.761 455.358C217.055 455.843 217.203 456.485 217.203 457.282C217.203 458.513 216.735 459.492 215.799 460.22C214.88 460.948 213.632 461.312 212.055 461.312ZM221.857 461.286C221.181 461.286 220.618 461.052 220.167 460.584C219.716 460.116 219.491 459.553 219.491 458.894C219.491 458.201 219.716 457.629 220.167 457.178C220.618 456.71 221.181 456.476 221.857 456.476C222.55 456.476 223.114 456.71 223.547 457.178C223.998 457.629 224.223 458.201 224.223 458.894C224.223 459.553 223.998 460.116 223.547 460.584C223.114 461.052 222.55 461.286 221.857 461.286ZM229.652 461.286C228.976 461.286 228.413 461.052 227.962 460.584C227.511 460.116 227.286 459.553 227.286 458.894C227.286 458.201 227.511 457.629 227.962 457.178C228.413 456.71 228.976 456.476 229.652 456.476C230.345 456.476 230.909 456.71 231.342 457.178C231.793 457.629 232.018 458.201 232.018 458.894C232.018 459.553 231.793 460.116 231.342 460.584C230.909 461.052 230.345 461.286 229.652 461.286ZM237.447 461.286C236.771 461.286 236.208 461.052 235.757 460.584C235.306 460.116 235.081 459.553 235.081 458.894C235.081 458.201 235.306 457.629 235.757 457.178C236.208 456.71 236.771 456.476 237.447 456.476C238.14 456.476 238.704 456.71 239.137 457.178C239.588 457.629 239.813 458.201 239.813 458.894C239.813 459.553 239.588 460.116 239.137 460.584C238.704 461.052 238.14 461.286 237.447 461.286Z" fill="black"/>
</g>
<defs>
<clipPath id="clip0_1391_116">
<rect width="390" height="844" fill="white"/>
</clipPath>
</defs>
</svg>
