<svg fill="none" height="48" viewBox="0 0 48 48" width="48" xmlns="http://www.w3.org/2000/svg"><path d="m36.6362 29.3372c-.6895 1.6343-1.68 3.1009-2.9372 4.3581-1.2571 1.2571-2.7238 2.2476-4.3581 2.9371-1.6952.72-3.4895 1.0819-5.3409 1.0819s-3.6457-.3619-5.3372-1.0781c-1.6342-.6895-3.1009-1.68-4.358-2.9371-1.2572-1.2571-2.2477-2.7238-2.9372-4.3581-.72-1.6952-1.0819-3.4895-1.0819-5.3409 0-1.8515.3619-3.6458 1.0781-5.3372.6895-1.6343 1.68-3.1009 2.9371-4.3581 1.2572-1.2571 2.7239-2.2476 4.3581-2.9371 1.6953-.72 3.4896-1.0819 5.341-1.0819s3.6457.3619 5.3371 1.0781c1.6343.6895 3.101 1.68 4.3581 2.9371 1.2572 1.2571 2.2476 2.7238 2.9372 4.3581.72 1.6952 1.0819 3.4895 1.0819 5.341 0 1.8514-.3619 3.6457-1.0781 5.3371z" fill="#011ea0"/><path d="m38.739 17.7714c-.8076-1.9047-1.958-3.6152-3.4285-5.0857-1.4667-1.4667-3.1772-2.6209-5.0857-3.42856-1.9696-.83428-4.0686-1.25714-6.2248-1.25714s-4.2552.42286-6.2286 1.26095c-1.9047.80765-3.6152 1.95805-5.0857 3.42855s-2.6209 3.1772-3.42856 5.0857c-.83428 1.9696-1.25714 4.0686-1.25714 6.2248s.42286 4.2552 1.26095 6.2286c.80765 1.9047 1.95805 3.6152 3.42855 5.0857 1.4667 1.4667 3.1772 2.6209 5.0857 3.4286 1.9696.8342 4.0686 1.2571 6.2248 1.2571s4.2552-.4229 6.2286-1.261c1.9047-.8076 3.6152-1.958 5.0857-3.4285s2.6209-3.1772 3.4286-5.0857c.8342-1.9696 1.2571-4.0686 1.2571-6.2248s-.4229-4.2552-1.261-6.2286zm-2.1028 11.5657c-.6895 1.6343-1.68 3.101-2.9372 4.3581-1.2571 1.2572-2.7238 2.2477-4.358 2.9372-1.6953.72-3.4896 1.0819-5.341 1.0819s-3.6457-.3619-5.3371-1.0781c-1.6343-.6895-3.101-1.68-4.3581-2.9372-1.2572-1.2571-2.2477-2.7238-2.9372-4.358-.72-1.6953-1.0819-3.4896-1.0819-5.341s.3619-3.6457 1.0781-5.3371c.6895-1.6343 1.68-3.101 2.9372-4.3581 1.2571-1.2572 2.7238-2.2477 4.358-2.9372 1.6953-.72 3.4896-1.0819 5.341-1.0819s3.6457.3619 5.3371 1.0781c1.6343.6895 3.101 1.68 4.3581 2.9372 1.2572 1.2571 2.2477 2.7238 2.9372 4.358.72 1.6953 1.0819 3.4896 1.0819 5.341s-.3619 3.6457-1.0781 5.3371z" fill="#000"/><g fill="#fff"><path d="m32.5791 16.4496-1.0819 2.3162c1.0362 1.4857 1.6457 3.2876 1.6457 5.2343 0 1.6304-.4267 3.1581-1.1733 4.4838l.2971 3.4095c1.9581-2.0495 3.1619-4.8305 3.1619-7.8895 0-2.8991-1.0743-5.5391-2.8495-7.5543z"/><path d="m25.1581 33.0705v-.8-1.4172-1.2305-.4076-5.0019-5.0362-4.2476c.96.1219 1.8743.3924 2.7162.7886l.9676-2.0724c-1.4705-.6895-3.1124-1.0743-4.8419-1.0743s-3.3714.3848-4.8419 1.0743l.9676 2.0724c.8533-.4 1.779-.6705 2.7505-.7924v4.2514 5.1315 4.8038.6057 1.1543 1.3981.8038c-.9067-.1105-1.7753-.3581-2.5791-.7124l-.2095 2.3809c1.2191.4419 2.5371.6858 3.9124.6858 1.379 0 2.7047-.2439 3.9276-.6934l-.2095-2.3809c-.7962.3581-1.6572.6019-2.56.7162z"/><path d="m15.421 16.4496c-1.7752 2.0152-2.8495 4.6552-2.8495 7.5505 0 3.0666 1.2076 5.8514 3.1733 7.9009l.2971-3.4019c-.7542-1.3257-1.1847-2.8609-1.1847-4.499 0-1.9467.6095-3.7486 1.6457-5.2305z"/><path d="m30.6743 26.8496-.6362-7.2876-.0305-.3429.6781-1.4552 1.0248-2.1981c-.5752-.5257-1.2-.9905-1.8743-1.3905l-.9714 2.0838-1.0553 2.2667-1.5009 3.2228v5.4095l1.7676-3.7904.3238 3.6838.4114 4.7276.2172 2.4876c.7771-.3809 1.5048-.8495 2.1714-1.3905l-.2552-2.9295z"/><path d="m21.7372 21.8743-1.6534-3.5467-.96-2.0609-.9714-2.0838c-.6705.4-1.299.8685-1.8705 1.3942l1.0248 2.202.6857 1.4666-.0038.0648-.6324 7.2228-.2971 3.4134-.2553 2.9295c.6667.5409 1.3943 1.0095 2.1715 1.3905l.2171-2.4915.4419-5.0476.2933-3.3409 1.8172 3.8971v-5.4095z"/></g></svg>