<svg width="152" height="80" viewBox="0 0 152 80" fill="none" xmlns="http://www.w3.org/2000/svg">
<path d="M145.375 44.8735L149.015 46.8975L149.015 47.7455L145.375 45.6815L145.375 44.8735ZM144.911 44.8735L145.375 44.8735L145.583 45.1935L145.583 49.1295L144.911 49.1295L144.911 44.8735ZM143.463 47.5855L147.135 47.5855L147.135 48.3295L143.463 48.3295L143.463 47.5855ZM143.919 49.5532L146.079 51.6012C146.293 51.8092 146.477 51.9719 146.631 52.0892C146.791 52.2065 146.938 52.2892 147.071 52.3372C147.205 52.3905 147.343 52.4172 147.487 52.4172C147.77 52.4172 147.991 52.3265 148.151 52.1452C148.311 51.9639 148.391 51.7292 148.391 51.4412C148.391 51.1585 148.322 50.9105 148.183 50.6972C148.05 50.4839 147.842 50.2945 147.559 50.1292L147.999 49.6012C148.362 49.8199 148.634 50.0839 148.815 50.3932C149.002 50.7025 149.095 51.0599 149.095 51.4652C149.095 51.8065 149.029 52.1025 148.895 52.3532C148.762 52.6092 148.575 52.8065 148.335 52.9452C148.095 53.0839 147.815 53.1532 147.495 53.1532C147.266 53.1532 147.061 53.1239 146.879 53.0652C146.698 53.0119 146.511 52.9132 146.319 52.7692C146.133 52.6305 145.909 52.4359 145.647 52.1852L143.943 50.5292L143.919 49.5532ZM143.463 49.5532L143.919 49.5532L144.135 50.1932L144.135 53.2812L143.463 53.2812L143.463 49.5532ZM143.383 55.8173C143.383 55.38 143.463 55.0066 143.623 54.6973C143.783 54.388 144.015 54.1133 144.319 53.8733L144.831 54.3853C144.586 54.5613 144.399 54.764 144.271 54.9933C144.149 55.2226 144.087 55.5053 144.087 55.8413C144.087 56.172 144.159 56.436 144.303 56.6333C144.447 56.836 144.645 56.9373 144.895 56.9373C145.103 56.9373 145.271 56.8893 145.399 56.7933C145.527 56.6973 145.631 56.5666 145.711 56.4013C145.797 56.2413 145.871 56.0653 145.935 55.8733C146.005 55.6813 146.077 55.4893 146.151 55.2973C146.231 55.1053 146.327 54.9293 146.439 54.7693C146.557 54.6093 146.709 54.4786 146.895 54.3773C147.082 54.2813 147.317 54.2333 147.599 54.2333C147.914 54.2333 148.181 54.308 148.399 54.4573C148.623 54.612 148.794 54.82 148.911 55.0813C149.034 55.348 149.095 55.6466 149.095 55.9773C149.095 56.34 149.023 56.6653 148.879 56.9533C148.741 57.2413 148.557 57.476 148.327 57.6573L147.815 57.1453C148.007 56.98 148.151 56.8013 148.247 56.6093C148.343 56.4226 148.391 56.2066 148.391 55.9613C148.391 55.6626 148.325 55.4253 148.191 55.2493C148.063 55.0733 147.882 54.9853 147.647 54.9853C147.461 54.9853 147.309 55.0333 147.191 55.1293C147.079 55.2306 146.983 55.3613 146.903 55.5213C146.823 55.6813 146.749 55.8573 146.679 56.0493C146.615 56.2466 146.543 56.4413 146.463 56.6333C146.383 56.8253 146.282 57.0013 146.159 57.1613C146.037 57.3213 145.877 57.4493 145.679 57.5453C145.487 57.6466 145.245 57.6973 144.951 57.6973C144.461 57.6973 144.077 57.5266 143.799 57.1853C143.522 56.8493 143.383 56.3933 143.383 55.8173ZM143.463 58.7108L149.015 58.7108L149.015 59.4628L143.463 59.4628L143.463 58.7108ZM143.463 59.2228L144.151 59.2228L144.151 62.4068L143.463 62.4068L143.463 59.2228ZM145.975 59.2228L146.631 59.2228L146.631 62.1428L145.975 62.1428L145.975 59.2228ZM148.327 59.2228L149.015 59.2228L149.015 62.3668L148.327 62.3668L148.327 59.2228ZM143.383 65.8404C143.383 65.4457 143.455 65.0777 143.599 64.7364C143.749 64.395 143.954 64.0964 144.215 63.8404C144.482 63.5844 144.789 63.3844 145.135 63.2404C145.482 63.1017 145.853 63.0324 146.247 63.0324C146.647 63.0324 147.018 63.1017 147.359 63.2404C147.706 63.3844 148.01 63.5817 148.271 63.8324C148.533 64.0884 148.735 64.3844 148.879 64.7204C149.023 65.0617 149.095 65.4297 149.095 65.8244C149.095 66.219 149.023 66.5844 148.879 66.9204C148.735 67.2617 148.533 67.5604 148.271 67.8164C148.01 68.0724 147.706 68.2724 147.359 68.4164C147.013 68.5604 146.639 68.6324 146.239 68.6324C145.845 68.6324 145.474 68.5604 145.127 68.4164C144.781 68.2724 144.477 68.0724 144.215 67.8164C143.954 67.5657 143.749 67.2697 143.599 66.9284C143.455 66.5924 143.383 66.2297 143.383 65.8404ZM144.103 65.8244C144.103 66.2244 144.194 66.5737 144.375 66.8724C144.562 67.1764 144.815 67.4164 145.135 67.5924C145.461 67.7684 145.831 67.8564 146.247 67.8564C146.557 67.8564 146.839 67.8057 147.095 67.7044C147.357 67.603 147.583 67.4617 147.775 67.2804C147.967 67.099 148.114 66.8857 148.215 66.6404C148.322 66.395 148.375 66.123 148.375 65.8244C148.375 65.4297 148.285 65.0804 148.103 64.7764C147.922 64.4777 147.671 64.2404 147.351 64.0644C147.031 63.8937 146.663 63.8084 146.247 63.8084C145.938 63.8084 145.65 63.8564 145.383 63.9524C145.122 64.0537 144.895 64.1924 144.703 64.3684C144.517 64.5497 144.37 64.763 144.263 65.0084C144.157 65.259 144.103 65.531 144.103 65.8244ZM143.383 71.7439C143.383 71.3333 143.474 70.9653 143.655 70.6399C143.842 70.3199 144.095 70.0666 144.415 69.8799C144.741 69.6933 145.109 69.5999 145.519 69.5999L149.015 69.5999L149.015 70.3519L145.535 70.3519C145.242 70.3519 144.989 70.4133 144.775 70.5359C144.562 70.6586 144.397 70.8239 144.279 71.0319C144.162 71.2453 144.103 71.4826 144.103 71.7439C144.103 72.0159 144.162 72.2533 144.279 72.4559C144.397 72.6639 144.562 72.8266 144.775 72.9439C144.989 73.0666 145.239 73.1279 145.527 73.1279L149.015 73.1279L149.015 73.8879L145.511 73.8879C145.101 73.8879 144.735 73.7946 144.415 73.6079C144.095 73.4213 143.842 73.1679 143.655 72.8479C143.474 72.5279 143.383 72.1599 143.383 71.7439ZM143.463 75.1249L149.015 75.1249L149.015 75.8769L143.463 75.8769L143.463 75.1249ZM143.463 75.6369L144.151 75.6369L144.151 78.6129L143.463 78.6129L143.463 75.6369Z" fill="black"/>
<path d="M141 79.7189V18C141 8.05887 132.941 0 123 0H58.0905V10.7224H10V79.7189H141Z" fill="black"/>
<rect x="13.2395" y="14.3135" width="16.4977" height="62.0628" fill="#527FD8"/>
<rect x="80.8022" y="3.31506" width="19.6401" height="73.0613" fill="#EA2A36"/>
<rect x="13.2395" y="48.0944" width="32.9954" height="28.2818" fill="#527FD8"/>
<path d="M36.0227 14.3135H77.6598L68.8632 76.3763H44.2328L36.0227 14.3135Z" fill="#EBDB27"/>
<path d="M61.1611 3.31506H80.8013V48.0946H76.1611C67.8769 48.0946 61.1611 41.3789 61.1611 33.0946V3.31506Z" fill="#EA2A36"/>
<path d="M138.151 76.3763L102.014 76.3763L102.014 3.31501L123.151 3.31502C131.436 3.31502 138.151 10.0307 138.151 18.315L138.151 76.3763Z" fill="#00C83B"/>
<line x1="80.3022" y1="29.24" x2="80.3022" y2="3.315" stroke="black"/>
<line x1="56.7332" y1="48.0944" x2="56.7332" y2="14.3134" stroke="black"/>
<line x1="120.082" y1="29.74" x2="102.013" y2="29.74" stroke="black"/>
<line x1="138.351" y1="40.6969" x2="120.282" y2="48.553" stroke="black"/>
</svg>
