<svg fill="none" height="48" viewBox="0 0 48 48" width="48" xmlns="http://www.w3.org/2000/svg"><path d="m24.0039 8c-8.8225 0-16.0039 7.1814-16.0039 16.0039s7.1814 16.0039 16.0039 16.0039 16.0039-7.1814 16.0039-16.0039c-.0078-8.8225-7.1814-16.0039-16.0039-16.0039z" fill="#00285e"/><path d="m38.3356 24.0039c0-7.916-6.4157-14.33166-14.3395-14.33166-7.916 0-14.33942 6.41566-14.33942 14.33166s6.42342 14.3394 14.33942 14.3394c7.9238-.0078 14.3395-6.4234 14.3395-14.3394z" fill="#fff"/><path d="m33.1312 24.0039c0-5.0403-4.087-9.1272-9.1273-9.1272s-9.1272 4.0869-9.1272 9.1272 4.0869 9.1273 9.1272 9.1273 9.1273-4.087 9.1273-9.1273z" fill="#6caddf"/><path d="m24.0039 33.85c-5.431 0-9.8461-4.4229-9.8461-9.8539 0-5.4311 4.4151-9.8462 9.8461-9.8462s9.854 4.4151 9.854 9.8462c-.0078 5.4388-4.423 9.8539-9.854 9.8539zm0-19.1453c-5.1262 0-9.2991 4.1729-9.2991 9.2992 0 5.1262 4.1729 9.2991 9.2991 9.2991 5.1263 0 9.2992-4.1729 9.2992-9.2991 0-5.1263-4.1729-9.2992-9.2992-9.2992z" fill="#00285e"/><path d="m24.0039 39.3514c-8.463 0-15.34747-6.8845-15.34747-15.3475s6.88447-15.34753 15.34747-15.34753 15.3475 6.88453 15.3475 15.34753c-.0078 8.463-6.8845 15.3475-15.3475 15.3475zm0-30.36682c-8.2832 0-15.01145 6.73602-15.01145 15.01932 0 8.2754 6.73605 15.0114 15.01145 15.0114 8.2755 0 15.0115-6.736 15.0115-15.0114 0-8.2833-6.736-15.01932-15.0115-15.01932z" fill="#6caddf"/><path d="m11.1961 23.6523-.2579.0625-.0703-.2657.4298-.125h.2188v1.5004h-.3204z" fill="#6caddf"/><path d="m11.8915 24.4103c0-.1875.086-.2891.2423-.3595-.1172-.0703-.1876-.1641-.1876-.3282v-.0078c0-.2266.211-.4063.5236-.4063s.5236.1797.5236.4063v.0078c0 .1563-.0704.2579-.1876.3282.1485.0782.2423.172.2423.3517v.0078c0 .2735-.2423.4376-.5705.4376s-.5861-.1797-.5861-.4376zm.8284-.0234c0-.1173-.1094-.1876-.2579-.1876s-.2579.0703-.2579.1797c0 .1016.0938.1876.2579.1876s.2579-.0782.2579-.1797zm-.0391-.6252c0-.0938-.0781-.1797-.211-.1797-.1328 0-.211.0781-.211.1719v.0078c0 .1016.086.1797.211.1797s.211-.0781.211-.1797z" fill="#6caddf"/><path d="m35.4833 24.2071c-.0781.0625-.1719.1016-.3048.1016-.3204 0-.5313-.1797-.5313-.4767v-.0078c0-.2969.2344-.5235.5704-.5235.2032 0 .3126.0468.4298.1641.1094.1094.1719.2657.1719.5626v.0078c0 .4845-.2266.8127-.6486.8127-.2188 0-.3594-.0703-.4923-.1797l.1719-.2501c.1094.086.2032.125.3282.125.2267 0 .2892-.2109.3048-.336zm.0078-.3907c0-.1328-.0938-.2344-.2579-.2344s-.25.0938-.25.2266v.0078c0 .1329.1016.2266.2579.2266.1562-.0078.25-.1016.25-.2266z" fill="#6caddf"/><path d="m36.8664 24.4963h-.7267l-.0547-.2345.8127-.9455h.2735v.9143h.2031v.2657h-.2031v.3204h-.3126v-.3204zm0-.2657v-.4611l-.3985.4611z" fill="#6caddf"/><path d="m24.0039 33.303c-5.1262 0-9.2991-4.1729-9.2991-9.2991 0-5.1263 4.1729-9.2992 9.2991-9.2992 5.1263 0 9.2992 4.1729 9.2992 9.2992 0 5.1262-4.1729 9.2991-9.2992 9.2991zm0-18.2545c-4.9387 0-8.9553 4.0167-8.9553 8.9554s4.0166 8.9553 8.9553 8.9553 8.9553-4.0166 8.9553-8.9553-4.0166-8.9554-8.9553-8.9554z" fill="#fff"/><path clip-rule="evenodd" d="m23.832 15.9941c-4.5871 0-7.2361.6017-7.2361.6017s-1.055 4.0245-.4533 9.1742c.2501 2.1646 2.0083 6.8141 7.8379 8.4083 5.8295-1.5864 7.5878-6.2437 7.8378-8.4083.6017-5.1575-.4532-9.1742-.4532-9.1742s-2.6491-.6017-7.2362-.6017z" fill="#00285e" fill-rule="evenodd"/><path clip-rule="evenodd" d="m31.0134 24.5743c-.0547 1.5629-.2969 6.2359-7.0407 8.8069-6.6892-2.5006-7.0408-7.3378-7.0408-8.8069z" fill="#97c1e7" fill-rule="evenodd"/><path clip-rule="evenodd" d="m30.8102 24.3165c.1798-3.8759-.4766-7.0173-.4766-7.0173s-2.5163-.4845-6.3532-.4845c-3.8446 0-6.4.5314-6.4.5314s-.6954 3.157-.5079 6.9626h13.7377z" fill="#fff" fill-rule="evenodd"/><path d="m24.1836 33.2405-7.1189-8.6037c-.2579 1.7739 1.18 7.0018 7.1189 8.6037z" fill="#6caddf"/><path d="m19.1902 24.5822 6.5876 7.9472c.6642-.3204 1.1565-.633 1.6254-1.0081l-5.7514-6.9391z" fill="#6caddf"/><path d="m23.7617 24.59 4.8683 5.8686c.4767-.5392.8831-1.0315 1.1722-1.5473l-3.579-4.3213z" fill="#6caddf"/><path d="m30.8962 24.59-2.4303-.0078 2.0396 2.4615c.3517-.758.3907-2.0318.3907-2.4537z" fill="#6caddf"/><path d="m26.8483 27.8095c-.0156-.0547-.0625-.1016-.1172-.1251l-.4063-.1406c-.0391-.0156-.0704-.0078-.1094 0-.0313-.1407-.1094-.2657-.2267-.3517-.0156-.0078-.0312-.0234-.0468-.0312-.0235-.0157-.0547-.0313-.086-.0469-.0547-.0235-.1094-.0391-.1563-.0547-.1172-.0391-.2344-.0782-.3829-.1797-.1407-.1016-.2032-.1954-.2657-.2814-.0156-.0234-.0312-.039-.0469-.0625-.039-.0625-.0937-.1172-.1484-.1641-.1016-.0703-.2267-.1094-.3517-.1094-.0312 0-.0547.0078-.0859.0078 0 0 0 0 0-.0078.0078-.0469-.0079-.1016-.0313-.1406l-.2501-.3361c-.039-.0468-.0937-.0781-.1563-.0781-.0625 0-.1172.0234-.1484.0703l-.2657.336c-.0313.0391-.0469.0938-.0391.1485-.0234 0-.0391-.0078-.0625-.0078-.125 0-.2501.0391-.3517.1094-.0156.0078-.0312.0235-.039.0313-.0235.0234-.0469.039-.0704.0703-.039.0469-.0703.086-.1015.1328-.0782.1016-.1407.1954-.297.3048-.1407.1016-.2501.1328-.3516.1641-.0235.0078-.0469.0156-.0704.0234-.0703.0157-.1406.0469-.2031.0938-.1251.086-.2032.2188-.2345.3673-.039-.0156-.0859-.0156-.1328-.0078l-.3986.1328c-.0547.0157-.1015.0625-.125.1172-.0156.0547-.0078.1173.0235.1641l.2422.3517c.0313.0391.0703.0625.1172.0781-.0625.1329-.0781.297-.0312.4376.0078.0157.0156.0313.0156.0469.0078.0313.0234.0625.0469.0938.0312.0469.0625.0938.0937.1329.0782.1015.1485.1953.2032.375.0547.1641.0469.2735.0469.3829v.0782c-.0078.0781 0 .1485.0313.2188.0469.1407.1484.2579.2657.3282-.0157.0313-.0313.0625-.0235.0938v.422c0 .0625.0313.1172.0782.1484.0468.0313.1094.0469.1641.0313l.4141-.1172c.0391-.0078.0625-.0391.086-.0625.125.1172.2969.1719.461.1641.0313 0 .0625-.0079.1016-.0157.0547-.0156.1094-.0312.1563-.0469.1172-.039.2344-.0781.422-.0781.1719 0 .2735.0391.3829.0703.0234.0078.0469.0157.0703.0235.0704.0312.1485.039.2188.039.1485 0 .297-.0625.4064-.1641.0234.0313.0469.0469.0859.0626l.4064.125c.0547.0156.1172.0078.1719-.0235.0469-.0312.0781-.0859.0781-.1484l.0079-.422c0-.0313-.0079-.0625-.0235-.0938.125-.0703.2266-.1875.2657-.3282.0078-.0156.0078-.0312.0156-.0547.0078-.0312.0157-.0625.0157-.1016.0078-.0547.0078-.1094.0078-.1641 0-.125 0-.2422.0547-.422.0547-.1641.1172-.25.1875-.336.0157-.0234.0313-.0391.0469-.0625.0469-.0547.086-.125.1094-.1954.0469-.1484.0313-.3125-.0391-.4532.0391-.0156.0704-.0312.0938-.0625l.2501-.3438c.039-.0391.0547-.0938.0312-.1563z" fill="#00285e"/><path d="m23.7538 28.7238c0-.1328.1094-.2344.2423-.2344.1328 0 .2422.1094.2422.2344 0 .1329-.1094.2344-.2422.2344-.1329 0-.2423-.1094-.2423-.2344z" fill="#ffc758"/><path d="m23.9883 26.7077c-.0391-.1485-.1329-.2735-.2501-.3439l.2501-.3203.2344.3203c-.1172.0782-.1953.1954-.2344.3439zm-1.9145 1.3909c-.1251-.0859-.211-.1953-.2579-.3282l-.3751.1251.2266.3282c.1094-.0782.2579-.1251.4064-.1251zm.7423 2.2115c-.1172.0938-.25.1407-.3985.1407v.3985l.3907-.1172c-.0469-.125-.0469-.2735.0078-.422zm2.3444.0078c.0547.1407.0547.2814.0078.4142l.3829.1172.0078-.3985c-.1329.0078-.2735-.0391-.3985-.1329zm.7267-2.2114c.1563-.0079.2891.0312.3985.1172l.2345-.3204-.3829-.1329c-.0313.1251-.1251.2501-.2501.3361zm-2.3834 2.2193c-.1797 0-.3204-.1407-.3204-.3204 0-.0235-.0234-.0313-.0391-.0157-.1172.1407-.2031.2657-.211.4142-.0078.2188.1798.3985.4064.3985h.0391c.0234 0 .039 0 .0703-.0078.1563-.0391.2969-.1172.5626-.1172.2267 0 .3439.0625.4611.0938.0469.0156.1016.0312.1563.0312.2266 0 .4063-.1797.4063-.3985 0-.1563-.0937-.2735-.211-.4142-.0078-.0156-.0312 0-.0312.0157 0 .1719-.1485.3204-.3204.3204-.1329 0-.3048-.1173-.4767-.1173-.1485 0-.3595.1173-.4923.1173zm-.211-.4377c0 .1485.1172.2657.2657.2657.0156 0 .0313 0 .0547-.0078.0078 0 .0156 0 .0234-.0078h.0079c.0937-.0313.1797-.0703.3438-.0703s.2422.0469.336.0703c.0313.0078.0625.0156.0938.0156.1485 0 .2657-.1172.2657-.2657 0-.039-.0078-.0781-.0235-.1094-.0078-.0156-.0156-.0312-.0234-.039 0 0-.4532-.6174-.4689-.633-.0234-.0313-.0547-.0156-.0703-.0078-.0234.0078-.0781.0234-.1172.0234s-.086-.0078-.1094-.0234c-.0313-.0156-.0547-.0235-.0704.0078-.0156.0234-.3438.4689-.4454.6095-.039.0469-.0625.1016-.0625.1719zm2.0865-.2031c-.0547.1719-.2345.2578-.4064.2031-.0234-.0078-.0391.0079-.0234.0313.1016.1485.1875.2735.336.3282.211.0703.4454-.0469.5079-.2579.0078-.0156.0078-.0234.0078-.039.0079-.0157.0079-.0391.0157-.0626.0156-.1641-.0235-.3125.0625-.5704.0703-.211.1641-.3048.2344-.4064.0313-.039.0625-.0859.0782-.1328.0703-.211-.0469-.4454-.2579-.5079-.1485-.0469-.297.0078-.4689.0703-.0156.0078-.0156.0234.0078.0313.1719.0547.2657.2344.211.4063-.0391.125-.2032.2501-.2579.4142-.0468.1328 0 .3594-.0468.4923zm-.4845.0625c.1406.0469.2969-.0313.3438-.1719.0078-.0157.0078-.0313.0078-.0547 0-.0078 0-.0157 0-.0235v-.0078c0-.0938-.0156-.1953.0313-.3438.0547-.1563.1172-.2188.1719-.297.0156-.0234.0312-.0547.0469-.0859.0469-.1407-.0313-.2892-.1719-.336-.0391-.0079-.0782-.0157-.1094-.0079-.0157 0-.0313 0-.0469.0079 0 0-.7346.2344-.758.2422-.0313.0156-.0313.0469-.0313.0625 0 .0235-.0078.0782-.0156.1172-.0078.0313-.0313.0782-.0547.1016-.0235.0235-.0391.0469-.0156.0703.0234.0235.336.4689.4454.6096.039.0547.0937.0937.1563.1172zm.4376-2.0474c.1484.1016.1797.3048.0703.4454-.0156.0157 0 .0391.0234.0313.1798-.0469.3204-.0938.4142-.2188.1329-.1797.0938-.4298-.086-.5627-.0078-.0078-.0234-.0156-.039-.0234-.0157-.0156-.0313-.0234-.0625-.0313-.1485-.0625-.3048-.0781-.5236-.2344-.1797-.1328-.2422-.25-.3204-.3516-.0234-.0391-.0625-.0782-.1094-.1172-.1797-.1329-.4376-.0938-.5626.0859-.086.125-.086.2813-.0782.4611 0 .0156.0235.0234.0313 0 .1016-.1407.3047-.172.4532-.0704.1094.0782.1797.2735.3204.3673.125.1172.3595.1407.4689.2188zm-.086.4845c.086-.1172.0625-.2891-.0625-.3751-.0078-.0078-.0234-.0234-.0469-.0312-.0078 0-.0156-.0079-.0234-.0079h-.0078c-.0938-.0312-.1876-.0468-.3204-.1406-.1329-.0938-.172-.1797-.2267-.2501-.0156-.0234-.039-.0469-.0625-.0703-.1172-.086-.2891-.0625-.3751.0625-.0234.0313-.039.0625-.0468.1016 0 .0156-.0079.0313-.0079.0469v.7892c0 .0391.0313.0391.0547.0469.0235.0078.0782.0313.1016.0469.0313.0235.0625.0547.0782.0782.0156.0234.0312.0468.0625.0312.0312-.0156.5548-.1797.7189-.2344.0703-.0078.125-.0469.1641-.0938zm-1.8207-1.0471c.1406-.1016.3438-.0704.4532.0703.0156.0156.0391.0156.0391-.0078.0078-.1797.0078-.336-.0782-.4611-.125-.1797-.3829-.2188-.5626-.0859-.0156.0078-.0235.0156-.0313.0234-.0156.0078-.0312.0235-.0469.0469-.1094.125-.1719.2657-.3907.422-.1797.1328-.3126.1563-.4298.1875-.0469.0157-.1016.0313-.1406.0625-.1798.1329-.2267.383-.086.5627.0938.125.2423.1719.4142.2188.0156.0078.0234-.0156.0156-.0313-.1016-.1406-.0703-.3438.0703-.4454.1094-.0781.3126-.0859.4533-.1875.1094-.0782.211-.297.3204-.3751zm.4376.2344c-.086-.1172-.2579-.1485-.3751-.0625-.0157.0078-.0235.0156-.0391.0312-.0078.0079-.0078.0079-.0156.0157l-.0078.0078c-.0547.0781-.1016.1641-.2345.2579-.1328.0937-.2266.1016-.3126.1406-.0312.0078-.0625.0235-.0859.0391-.1172.086-.1485.2501-.0625.3751.0234.0312.0547.0547.0859.0703.0157.0078.0235.0156.0391.0156 0 0 .7346.2345.758.2423.0391.0078.0547-.0156.0625-.0313.0156-.0156.0469-.0625.0782-.0859.0312-.0235.0703-.0391.1015-.0469.0313-.0078.0547-.0156.0547-.0469 0-.0312 0-.5783 0-.7502.0079-.0547-.0078-.1172-.0468-.1719zm-1.5629 1.3988c-.0547-.1719.0391-.3517.2032-.4064.0234-.0078.0234-.0312.0078-.039-.1719-.0626-.3204-.1173-.4611-.0704-.211.0626-.3282.297-.2579.508 0 .0156.0079.0234.0157.039.0078.0157.0156.0391.0312.0626.086.1406.2032.2422.2892.5001.0703.211.0468.3438.0468.4688-.0078.0469.0001.1016.0157.1563.0703.211.2969.3282.5079.2579.1485-.0469.2344-.1719.336-.3282.0078-.0156-.0078-.0313-.0234-.0234-.1719.0547-.3517-.0391-.4064-.2032-.039-.125.0157-.3204-.039-.4845-.0469-.1485-.2266-.3126-.2657-.4376zm.3516-.336c-.1406.0469-.2188.1953-.1719.336 0 .0156.0078.0312.0235.0469.0078.0078.0078.0156.0156.0156 0 0 0 .0078.0078.0078.0547.0782.125.1485.1797.297.0547.1563.0313.2422.0391.336 0 .0312 0 .0625.0156.0938.0469.1406.1954.2188.3361.1719.039-.0078.0703-.0313.0937-.0547l.0313-.0313s.4532-.6173.461-.6408c.0235-.0312 0-.0547-.0156-.0703s-.0469-.0625-.0547-.1016c-.0078-.0312-.0156-.0781-.0156-.1094 0-.0312 0-.0547-.0313-.0625-.0312-.0078-.5548-.1797-.7189-.2344-.0625-.0157-.125-.0235-.1954 0z" fill="#ee3124"/><path d="m26.2388 20.4562 1.6489-.5705s-.1407.6877-.1016 1.2191c.0469.6877.4454 1.2112.4454 1.2112l-2.0317.7033z" fill="#ffc758"/><path d="m28.2315 22.316s-.3594-.5157-.422-1.1174c-.0468-.4533 0-.844.0782-1.3128-.0703.3125-.336 1.1956-1.0784 2.0161-.2969.3282-.4298.6173-.4845.8205l-.0313-3.8838s-.3907.1407-.4297.1485c-.0469.0156-.0704.0469-.0704.0547 0 .0234-.0156.0391-.0469.0469-.0312.0078-.2578.0938-.4141.1406-.0313.0079-.0157.0391 0 .0391.1875-.0078.4532-.0312.4767-.0312.039-.0079.0547-.0235.0547-.0469 0 0 0 0 0-.0078.0078-.0313.0312-.0547.0625-.0547.0234 0 .1641-.0157.25-.0313l-.039 4.1807h.1875v-.2969z" fill="#d4a11e"/><path d="m20.925 23.1287s-.3047-.2266-.3907-.6564c-.086-.4376.1328-.6877.1328-.6877l2.0005-.6877s-.125.3986-.0078.8518c.1485.5704.4532.9534.4532.9534s-.7345-.1407-1.4456-.0469c-.6721.0859-.7424.2735-.7424.2735z" fill="#ffc758"/><path d="m18.6276 22.6286s.2501-.6799.9768-1.4222c.5548-.5627.9143-.7268.9143-.7268s-.3204.4611-.4532 1.2191c-.086.4688.0078 1.0627.0078 1.0627s-.3751-.0781-.8049-.125c-.3595-.0391-.6408-.0078-.6408-.0078z" fill="#ffc758"/><path d="m20.5187 20.4796s-.3126.4611-.4454 1.2191c-.086.4688.0078 1.0627.0078 1.0627s-.0938-.0234-.3126-.0703c-.8908-.2032.7502-2.2115.7502-2.2115z" fill="#d4a11e"/><path d="m21.6908 21.0266-.0156-1.7974c-.0391.0157-.3907.1329-.4298.1485-.0469.0157-.0703.0469-.0703.0625 0 .0235-.0156.0391-.0469.0469s-.2579.086-.4142.1407c-.0312.0078-.0156.0391 0 .0391.1798-.0079.4533-.0313.4767-.0313.0391-.0078.0547-.0234.0625-.0469 0 0 0 0 0-.0078.0078-.0313.0313-.0547.0625-.0547.0235 0 .1563-.0156.2501-.0234l-.0156 1.5316h.1406z" fill="#d4a11e"/><path d="m24.0195 19.4012h.1407v-1.727s-.3907.1407-.4298.1485c-.0469.0156-.0703.0469-.0703.0547 0 .0234-.0157.039-.0469.0469-.0313.0078-.2579.0859-.4142.1406-.0312.0078-.0156.0391 0 .0391.1876-.0078.4533-.0313.4767-.0313.0391-.0078.0547-.0234.0625-.0469.0078-.0312.0313-.0547.0625-.0547.0235 0 .1485-.0156.2423-.0234z" fill="#d4a11e"/><path d="m23.6679 18.0806h.0078c.039-.0078.0547-.0234.0547-.0469 0-.0234.0156-.039.039-.0468l-.0468-.1485c-.0469.0156-.0626.0469-.0626.0547 0 .0234-.0156.0312-.039.0391z" fill="#ffc758"/><path d="m21.1829 19.6279h.0078c.0391-.0078.0547-.0235.0547-.0469.0079-.0235.0157-.0391.0391-.0469l-.0469-.1485c-.0469.0156-.0625.0469-.0625.0547 0 .0235-.0156.0313-.0391.0391z" fill="#ffc758"/><path d="m25.7934 19.2371h.0078c.0391-.0078.0547-.0234.0547-.0469.0078-.0234.0157-.039.0391-.0469l-.0469-.1484c-.0469.0156-.0625.0469-.0625.0547 0 .0234-.0156.0312-.0391.039z" fill="#ffc758"/><path d="m23.1131 22.9021s-.3204-.4689-.4455-.969c-.1094-.4298 0-.8362 0-.8362s-.2109.7346-.7189 1.1331c-.3516.2813-1.219.5392-1.0159.8987.0313-.0469.1173-.1407.4689-.2266.0391-.0079.086-.0157.1329-.0235v.5939h.1875v-.6173c.6486-.0704 1.391.0469 1.391.0469z" fill="#d4a11e"/><path d="m20.714 21.6596s-.2344-.1406-.2031-.5939c.0312-.4688.2657-.672.2657-.6876l1.555-.5314s-.1172.2344-.0312.5861c.0937.4219.3672.6642.3672.6642s-.7814.0078-1.4847.25c-.3438.1173-.4689.3126-.4689.3126z" fill="#ffc758"/><path d="m21.6362 20.6828c.4454-.3673.6876-.8361.6876-.8361s-.0625.2969-.0156.5626c.0859.4533.3516.6877.3516.6877s-.6329.0078-1.3128.2032c-.4532.125-.5939.3047-.633.3672-.1484-.3438.4689-.6095.9222-.9846z" fill="#d4a11e"/><path d="m23.41 23.2459s-.4297-.3204-.5313-.9221c-.086-.4767.2344-.8205.2344-.8205l2.4303-.8362s-.1329.5392-.0078 1.055c.1406.5782.672 1.2972.672 1.2972s-1.0081-.2892-1.8833-.1798c-.8361.1094-.9143.4064-.9143.4064z" fill="#ffc758"/><path d="m22.9177 19.3934c-.0157-.3673.2422-.6642.25-.6799l1.7426-.6095s-.1172.2735-.0859.5079c.0547.4455.3048.6799.3048.6799s-.6877-.0391-1.4926.2422c-.4454.1563-.4923.3673-.4923.3673s-.211-.0547-.2266-.5079z" fill="#ffc758"/><path d="m24.293 18.9245c.3126-.2735.6174-.8127.6174-.8127s-.1172.2735-.086.508c.0547.4454.3048.6798.3048.6798s-.7424-.0078-1.4535.2423c-.3048.1094-.5001.2735-.5236.3672-.1016-.3438.7111-.6095 1.1409-.9846z" fill="#d4a11e"/><path d="m23.1678 21.4018s-.2501-.2892-.297-.7424c-.0469-.4689.2266-.6564.2501-.672l2.0161-.6955s-.0547.1484-.0078.5548c.0469.3438.3829.8127.3829.8127s-1.0784.0312-1.7426.2891c-.422.1641-.6017.4533-.6017.4533z" fill="#ffc758"/><path d="m24.504 20.2374c.4376-.3751.633-.9377.633-.9377s-.0547.3204 0 .5704c.1016.4376.4142.8049.4142.8049s-.9378.0156-1.6176.2423c-.4454.1484-.7189.4141-.758.4923-.1016-.3829.8908-.7971 1.3284-1.1722z" fill="#d4a11e"/><path d="m26.2466 23.0583s-.547-.7111-.7111-1.3362c-.1016-.4142-.0234-.8831.0078-1.0472-.0625.2188-.2813.9299-.8205 1.4301-.5157.4766-1.5316.7033-1.3128 1.1487.0391-.0703.1563-.2423.5704-.3439l-.0078.5705h.1954v-.6095c.8986-.1407 2.0786.1875 2.0786.1875z" fill="#d4a11e"/><path clip-rule="evenodd" d="m27.1844 24.3946c.125-.0234.25-.0547.4376-.1016-.0079-.0078-.0235-.0156-.0313-.0234-.2032-.2266-.1719-.4689-.0469-.5861.4533-.422.4454-.7346.4454-.7346s-1.1018.2267-2.5553.3048c-.0937.0078-.4298.1563-.5314.1563-.2031.0078-.4063.0156-.6173.0156-2.7428.0235-3.5087-.1719-4.4073-.336-.9143-.1719-1.3128-.3516-1.3128-.3516l-.0313.0937s.7189.2814 1.2347.5314c.1094.0547.5392.6955.6798.9143h-3.2586c-.1797-3.7353.5392-6.7907.5392-6.7907s2.4928-.5314 6.2437-.5314v-.3985c-3.9775 0-6.6266.5626-6.6266.5626s-1.1565 4.0791-.547 8.9397c.2579 2.0239 1.9302 5.8139 7.158 7.5721l.2266-.3203-.2266-.3204c-4.9231-1.6489-6.3609-4.9856-6.611-6.8845-.0547-.422-.0938-.844-.125-1.2503h6.7594v-.5705h-3.4695c.0781-.25.3203-.3126.6251-.2422.3126.0781.6252.1563.9221.1406.7424-.039.633-.2344.7033-.2344.7658.0469 1.0549.2344 1.7192.2188.6095-.0078.8205-.1719.8752-.1719.7424-.0078 1.0237.336 1.766.3985z" fill="#ffc758" fill-rule="evenodd"/><path clip-rule="evenodd" d="m30.5915 17.1194s-2.6413-.5626-6.6188-.5626v.3985c3.7509 0 6.2358.5314 6.2358.5314s.7268 3.0554.5392 6.7907h-3.2664c-.2579-.2501-.1094-.5783-.0234-.6564.3829-.3438.3829-.5783.3829-.5783s-.883.2188-2.3365.2813c-.0938 0-.5001.1876-.6017.1876-.2032.0078-.4845.0156-.6955.0156-1.8911 0-2.821-.0391-4.462-.3907.0312.0391.0468.0547.0781.1016.0078.0156.7189.1953.7267.211.1094.1484.2501.25.422.3438.2657.1407.6564.2579.9768.2813.7424.0469.6017-.2344.6721-.2344.758-.0156 1.2503.2579 1.9145.2501.6095-.0079.6251-.2032.6877-.2032.6017-.0313 1.2112.2266 1.7348.3985h-2.9851v.5705h6.736c-.0313.4141-.0704.8283-.1251 1.2503-.25 1.9067-1.6879 5.2356-6.6109 6.8845v.6407c5.2278-1.7582 6.9079-5.5404 7.1579-7.5721.6174-4.8606-.5391-8.9397-.5391-8.9397z" fill="#d4a11e" fill-rule="evenodd"/><g fill="#00285e"><path d="m11.7665 18.8776.2735-.5236 1.2347-.0859-.6251-1.0706.2735-.5157 2.1958 1.1565-.25.4767-1.4379-.7502.6173 1.1096-.0078.0079-1.2503.125 1.4223.7502-.2501.4766z"/><path d="m14.275 14.9704.3438-.3673 2.5475.9378-.3907.4141-.5627-.2188-.7189.7659.2501.547-.3829.4063zm1.4613.5861-.8127-.3126.3594.7893z"/><path d="m16.2442 13.1653.4298-.2579 1.7895.7033-.7893-1.305.4611-.2813 1.2816 2.1177-.3986.2423-1.8442-.7268.8205 1.3519-.461.2813z"/><path d="m19.581 12.7355c-.1954-.6877.1485-1.391.883-1.6019.4454-.1329.7658-.0547 1.0471.0937l-.2266.4845c-.2344-.1172-.4454-.1641-.6876-.0937-.3986.1172-.5939.5313-.4767.9455v.0078c.1172.4064.5001.6642.9064.547.2736-.0781.4064-.2344.5471-.461l.4297.2422c-.1719.336-.3985.5783-.8517.7111-.6955.2032-1.3754-.1875-1.5707-.8752z"/><path d="m22.5582 10.7428.5392-.0156.0313.9846 1.0002-.0234-.0234-.9847.547-.0156.0625 2.485-.547.0156-.0234-1.0002-1.0081.0312.0313.9925-.5471.0156z"/><path d="m27.8643 13.5092.4532-.2188c.125.2579.2891.4689.547.5861.2032.0938.3595.0703.422-.0625v-.0078c.0625-.1251.0078-.2267-.3204-.4924-.3985-.3282-.633-.586-.4298-1.0315v-.0078c.1875-.4063.6408-.5235 1.1018-.3126.3282.1485.5627.383.7033.6721l-.4298.2579c-.1328-.2345-.2969-.4064-.4845-.4923-.1875-.086-.3282-.0469-.3829.0625v.0078c-.0703.1485.0078.2422.3517.5236.3985.3282.5861.6173.3985 1.008v.0078c-.2032.4454-.6642.5392-1.1487.3204-.3282-.1719-.6173-.4532-.7814-.8205z"/><path d="m31.4901 13.6577-.6017-.4611.3048-.3985 1.6332 1.2425-.3048.4063-.6017-.461-1.1956 1.5707-.4376-.3282z"/><path d="m35.413 17.1819.5079 1.0159c.1407.2813.1719.5392.1016.758-.0625.1875-.2032.336-.4142.4454h-.0078c-.3595.1797-.6798.1016-.9299-.1329l-.5236.9378-.2891-.5705.4689-.8361-.1954-.3829-.7111.3594-.2423-.4845zm-.5861 1.5238c.1172.2344.3126.3126.5001.2188h.0078c.211-.1016.2423-.3048.125-.5392l-.2422-.4845-.633.3204z"/><path d="m26.2076 12.4074.9143.1953.2578-.4376-1.0627-.2344.1016-.4923 1.2972.2813.1094-.4689-1.8364-.3985-.5236 2.4225 1.852.4063.1016-.4767-1.3206-.2891z"/><path d="m33.5766 14.783-1.9067 1.5941 1.219 1.4457.3673-.3126-.8596-1.0315.3985-.336.6096.7267.4923-.1641-.7268-.8752.3829-.3204.8518 1.0159.3751-.3126z"/><path d="m19.7919 35.9443c0-.7267.5392-1.3128 1.3207-1.3128.4766 0 .758.1563 1.0002.3907l-.3516.4063c-.1954-.1797-.3908-.2813-.6486-.2813-.4298 0-.7346.3517-.7346.7893v.0078c0 .4298.297.7971.7346.7971.2891 0 .4688-.1173.6642-.297l.3516.3595c-.2578.2813-.547.4532-1.0393.4532-.7423-.0156-1.2972-.5939-1.2972-1.3128z"/><path d="m22.6677 34.6705h.5548v2.5241h-.5548z"/><path d="m24.5118 35.1863h-.7658v-.5158h2.0943v.5158h-.7658v2.0161h-.5548v-2.0161z"/><path d="m27.0437 36.2022-.969-1.5317h.6486l.6017 1.0159.6095-1.0159h.633l-.969 1.516v1.0081h-.5548z"/></g></svg>