<svg fill="none" height="48" viewBox="0 0 48 48" width="48" xmlns="http://www.w3.org/2000/svg"><path d="m29.9164 15.0465c-.1612 0-.2865-.1302-.2865-.2884 0-.1581.1253-.2884.2865-.2884s.2865.1303.2865.2884c.009.1582-.1253.2884-.2865.2884zm-17.093 13.4884c0-6.4466 5.247-11.6838 11.658-11.6838s11.658 5.2465 11.658 11.6838c0 6.4279-5.247 11.693-11.658 11.693-6.411-.0093-11.658-5.2651-11.658-11.693zm16.2334-17.8419c.2776.0744.4477.3535.3761.6326-.0716.279-.3581.4465-.6357.372-.2776-.0744-.4477-.3534-.3761-.6325s.3582-.4465.6357-.3721zm.4746-1.02326c.1612 0 .2865.13023.2865.28837 0 .15819-.1253.28839-.2865.28839s-.2865-.1302-.2865-.28839c-.009-.16744.1253-.28837.2865-.28837zm-.2418-1.04186c.1612 0 .2866.13023.2866.28837s-.1254.28838-.2866.28838c-.1611 0-.2865-.13024-.2865-.28838-.0089-.15814.1254-.28837.2865-.28837zm3.5816 2.73492c.1612 0 .2865.1302.2865.2883 0 .1582-.1253.2884-.2865.2884s-.2865-.1302-.2865-.2884c0-.1581.1253-.2883.2865-.2883zm-.2418-1.0326c.1612 0 .2866.1302.2866.2884 0 .1581-.1254.2884-.2866.2884-.1611 0-.2865-.1303-.2865-.2884 0-.1582.1254-.2884.2865-.2884zm-.4297-.91162c.1611 0 .2865.13023.2865.28837s-.1343.28837-.2865.28837c-.1612 0-.2866-.13023-.2866-.28837-.0089-.15814.1254-.28837.2866-.28837zm-.6895-.8093c.1612 0 .2865.13023.2865.28837s-.1253.28837-.2865.28837-.2865-.13023-.2865-.28837.1253-.28837.2865-.28837zm-.8417-.61396c.1612 0 .2866.13024.2866.28837 0 .15814-.1254.28838-.2866.28838-.1611 0-.2865-.13024-.2865-.28838 0-.15813.1254-.28837.2865-.28837zm-.9133-.36279c.1612 0 .2866.13023.2866.28837s-.1254.28838-.2866.28838c-.1611 0-.2865-.13024-.2865-.28838s.1343-.28837.2865-.28837zm-.9222.08372c.1612 0 .2865.13024.2865.28838 0 .15813-.1253.28837-.2865.28837s-.2865-.13024-.2865-.28837c0-.15814.1253-.28838.2865-.28838zm-.6805-.79069c.1612 0 .2865.13023.2865.28837s-.1343.28837-.2865.28837c-.1612 0-.2865-.13023-.2865-.28837s.1253-.28837.2865-.28837zm-.8864-.58605c.1611 0 .2865.13023.2865.28837s-.1254.28837-.2865.28837c-.1612 0-.2866-.13023-.2866-.28837s.1254-.28837.2866-.28837zm-.9223-.34419c.1612 0 .2865.13024.2865.28837 0 .15814-.1253.28838-.2865.28838s-.2865-.13024-.2865-.28838c0-.15813.1253-.28837.2865-.28837zm-.9401-.16744c.1611 0 .2865.13023.2865.28837s-.1254.28838-.2865.28838c-.1612 0-.2866-.13024-.2866-.28838-.0089-.15814.1254-.28837.2866-.28837zm-8.945 7.63722c-.2507.1395-.5641.0465-.7073-.2047-.0331-.06-.0541-.1264-.0616-.1951s-.0015-.1383.0178-.2045.0514-.1276.0943-.1804c.043-.0529.0958-.0961.1554-.1269.2507-.1396.5641-.0465.7073.2046.1344.2512.0448.5675-.2059.707zm3.7069-1.7675c-.2775.0745-.5641-.093-.6357-.372-.0716-.2791.0985-.5675.3761-.6326.2775-.0744.5641.093.6357.3721s-.0985.5674-.3761.6325zm4.3158-.5488c-.067.0012-.1336-.0113-.196-.0368s-.1193-.0635-.1675-.1119c-.0483-.0484-.0868-.1061-.1136-.17-.0267-.0639-.0411-.1326-.0422-.2022 0-.2884.2328-.5209.5193-.5209s.5193.2325.5193.5209-.2328.5209-.5193.5209zm-5.041-.9023c-.1612 0-.2866-.1302-.2866-.28839 0-.15814.1254-.28837.2866-.28837.1611 0 .2865.13023.2865.28837 0 .15819-.1343.28839-.2865.28839zm.2417-1.04187c-.1612 0-.2865-.13024-.2865-.28838s.1253-.28837.2865-.28837.2865.13023.2865.28837-.1343.28838-.2865.28838zm-3.5905 2.74417c-.1612 0-.2865-.1302-.2865-.2884 0-.1581.1253-.2883.2865-.2883s.2865.1302.2865.2883c.009.1582-.1253.2884-.2865.2884zm.2418-1.0418c-.1612 0-.2866-.1303-.2866-.2884 0-.1582.1343-.2884.2866-.2884.1611 0 .2865.1302.2865.2884.0089.1581-.1254.2884-.2865.2884zm.4297-.91168c-.1611 0-.2865-.13023-.2865-.28837s.1254-.28837.2865-.28837c.1612 0 .2866.13023.2866.28837.0089.15814-.1254.28837-.2866.28837zm.6895-.8093c-.1612 0-.2865-.13023-.2865-.28837s.1253-.28837.2865-.28837.2865.13023.2865.28837-.1253.28837-.2865.28837zm.8417-.61395c-.1612 0-.2866-.13024-.2866-.28838 0-.15813.1254-.28837.2866-.28837.1611 0 .2865.13024.2865.28837.0089.15814-.1254.28838-.2865.28838zm.9133-.35349c-.1612 0-.2866-.13023-.2866-.28837s.1254-.28838.2866-.28838c.1611 0 .2865.13024.2865.28838s-.1254.28837-.2865.28837zm.9222.07442c-.1612 0-.2865-.13024-.2865-.28837 0-.15814.1253-.28838.2865-.28838s.2865.13024.2865.28838c.009.15813-.1253.28837-.2865.28837zm.6805-.7814c-.1612 0-.2865-.13023-.2865-.28837s.1343-.28837.2865-.28837c.1612 0 .2865.13023.2865.28837s-.1253.28837-.2865.28837zm.8864-.59535c-.1611 0-.2865-.13023-.2865-.28837s.1254-.28837.2865-.28837c.1612 0 .2866.13023.2866.28837s-.1254.28837-.2866.28837zm.9223-.34418c-.1612 0-.2865-.13024-.2865-.28838 0-.15813.1343-.28837.2865-.28837.1612 0 .2865.13024.2865.28837 0 .15814-.1253.28838-.2865.28838zm1.8624 2.84651c-.1612 0-.2865-.13023-.2865-.28837s.1343-.28838.2865-.28838c.1612 0 .2865.13024.2865.28838s-.1253.28837-.2865.28837zm0-1.05116c-.1612 0-.2865-.13024-.2865-.28838s.1343-.28837.2865-.28837c.1612 0 .2865.13023.2865.28837s-.1253.28838-.2865.28838zm0-1.05117c-.1612 0-.2865-.13023-.2865-.28837s.1343-.28837.2865-.28837c.1612 0 .2865.13023.2865.28837s-.1253.28837-.2865.28837zm-.9133-.91162c-.1612 0-.2955-.13024-.2955-.28838s.1343-.28837.2955-.28837.2865.13023.2865.28837c0 .16744-.1343.28838-.2865.28838zm9.4374 6.14887c.2507.1395.3403.4558.206.7069-.1344.2512-.4567.3442-.7074.2047-.0588-.0318-.1108-.0754-.1531-.1284s-.074-.1142-.0932-.1801c-.0191-.0658-.0255-.135-.0185-.2034.0069-.0685.0269-.1348.0589-.1951.1432-.2511.4566-.3442.7073-.2046zm-6.6706 1.5255c-.1612 0-.2866-.1302-.2866-.2883 0-.1582.1254-.2884.2866-.2884.1611 0 .2865.1302.2865.2884.0089.1581-.1254.2883-.2865.2883zm-7.2885.9675c-.1612 0-.2865-.1302-.2865-.2884 0-.1581.1343-.2884.2865-.2884.1612 0 .2865.1303.2865.2884 0 .1582-.1253.2884-.2865.2884zm3.5815-.9675c-.1611 0-.2865-.1302-.2865-.2883 0-.1582.1343-.2884.2865-.2884.1612 0 .2866.1302.2866.2884 0 .1581-.1254.2883-.2866.2883z" fill="#fff"/><path d="m26.6304 11.986c.0805.1767.1701.3069.2865.4186-.2686-.0372-.5283-.0745-.7969-.1024.1522-.0837.2775-.1953.385-.3348.0358.0093.0806.0186.1254.0186zm-4.2979 0c.0447 0 .0895-.0093.1343-.0186.0985.1395.2328.2511.3761.3348-.2687.0279-.5373.0558-.7969.1024.1253-.121.2238-.2605.2865-.4186zm-1.549.6604c-.2328.0558-.4656.1117-.6985.1768.1254-.1582.206-.3535.2239-.5582.1254.1675.2865.2977.4746.3814zm-2.6594.8744c.0717-.1116.1164-.2418.1523-.3627l.0358-.0094c.0716-.0186.1343-.0465.188-.0837.1075.0744.2328.1303.3582.1675-.2418.0837-.4925.186-.7343.2883zm6.3573-1.786c.0716.1953.206.3628.3671.493-.1253 0-.2417-.0093-.3671-.0093-.1164 0-.2417 0-.3671.0093.1701-.1302.2955-.2977.3671-.493zm5.9812 1.3209c.0537.0372.1254.0651.1881.0837l.0358.0093c.0268.1303.0806.2512.1522.3628-.2418-.1023-.4925-.2046-.7432-.2976.1343-.0279.2597-.0838.3671-.1582zm-1.5848-.2325c-.2328-.0651-.4656-.121-.6984-.1768.188-.0837.3492-.2139.4656-.3814.0268.2047.1074.4.2328.5582zm.9043-2.2698c.197-.0837.3403-.2605.385-.4744.3134.0744.6626.1581.9492.279.2686.1024.4835.2512.6357.3814.1522.4.2417.8652.2955 1.4326-.1881.0837-.3134.2791-.3851.4744-.1164.2977-.1164.6047.206.8372-.0716.0058-.1436-.0044-.2111-.0297-.0676-.0253-.1292-.0652-.1809-.117-.0516-.0519-.092-.1146-.1186-.1839s-.0387-.1437-.0356-.2182c.0617-.0726.1075-.1583.1343-.2512.0895-.3535-.1164-.7069-.4656-.7907-.3492-.093-.6984.121-.7879.4652-.009.0372-.018.0744-.018.1116-.2954.3628-.8864.1767-.9133-.2977.5462.1116.779-.1674.8686-.5395.0806-.307.0447-.6233-.3045-.8093-.0179-.1024-.0268-.1954-.0537-.2698z" fill="#e62644"/><path d="m20.5507 9.26964c1.0387-.57674 2.3907-.67907 3.4383-.52093v.07442c-.076.11837-.1053.26253-.082.40273s.0975.26576.2074.35076c-.197.06512-.3492.21395-.403.47438-.3939.0931-.5014.3907-.5014.707 0 .3814.1522.707.7074.7349-.0627.214-.2597.3628-.4925.3628-.2238 0-.4208-.1488-.4835-.3535.0179-.0558.0179-.1116.0179-.1674 0-.3628-.2955-.6512-.6536-.6512-.3582 0-.6537.2884-.6537.6512 0 .1116.0269.2232.0806.3069-.0081.1111-.0496.2167-.1187.3019-.0691.0851-.1623.1455-.2663.1726-.2238.0558-.4477-.0373-.5641-.2326.5283-.1674.5999-.5209.5014-.893-.0806-.307-.2596-.5675-.6626-.5582-.0588-.1311-.1602-.2365-.2865-.2976.0537-.29771.1164-.59539.2149-.86516zm4.4143-.53023c1.0476-.15814 2.4086-.05581 3.4383.52093.0985.27907.1701.56744.2059.87446-.1164.0558-.2149.1488-.2865.2976-.4029-.0093-.582.2512-.6536.5582-.0985.3721-.0269.7256.5014.893-.1164.186-.3403.2884-.5641.2326-.1045-.0262-.1982-.0863-.2674-.1716-.0693-.0854-.1105-.1915-.1176-.3029.0537-.093.0805-.1953.0805-.3069 0-.3628-.2865-.6512-.6536-.6512-.3581 0-.6536.2884-.6536.6512 0 .0558.0089.1116.0179.1674-.0716.2047-.2597.3535-.4835.3535-.2328 0-.4209-.1488-.4925-.3628.5552-.0279.7074-.3535.7074-.7349 0-.3256-.1075-.6139-.5015-.707-.0221-.10839-.0708-.20903-.1414-.29215-.0706-.08311-.1607-.14588-.2615-.18223.1254-.10232.2149-.26977.2149-.44651 0-.11163-.0358-.22326-.0895-.30698zm-7.1094 1.61859c.2865-.1116.6357-.2046.9491-.2791.0448.214.188.3907.385.4745-.0268.0744-.0448.1674-.0358.2604-.3582.1861-.385.5024-.3044.8093.0985.3721.3223.6512.8685.5396-.0179.4744-.6178.6604-.9133.2976 0-.0372-.009-.0744-.0179-.1116-.0896-.3535-.4477-.5581-.7969-.4651s-.5551.4465-.4656.7907c.0269.093.0716.186.1343.2512.009.1953-.0895.3814-.2686.4837-.0896.0465-.1881.0651-.2776.0651.3223-.2233.3223-.5302.2059-.8372-.0805-.1861-.1969-.3814-.3939-.4651.0447-.5675.1343-1.0326.2865-1.4326.1612-.1302.3671-.2791.6447-.3814zm7.5571 3.3302-.9312.3442-.9223-.3442.9223-.3441zm-6.9751 1.2652-.0806.3255-.0269.121-.0626-.0372-.3134-.1768.0806-.307.0179-.0651.1074.0372zm12.0877 0 .3851-.1489.0179.0651.0806.3163-.3045.1675-.0627.0372-.0268-.121z" fill="#e62644"/><path d="m28.8778 12.8232c-.1253-.1581-.2059-.3535-.2238-.5581-.1164.1674-.2866.2976-.4656.3813.2238.0559.4566.1117.6894.1768zm1.5849.2326c-.1075.0744-.2328.1302-.3582.1674.2507.093.5014.1953.7432.2977-.0708-.1108-.1223-.2336-.1522-.3628l-.0359-.0093c-.0716-.0186-.1343-.0558-.1969-.093zm-5.9812-1.321c-.0717.1954-.197.3628-.3672.493.1254 0 .2418-.0093.3672-.0093.1253 0 .2417 0 .3671.0093-.1633-.1265-.2902-.297-.3671-.493zm-6.3573 1.7861c.2417-.1024.4924-.2047.7432-.2977-.1254-.0372-.2508-.093-.3582-.1674-.0537.0372-.1254.0651-.188.0837l-.0358.0093c-.0448.1302-.0896.2604-.1612.3721zm2.6593-.8745c-.188-.0837-.3492-.2139-.4656-.3813-.0269.2046-.0985.4-.2239.5581.2239-.0651.4567-.1209.6895-.1768zm1.549-.6604c-.0627.1581-.1612.2977-.2865.4186.2597-.0372.5283-.0744.7969-.1023-.1522-.0838-.2776-.1954-.3761-.3349-.0447.0093-.0895.0186-.1343.0186zm4.2979 0c-.0424-.001-.0845-.0072-.1254-.0186-.0985.1395-.2328.2511-.385.3349.2686.0279.5373.0558.7969.1023-.1164-.1116-.2059-.2419-.2776-.3907zm6.3752.5674c-.1207-.0666-.2614-.0826-.3931-.0445-.1316.0381-.2442.1273-.3143.2492-.1343.2511-.0448.5674.2059.707.2508.1395.5641.0465.7074-.2047s.0537-.5674-.2059-.707zm-3.9487-1.8604c-.2776-.0745-.5641.093-.6357.3721-.0717.279.0985.5674.376.6325.2776.0744.5641-.093.6358-.3721.0716-.2791-.0985-.5674-.3761-.6325zm.4746-1.02329c-.1612 0-.2866.13023-.2866.28837 0 .15812.1343.28832.2866.28832.1611 0 .2865-.1302.2865-.28832 0-.16744-.1254-.28837-.2865-.28837zm-.2418-1.04187c-.1612 0-.2865.13024-.2865.28838s.1343.28837.2865.28837c.1612 0 .2865-.13023.2865-.28837s-.1253-.28838-.2865-.28838zm3.5816 2.73486c-.1612 0-.2866.1303-.2866.2884s.1254.2884.2866.2884c.1611 0 .2865-.1303.2865-.2884s-.1254-.2884-.2865-.2884zm-.2418-1.0325c-.1612 0-.2865.1302-.2865.2883 0 .1582.1253.2884.2865.2884s.2865-.1302.2865-.2884c0-.1581-.1253-.2883-.2865-.2883zm-.4298-.91166c-.1612 0-.2865.13024-.2865.28837 0 .15814.1343.28838.2865.28838.1612 0 .2865-.13024.2865-.28838 0-.15813-.1253-.28837-.2865-.28837zm-.6894-.8093c-.1612 0-.2866.13023-.2866.28837s.1254.28837.2866.28837c.1611 0 .2865-.13023.2865-.28837s-.1254-.28837-.2865-.28837zm-.8417-.61395c-.1612 0-.2865.13023-.2865.28837s.1253.28837.2865.28837.2865-.13023.2865-.28837-.1253-.28837-.2865-.28837zm-.9133-.36279c-.1612 0-.2865.13023-.2865.28837s.1253.28837.2865.28837.2865-.13023.2865-.28837c.009-.15814-.1253-.28837-.2865-.28837zm-.9223.08372c-.1611 0-.2865.13023-.2865.28837s.1254.28837.2865.28837c.1612 0 .2866-.13023.2866-.28837s-.1254-.28837-.2866-.28837zm-.6804-.7907c-.1612 0-.2866.13023-.2866.28837s.1254.28837.2866.28837c.1611 0 .2865-.13023.2865-.28837.0089-.15814-.1254-.28837-.2865-.28837zm-.8865-.58605c-.1612 0-.2865.13024-.2865.28837 0 .15814.1253.28838.2865.28838s.2865-.13024.2865-.28838c0-.15813-.1253-.28837-.2865-.28837zm-.9222-.34418c-.1612 0-.2866.13023-.2866.28837s.1254.28837.2866.28837c.1611 0 .2865-.13023.2865-.28837.0089-.15814-.1254-.28837-.2865-.28837zm-.9402-.16745c-.1612 0-.2865.13024-.2865.28838s.1253.28837.2865.28837.2865-.13023.2865-.28837-.1253-.28838-.2865-.28838zm-8.9449 7.63726c.2507-.1396.3402-.4559.2059-.707-.0697-.1224-.1822-.2121-.314-.2502-.1319-.0381-.2728-.0218-.3934.0455-.2507.1396-.3402.4558-.2059.707s.4567.3442.7074.2047zm3.7069-1.7675c.2775-.0744.4477-.3535.376-.6325-.0716-.2791-.3581-.4466-.6357-.3721-.2776.0744-.4477.3534-.3761.6325.0806.2791.3582.4465.6358.3721zm4.3158-.5488c.2865 0 .5193-.2326.5193-.521-.0012-.0696-.0155-.1383-.0423-.2022-.0267-.0638-.0653-.1216-.1135-.17s-.1052-.0864-.1675-.1119c-.0624-.0255-.129-.038-.196-.0368-.0671-.0012-.1337.0113-.1961.0368-.0623.0255-.1193.0635-.1675.1119s-.0868.1062-.1135.17c-.0267.0639-.0411.1326-.0423.2022 0 .2884.2328.521.5194.521zm-5.0411-.9024c.1612 0 .2865-.1302.2865-.28832 0-.15814-.1253-.28837-.2865-.28837s-.2865.13023-.2865.28837c-.009.15812.1253.28832.2865.28832zm.2418-1.04181c.1611 0 .2865-.13023.2865-.28837s-.1254-.28838-.2865-.28838c-.1612 0-.2866.13024-.2866.28838-.0089.15814.1254.28837.2866.28837zm-3.5906 2.74421c.1612 0 .2866-.1303.2866-.2884s-.1254-.2884-.2866-.2884c-.1611 0-.2865.1303-.2865.2884s.1254.2884.2865.2884zm.2418-1.0419c.1612 0 .2865-.1302.2865-.2884-.0023-.0773-.0335-.1506-.087-.2045-.0535-.0538-.125-.0839-.1995-.0838-.1612 0-.2865.1302-.2865.2883 0 .1582.1253.2884.2865.2884zm.4298-.91161c.1612 0 .2865-.13024.2865-.28838 0-.15813-.1253-.28837-.2865-.28837s-.2865.13024-.2865.28837c0 .15814.1343.28838.2865.28838zm.6894-.80931c.1612 0 .2866-.13023.2866-.28837s-.1254-.28837-.2866-.28837c-.1611 0-.2865.13023-.2865.28837s.1254.28837.2865.28837zm.8417-.61395c.1612 0 .2865-.13023.2865-.28837s-.1253-.28837-.2865-.28837-.2865.13023-.2865.28837.1343.28837.2865.28837zm.9133-.35349c.1612 0 .2865-.13023.2865-.28837s-.1253-.28837-.2865-.28837-.2865.13023-.2865.28837.1253.28837.2865.28837zm.9223.07442c.1611 0 .2865-.13023.2865-.28837s-.1254-.28837-.2865-.28837c-.1612 0-.2866.13023-.2866.28837s.1254.28837.2866.28837zm.6805-.78139c.1611 0 .2865-.13024.2865-.28838s-.1254-.28837-.2865-.28837c-.1612 0-.2866.13023-.2866.28837s.1254.28838.2866.28838zm.8864-.59535c.1612 0 .2865-.13024.2865-.28838 0-.15813-.1253-.28837-.2865-.28837s-.2865.13024-.2865.28837c0 .15814.1253.28838.2865.28838zm.9222-.34419c.1612 0 .2866-.13023.2866-.28837s-.1254-.28837-.2866-.28837c-.1611 0-.2865.13023-.2865.28837s.1254.28837.2865.28837zm1.8625 2.84651c.1611 0 .2865-.13023.2865-.28837s-.1254-.28837-.2865-.28837c-.1612 0-.2866.13023-.2866.28837s.1254.28837.2866.28837zm0-1.05116c.1611 0 .2865-.13023.2865-.28837s-.1254-.28837-.2865-.28837c-.1612 0-.2866.13023-.2866.28837s.1254.28837.2866.28837zm0-1.05116c.1611 0 .2865-.13024.2865-.28838 0-.15813-.1254-.28837-.2865-.28837-.1612 0-.2866.13024-.2866.28837 0 .15814.1254.28838.2866.28838zm-.9133-.91163c.1611 0 .2865-.13023.2865-.28837-.0023-.07733-.0336-.15067-.087-.2045-.0535-.05383-.1251-.08391-.1995-.08388-.1612 0-.2955.13024-.2955.28838 0 .16744.1343.28837.2955.28837zm7.951 7.11631c.2418.1302.4298.0744.6626-.0093-.385-.1954-.591-.3721-.4119-.8279.0806-.2047.1791-.3628.394-.4279-.1343-1.7768-.6268-2.6233-2.2385-3.43261l-.1164.03721c0 .01861.009.03721.009.06512 0 .24186-.1343.36279-.3134.49302.2865.05582.5462.19535.5462.53954 0 .28832-.197.44652-.4477.52092.0806.1581.0985.2233.0806.4093.3313.1581.4029.3628.3134.707-.1254.4837-.4119.5302-.8686.4093-.0246.1478 0 .2999.0696.4312.0696.1314.1803.2342.3136.2916.1334.0574.2816.0659.4203.0241.1386-.0417.2595-.1313.3426-.2539 0-.0465.009-.0837.0179-.1302.0717-.2791.3582-.4558.6447-.3814s.4567.3628.3761.6418c-.0269.0931-.0717.1675-.1343.2326-.009.2791.1074.5302.3402.6605zm-7.4854-6.50236c0-.03721.0089-.07442.0089-.12093-2.1042-.15814-3.6174 1.28372-3.8233 3.31159.188.0745.2597.1582.3402.3442.3672-.0186.5283.1303.6179.4651.1253.4745-.1075.6605-.5641.7814.1343.307.4118.521.77.4279.2865-.0744.4746-.3255.4746-.6232-.0533-.0825-.0814-.1797-.0806-.2791 0-.2884.2328-.5302.5283-.5302.2865 0 .5282.2325.5282.5302 0 .0558-.0089.1116-.0268.1675.0806.279.3134.4744.6178.4744.3671 0 .582-.2698.6357-.6047-.4656 0-.7342-.1209-.7342-.6139 0-.3535.1254-.5303.4835-.6047.0806-.43719.3044-.46509.6626-.52091.3671.06512.582.08372.6626.52091.3581.0744.4835.2512.4835.6047 0 .493-.2686.6139-.7342.6139.0537.3349.2686.6047.6357.6047.2955 0 .5283-.1954.6178-.4744-.0176-.054-.0267-.1105-.0268-.1675 0-.2884.2328-.5302.5282-.5302.2955 0 .5283.2325.5283.5302 0 .1023-.0268.1954-.0806.2791.009.2977.1881.5488.4746.6232.3582.0931.6357-.1209.77-.4279-.4566-.1209-.6805-.3069-.5641-.7814.0896-.3348.2507-.4837.6179-.4651.0895-.186.1522-.2697.3402-.3442-.2059-2.02787-1.7102-3.46973-3.8233-3.31159.0089.03721.0089.07442.0089.12093 0 .10233-.0358.18605-.0895.26977v.51163c.0537.08372.0895.16744.0895.26977 0 .10232-.0358.18604-.0895.26976l.009.53024c.0447.07441.0805.15813.0805.25116 0 .30697-.2238.3907-.4477.49302-.2238-.10232-.4476-.19535-.4476-.49302 0-.10233.0358-.18605.0895-.26977v-.50233c-.0559-.07818-.0872-.1724-.0895-.26976 0-.10233.0358-.18605.0895-.26977v-.52093c-.0465-.08171-.0713-.17483-.0716-.26977zm-6.8408 5.66516c.1701.4558-.0269.6325-.4119.8279.2328.0837.4208.1395.6626.0093.2417-.1303.3492-.3814.3223-.6419-.0631-.0643-.1093-.1444-.1343-.2326-.0298-.1392-.0064-.285.0655-.4066.0719-.1215.1865-.2092.3195-.2445.0767-.021.157-.0238.2348-.0082.0779.0156.1514.0493.215.0984.0636.0492.1158.1125.1527.1855.0368.0729.0574.1536.0601.2359.403.5302 1.2178.2512 1.1461-.493-.4566.1116-.7431.0651-.8685-.4093-.0895-.3349-.0179-.5488.3134-.707-.009-.186 0-.2512.0806-.4093-.2507-.0744-.4477-.2325-.4477-.52092 0-.35349.2596-.48372.5462-.53954-.1702-.13953-.3045-.25116-.3045-.49302 0-.0186 0-.04651-.1164-.08372-1.6385.8093-2.0952 1.6279-2.2384 3.4233.2238.0558.3223.2046.4029.4093zm13.9322 1.6837c-2.0146-.9489-4.271-1.4884-6.6437-1.4884-2.3728 0-4.6203.5302-6.6349 1.4791-.1343.0651-.2865 0-.3492-.1303-.0627-.1395 0-.2418.0627-.3534-.4119.1302-.7163.1302-1.0745-.1489-.6626.4465-1.4236-.4744-.9222-.893-.2328-.307-.2328-.6419.1074-.8651-.0643-.0919-.0988-.2027-.0985-.3163 0-.3442.2597-.4837.5462-.5395-.1701-.1303-.3044-.2512-.3044-.4931 0-.3534.2775-.5023.573-.5302-.0806-.13022-.1432-.22325-.1432-.38139 0-.28837.2328-.52093.5282-.52093.0896 0 .1791.02791.2597.05582-.0537-.12093-.0985-.21396-.0985-.34419 0-.28837.2328-.52093.5283-.52093.1433 0 .2238.05582.3492.11163-.0206-.06628-.0326-.13509-.0358-.20465 0-.28837.2328-.53023.5283-.53023.1611 0 .2507.06511.376.14883.0627-.27907.2149-.50232.5283-.50232.2328 0 .3671.13023.4835.30697.1254-.13953.2418-.23255.4388-.23255.0805 0 .1522.0186.2328.03721-.0485-.09152-.076-.19336-.0806-.29768 0-.28837.2328-.52093.5193-.52093.1701 0 .2597.07442.394.15814-.009-.06512-.0358-.14884-.0358-.22326 0-.28837.2328-.52093.5282-.52093.1702 0 .2597.06512.3851.15814.0626-.27907.2148-.50232.5372-.50232.197 0 .3044.08372.4298.21395.0985-.22325.2417-.38139.5103-.38139.0717 0 .1344.0186.206.04651.1612-.18605.3044-.26977.5372-.32558v-.55814h-.4387v-.33489h.4387v-.4h.3492v.4h.4388v.32558h-.4388v.55814c.2239.05582.3761.13954.5373.32559.0716-.02791.1343-.04652.2059-.04652.2686 0 .4119.16745.5104.3814.1253-.13023.2417-.21395.4298-.21395.3223 0 .4745.23255.5282.50232.1254-.09302.2239-.15814.394-.15814.2865 0 .5283.23256.5283.52093 0 .07442-.0179.15814-.0269.22326.1343-.08372.2239-.14884.394-.14884.2865 0 .5283.23256.5283.52093 0 .11163-.0358.19535-.0806.29768.0716-.01861.1522-.03721.2328-.03721.197 0 .3134.09302.4387.23255.1164-.18604.2507-.30697.4835-.30697.3224 0 .4746.23256.5373.50232.1253-.08372.2149-.14883.376-.14883.2866 0 .5283.23255.5283.53023 0 .06511-.0179.13953-.0268.20465.1164-.06512.2059-.11163.3402-.11163.2865 0 .5283.23256.5283.52093 0 .13023-.0448.22326-.0985.33489.0895-.02791.1701-.05582.2686-.05582.2865 0 .5283.23256.5283.52093 0 .15814-.0627.25117-.1433.38139.3045.0279.582.1768.582.5302 0 .2419-.1343.3628-.3044.4931.2865.0651.5462.1953.5462.5395 0 .1302-.0358.214-.0985.3163.3492.2232.3402.5488.1074.8558.3045.2512.1433.6419-.1074.8465-.2597.2047-.5283.2419-.8148.0465-.3582.2791-.6626.2791-1.0745.1489l.0627.1302c.0806.2325-.1254.4651-.3582.3814zm-12.5891.5302-.4298-.1581-.0358-.0651c-.0359.0186-.0627.0186-.0896.0279-.1164.0093-.1074-.121-.0537-.1489 1.9878-.9395 4.1994-1.4604 6.5453-1.4604s4.5575.5209 6.5453 1.4604c.0537.0279.0627.1582-.0537.1489-.0269 0-.0537-.0093-.0896-.0279l-.0358.0651-.4298.1581.1254.493-.0358.0838c.2238.1023.0716.2697-.0269.2232-1.8266-.8651-3.8591-1.3395-6.0081-1.3395-2.1489 0-4.1814.4744-6.008 1.3395-.0448.0186-.0985 0-.1254-.0558-.0268-.0558 0-.093.0358-.1302.0179-.0186.0448-.0279.0717-.0372l-.0358-.0838zm2.3727-.3628.9133-.6418-1.1102-.121-.9133.6419zm9.0077.5954c.2059 0 .376-.1675.376-.3721 0-.2047-.1701-.3721-.376-.3721-.206 0-.3761.1674-.3761.3721.009.2046.1701.3721.3761.3721zm-7.2885-.9675c.2059 0 .3761-.1674.3761-.3721 0-.2046-.1702-.3721-.3761-.3721s-.3761.1675-.3761.3721c0 .2047.1702.3721.3761.3721zm-3.5816.9675c.206 0 .3761-.1675.3761-.3721 0-.2047-.1612-.3721-.3761-.3721-.2059 0-.376.1674-.376.3721 0 .2046.1701.3721.376.3721zm7.2885-.9675c.206 0 .3761-.1674.3761-.3721 0-.2046-.1701-.3721-.3761-.3721-.2059 0-.3671.1675-.3671.3721 0 .2047.1701.3721.3671.3721zm1.7192.3721 1.1102-.1209-.9133-.6419-1.1102.121zm-2.4086-.8465-1.164-.4372-1.1641.4372 1.1641.4372zm-13.216 14.8465c0 6.6512 5.4261 12.093 12.052 12.093 6.6348 0 12.0609-5.4418 12.0609-12.093 0-6.6697-5.4261-12.093-12.0609-12.093-6.6349 0-12.052 5.4233-12.052 12.093zm25.4201 0c0 7.3768-5.9991 13.4047-13.3681 13.4047-7.3691 0-13.3682-6.0279-13.3682-13.4047 0-7.386 5.9991-13.4139 13.3682-13.4139 7.369-.0093 13.3681 6.0186 13.3681 13.4139zm-15.1231-5.7023 1.746 1.786 1.6296-1.7302c-.573-.1488-1.1192-.2605-1.7191-.2791-.5552-.0279-1.1193.1024-1.6565.2233zm4.5933-1.2465 2.5609-2.6512c3.3129 1.907 5.5424 5.4791 5.5424 9.5628 0 2.6605-.9401 5.0977-2.525 7.0047l-1.1908-1.2c1.343-1.6465 2.2205-3.2838 2.2205-5.907 0-2.8-1.4595-5.9256-3.7875-7.5442l-1.5401 1.5814c.788.5953 1.4148 1.1907 1.943 2.0279l-1.1729 1.014c-.4656-.8186-1.0655-1.3954-1.8356-1.9256l-3.0622 3.2372-3.1786-3.2837c-1.6476 1.1535-2.6146 2.8-2.6593 4.8465-.0538 2.7256 1.7012 4.6139 4.1635 5.4418v-5.4697h3.7607v1.1255h-2.3012v1.4605h2.2743v1.2837h-2.2743v1.8419c1.6833.0837 3.4831-.893 4.5754-2.1023l1.1282 1.1442c-1.4415 1.6744-3.5188 2.5209-5.6946 2.5395v1.6837h-1.4595v-1.8605c-3.3219-.8279-5.7305-3.7488-5.6858-7.2372.0269-2.3907 1.2984-4.3535 3.1429-5.7488l-1.558-1.6186c-2.4176 1.9814-3.7159 4.4-3.8233 7.5442-.0806 2.7814 1.352 5.0139 2.2564 5.9535l-1.0477 1.0697c-1.6206-1.8976-2.5787-4.2418-2.5787-6.9116 0-4.0558 2.2295-7.6279 5.5156-9.5349l2.5967 2.7163c.9222-.3535 1.8803-.5395 2.8652-.5395.9849.0186 1.8356.1953 2.7489.5395z" fill="#fcbf00"/><path d="m38.2436 28.5348c0 7.6-6.1782 13.8046-13.7622 13.8046-7.5929 0-13.7621-6.2046-13.7621-13.8046 0-7.6093 6.1782-13.8233 13.7621-13.8233 7.593 0 13.7622 6.214 13.7622 13.8233zm-.394 0c0-7.3861-5.9991-13.414-13.3682-13.414-7.369 0-13.3681 6.0279-13.3681 13.414 0 7.3767 5.9991 13.4046 13.3681 13.4046 7.3691 0 13.3682-6.0279 13.3682-13.4046zm-25.0261 0c0 6.4279 5.247 11.693 11.6579 11.693 6.411 0 11.658-5.2558 11.658-11.693 0-6.4465-5.247-11.6837-11.658-11.6837-6.4109-.0093-11.6579 5.2372-11.6579 11.6837zm-.394 0c0-6.6698 5.4261-12.093 12.0519-12.093 6.6349 0 12.0609 5.4232 12.0609 12.093 0 6.6511-5.426 12.093-12.0609 12.093-6.6348-.0093-12.0519-5.4419-12.0519-12.093zm13.4667-2.6698 6.5184 6.7442c.7432-1.2279 1.1192-2.4837 1.1192-4.2233 0-3.0325-1.7012-5.7953-3.3398-7.0232l-.9849 1.0139c.779.6233 1.3431 1.3024 1.8535 2.1582l-1.8087 1.5721c-.4298-.8558-.8865-1.4605-1.6655-2.0279zm8.2644 8.5488c-1.173 2-2.9637 3.5814-5.0858 4.5303l-1.0566-1.0791-1.9698-2.0186c-.4477.1023-.9133.1581-1.3879.1675v1.693h-2.2564v-1.9535c-3.3845-.9209-5.7215-4.1023-5.6857-7.5535.009-.5767.0896-1.1349.2239-1.6744l-1.1103-1.1349c-.3313.9302-.5193 1.9349-.5552 3.0046-.0626 2.1396.8686 4.4559 2.4176 5.9349l-1.6296 1.6651c-1.9162-2.1581-2.9638-4.586-2.9638-7.5069 0-4.2605 2.3281-7.9814 5.9902-10.0279l2.6235 2.7535c.8685-.3163 1.8534-.4745 2.7578-.4745.976.0093 1.8624.1861 2.6593.4745l2.6683-2.7814c3.689 2.0558 6.017 5.7767 6.017 10.0651.0089 2.1767-.5731 4.1488-1.6565 5.9162zm-11.7654-2.2976-3.3667-3.4419c.0806 1.9256 1.2536 3.7489 3.3667 4.5582zm4.9246-10.5303-.0895.0931c-.8773-.3513-1.8087-.5341-2.7489-.5396-.9849 0-1.943.1861-2.8652.5396l-2.5966-2.7163c-3.2861 1.8977-5.5156 5.4698-5.5156 9.5256 0 2.679.958 5.0139 2.5787 6.9116l1.0476-1.0698c-.9044-.9395-2.337-3.1721-2.2564-5.9535.1075-3.1441 1.4058-5.5627 3.8233-7.5441l1.558 1.6186c-1.8445 1.3953-3.116 3.3581-3.1428 5.7488-.0448 3.4884 2.3549 6.4093 5.6857 7.2372v1.8605h1.4595v-1.6837c2.1847-.0187 4.2621-.8652 5.6947-2.5396l-1.1282-1.1442c-1.0924 1.2093-2.8832 2.1954-4.5755 2.1024v-1.8419h2.2743v-1.2837h-2.2743v-1.4605h2.3012v-1.1256h-3.7606v5.4698c-2.4624-.8279-4.2263-2.7163-4.1636-5.4419.0448-2.0465 1.0118-3.693 2.6593-4.8465l3.1786 3.2837 3.0623-3.2372c.779.5303 1.3699 1.107 1.8355 1.9256l1.173-1.0139c-.5283-.8372-1.1551-1.4326-1.943-2.0279l1.5401-1.5814c2.328 1.6186 3.7875 4.7441 3.7875 7.5441 0 2.614-.8775 4.2605-2.2206 5.907l1.1909 1.2c1.5848-1.907 2.525-4.3349 2.525-7.0046 0-4.0837-2.2296-7.6558-5.5425-9.5628zm-4.5933 1.2466c.5372-.121 1.1013-.2512 1.6565-.2326.5999.0186 1.146.1302 1.7191.2791l-1.6296 1.7302zm.7969.2418.9401.9675.8775-.9303c-.3134-.0651-.6357-.093-.976-.1023-.2059-.0093-.5193.0186-.8416.0651zm7.0019-8.1209.0806.3256.0358.1116.0627-.0372.3044-.1675-.0805-.3162-.018-.0652zm.5999-.5861c.2328.0838.4388-.1581.3313-.3628l-.0626-.1302c.4118.1302.7163.1302 1.0744-.1488.2865.1953.5462.1581.8148-.0465.2597-.2047.4119-.5954.1075-.8465.2328-.307.2417-.6419-.1075-.8559.0627-.1023.0985-.186.0985-.3162 0-.3442-.2596-.4838-.5462-.5396.1702-.1395.3045-.2511.3045-.493 0-.3535-.2776-.5023-.582-.5302.0805-.13026.1432-.21398.1432-.38142 0-.28838-.2328-.52094-.5283-.52094-.0895 0-.179.02791-.2686.05582.0537-.12093.0985-.20465.0985-.33488 0-.28838-.2328-.52094-.5283-.52094-.1432 0-.2238.04652-.3402.11163.0089-.06511.0269-.13953.0269-.20465-.0012-.07085-.0158-.14078-.043-.20577-.0272-.065-.0664-.1238-.1155-.17304-.049-.04923-.1069-.08795-.1704-.11393s-.1312-.03872-.1994-.03749c-.1612 0-.2507.06512-.3761.14884-.0627-.27907-.2149-.50233-.5372-.50233-.2328 0-.3671.13023-.4835.30698-.1254-.13954-.2418-.23256-.4388-.23256-.0806 0-.1611.0186-.2328.03721.0448-.10233.0806-.18605.0806-.29768 0-.28837-.2328-.52093-.5283-.52093-.1701 0-.2596.06512-.3939.14884.0089-.06511.0268-.14884.0268-.22325 0-.28838-.2328-.52093-.5283-.52093-.1701 0-.2596.06511-.3939.15813-.0627-.27907-.2149-.50232-.5283-.50232-.197 0-.3044.08372-.4298.21395-.1074-.22325-.2418-.38139-.5104-.38139-.0806 0-.1343.0186-.2059.04651-.1612-.18605-.3044-.26977-.5372-.32558v-.55814h.4387v-.34419h-.4387v-.4h-.3493v.4h-.4387v.32558h.4387v.55814c-.2238.05582-.3671.13954-.5372.32558-.0652-.0287-.1351-.04447-.2059-.04651-.2686 0-.4119.16744-.5104.3814-.1254-.13023-.2418-.21396-.4298-.21396-.3223 0-.4745.23256-.5372.50233-.1254-.09302-.2239-.15814-.385-.15814-.2866 0-.5283.23256-.5283.52093 0 .07442.0179.15814.0358.22326-.1343-.08372-.2328-.15814-.394-.15814-.067-.00124-.1336.01126-.196.03678-.0624.02551-.1193.06354-.1675.11192-.0482.04837-.0868.10614-.1135.17001-.0268.06387-.0411.13258-.0423.20222 0 .11163.0358.19535.0806.29767-.0806-.0186-.1522-.03721-.2328-.03721-.197 0-.3134.09303-.4388.23256-.1164-.18605-.2507-.30698-.4835-.30698-.3223 0-.4745.23256-.5282.50233-.0985-.07442-.197-.13954-.3582-.13954-.0682-.00123-.136.01151-.1994.03749-.0635.02598-.1214.0647-.1705.11394-.049.04924-.0883.10804-.1154.17303-.0272.065-.0418.13492-.043.20578 0 .06511.0179.13953.0269.20465-.1003-.07137-.2187-.11022-.3403-.11163-.2865 0-.5282.23256-.5282.52093 0 .13023.0447.22326.0984.33488-.0805-.0186-.1611-.04651-.2596-.04651-.2865 0-.5283.23256-.5283.52093 0 .15814.0627.25117.1433.38143-.2955.0279-.5641.1767-.5641.5302 0 .2419.1343.3628.3044.493-.2865.0651-.5462.1954-.5462.5396 0 .1302.0358.2139.0985.3162-.3402.2233-.3402.5582-.1074.8652-.5015.4186.2596 1.3488.9222.893.3582.279.6626.279 1.0745.1488-.0537.1209-.1254.2233-.0627.3535.0627.1395.2149.1954.3492.1302 2.0146-.9488 4.2621-1.479 6.6348-1.479 2.3818.0093 4.6292.5395 6.6438 1.4883zm-12.6876.5861-.2776-.1023-.1075-.0373-.0179.0652-.0805.3069.3044.1675.0627.0372.0268-.1209zm-.1791.5023-.4029-.2232.0985-.4c-.1523-.0187-.2239-.1954-.1523-.3163-.0825.0125-.1667-.0024-.2407-.0425-.0739-.04-.1338-.1033-.1711-.1808-.0359-.0744-.0448-.1488-.0359-.2232-.3044.0651-.6267-.0093-.8685-.1861-.7073.4279-1.5401-.5953-1.0834-1.0698-.206-.3069-.1522-.679.1074-.8837-.0437-.0858-.0653-.182-.0626-.279 0-.2698.1701-.5024.4029-.6047-.1037-.1164-.1613-.2693-.1612-.4279 0-.307.2149-.5581.4925-.63256-.0438-.08583-.0654-.18198-.0627-.27907 0-.36279.2865-.65116.6447-.65116h.0627c-.0223-.09751-.0228-.19902-.0015-.29677.0212-.09775.0637-.18915.1242-.26723.0605-.07809.1373-.14078.2247-.18329.0873-.04251.1829-.06372.2793-.06201.0717 0 .1343.0093.197.0279 0-.35348.2955-.64186.6447-.64186.1074 0 .2059.02791.2955.07442.0895-.25116.3313-.4279.6088-.4279.197 0 .3851.09302.5015.24186.1164-.10233.2596-.15814.4297-.15814h.0448c-.0089-.04651-.0179-.09303-.0179-.13954 0-.36279.2865-.65116.6447-.65116.0895 0 .1701.0186.2417.04651.009-.35349.2955-.64186.6447-.64186.1164 0 .2239.02791.3134.08372.0896-.25116.3313-.42791.6089-.42791.1522 0 .2865.04652.394.13954.1164-.17675.3133-.29768.5461-.29768.0627 0 .1164.00931.1702.02791.1074-.11163.2328-.19535.385-.26046l.0627-.02791v-.33488h-.4388v-.57675h.4388v-.4h.5999v.4h.4387v.57675h-.4387v.33488l.0626.02791c.1433.05581.2776.13953.3851.26046.0537-.0186.1074-.02791.1701-.02791.2328 0 .4298.12093.5462.29768.1074-.08372.2507-.13954.3939-.13954.2776 0 .5194.17675.6089.42791.0896-.05581.197-.08372.3134-.08372.3582 0 .6447.28837.6447.64186.0716-.02791.1522-.04651.2417-.04651.3582 0 .6447.28837.6447.65116 0 .04651 0 .09303-.0179.13954h.0448c.156.00267.3069.0582.4298.15814.1164-.14884.2954-.24186.5014-.24186.2776 0 .5193.17674.6088.4279.0896-.04651.1881-.07442.2955-.07442.3582 0 .6447.28838.6447.64186.0641-.01901.1304-.02841.197-.0279.3581 0 .6447.28837.6447.65116 0 .05581-.009.11163-.0179.16744h.0626c.3582 0 .6447.28837.6447.65117 0 .10232-.0268.19534-.0627.27907.2866.06515.4925.32555.4925.63255 0 .1674-.0627.3163-.1701.4372.2417.093.4119.3256.4119.6047 0 .1023-.0269.1953-.0627.279.2597.2047.3134.5768.1074.8838.2866.2976.0359.772-.2059.9674-.2328.186-.5641.2977-.8864.1023-.2507.1768-.5641.2512-.8686.1861.0358.2604-.197.4837-.4477.4465.0717.1209 0 .2977-.1522.3163l.0985.4-.4029.2232c.0537.0651.0627.1582.0268.2419-.0537.1116-.179.1767-.2954.1209-1.8087-.8558-3.8233-1.3302-5.9633-1.3302-2.1311 0-4.1457.4744-5.9544 1.3302-.1164.0558-.2417-.0093-.2954-.1209.0089-.1024.0179-.1954.0716-.2605zm.2776-.5581-.1254.493.0358.0837c-.0179.0093-.0448.0186-.0716.0372-.0358.0279-.0627.0651-.0358.1303.0268.0558.0806.0744.1253.0558 1.8266-.8651 3.8592-1.3396 6.0081-1.3396 2.1579 0 4.1815.4745 6.0081 1.3396.0895.0465.2507-.121.0268-.2233l.0358-.0837-.1253-.493.4298-.1582.0358-.0651c.0358.0186.0627.0186.0895.0279.1164.0093.1075-.1209.0537-.1488-2.0557-.9686-4.2879-1.4667-6.5453-1.4605-2.3459 0-4.5575.5209-6.5453 1.4605-.0537.0279-.0626.1581.0538.1488.0268 0 .0537-.0093.0895-.0279l.0269.0651zm9.8313-5.74887c-.5103-1.29302-1.7102-2.21395-3.304-2.13023 0 .11163-.0358.21395-.0895.30698v.43721c.0537.09302.0895.19535.0895.30697 0 .11163-.0358.22326-.0895.30698v.27907c1.0924-.14884 2.3817-.03721 3.3935.49302zm-3.4024-.32558c.0759.11837.1053.26253.082.40273s-.0976.26576-.2074.35076c.197.06512.3492.21395.4029.47446.394.093.5014.3907.5014.7069 0 .3814-.1522.707-.7073.7349.0627.214.2596.3628.4925.3628.2238 0 .4208-.1488.4835-.3535-.0179-.0558-.0179-.1116-.0179-.1674 0-.3628.2954-.6512.6536-.6512.3581 0 .6536.2884.6536.6512 0 .1116-.0268.2139-.0806.307.009.2232.1612.4093.3851.4744.2238.0558.4476-.0372.564-.2326-.5282-.1674-.5999-.5209-.5014-.893.0806-.307.2597-.5674.6537-.5581.0716-.1489.1701-.2419.2865-.2977-.0358-.307-.0985-.59537-.2059-.87444-1.0387-.57674-2.3907-.67907-3.4383-.52093zm-.9313-1.80465c0 .10233.0359.18605.0896.26977v.51163c-.0537.08372-.0896.16744-.0896.26976 0 .10233.0359.18605.0896.26977v.52093c-.0537.08372-.0896.16744-.0896.26977 0 .30698.2239.3907.4477.49302.2239-.10232.4477-.19535.4477-.49302 0-.09302-.0268-.18605-.0805-.25116l-.009-.53024c.0537-.08372.0895-.16744.0895-.26976 0-.10233-.0358-.18605-.0895-.26977v-.52093c.0537-.08372.0895-.16744.0895-.26977 0-.03721-.0089-.07442-.0089-.12093 2.1042-.15814 3.6174 1.28372 3.8233 3.31163-.188.0744-.2597.1581-.3402.3442-.3672-.0186-.5283.1302-.6179.4651-.1253.4744.1075.6605.5641.7814-.1343.307-.4119.5209-.77.4279-.1355-.0324-.2564-.1117-.3427-.225-.0862-.1133-.1328-.2538-.1319-.3983.0533-.0824.0814-.1797.0806-.279-.0011-.0709-.0157-.1408-.0429-.2058s-.0664-.1238-.1155-.173c-.0491-.0493-.107-.088-.1704-.114-.0635-.0259-.1313-.0387-.1995-.0375-.0682-.0012-.1359.0116-.1994.0375-.0635.026-.1214.0647-.1704.114-.0491.0492-.0883.108-.1155.173s-.0418.1349-.0429.2058c0 .0558.0089.1116.0268.1674-.0806.2791-.3223.4744-.6178.4744-.3671 0-.582-.2697-.6357-.6046.4656 0 .7342-.1209.7342-.614 0-.3535-.1254-.5302-.4835-.6046-.0806-.43723-.3044-.46513-.6626-.52095-.3671.06512-.582.08372-.6626.52095-.3581.0744-.4835.2511-.4835.6046 0 .4931.2686.614.7342.614-.0537.3349-.2686.6046-.6357.6046-.1384.0003-.2731-.0457-.3844-.1311-.1112-.0854-.1931-.2058-.2334-.3433.0179-.0558.0268-.1116.0268-.1674-.0011-.0709-.0157-.1408-.0429-.2058s-.0664-.1238-.1155-.173c-.049-.0493-.107-.088-.1704-.114-.0635-.0259-.1312-.0387-.1994-.0375-.2955 0-.5283.2326-.5283.5303 0 .1023.0268.1953.0806.279-.009.2977-.1881.5489-.4746.6233-.3582.093-.6357-.1209-.77-.4279.4566-.1209.6805-.307.5641-.7814-.0896-.3349-.2507-.4837-.6179-.4651-.0895-.1861-.1522-.2698-.3402-.3442.2059-2.02791 1.7102-3.46977 3.8233-3.31163-.0179.04651-.0269.08372-.0269.12093zm-3.483 2.25116c-.0985.27907-.1701.56745-.197.87444.1164.0558.2149.1488.2865.2977.4029-.0093.582.2511.6626.5581.0985.3721.0269.7256-.5014.893.1164.1861.3402.2884.5641.2326.2238-.0558.376-.2512.385-.4744-.0536-.0927-.0815-.1989-.0806-.307 0-.3628.2955-.6512.6537-.6512.3581 0 .6536.2884.6536.6512 0 .0558-.009.1116-.0179.1674.0716.2047.2596.3535.4835.3535.2328 0 .4208-.1488.4925-.3628-.5552-.0279-.7074-.3535-.7074-.7349 0-.3255.1074-.6139.5014-.7069.0627-.2605.2149-.40004.4029-.47446-.0654-.05322-.1186-.12089-.1558-.19812-.0372-.07722-.0573-.16207-.0591-.24839 0-.11163.0359-.22325.0896-.30698v-.09302c-1.0655-.14884-2.4176-.04651-3.4562.53023zm3.3577-2.25116c-1.6028-.09302-2.7936.83721-3.3129 2.13023 1.0028-.52093 2.3011-.65116 3.3935-.49302v-.27907c-.0537-.09302-.0896-.19535-.0896-.30698 0-.11162.0359-.22325.0896-.30697v-.43721c-.0507-.0939-.0784-.19933-.0806-.30698zm6.5184 5.9163.0358-.0279c.0717.0558.1344.093.2239.1209.0358.0093.0806.0093.1164.0186.0448.2326.1254.4186.2865.5861l-.0716.1023c-.385-.1675-.77-.3256-1.173-.4651l.0179-.121c.197-.0186.403-.093.5641-.2139zm.0358.1209c-.1074.0744-.2328.1302-.3581.1675.2507.093.5014.1953.7432.2976-.0708-.1107-.1224-.2335-.1523-.3628l-.0358-.0093c-.0716-.0186-.1343-.0558-.197-.093zm-6.0438-1.5721h.1253c.0448.3349.2597.6233.5552.7628l-.0269.1209c-.197-.0093-.394-.0093-.591-.0093-.1969 0-.3939 0-.5909.0093l-.0269-.1209c.2955-.1488.5104-.4279.5552-.7628zm.0626.2512c-.0716.1953-.1969.3628-.3671.493.1254 0 .2418-.0093.3671-.0093.1254 0 .2418 0 .3672.0093-.1633-.1266-.2903-.297-.3672-.493zm-6.5273 1.9907-.0717-.1023c.1612-.1768.2418-.3535.2865-.5861.1523-.0186.206-.0372.3313-.1302.1881.1395.3761.2232.6089.2325l.0179.121c-.4029.1395-.7879.2976-1.1729.4651zm.1701-.2047c.2417-.1023.4924-.2046.7431-.2976-.1253-.0373-.2507-.0931-.3581-.1675-.0537.0372-.1254.0651-.188.0837l-.0359.0093c-.0447.1303-.0895.2605-.1611.3721zm2.91-.9209v.1209c-.385.0837-.7521.1768-1.1282.2884l-.0537-.1116c.2417-.214.385-.5396.3402-.8744l.1164-.028c.1254.3163.403.5396.7253.6047zm-.2507.0465c-.188-.0837-.3492-.2139-.4656-.3814-.0269.2047-.0985.4-.2239.5582.2239-.0652.4567-.121.6895-.1768zm1.0476-.0837-.0448-.1116c.2239-.1489.3671-.3442.4567-.5954h.0716c.0716 0 .1254-.0186.197-.0372.1522.2233.3313.3814.5909.4558l-.0089.1209c-.4298.0466-.8506.1024-1.2625.1675zm.5014-.5768c-.0627.1582-.1612.2977-.2865.4186.2596-.0372.5283-.0744.7969-.1023-.1522-.0837-.2776-.1953-.3761-.3349-.0448.0093-.0895.0186-.1343.0186zm3.5368.4186-.009-.1209c.2597-.0837.4388-.2418.591-.4558.0716.0186.1254.0372.197.0372h.0716c.0896.2512.2328.4465.4567.5954l-.0448.1116c-.4119-.0744-.8327-.1302-1.2625-.1675zm.7611-.4186c-.0424-.0009-.0845-.0072-.1254-.0186-.0985.1396-.2328.2512-.385.3349.2686.0279.5372.0558.7969.1023-.1164-.1116-.2059-.2418-.2776-.3907zm2.4892.9117-.0538.1116c-.3671-.1116-.7431-.2047-1.1282-.2884v-.1209c.3134-.0651.591-.2884.7164-.5954l.1164.028c-.0359.3348.0985.6604.3492.8651zm-.2418-.0744c-.1253-.1582-.2059-.3535-.2238-.5582-.1164.1675-.2866.2977-.4656.3814.2238.0558.4566.1116.6894.1768zm.1791-2.1303c-.2776-.0744-.5641.093-.6357.3721-.0717.2791.0985.5675.376.6326.2776.0744.5641-.0931.6357-.3721.0717-.2791-.0984-.5675-.376-.6326zm.0179-.0837c.3223.0837.5193.4093.4387.7349s-.4118.5209-.7342.4372c-.0756-.0177-.147-.0509-.2101-.0976s-.1166-.1059-.1575-.1743c-.0408-.0684-.0681-.1446-.0803-.2241-.0123-.0795-.0091-.1607.0092-.2389.0806-.3256.4119-.5209.7342-.4372zm.4566-.93954c-.1611 0-.2865.13024-.2865.28838 0 .15816.1343.28836.2865.28836.1612 0 .2866-.1302.2866-.28836 0-.16745-.1254-.28838-.2866-.28838zm0-.08372c.206 0 .3761.16744.3761.3721s-.1701.37206-.3761.37206c-.2059 0-.376-.1674-.376-.37206s.1701-.3721.376-.3721zm-.2417-.95814c-.1612 0-.2865.13024-.2865.28838s.1343.28837.2865.28837c.1612 0 .2865-.13023.2865-.28837s-.1253-.28838-.2865-.28838zm0-.08372c.2059 0 .3761.16744.3761.3721 0 .20465-.1702.37209-.3761.37209-.206 0-.3761-.16744-.3761-.37209 0-.20466.1701-.3721.3761-.3721zm3.5815 2.81862c-.1611 0-.2865.1302-.2865.2884 0 .1581.1254.2883.2865.2883.1612 0 .2866-.1302.2866-.2883 0-.1582-.1254-.2884-.2866-.2884zm0-.0837c.206 0 .3761.1674.3761.3721 0 .2046-.1701.3721-.3761.3721-.2059 0-.376-.1675-.376-.3721 0-.2047.1701-.3721.376-.3721zm-.2417-.9489c-.1612 0-.2865.1303-.2865.2884s.1253.2884.2865.2884.2865-.1303.2865-.2884-.1253-.2884-.2865-.2884zm0-.0837c.2059 0 .3761.1674.3761.3721s-.1702.3721-.3761.3721-.3761-.1674-.3761-.3721c.009-.2047.1702-.3721.3761-.3721zm-.4298-.8279c-.1612 0-.2865.13023-.2865.28837s.1343.28838.2865.28838c.1612 0 .2865-.13024.2865-.28838s-.1253-.28837-.2865-.28837zm0-.08372c.2059 0 .3761.16744.3761.37209s-.1702.37213-.3761.37213-.3761-.16748-.3761-.37213.1702-.37209.3761-.37209zm-.6894-.72558c-.1612 0-.2866.13023-.2866.28837s.1254.28837.2866.28837c.1611 0 .2865-.13023.2865-.28837s-.1254-.28837-.2865-.28837zm0-.08372c.2059 0 .376.16744.376.37209s-.1612.37209-.376.37209c-.206 0-.3761-.16744-.3761-.37209.0089-.20465.1701-.37209.3761-.37209zm-.8417-.53024c-.1612 0-.2865.13024-.2865.28838s.1253.28837.2865.28837.2865-.13023.2865-.28837-.1253-.28838-.2865-.28838zm0-.08372c.2059 0 .3761.16745.3761.3721s-.1702.37209-.3761.37209c-.206 0-.3761-.16744-.3761-.37209s.1701-.3721.3761-.3721zm-.9133-.27907c-.1612 0-.2865.13024-.2865.28838s.1253.28837.2865.28837.2865-.13023.2865-.28837c.009-.15814-.1253-.28838-.2865-.28838zm0-.08372c.2059 0 .3761.16744.3761.3721 0 .20465-.1702.37209-.3761.37209s-.3761-.16744-.3761-.37209c.009-.20466.1702-.3721.3761-.3721zm-.9223.16745c-.1611 0-.2865.13023-.2865.28837s.1254.28837.2865.28837c.1612 0 .2866-.13023.2866-.28837s-.1254-.28837-.2866-.28837zm0-.08373c.206 0 .3761.16745.3761.3721s-.1701.37209-.3761.37209c-.2059 0-.376-.16744-.376-.37209s.1701-.3721.376-.3721zm-.6805-.70697c-.1611 0-.2865.13023-.2865.28837s.1254.28837.2865.28837c.1612 0 .2866-.13023.2866-.28837.0089-.15814-.1254-.28837-.2866-.28837zm0-.07442c.206 0 .3761.16744.3761.37209s-.1701.3721-.3761.3721c-.2059 0-.376-.16745-.376-.3721.0089-.20465.1701-.37209.376-.37209zm-.8864-.51163c-.1612 0-.2865.13023-.2865.28837s.1253.28838.2865.28838.2865-.13024.2865-.28838-.1253-.28837-.2865-.28837zm0-.08372c.2059 0 .3761.16744.3761.37209s-.1702.3721-.3761.3721-.3761-.16745-.3761-.3721c.009-.20465.1702-.37209.3761-.37209zm-.9222-.26047c-.1612 0-.2866.13024-.2866.28838s.1254.28837.2866.28837c.1611 0 .2865-.13023.2865-.28837.0089-.15814-.1254-.28838-.2865-.28838zm0-.08372c.2059 0 .376.16745.376.3721s-.1701.37209-.376.37209c-.206 0-.3761-.16744-.3761-.37209.0089-.20465.1701-.3721.3761-.3721zm-.9402-.08372c-.1612 0-.2865.13024-.2865.28838 0 .15813.1253.28837.2865.28837s.2865-.13024.2865-.28837c0-.15814-.1253-.28838-.2865-.28838zm0-.08372c.2059 0 .3761.16744.3761.3721 0 .20465-.1702.37209-.3761.37209s-.3671-.16744-.3671-.37209c-.009-.20466.1612-.3721.3671-.3721zm-8.945 7.72092c.2508-.1395.3403-.4558.206-.707-.0697-.1224-.1822-.212-.3141-.2501-.1318-.0382-.2727-.0219-.3933.0455-.2507.1395-.3402.4558-.2059.707.1343.2511.4566.3441.7073.2046zm.0359.0744c-.2955.1582-.6537.0558-.8148-.2418-.0381-.0697-.0621-.1468-.0706-.2265-.0084-.0797-.001-.1603.0216-.237.0226-.0766.0601-.1476.1101-.2087s.1114-.1109.1806-.1464c.2955-.1582.6626-.0558.8148.2418.1612.2884.0537.6605-.2417.8186zm3.6711-1.8418c.2775-.0744.4477-.3535.376-.6326-.0716-.2791-.3581-.4465-.6357-.3721s-.4477.3535-.3761.6326c.0806.279.3582.4465.6358.3721zm.0268.0837c-.1531.0417-.3159.0193-.4532-.0625-.1374-.0818-.2383-.2164-.281-.3747-.0806-.3256.1075-.6512.4387-.7349.3224-.0837.6537.1116.7343.4372s-.1164.6512-.4388.7349zm4.2889-.6326c.2866 0 .5194-.2325.5194-.5209-.0012-.0696-.0156-.1383-.0423-.2022s-.0653-.1217-.1135-.17c-.0483-.0484-.1052-.0864-.1676-.1119-.0623-.0256-.1289-.0381-.196-.0368-.067-.0013-.1336.0112-.196.0368-.0623.0255-.1193.0635-.1675.1119-.0482.0483-.0868.1061-.1135.17-.0268.0639-.0411.1326-.0423.2022 0 .2884.2328.5209.5193.5209zm0 .0838c-.0776.0012-.1546-.0135-.2268-.0432s-.138-.0739-.1937-.1301c-.0557-.0561-.1002-.1231-.131-.1971-.0308-.0741-.0472-.1537-.0484-.2343 0-.3349.2686-.6046.5999-.6046s.6.2697.6.6046c.0089.3349-.2687.6047-.6.6047zm-5.041-.9861c.1612 0 .2865-.1302.2865-.28836 0-.15814-.1253-.28838-.2865-.28838s-.2865.13024-.2865.28838c-.009.15816.1253.28836.2865.28836zm0 .0837c-.2059 0-.3671-.1674-.3671-.37206s.1701-.3721.3671-.3721c.2059 0 .3761.16744.3761.3721-.009.20466-.1702.37206-.3761.37206zm.2418-1.12555c.1611 0 .2865-.13023.2865-.28837s-.1254-.28838-.2865-.28838c-.1612 0-.2866.13024-.2866.28838-.0089.15814.1254.28837.2866.28837zm0 .08372c-.206 0-.3761-.16744-.3761-.37209 0-.20466.1701-.3721.3761-.3721.2059 0 .376.16744.376.3721-.0089.20465-.1791.37209-.376.37209zm-3.5906 2.66043c.1612 0 .2866-.1302.2866-.2883 0-.1582-.1254-.2884-.2866-.2884-.1611 0-.2865.1302-.2865.2884 0 .1581.1254.2883.2865.2883zm0 .0838c-.2059 0-.376-.1675-.376-.3721 0-.2047.1701-.3721.376-.3721.206 0 .3671.1674.3671.3721.009.2046-.1611.3721-.3671.3721zm.2418-1.1256c.1612 0 .2865-.1303.2865-.2884-.0023-.0773-.0335-.1507-.087-.2045s-.125-.0839-.1995-.0839c-.1612 0-.2865.1303-.2865.2884s.1253.2884.2865.2884zm0 .0837c-.2059 0-.3761-.1674-.3761-.3721s.1702-.3721.3761-.3721.3761.1674.3761.3721-.1702.3721-.3761.3721zm.4298-.99535c.1612 0 .2865-.13024.2865-.28838s-.1253-.28837-.2865-.28837-.2865.13023-.2865.28837.1343.28838.2865.28838zm0 .08375c-.206 0-.3761-.16748-.3761-.37213s.1701-.37209.3761-.37209c.2059 0 .376.16744.376.37209s-.1701.37213-.376.37213zm.6894-.89306c.1612 0 .2866-.13023.2866-.28837s-.1254-.28837-.2866-.28837c-.1611 0-.2865.13023-.2865.28837s.1254.28837.2865.28837zm0 .08372c-.2059 0-.376-.16744-.376-.37209s.1701-.37209.376-.37209c.206 0 .3761.16744.3761.37209s-.1701.37209-.3761.37209zm.8417-.69767c.1612 0 .2865-.13023.2865-.28837s-.1253-.28838-.2865-.28838-.2865.13024-.2865.28838.1343.28837.2865.28837zm0 .08372c-.2059 0-.3761-.16744-.3761-.37209s.1702-.3721.3761-.3721.3761.16745.3761.3721-.1702.37209-.3761.37209zm.9133-.43721c.1612 0 .2865-.13023.2865-.28837s-.1253-.28837-.2865-.28837-.2865.13023-.2865.28837.1253.28837.2865.28837zm0 .08372c-.2059 0-.3761-.16744-.3761-.37209s.1702-.37209.3761-.37209.3761.16744.3761.37209c-.009.20465-.1702.37209-.3761.37209zm.9222-.0093c.1612 0 .2866-.13023.2866-.28837s-.1254-.28837-.2866-.28837c-.1611 0-.2865.13023-.2865.28837s.1254.28837.2865.28837zm0 .08372c-.2059 0-.376-.16744-.376-.37209s.1701-.3721.376-.3721c.206 0 .3761.16745.3761.3721s-.1701.37209-.3761.37209zm.6805-.86512c.1612 0 .2866-.13023.2866-.28837s-.1254-.28837-.2866-.28837c-.1611 0-.2865.13023-.2865.28837s.1254.28837.2865.28837zm0 .08373c-.2059 0-.376-.16745-.376-.3721s.1701-.37209.376-.37209c.206 0 .3761.16744.3761.37209s-.1701.3721-.3761.3721zm.8865-.67907c.1612 0 .2865-.13024.2865-.28838s-.1253-.28837-.2865-.28837-.2865.13023-.2865.28837.1253.28838.2865.28838zm0 .08372c-.206 0-.3761-.16745-.3761-.3721s.1701-.37209.3761-.37209c.2059 0 .376.16744.376.37209s-.1701.3721-.376.3721zm.9222-.42791c.1612 0 .2866-.13023.2866-.28837s-.1254-.28838-.2866-.28838c-.1611 0-.2865.13024-.2865.28838s.1254.28837.2865.28837zm0 .08372c-.2059 0-.376-.16744-.376-.37209s.1701-.3721.376-.3721c.206 0 .3761.16745.3761.3721s-.1701.37209-.3761.37209zm1.8624 2.76279c.1612 0 .2866-.13023.2866-.28837s-.1254-.28837-.2866-.28837c-.1611 0-.2865.13023-.2865.28837s.1254.28837.2865.28837zm0 .08372c-.2059 0-.376-.16744-.376-.37209s.1701-.37209.376-.37209c.206 0 .3761.16744.3761.37209s-.1701.37209-.3761.37209zm0-1.13488c.1612 0 .2866-.13023.2866-.28837s-.1254-.28838-.2866-.28838c-.1611 0-.2865.13024-.2865.28838s.1254.28837.2865.28837zm0 .08372c-.2059 0-.376-.16744-.376-.37209 0-.20466.1701-.3721.376-.3721.206 0 .3761.16744.3761.3721 0 .20465-.1701.37209-.3761.37209zm0-1.13488c.1612 0 .2866-.13024.2866-.28838s-.1254-.28837-.2866-.28837c-.1611 0-.2865.13023-.2865.28837s.1254.28838.2865.28838zm0 .07441c-.2059 0-.376-.16744-.376-.37209s.1701-.37209.376-.37209c.206 0 .3761.16744.3761.37209 0 .21395-.1701.37209-.3761.37209zm-.9133-.98604c.1612 0 .2866-.13024.2866-.28837-.0024-.07733-.0336-.15068-.0871-.2045-.0534-.05383-.125-.08391-.1995-.08388-.1611 0-.2954.13024-.2954.28838 0 .16744.1343.28837.2954.28837zm0 .09302c-.2059 0-.376-.16744-.376-.37209s.1701-.3721.376-.3721c.206 0 .3761.16745.3761.3721-.0089.20465-.1701.37209-.3761.37209zm9.4375 6.05583c-.1207-.0667-.2614-.0826-.3931-.0445-.1316.0381-.2442.1273-.3143.2491-.1343.2512-.0448.5675.2059.707s.5641.0465.7074-.2046c.1433-.2512.0537-.5675-.2059-.707zm.0447-.0744c.2955.1581.394.5302.2328.8186-.0806.143-.2115.2481-.365.2931-.1536.0451-.3179.0267-.4587-.0513-.0687-.036-.1296-.0863-.1789-.1477s-.086-.1326-.1078-.2093-.0283-.1572-.019-.2366.0341-.1559.0729-.225c.0806-.143.2114-.2481.365-.2931.1535-.0451.3179-.0267.4587.0513zm-15.8573.2046c-.0806-.2046-.1791-.3628-.394-.4279.1433-1.7953.5999-2.61394 2.2206-3.43255.1432.05582.1343.07442.1343.09303 0 .24186.1343.36279.3044.49302-.2865.06511-.5462.19535-.5462.54884 0 .28836.197.44646.4477.52096-.0806.1581-.0985.2232-.0806.4093-.3313.1581-.4029.3721-.3223.7069.1253.4745.4119.5303.8685.4093.0246.1478.0001.2999-.0696.4313-.0696.1314-.1802.2342-.3136.2916-.1334.0573-.2816.0659-.4202.0241-.1387-.0418-.2595-.1313-.3427-.2539 0-.0465-.0089-.0838-.0179-.1303-.0716-.2697-.3581-.4372-.6447-.3721-.2775.0745-.4566.3628-.385.6419.0269.093.0716.1674.1343.2326.0269.2697-.0895.5116-.3223.6418-.2418.1303-.4298.0744-.6626-.0093.385-.186.582-.3628.4119-.8186zm.0268-1.9442c-.1611.4-.2417.8651-.2954 1.4326.188.0837.3133.2791.385.4744.1164.2977.1164.6047-.206.8372.0985.0093.1881-.0093.2776-.0651.1791-.1023.2776-.2884.2686-.4837-.0619-.076-.1077-.1648-.1343-.2605-.0895-.3535.1254-.707.4656-.7907.3492-.093.6984.1209.7969.4651.009.0372.0179.0745.0179.1117.2955.3628.8865.1767.9133-.2977-.5462.1116-.779-.1675-.8685-.5395-.0806-.307-.0448-.6233.3044-.8094 0-.1023.009-.186.0358-.2604-.0953-.041-.1795-.1057-.2451-.1884s-.1105-.181-.1309-.286c-.3134.0651-.6626.1581-.9491.279-.2776.1024-.4836.2512-.6358.3814zm1.8087-1.78602c-.9043.47442-1.4326.95814-1.746 1.62792.1612-.1209.3403-.2233.5372-.2977.2955-.1209.6537-.2139.9671-.2791v-.04646c0-.26977.1701-.51163.4029-.60466-.0961-.11032-.153-.25146-.1612-.4zm12.4907 4.56742c-.1098-.0606-.1994-.1544-.2569-.269s-.0804-.2445-.0654-.3728c.0626-.0652.1074-.1396.1343-.2326.016-.0678.019-.1382.0087-.2072-.0102-.069-.0335-.1352-.0684-.1949-.035-.0596-.0809-.1115-.1352-.1526-.0543-.0412-.1159-.0708-.1812-.0872-.0767-.0209-.1569-.0237-.2348-.0081-.0778.0156-.1513.0492-.2149.0984-.0637.0491-.1159.1125-.1527.1855-.0369.0729-.0574.1535-.0602.2359-.4029.5302-1.2177.2511-1.1461-.493.4567.1116.7432.0651.8686-.4094.0895-.3348.0089-.5488-.3134-.7069.0089-.1861 0-.2512-.0806-.4093.2507-.0744.4477-.2326.4477-.52096 0-.35349-.2597-.48372-.5462-.53953.1701-.13954.3134-.25117.3134-.49303 0-.0186 0-.04651-.009-.06511l.1164-.03721c1.6117.8093 2.1042 1.65584 2.2475 3.43254-.2239.0651-.3224.2233-.394.4279-.1701.4558.0268.6326.4119.8279-.2597.0651-.4477.121-.6895-.0093zm-1.352-3.4418c-.0448.2139-.1881.3907-.385.4744.0268.0744.0447.1674.0358.2604.3581.1861.385.5024.3044.8094-.0985.372-.3223.6511-.8685.5395.0268.4744.6178.6605.9133.2977 0-.0372.0089-.0745.0179-.1117.0895-.3442.4477-.5581.7879-.4651.3492.093.5552.4465.4656.7907-.0268.093-.0716.1861-.1343.2512-.0179.3163.2418.5674.5462.5488-.3223-.2232-.3223-.5302-.2059-.8372.0716-.1953.188-.3907.385-.4744-.0448-.5675-.1343-1.0326-.2955-1.4326-.1522-.1302-.3671-.279-.6357-.3814-.2686-.1023-.6268-.1953-.9312-.2697zm-.2328-1.14422c-.009.15814-.0717.30698-.1702.4093.2418.09303.4119.32558.4119.60465v.04652c.3224.07445.6626.15815.967.27905.2149.0837.394.1861.5373.2977-.3134-.66048-.8417-1.1442-1.746-1.63722zm-1.8804 5.60002-.9132-.6419 1.1102-.1209.9133.6419zm-1.7191-.3721c-.2059 0-.3671-.1675-.3671-.3721 0-.2047.1701-.3721.3671-.3721.2059 0 .3761.1674.3761.3721 0 .2046-.1702.3721-.3761.3721zm0-.0837c.1612 0 .2865-.1303.2865-.2884s-.1253-.2884-.2865-.2884-.2865.1303-.2865.2884.1343.2884.2865.2884zm-7.2885.9674c.1612 0 .2866-.1302.2866-.2884 0-.1581-.1254-.2883-.2866-.2883-.1611 0-.2865.1302-.2865.2883 0 .1582.1254.2884.2865.2884zm0 .0837c-.2059 0-.376-.1674-.376-.3721 0-.2046.1701-.3721.376-.3721.206 0 .3761.1675.3761.3721-.009.2047-.1701.3721-.3761.3721zm3.5816-1.0511c.1612 0 .2865-.1303.2865-.2884-.0023-.0773-.0335-.1507-.087-.2045s-.125-.0839-.1995-.0839c-.1612 0-.2865.1303-.2865.2884-.009.1581.1253.2884.2865.2884zm0 .0837c-.206 0-.3761-.1675-.3761-.3721 0-.2047.1701-.3721.3761-.3721.2059 0 .3761.1674.3761.3721-.009.2046-.1702.3721-.3761.3721zm7.2885.8837c.1611 0 .2865-.1302.2865-.2884 0-.1581-.1254-.2883-.2865-.2883-.1612 0-.2866.1302-.2866.2883 0 .1582.1254.2884.2866.2884zm0 .0837c-.206 0-.3761-.1674-.3761-.3721 0-.2046.1701-.3721.3761-.3721.2059 0 .376.1675.376.3721 0 .2047-.1701.3721-.376.3721zm-9.0077-.5953-1.1102-.1209.9133-.6419 1.1102.1209zm4.5038-.8465-.9312-.3442-.9222.3442.9222.3442zm.2329 0-1.1641.4372-1.164-.4372 1.164-.4372z" fill="#004996"/></svg>