<svg width="55" height="33" viewBox="0 0 55 33" fill="none" xmlns="http://www.w3.org/2000/svg">
<path d="M46.3182 19.4082L47.7264 19.4082L47.7264 19.5989L46.3182 19.5989L46.3182 19.4082ZM46.3182 19.5381L46.4927 19.5381L46.4927 20.2929L46.3182 20.2929L46.3182 19.5381Z" fill="black"/>
<path d="M46.2979 18.5507C46.2979 18.4465 46.3209 18.3532 46.3669 18.2706C46.4142 18.1895 46.4785 18.1252 46.5596 18.0779C46.6422 18.0305 46.7355 18.0068 46.8397 18.0068L47.7264 18.0068L47.7264 18.1976L46.8437 18.1976C46.7693 18.1976 46.7051 18.2131 46.651 18.2443C46.5968 18.2754 46.5549 18.3173 46.5251 18.3701C46.4954 18.4242 46.4805 18.4844 46.4805 18.5507C46.4805 18.6197 46.4954 18.6799 46.5251 18.7313C46.5549 18.784 46.5968 18.8253 46.651 18.8551C46.7051 18.8862 46.7686 18.9017 46.8417 18.9017L47.7264 18.9017L47.7264 19.0945L46.8376 19.0945C46.7335 19.0945 46.6408 19.0708 46.5596 19.0235C46.4785 18.9761 46.4142 18.9119 46.3669 18.8307C46.3209 18.7495 46.2979 18.6562 46.2979 18.5507Z" fill="black"/>
<path d="M46.298 17.0531C46.298 16.953 46.3162 16.8596 46.3528 16.773C46.3906 16.6865 46.4427 16.6107 46.509 16.5458C46.5766 16.4808 46.6544 16.4301 46.7424 16.3936C46.8303 16.3584 46.9243 16.3408 47.0244 16.3408C47.1259 16.3408 47.2199 16.3584 47.3065 16.3936C47.3944 16.4301 47.4715 16.4802 47.5378 16.5437C47.6041 16.6087 47.6555 16.6838 47.692 16.769C47.7286 16.8556 47.7468 16.9489 47.7468 17.049C47.7468 17.1491 47.7286 17.2418 47.692 17.327C47.6555 17.4136 47.6041 17.4894 47.5378 17.5543C47.4715 17.6192 47.3944 17.67 47.3065 17.7065C47.2186 17.743 47.1239 17.7613 47.0224 17.7613C46.9223 17.7613 46.8283 17.743 46.7403 17.7065C46.6524 17.67 46.5753 17.6192 46.509 17.5543C46.4427 17.4907 46.3906 17.4156 46.3528 17.3291C46.3162 17.2438 46.298 17.1518 46.298 17.0531ZM46.4806 17.049C46.4806 17.1505 46.5036 17.2391 46.5496 17.3148C46.5969 17.392 46.6612 17.4528 46.7424 17.4975C46.8249 17.5421 46.9189 17.5644 47.0244 17.5644C47.1029 17.5644 47.1746 17.5516 47.2395 17.5259C47.3058 17.5002 47.3633 17.4643 47.412 17.4183C47.4607 17.3723 47.4979 17.3182 47.5236 17.256C47.5507 17.1938 47.5642 17.1248 47.5642 17.049C47.5642 16.9489 47.5412 16.8603 47.4952 16.7832C47.4492 16.7074 47.3856 16.6472 47.3045 16.6026C47.2233 16.5593 47.1299 16.5377 47.0244 16.5377C46.946 16.5377 46.8729 16.5498 46.8053 16.5742C46.739 16.5999 46.6815 16.6351 46.6328 16.6797C46.5854 16.7257 46.5482 16.7798 46.5212 16.842C46.4941 16.9056 46.4806 16.9746 46.4806 17.049Z" fill="black"/>
<path d="M46.3182 15.2446L47.7264 15.2446L47.7264 15.4354L46.3182 15.4354L46.3182 15.2446ZM46.3182 15.3745L46.4927 15.3745L46.4927 16.1821L46.3182 16.1821L46.3182 15.3745ZM46.9553 15.3745L47.1217 15.3745L47.1217 16.1152L46.9553 16.1152L46.9553 15.3745ZM47.5519 15.3745L47.7264 15.3745L47.7264 16.172L47.5519 16.172L47.5519 15.3745Z" fill="black"/>
<path d="M46.298 14.5107C46.298 14.3997 46.3183 14.3051 46.3588 14.2266C46.3994 14.1481 46.4583 14.0785 46.5354 14.0176L46.6653 14.1474C46.603 14.1921 46.5557 14.2435 46.5232 14.3017C46.4921 14.3598 46.4765 14.4315 46.4765 14.5168C46.4765 14.6006 46.4948 14.6676 46.5313 14.7177C46.5678 14.7691 46.6179 14.7948 46.6815 14.7948C46.7342 14.7948 46.7769 14.7826 46.8093 14.7582C46.8418 14.7339 46.8682 14.7007 46.8885 14.6588C46.9101 14.6182 46.9291 14.5736 46.9453 14.5249C46.9629 14.4762 46.9811 14.4275 47.0001 14.3788C47.0204 14.3301 47.0447 14.2854 47.0731 14.2449C47.1029 14.2043 47.1414 14.1711 47.1888 14.1454C47.2361 14.1211 47.2957 14.1089 47.3674 14.1089C47.4472 14.1089 47.5148 14.1278 47.5703 14.1657C47.6271 14.2049 47.6704 14.2577 47.7002 14.324C47.7313 14.3916 47.7468 14.4674 47.7468 14.5513C47.7468 14.6433 47.7286 14.7258 47.692 14.7988C47.6569 14.8719 47.6102 14.9314 47.552 14.9774L47.4222 14.8475C47.4709 14.8056 47.5074 14.7603 47.5317 14.7116C47.5561 14.6642 47.5683 14.6094 47.5683 14.5472C47.5683 14.4714 47.5513 14.4112 47.5175 14.3666C47.4851 14.322 47.4391 14.2996 47.3795 14.2996C47.3322 14.2996 47.2936 14.3118 47.2639 14.3362C47.2355 14.3619 47.2111 14.395 47.1908 14.4356C47.1705 14.4762 47.1516 14.5208 47.134 14.5695C47.1178 14.6196 47.0995 14.669 47.0792 14.7177C47.0589 14.7664 47.0332 14.811 47.0021 14.8516C46.971 14.8922 46.9304 14.9246 46.8803 14.949C46.8316 14.9747 46.7701 14.9875 46.6957 14.9875C46.5712 14.9875 46.4738 14.9443 46.4035 14.8577C46.3331 14.7724 46.298 14.6568 46.298 14.5107Z" fill="black"/>
<path d="M46.4339 12.9219L46.9818 13.4414C47.0359 13.4941 47.0826 13.5354 47.1218 13.5651C47.1624 13.5949 47.1996 13.6159 47.2334 13.628C47.2673 13.6416 47.3024 13.6483 47.339 13.6483C47.4107 13.6483 47.4668 13.6253 47.5074 13.5793C47.548 13.5333 47.5683 13.4738 47.5683 13.4008C47.5683 13.3291 47.5507 13.2662 47.5155 13.2121C47.4817 13.1579 47.4289 13.1099 47.3572 13.068L47.4688 12.9341C47.5608 12.9895 47.6298 13.0565 47.6758 13.1349C47.7232 13.2134 47.7468 13.304 47.7468 13.4069C47.7468 13.4934 47.7299 13.5685 47.6961 13.6321C47.6623 13.697 47.6149 13.7471 47.5541 13.7823C47.4932 13.8174 47.4222 13.835 47.341 13.835C47.2828 13.835 47.2307 13.8276 47.1847 13.8127C47.1387 13.7992 47.0914 13.7741 47.0427 13.7376C46.9953 13.7024 46.9385 13.6531 46.8722 13.5895L46.44 13.1694L46.4339 12.9219ZM46.3183 12.9219L46.4339 12.9219L46.4887 13.0842L46.4887 13.8675L46.3183 13.8675L46.3183 12.9219Z" fill="black"/>
<path d="M46.8031 11.7349L47.7264 12.2483L47.7264 12.4634L46.8031 11.9398L46.8031 11.7349ZM46.6855 11.7349L46.8031 11.7349L46.8559 11.816L46.8559 12.8144L46.6855 12.8144L46.6855 11.7349ZM46.3182 12.4228L47.2496 12.4228L47.2496 12.6115L46.3182 12.6115L46.3182 12.4228Z" fill="black"/>
<path fill-rule="evenodd" clip-rule="evenodd" d="M35.2938 19.7849H44.4253V4.81944C44.4253 2.71811 42.7218 1.01465 40.6205 1.01465L35.2938 1.01465L30.728 1.01465H30.2207H25.655H25.1477V4.56578L19.4399 4.56578H15.8888H15.2552H11.7041V19.7849L13.4227 19.7849L15.2552 19.7849H15.8888H19.4399L20.0911 19.7849H21.7921H25.655H26.3931H30.2207H30.728L35.2938 19.7849Z" fill="black"/>
<path fill-rule="evenodd" clip-rule="evenodd" d="M45.4398 20.7995H10.6895V3.55113L24.133 3.55114V1.63284e-06L40.6204 0C43.2821 0 45.4398 2.15772 45.4398 4.8194V20.7995ZM11.7041 4.56574L25.1476 4.56575V1.01461L40.6204 1.01461C42.7218 1.01461 44.4252 2.71807 44.4252 4.8194V19.7849H11.7041V4.56574Z" fill="black"/>
<path d="M11.7041 4.56592H15.8888V19.7851H11.7041V4.56592Z" fill="#527FD8"/>
<path d="M13.4227 12.6826H21.7921V19.7849H13.4227V12.6826Z" fill="#527FD8"/>
<path d="M17.9904 4.56592H28.6438L26.393 19.7851H20.091L17.9904 4.56592Z" fill="#EBDB27"/>
<path fill-rule="evenodd" clip-rule="evenodd" d="M23.3721 4.56597L23.3721 12.4292L23.1184 12.4292L23.1184 4.56597L23.3721 4.56597Z" fill="black"/>
<path d="M25.1477 1.01465H30.2208V12.3731H28.9525C26.8512 12.3731 25.1477 10.6696 25.1477 8.5683V1.01465Z" fill="#EA2A36"/>
<path d="M30.2207 1.01465H35.2938V19.7849H30.2207V1.01465Z" fill="#EA2A36"/>
<path d="M44.4252 19.7847L35.2937 19.7847L35.2937 1.01439L40.6204 1.01439C42.7217 1.01439 44.4252 2.71785 44.4252 4.81917L44.4252 19.7847Z" fill="#00C83B"/>
<path fill-rule="evenodd" clip-rule="evenodd" d="M30.3064 1.01488L30.3064 7.59082L30.0527 7.59082L30.0527 1.01488L30.3064 1.01488Z" fill="black"/>
<path fill-rule="evenodd" clip-rule="evenodd" d="M35.2938 7.59059L39.8771 7.59059V7.84424L35.2938 7.84424V7.59059Z" fill="black"/>
<path fill-rule="evenodd" clip-rule="evenodd" d="M39.8773 12.3729L44.4605 10.3802L44.5616 10.6128L39.9784 12.6055L39.8773 12.3729Z" fill="black"/>
<path d="M3.67892 32.12C3.11092 32.12 2.59492 31.988 2.13092 31.724C1.67492 31.46 1.31492 31.1 1.05092 30.644C0.786922 30.188 0.654922 29.68 0.654922 29.12C0.654922 28.552 0.786922 28.044 1.05092 27.596C1.31492 27.14 1.67492 26.78 2.13092 26.516C2.59492 26.252 3.11092 26.12 3.67892 26.12C4.12692 26.12 4.54292 26.208 4.92692 26.384C5.31892 26.552 5.65092 26.796 5.92292 27.116L5.05892 27.992C4.89092 27.792 4.68692 27.644 4.44692 27.548C4.21492 27.444 3.95892 27.392 3.67892 27.392C3.35092 27.392 3.05892 27.468 2.80292 27.62C2.55492 27.764 2.35892 27.964 2.21492 28.22C2.07892 28.476 2.01092 28.776 2.01092 29.12C2.01092 29.456 2.07892 29.756 2.21492 30.02C2.35892 30.276 2.55492 30.48 2.80292 30.632C3.05892 30.776 3.35092 30.848 3.67892 30.848C3.95892 30.848 4.21492 30.8 4.44692 30.704C4.68692 30.6 4.89092 30.448 5.05892 30.248L5.92292 31.124C5.65092 31.444 5.31892 31.692 4.92692 31.868C4.54292 32.036 4.12692 32.12 3.67892 32.12ZM9.39739 32.12C8.83739 32.12 8.32939 31.988 7.87339 31.724C7.41739 31.452 7.05339 31.088 6.78139 30.632C6.51739 30.176 6.38539 29.668 6.38539 29.108C6.38539 28.548 6.51739 28.044 6.78139 27.596C7.05339 27.148 7.41739 26.792 7.87339 26.528C8.32939 26.256 8.83739 26.12 9.39739 26.12C9.96539 26.12 10.4774 26.252 10.9334 26.516C11.3894 26.78 11.7494 27.14 12.0134 27.596C12.2854 28.044 12.4214 28.548 12.4214 29.108C12.4214 29.668 12.2854 30.176 12.0134 30.632C11.7494 31.088 11.3894 31.452 10.9334 31.724C10.4774 31.988 9.96539 32.12 9.39739 32.12ZM9.39739 30.848C9.72539 30.848 10.0134 30.776 10.2614 30.632C10.5174 30.48 10.7134 30.272 10.8494 30.008C10.9934 29.744 11.0654 29.444 11.0654 29.108C11.0654 28.772 10.9934 28.476 10.8494 28.22C10.7054 27.964 10.5094 27.764 10.2614 27.62C10.0134 27.468 9.72539 27.392 9.39739 27.392C9.07739 27.392 8.78939 27.468 8.53339 27.62C8.28539 27.764 8.08939 27.964 7.94539 28.22C7.80939 28.476 7.74139 28.772 7.74139 29.108C7.74139 29.444 7.80939 29.744 7.94539 30.008C8.08939 30.272 8.28539 30.48 8.53339 30.632C8.78939 30.776 9.07739 30.848 9.39739 30.848ZM17.4671 32V28.676C17.4671 28.292 17.3431 27.976 17.0951 27.728C16.8551 27.48 16.5431 27.356 16.1591 27.356C15.9031 27.356 15.6751 27.412 15.4751 27.524C15.2751 27.636 15.1191 27.792 15.0071 27.992C14.8951 28.192 14.8391 28.42 14.8391 28.676L14.3231 28.388C14.3231 27.948 14.4191 27.56 14.6111 27.224C14.8031 26.88 15.0671 26.612 15.4031 26.42C15.7471 26.22 16.1311 26.12 16.5551 26.12C16.9871 26.12 17.3711 26.232 17.7071 26.456C18.0431 26.672 18.3071 26.956 18.4991 27.308C18.6911 27.652 18.7871 28.012 18.7871 28.388V32H17.4671ZM13.5191 32V26.24H14.8391V32H13.5191ZM20.9342 32V23.84H22.2542V32H20.9342ZM19.5542 27.44V26.24H23.6342V27.44H19.5542ZM26.8413 32.12C26.3213 32.12 25.8493 31.988 25.4253 31.724C25.0093 31.46 24.6773 31.104 24.4293 30.656C24.1893 30.2 24.0693 29.692 24.0693 29.132C24.0693 28.564 24.1893 28.056 24.4293 27.608C24.6773 27.152 25.0093 26.792 25.4253 26.528C25.8493 26.256 26.3213 26.12 26.8413 26.12C27.2813 26.12 27.6693 26.216 28.0053 26.408C28.3493 26.592 28.6213 26.848 28.8213 27.176C29.0213 27.504 29.1213 27.876 29.1213 28.292V29.948C29.1213 30.364 29.0213 30.736 28.8213 31.064C28.6293 31.392 28.3613 31.652 28.0173 31.844C27.6733 32.028 27.2813 32.12 26.8413 32.12ZM27.0573 30.872C27.5453 30.872 27.9373 30.708 28.2333 30.38C28.5373 30.052 28.6893 29.632 28.6893 29.12C28.6893 28.776 28.6213 28.472 28.4853 28.208C28.3493 27.944 28.1573 27.74 27.9093 27.596C27.6693 27.444 27.3853 27.368 27.0573 27.368C26.7373 27.368 26.4533 27.444 26.2053 27.596C25.9653 27.74 25.7733 27.944 25.6293 28.208C25.4933 28.472 25.4253 28.776 25.4253 29.12C25.4253 29.464 25.4933 29.768 25.6293 30.032C25.7733 30.296 25.9653 30.504 26.2053 30.656C26.4533 30.8 26.7373 30.872 27.0573 30.872ZM28.6053 32V30.452L28.8333 29.048L28.6053 27.656V26.24H29.9253V32H28.6053ZM34.0422 32.12C33.4742 32.12 32.9582 31.988 32.4942 31.724C32.0382 31.46 31.6782 31.1 31.4142 30.644C31.1502 30.188 31.0182 29.68 31.0182 29.12C31.0182 28.552 31.1502 28.044 31.4142 27.596C31.6782 27.14 32.0382 26.78 32.4942 26.516C32.9582 26.252 33.4742 26.12 34.0422 26.12C34.4902 26.12 34.9062 26.208 35.2902 26.384C35.6822 26.552 36.0142 26.796 36.2862 27.116L35.4222 27.992C35.2542 27.792 35.0502 27.644 34.8102 27.548C34.5782 27.444 34.3222 27.392 34.0422 27.392C33.7142 27.392 33.4222 27.468 33.1662 27.62C32.9182 27.764 32.7222 27.964 32.5782 28.22C32.4422 28.476 32.3742 28.776 32.3742 29.12C32.3742 29.456 32.4422 29.756 32.5782 30.02C32.7222 30.276 32.9182 30.48 33.1662 30.632C33.4222 30.776 33.7142 30.848 34.0422 30.848C34.3222 30.848 34.5782 30.8 34.8102 30.704C35.0502 30.6 35.2542 30.448 35.4222 30.248L36.2862 31.124C36.0142 31.444 35.6822 31.692 35.2902 31.868C34.9062 32.036 34.4902 32.12 34.0422 32.12ZM38.0201 32V23.84H39.3401V32H38.0201ZM36.6401 27.44V26.24H40.7201V27.44H36.6401ZM46.4456 32.12C45.9576 32.12 45.5216 32.012 45.1376 31.796C44.7616 31.58 44.4656 31.284 44.2496 30.908C44.0416 30.524 43.9376 30.084 43.9376 29.588V26.24H45.2576V29.528C45.2576 29.808 45.3016 30.048 45.3896 30.248C45.4856 30.44 45.6216 30.588 45.7976 30.692C45.9816 30.796 46.1976 30.848 46.4456 30.848C46.8296 30.848 47.1216 30.736 47.3216 30.512C47.5296 30.28 47.6336 29.952 47.6336 29.528V26.24H48.9536V29.588C48.9536 30.092 48.8456 30.536 48.6296 30.92C48.4216 31.296 48.1296 31.592 47.7536 31.808C47.3776 32.016 46.9416 32.12 46.4456 32.12ZM52.1648 32.12C51.8448 32.12 51.5368 32.08 51.2408 32C50.9448 31.912 50.6728 31.792 50.4248 31.64C50.1768 31.48 49.9608 31.288 49.7768 31.064L50.6168 30.224C50.8168 30.456 51.0448 30.632 51.3008 30.752C51.5648 30.864 51.8608 30.92 52.1888 30.92C52.4848 30.92 52.7088 30.876 52.8608 30.788C53.0128 30.7 53.0888 30.572 53.0888 30.404C53.0888 30.228 53.0168 30.092 52.8728 29.996C52.7288 29.9 52.5408 29.82 52.3088 29.756C52.0848 29.684 51.8448 29.612 51.5888 29.54C51.3408 29.468 51.1008 29.372 50.8688 29.252C50.6448 29.124 50.4608 28.952 50.3168 28.736C50.1728 28.52 50.1008 28.24 50.1008 27.896C50.1008 27.528 50.1848 27.212 50.3528 26.948C50.5288 26.684 50.7728 26.48 51.0848 26.336C51.4048 26.192 51.7848 26.12 52.2248 26.12C52.6888 26.12 53.0968 26.204 53.4488 26.372C53.8088 26.532 54.1088 26.776 54.3488 27.104L53.5088 27.944C53.3408 27.736 53.1488 27.58 52.9328 27.476C52.7168 27.372 52.4688 27.32 52.1888 27.32C51.9248 27.32 51.7208 27.36 51.5768 27.44C51.4328 27.52 51.3608 27.636 51.3608 27.788C51.3608 27.948 51.4328 28.072 51.5768 28.16C51.7208 28.248 51.9048 28.324 52.1288 28.388C52.3608 28.452 52.6008 28.524 52.8488 28.604C53.1048 28.676 53.3448 28.78 53.5688 28.916C53.8008 29.044 53.9888 29.22 54.1328 29.444C54.2768 29.66 54.3488 29.944 54.3488 30.296C54.3488 30.856 54.1528 31.3 53.7608 31.628C53.3688 31.956 52.8368 32.12 52.1648 32.12Z" fill="black"/>
</svg>
