<svg width="329" height="202" viewBox="0 0 329 202" fill="none" xmlns="http://www.w3.org/2000/svg">
<g style="mix-blend-mode:darken" opacity="0.1">
<path d="M328.478 201.43V18C328.478 8.05887 320.419 0 310.478 0H120.585V27.0929H0V201.43H328.478Z" fill="black"/>
<rect x="8.18457" y="36.1666" width="41.6856" height="156.817" fill="#527FD8"/>
<rect x="178.9" y="8.37634" width="49.6257" height="184.608" fill="#EA2A36"/>
<rect x="8.18457" y="121.523" width="83.3712" height="71.4611" fill="#527FD8"/>
<path d="M65.752 36.1666H170.959L148.732 192.984H86.4969L65.752 36.1666Z" fill="#EBDB27"/>
<path d="M129.271 8.37634H178.897V121.523H144.271C135.987 121.523 129.271 114.807 129.271 106.523V8.37634Z" fill="#EA2A36"/>
<path d="M323.807 192.984L232.495 192.984L232.495 8.37615L308.807 8.37616C317.091 8.37616 323.807 15.0919 323.807 23.3762L323.807 192.984Z" fill="#00C83B"/>
<line x1="178.4" y1="73.8822" x2="178.4" y2="8.37623" stroke="black"/>
<line x1="118.847" y1="121.523" x2="118.847" y2="36.1664" stroke="black"/>
<line x1="278.149" y1="74.3822" x2="232.494" y2="74.3822" stroke="black"/>
<line x1="324.006" y1="102.131" x2="278.35" y2="121.982" stroke="black"/>
</g>
</svg>
