<svg fill="none" height="48" viewBox="0 0 48 48" width="48" xmlns="http://www.w3.org/2000/svg"><g clip-rule="evenodd" fill-rule="evenodd"><path d="m31.6758 11.2871c-2.0718-3.26737-4.9462-5.29532-8.1664-5.31762-6.4404.03294-11.5094 8.12832-11.5094 18.03552 0 4.9476 1.2697 9.4519 3.3424 12.7178 2.0723 3.266 4.9467 5.2956 8.1669 5.3076 3.2202-.012 6.0947-2.0416 8.1665-5.3076 2.0729-3.2659 3.3429-7.7702 3.3429-12.7178 0-4.949-1.27-9.452-3.3429-12.7179z" fill="#1f211d"/><path d="m33.7656 17.1094c-.5686-2.1274-1.3931-4.0375-2.4073-5.6315-1.0247-1.59644-2.2281-2.88725-3.5538-3.77756-1.3259-.87775-2.7685-1.36623-4.2952-1.36623-1.5266 0-2.9693.48848-4.2952 1.36623-1.3257.89031-2.5291 2.18112-3.5538 3.77756-1.0141 1.594-1.8386 3.5041-2.4073 5.6315-.568 2.1157-.8803 4.4489-.8803 6.9014 0 4.8832 1.2601 9.3213 3.2876 12.5119 1.0247 1.5956 2.2281 2.8858 3.5538 3.7762 1.3259.8794 2.7686 1.3668 4.2952 1.3668 1.5267 0 2.9693-.4874 4.2952-1.3668 1.3257-.8904 2.5291-2.1806 3.5538-3.7762 2.0276-3.1906 3.2876-7.6287 3.2876-12.5119 0-2.4525-.3122-4.7857-.8803-6.9014z" fill="#e21c2a"/><path d="m23.5094 40.6574c-5.6934-.0337-10.1445-7.5201-10.1445-16.6465 0-9.1369 4.4511-16.62479 10.1445-16.6569 5.6934.03211 10.1445 7.52 10.1445 16.6569 0 9.1264-4.4511 16.6128-10.1445 16.6465z" fill="#1f211d"/><path d="m23.5094 14.2121c3.8217 0 7.1354 2.0727 8.8407 5.1215-.4571-2.4836-1.2479-4.7095-2.307-6.5108-1.6816-2.85412-3.9932-4.58848-6.5337-4.60014-2.5406.01166-4.8522 1.74602-6.5338 4.60014-1.0591 1.8013-1.8499 4.0272-2.3069 6.5108 1.7052-3.0488 5.0189-5.1215 8.8407-5.1215z" fill="#fff"/><path d="m23.5094 33.7988c-3.8218 0-7.1246-2.0717-8.8293-5.1213.4456 2.4844 1.2364 4.7087 2.2956 6.5006.8464 1.4206 1.8379 2.5823 2.952 3.374 1.1029.8027 2.3118 1.2371 3.5817 1.2371s2.4788-.4344 3.5817-1.2371c1.1141-.7917 2.1056-1.9534 2.952-3.374 1.0591-1.7919 1.8499-4.0162 2.2955-6.5006-1.7046 3.0496-5.0075 5.1213-8.8292 5.1213z" fill="#fff"/><g fill="#1f211d"><path d="m26.8472 33.8826c-.6222.2083-.9706.682-.7258 1.3749.165.4709.6604.7598 1.2702.5576.2127-.0735.4447-.2016.519-.442l.0124.0063c.2043.5946 0 .8379-.2461.9611-.2432.1145-.4672.0558-.6125-.1148l-.0017-.0028-.4098.2761c.2376.3465.6828.4525 1.1738.2875.5748-.1923 1.0308-.7398.6475-1.8276-.1386-.3979-.5259-1.4444-1.627-1.0763zm.5219 1.4451c-.2377.0782-.5568.0795-.7049-.342-.1414-.4021.1778-.5925.3372-.6414.3243-.1072.5483.0364.6631.354.1172.3363-.0771.5552-.2954.6294z"/><path d="m23.6872 13.4837c.6507 0 1.238-.2714 1.6438-.7056l-.4813-.4289c-.2882.3053-.7021.4986-1.1625.4986-.8727 0-1.5809-.6879-1.5809-1.5382 0-.8555.7082-1.54454 1.5809-1.54454.4604 0 .8743.19413 1.1625.49914l.4801-.43128c-.4087-.4321-.9919-.70389-1.6426-.70389-1.2326 0-2.2323.97567-2.2323 2.18057 0 1.1994.9997 2.1741 2.2323 2.1741z"/><path d="m26.7592 11.7224.4769 2.4288c.1136.0471.224.0915.3372.1427l.6757-1.6175.7076 2.3407c.277.1742.5488.3658.8073.5671l-1.2279-4.0436-.3834-.2951-.5539 1.3337-.4605-2.1344-.5327-.3462-1.1123 3.5538c.2083.0403.4143.0853.6198.1385z"/><path d="m18.7317 13.7437 1.9394-.7514.2465.798c.2011-.0532.4074-.0976.6138-.1379l-1.0974-3.5538-.8026.503-2.5291 5.1065c.3179-.2563.6561-.4947 1.0047-.7142zm1.3373-2.6909.4175 1.3456-1.345.5208z"/><path d="m24.3418 34.3623c-.6547.0553-1.1106.4295-1.0488 1.1597.0441.491.4515.894 1.0938.8394.2264-.0169.4797-.0867.6142-.2974l.0096.0063c.0478.6254-.2139.8141-.4813.8675-.2641.0586-.4656-.0498-.5628-.2505v-.0048l-.4664.1726c.1405.3845.5487.5934 1.0642.5528.6029-.049 1.1833-.4701 1.0858-1.6153-.0326-.4204-.1469-1.5226-1.3083-1.4303zm.147 1.5206c-.2517.0224-.5624-.049-.6013-.495-.0338-.4283.3214-.5319.4921-.543.3372-.0278.5219.1618.5511.5008.0309.3553-.2139.5219-.4419.5372z"/><path d="m21.8378 34.2549c-.5785-.1016-1.0848.1259-1.1737.6322-.0504.2721.0551.4825.2958.6463-.5404.1176-.6095.5106-.6369.6588-.0736.405.1319.9513.9849 1.1022.8753.1485 1.2485-.3886 1.3177-.7615.0674-.3825-.0758-.599-.3679-.7975.2886-.074.4431-.2746.4895-.5292.0715-.4086-.2262-.8326-.9094-.9513zm.1411 2.1934c-.0368.2043-.2433.4399-.5828.3785-.2973-.0506-.4964-.2766-.4442-.5652.0566-.3172.358-.4079.5967-.3625.3628.0566.4699.34.4303.5492zm.1568-1.2834c-.0386.2096-.2375.3377-.4948.2938-.281-.0513-.4155-.271-.3856-.4423.0396-.2204.2467-.3392.5404-.2902.2085.0377.3801.2126.34.4387z"/><path d="m18.6911 33.9658-.0889-.0301-.1262.3529.0042.0011-.0622.1706.1216.0442c.3212.112.5403.112.6868.0526l-.6615 1.8911.6308.2083.9736-2.7778-.5732-.1947c-.0443.1288-.4273.438-.905.2818z"/></g><path d="m29.7876 25.4001v5.4365c1.5824-1.3784 2.6859-3.288 3.0203-5.4365z" fill="#fff"/><path d="m24.0281 33.1484c.7799-.0438 1.5366-.1847 2.2499-.391v-7.3573h-2.2499z" fill="#fff"/><path d="m32.7629 22.3074c-.3892-2.025-1.4537-3.8111-2.9753-5.1231v5.1231z" fill="#fff"/><path d="m24.0281 22.3073h2.2499v-7.0533c-.7246-.2058-1.47-.3467-2.2499-.3905z" fill="#fff"/><path d="m29.7866 17.1747h-.0099c.0033.0028.0065.0058.0099.0087z" fill="#fff"/><path d="m15.2477 28.4053v-8.8007c-.7242 1.3143-1.1473 2.8114-1.1473 4.4064 0 1.5844.4231 3.0817 1.1473 4.3943z" fill="#e21c2a"/><path d="m26.7689 15.4166v7.3789h-2.7416v2.1162l2.7416.0114v7.6714c.9121-.3246 1.7599-.7928 2.5182-1.3668v-6.3046h3.5979c.0333-.3048.0445-.6078.0445-.9121 0-.4119-.0337-.8245-.0895-1.2155h-3.5529v-6.0119c-.7583-.575-1.6061-1.0415-2.5182-1.367z" fill="#e21c2a"/><path d="m20.5176 32.6921c.5686.1846 1.148.3151 1.7604.4018v-18.1767c-.6124.0759-1.1918.2178-1.7604.4024z" fill="#e21c2a"/><path d="m17.0082 30.6191c.5351.4994 1.1146.9221 1.749 1.2926v-15.8115c-.6344.3581-1.2139.7914-1.749 1.2916z" fill="#e21c2a"/></g></svg>