<?xml version="1.0" encoding="UTF-8"?>
<svg xmlns="http://www.w3.org/2000/svg" xmlns:xlink="http://www.w3.org/1999/xlink" width="41px" height="48px" viewBox="-10 -8 62 62" version="1.1">
<g id="surface1">
<path style="fill-rule:nonzero;fill:rgb(61.176471%,50.980392%,29.019608%);fill-opacity:1;stroke-width:0.793;stroke-linecap:butt;stroke-linejoin:miter;stroke:rgb(61.176471%,50.980392%,29.019608%);stroke-opacity:1;stroke-miterlimit:282;" d="M 161.407679 0.402018 C 122.971418 0.402018 52.099752 10.328776 16.002287 31.326497 C -31.512195 199.80306 33.112424 314.378255 161.407679 379.38151 C 289.702934 314.378255 354.327553 199.246419 306.813072 31.326497 C 270.654059 10.328776 199.843941 0.402018 161.407679 0.402018 Z M 161.407679 0.402018 " transform="matrix(0.126935,0,0,0.126316,0,0)"/>
<path style="fill-rule:nonzero;fill:rgb(0.784314%,20.392157%,45.490196%);fill-opacity:1;stroke-width:0.793;stroke-linecap:butt;stroke-linejoin:miter;stroke:rgb(0.784314%,20.392157%,45.490196%);stroke-opacity:1;stroke-miterlimit:282;" d="M 161.407679 11.225586 C 123.648438 11.225586 81.119284 16.049805 25.419017 38.779297 C -16.03306 185.85612 32.06612 303.70931 161.407679 367.970378 C 290.718464 303.70931 338.786871 185.85612 297.334794 38.779297 C 241.634527 16.049805 199.166921 11.225586 161.407679 11.225586 Z M 161.407679 11.225586 " transform="matrix(0.126935,0,0,0.126316,0,0)"/>
<path style="fill-rule:nonzero;fill:rgb(100%,100%,100%);fill-opacity:1;stroke-width:0.793;stroke-linecap:butt;stroke-linejoin:miter;stroke:rgb(100%,100%,100%);stroke-opacity:1;stroke-miterlimit:282;" d="M 161.223037 11.070964 C 123.648438 11.070964 83.273438 16.668294 46.868236 30.429687 C 9.108994 181.031901 36.959127 290.968424 161.438453 367.84668 Z M 161.438453 367.84668 C 285.887005 290.968424 313.706364 181.031901 275.947123 30.429687 C 239.541921 16.668294 199.228468 11.070964 161.653868 11.070964 Z M 161.438453 367.84668 " transform="matrix(0.126935,0,0,0.126316,0,0)"/>
<path style="fill-rule:nonzero;fill:rgb(93.72549%,0.392157%,2.745098%);fill-opacity:1;stroke-width:0.793;stroke-linecap:butt;stroke-linejoin:miter;stroke:rgb(93.72549%,0.392157%,2.745098%);stroke-opacity:1;stroke-miterlimit:282;" d="M 161.438453 11.040039 C 123.648438 11.040039 85.366044 16.761068 54.28468 27.584635 C 15.171399 185.423177 46.591273 291.988932 161.469226 364.847005 Z M 161.438453 11.040039 " transform="matrix(0.126935,0,0,0.126316,0,0)"/>
<path style="fill-rule:nonzero;fill:rgb(85.882353%,0%,2.745098%);fill-opacity:1;stroke-width:0.793;stroke-linecap:butt;stroke-linejoin:miter;stroke:rgb(85.882353%,0%,2.745098%);stroke-opacity:1;stroke-miterlimit:282;" d="M 161.5 11.040039 C 199.290015 11.040039 237.572409 16.761068 268.684546 27.584635 C 307.797828 185.423177 276.377954 291.988932 161.469226 364.847005 Z M 161.5 11.040039 " transform="matrix(0.126935,0,0,0.126316,0,0)"/>
<path style=" stroke:none;fill-rule:nonzero;fill:rgb(100%,100%,100%);fill-opacity:1;" d="M 14.292969 31.476562 C 12.175781 32.921875 10.492188 33.441406 8.535156 33.960938 L 7.355469 32.132812 C 9.152344 31.226562 11.011719 29.964844 12.886719 28.140625 C 13.042969 29.914062 13.875 31.167969 14.292969 31.476562 Z M 14.292969 31.476562 "/>
<path style=" stroke:none;fill-rule:nonzero;fill:rgb(61.176471%,50.980392%,29.019608%);fill-opacity:1;" d="M 14.003906 31.402344 C 11.996094 32.773438 9.199219 33.730469 5.996094 34.195312 L 5.339844 33.210938 C 8.085938 32.1875 10.734375 30.660156 12.789062 28.519531 C 13.097656 29.890625 13.570312 30.800781 14.003906 31.402344 Z M 14.003906 31.402344 "/>
<path style=" stroke:none;fill-rule:nonzero;fill:rgb(100%,100%,100%);fill-opacity:1;" d="M 8.652344 23.019531 C 8.652344 23.785156 8.03125 24.402344 7.261719 24.402344 C 6.488281 24.402344 5.863281 23.785156 5.863281 23.019531 C 5.863281 22.25 6.488281 21.632812 7.261719 21.632812 C 8.03125 21.632812 8.652344 22.25 8.652344 23.019531 Z M 8.652344 23.019531 "/>
<path style=" stroke:none;fill-rule:nonzero;fill:rgb(100%,100%,100%);fill-opacity:1;" d="M 8.503906 20.285156 L 8.503906 25.515625 L 12.644531 25.515625 C 12.914062 23.761719 13.914062 21.902344 16.179688 20.285156 L 8.503906 20.285156 "/>
<path style=" stroke:none;fill-rule:nonzero;fill:rgb(100%,100%,100%);fill-opacity:1;" d="M 8.671875 25.515625 C 7.746094 25.53125 6.984375 24.378906 6.972656 22.933594 C 6.964844 21.488281 7.703125 20.304688 8.628906 20.285156 C 8.640625 20.285156 8.648438 20.285156 8.660156 20.285156 "/>
<path style=" stroke:none;fill-rule:nonzero;fill:rgb(61.176471%,50.980392%,29.019608%);fill-opacity:1;" d="M 8.066406 23.019531 C 8.066406 23.609375 7.632812 24.085938 7.101562 24.085938 C 6.570312 24.085938 6.140625 23.609375 6.140625 23.019531 C 6.140625 22.425781 6.570312 21.949219 7.101562 21.949219 C 7.632812 21.949219 8.066406 22.425781 8.066406 23.019531 Z M 8.066406 23.019531 "/>
<path style=" stroke:none;fill-rule:nonzero;fill:rgb(61.176471%,50.980392%,29.019608%);fill-opacity:1;" d="M 8.617188 20.558594 L 8.617188 25.261719 L 12.726562 25.261719 C 13.050781 23.699219 13.847656 22.039062 15.835938 20.558594 L 8.617188 20.558594 "/>
<path style=" stroke:none;fill-rule:nonzero;fill:rgb(61.176471%,50.980392%,29.019608%);fill-opacity:1;" d="M 8.769531 25.261719 C 7.898438 25.277344 7.1875 24.238281 7.175781 22.941406 C 7.164062 21.644531 7.863281 20.578125 8.734375 20.558594 C 8.742188 20.558594 8.75 20.558594 8.761719 20.558594 "/>
<path style=" stroke:none;fill-rule:nonzero;fill:rgb(100%,100%,100%);fill-opacity:1;" d="M 28.347656 26.742188 C 28.347656 31.105469 24.796875 34.640625 20.414062 34.640625 C 16.035156 34.640625 12.480469 31.105469 12.480469 26.742188 C 12.480469 22.375 16.035156 18.839844 20.414062 18.839844 C 24.796875 18.839844 28.347656 22.375 28.347656 26.742188 Z M 28.347656 26.742188 "/>
<path style=" stroke:none;fill-rule:nonzero;fill:rgb(61.176471%,50.980392%,29.019608%);fill-opacity:1;" d="M 27.933594 26.742188 C 27.933594 30.878906 24.566406 34.226562 20.414062 34.226562 C 16.265625 34.226562 12.902344 30.878906 12.902344 26.742188 C 12.902344 22.609375 16.265625 19.253906 20.414062 19.253906 C 24.566406 19.253906 27.933594 22.605469 27.933594 26.742188 Z M 27.933594 26.742188 "/>
<path style=" stroke:none;fill-rule:nonzero;fill:rgb(100%,100%,100%);fill-opacity:1;" d="M 26.683594 26.742188 C 26.683594 30.191406 23.878906 32.984375 20.414062 32.984375 C 16.953125 32.984375 14.148438 30.191406 14.148438 26.742188 C 14.148438 23.292969 16.953125 20.496094 20.414062 20.496094 C 23.878906 20.496094 26.683594 23.292969 26.683594 26.742188 Z M 26.683594 26.742188 "/>
<path style=" stroke:none;fill-rule:nonzero;fill:rgb(61.176471%,50.980392%,29.019608%);fill-opacity:1;" d="M 26.269531 26.742188 C 26.269531 29.960938 23.648438 32.570312 20.414062 32.570312 C 17.183594 32.570312 14.5625 29.960938 14.5625 26.742188 C 14.5625 23.519531 17.183594 20.914062 20.414062 20.914062 C 23.648438 20.914062 26.269531 23.519531 26.269531 26.742188 Z M 26.269531 26.742188 "/>
<path style=" stroke:none;fill-rule:nonzero;fill:rgb(100%,100%,100%);fill-opacity:1;" d="M 22.855469 26.742188 C 22.859375 28.082031 21.765625 29.171875 20.417969 29.175781 C 19.066406 29.175781 17.972656 28.085938 17.972656 26.746094 L 17.972656 26.742188 C 17.972656 25.398438 19.0625 24.308594 20.414062 24.308594 C 21.761719 24.304688 22.855469 25.394531 22.855469 26.738281 C 22.855469 26.742188 22.855469 26.742188 22.855469 26.742188 Z M 22.855469 26.742188 "/>
<path style=" stroke:none;fill-rule:nonzero;fill:rgb(61.176471%,50.980392%,29.019608%);fill-opacity:1;" d="M 22.566406 26.742188 C 22.566406 27.925781 21.609375 28.886719 20.417969 28.886719 C 19.230469 28.886719 18.265625 27.929688 18.261719 26.746094 L 18.261719 26.742188 C 18.261719 25.558594 19.226562 24.597656 20.414062 24.597656 C 21.605469 24.597656 22.566406 25.550781 22.566406 26.738281 Z M 22.566406 26.742188 "/>
<path style=" stroke:none;fill-rule:nonzero;fill:rgb(100%,100%,100%);fill-opacity:1;" d="M 21.523438 26.742188 C 21.523438 27.347656 21.027344 27.839844 20.414062 27.84375 C 19.808594 27.84375 19.3125 27.351562 19.3125 26.742188 C 19.3125 26.132812 19.808594 25.640625 20.414062 25.636719 C 21.027344 25.636719 21.523438 26.132812 21.523438 26.742188 Z M 21.523438 26.742188 "/>
<path style=" stroke:none;fill-rule:nonzero;fill:rgb(61.176471%,50.980392%,29.019608%);fill-opacity:1;" d="M 21.214844 26.742188 C 21.214844 27.179688 20.859375 27.539062 20.414062 27.539062 C 19.972656 27.539062 19.613281 27.183594 19.613281 26.742188 C 19.613281 26.300781 19.972656 25.941406 20.414062 25.941406 C 20.855469 25.941406 21.214844 26.296875 21.214844 26.742188 Z M 21.214844 26.742188 "/>
<path style=" stroke:none;fill-rule:nonzero;fill:rgb(100%,100%,100%);fill-opacity:1;" d="M 19.574219 20.78125 L 21.238281 20.78125 L 21.238281 24.652344 L 19.574219 24.652344 Z M 19.574219 20.78125 "/>
<path style=" stroke:none;fill-rule:nonzero;fill:rgb(61.176471%,50.980392%,29.019608%);fill-opacity:1;" d="M 19.832031 20.222656 L 20.980469 20.222656 L 20.980469 25.144531 L 19.832031 25.144531 Z M 19.832031 20.222656 "/>
<path style=" stroke:none;fill-rule:nonzero;fill:rgb(100%,100%,100%);fill-opacity:1;" d="M 25.058594 22.964844 L 25.96875 24.355469 L 22.707031 26.464844 L 21.800781 25.074219 Z M 25.058594 22.964844 "/>
<path style=" stroke:none;fill-rule:nonzero;fill:rgb(61.176471%,50.980392%,29.019608%);fill-opacity:1;" d="M 25.667969 22.878906 L 26.292969 23.839844 L 22.148438 26.519531 L 21.523438 25.558594 Z M 25.667969 22.878906 "/>
<path style=" stroke:none;fill-rule:nonzero;fill:rgb(100%,100%,100%);fill-opacity:1;" d="M 18.078125 27.054688 L 18.96875 28.453125 L 15.683594 30.527344 L 14.792969 29.125 Z M 18.078125 27.054688 "/>
<path style=" stroke:none;fill-rule:nonzero;fill:rgb(61.176471%,50.980392%,29.019608%);fill-opacity:1;" d="M 18.636719 26.972656 L 19.253906 27.945312 L 15.082031 30.578125 L 14.464844 29.609375 Z M 18.636719 26.972656 "/>
<path style=" stroke:none;fill-rule:nonzero;fill:rgb(100%,100%,100%);fill-opacity:1;" d="M 19.574219 28.960938 L 21.238281 28.960938 L 21.238281 32.832031 L 19.574219 32.832031 Z M 19.574219 28.960938 "/>
<path style=" stroke:none;fill-rule:nonzero;fill:rgb(61.176471%,50.980392%,29.019608%);fill-opacity:1;" d="M 19.832031 28.410156 L 20.980469 28.410156 L 20.980469 33.328125 L 19.832031 33.328125 Z M 19.832031 28.410156 "/>
<path style="fill-rule:nonzero;fill:rgb(93.72549%,0.392157%,2.745098%);fill-opacity:1;stroke-width:0.3115;stroke-linecap:butt;stroke-linejoin:miter;stroke:rgb(93.72549%,0.392157%,2.745098%);stroke-opacity:1;stroke-miterlimit:282;" d="M 148.021151 226.027018 C 149.806021 227.511393 151.74476 228.841146 154.20665 229.892578 L 154.114329 257.229818 C 141.743331 255.621745 132.357374 249.529622 125.27944 240.808919 L 148.051925 226.027018 " transform="matrix(0.126935,0,0,0.126316,0,0)"/>
<path style="fill-rule:nonzero;fill:rgb(85.882353%,0%,2.745098%);fill-opacity:1;stroke-width:0.3115;stroke-linecap:butt;stroke-linejoin:miter;stroke:rgb(85.882353%,0%,2.745098%);stroke-opacity:1;stroke-miterlimit:282;" d="M 173.594036 226.119792 C 171.809165 227.573242 169.870427 228.964844 167.43931 229.954427 L 167.470084 257.291667 C 179.841082 255.714518 189.227039 249.591471 196.304973 240.901693 L 173.563262 226.119792 " transform="matrix(0.126935,0,0,0.126316,0,0)"/>
<path style=" stroke:none;fill-rule:nonzero;fill:rgb(85.882353%,0%,2.745098%);fill-opacity:1;" d="M 22.824219 27.113281 L 26.265625 26.699219 C 26.292969 27.558594 26.085938 28.3125 25.792969 29.035156 L 22.816406 27.113281 "/>
<path style="fill-rule:nonzero;fill:rgb(100%,100%,100%);fill-opacity:1;stroke-width:0.3115;stroke-linecap:butt;stroke-linejoin:miter;stroke:rgb(100%,100%,100%);stroke-opacity:1;stroke-miterlimit:282;" d="M 179.841082 214.554036 C 179.964177 214.121094 179.933403 213.719076 180.087271 212.482096 L 206.860328 208.98763 C 206.952649 210.255534 206.891101 210.719401 206.860328 211.276042 Z M 179.841082 214.554036 " transform="matrix(0.126935,0,0,0.126316,0,0)"/>
<path style=" stroke:none;fill-rule:nonzero;fill:rgb(100%,100%,100%);fill-opacity:1;" d="M 27.855469 24.25 L 32.3125 24.25 C 32.171875 24.777344 32.039062 25.308594 31.398438 25.546875 C 30.375 25.929688 28.253906 26.296875 28.253906 26.296875 C 28.210938 25.71875 28.082031 24.933594 27.855469 24.25 Z M 27.855469 24.25 "/>
<path style=" stroke:none;fill-rule:nonzero;fill:rgb(100%,100%,100%);fill-opacity:1;" d="M 24.753906 20.210938 L 36.394531 20.222656 L 35.984375 24.457031 L 28.03125 24.871094 C 27.605469 22.976562 26.160156 21.167969 24.753906 20.210938 Z M 24.753906 20.210938 "/>
<path style=" stroke:none;fill-rule:nonzero;fill:rgb(61.176471%,50.980392%,29.019608%);fill-opacity:1;" d="M 25.167969 20.511719 L 40.027344 20.523438 L 39.460938 23.972656 L 27.929688 24.539062 C 27.472656 22.824219 26.433594 21.574219 25.167969 20.511719 Z M 25.167969 20.511719 "/>
<path style=" stroke:none;fill-rule:nonzero;fill:rgb(61.176471%,50.980392%,29.019608%);fill-opacity:1;" d="M 27.855469 24.25 L 31.960938 24.25 C 31.824219 24.71875 31.730469 25.144531 31.128906 25.355469 C 30.167969 25.695312 28.234375 25.964844 28.234375 25.964844 C 28.152344 25.40625 28.035156 24.835938 27.855469 24.25 Z M 27.855469 24.25 "/>
<path style=" stroke:none;fill-rule:nonzero;fill:rgb(61.176471%,50.980392%,29.019608%);fill-opacity:1;" d="M 23.351562 14.058594 C 23.351562 14.246094 23.3125 14.765625 23.289062 14.90625 L 25.59375 14.90625 C 25.457031 14.296875 25.394531 13.449219 25.375 12.792969 C 25.375 12.839844 25.335938 11.480469 25.335938 11.480469 C 25.335938 11.386719 25.375 11.242188 25.433594 11.199219 C 25.515625 11.101562 25.59375 11.101562 25.695312 11.101562 C 25.792969 11.058594 25.972656 11.058594 25.996094 11.429688 L 26.054688 12.839844 C 26.078125 13.5 26.078125 14.390625 25.996094 14.90625 L 28.21875 14.90625 C 28.199219 14.71875 28.136719 14.246094 28.117188 14.109375 C 28.398438 14.71875 29 15.046875 29.804688 15.046875 C 30.28125 15.046875 30.644531 14.863281 30.925781 14.675781 C 30.925781 14.71875 31.042969 14.90625 31.042969 14.90625 L 35.167969 14.90625 C 34.988281 14.296875 34.871094 13.449219 34.808594 12.792969 L 34.226562 8.191406 L 32.105469 7.816406 C 32.285156 8.425781 32.40625 9.316406 32.484375 9.929688 L 32.808594 12.890625 C 32.867188 13.40625 32.90625 13.96875 32.90625 14.578125 L 32.90625 14.625 L 32.824219 14.4375 C 32.664062 14.058594 32.585938 13.59375 32.523438 12.886719 L 32.449219 11.945312 C 32.324219 10.445312 31.507812 9.789062 29.699219 9.789062 C 29.402344 9.789062 28.640625 9.832031 28.175781 9.976562 L 28.296875 11.664062 L 28.78125 11.386719 C 29.179688 11.148438 29.480469 11.054688 29.839844 11.054688 C 30.121094 11.054688 30.304688 11.148438 30.382812 11.335938 C 30.042969 11.386719 29.664062 11.480469 29.238281 11.664062 C 28.601562 11.945312 28.199219 12.371094 28.019531 12.839844 L 28.019531 12.792969 L 27.957031 11.242188 C 27.921875 10.253906 27.277344 9.601562 26.292969 9.601562 C 25.855469 9.601562 25.457031 9.738281 25.09375 9.976562 C 25.074219 9.925781 25.054688 9.882812 25.03125 9.832031 L 24.953125 9.644531 L 23.109375 9.550781 C 23.191406 9.882812 23.3125 10.820312 23.328125 11.148438 C 23.230469 10.679688 22.96875 10.164062 22.488281 9.789062 C 22.109375 9.550781 21.625 9.410156 21.125 9.410156 C 20.445312 9.410156 19.742188 9.695312 19.285156 10.164062 C 18.800781 10.632812 18.5625 11.292969 18.539062 12.039062 C 18.359375 11.851562 18.121094 11.667969 17.84375 11.574219 L 17 11.148438 L 16.960938 11.148438 C 16.761719 11.054688 16.738281 11.007812 16.738281 10.964844 C 16.761719 10.871094 16.960938 10.773438 17.222656 10.773438 C 17.582031 10.773438 18.082031 10.964844 18.480469 11.195312 L 18.523438 9.695312 C 18.222656 9.550781 17.800781 9.460938 17.199219 9.460938 C 16.878906 9.460938 16.277344 9.507812 15.757812 9.789062 C 15.617188 9.882812 15.496094 9.976562 15.378906 10.070312 L 15.394531 9.644531 C 14.914062 9.554688 14.394531 9.554688 13.757812 10.164062 C 13.734375 10.117188 13.691406 9.882812 13.652344 9.789062 L 11.671875 9.882812 C 11.808594 10.445312 11.832031 11.242188 11.792969 11.945312 L 11.75 12.699219 L 11.75 12.792969 C 11.730469 13.171875 11.710938 13.59375 11.671875 13.96875 C 11.507812 13.449219 11.332031 12.746094 11.1875 12.183594 L 10.207031 7.769531 L 7.40625 8.191406 C 7.421875 8.238281 7.464844 8.378906 7.484375 8.519531 C 7.503906 8.707031 7.503906 9.085938 7.242188 9.882812 C 6.78125 11.148438 6.144531 13.078125 5.523438 14.4375 C 5.441406 14.625 5.277344 14.90625 5.277344 14.90625 L 7.464844 14.90625 C 7.503906 14.578125 7.644531 14.015625 7.78125 13.59375 C 8.085938 13.59375 8.863281 13.59375 9.222656 13.542969 C 9.304688 13.875 9.386719 14.296875 9.410156 14.578125 L 9.445312 14.90625 L 13.816406 14.90625 C 13.714844 14.203125 13.757812 13.265625 13.792969 12.746094 C 13.832031 12.132812 13.953125 11.710938 14.214844 11.480469 C 14.414062 11.242188 14.636719 11.195312 14.796875 11.195312 C 14.773438 12.039062 15.316406 12.417969 15.796875 12.648438 L 16.65625 13.078125 C 16.960938 13.265625 16.960938 13.308594 16.960938 13.402344 C 16.941406 13.542969 16.699219 13.59375 16.476562 13.59375 C 16.019531 13.59375 15.394531 13.308594 14.714844 12.5625 L 14.675781 14.53125 C 15.214844 14.8125 15.894531 14.953125 16.5 14.953125 C 17.5 14.953125 18.5625 14.484375 18.84375 13.59375 C 19.34375 14.53125 20.324219 14.953125 21.289062 14.953125 C 22.148438 14.953125 22.789062 14.675781 23.351562 14.058594 Z M 8.304688 12.136719 C 8.425781 11.808594 8.527344 11.523438 8.707031 11.007812 C 8.828125 11.523438 8.886719 11.851562 8.945312 12.089844 C 8.707031 12.136719 8.585938 12.136719 8.304688 12.136719 Z M 20.566406 11.621094 C 20.566406 10.964844 20.808594 10.683594 21.046875 10.683594 C 21.125 10.683594 21.308594 10.632812 21.386719 10.964844 C 21.429688 11.101562 21.445312 11.199219 21.445312 11.242188 C 21.445312 11.429688 21.347656 11.480469 21.226562 11.480469 L 21.226562 11.523438 C 21.226562 11.523438 20.886719 11.621094 20.566406 11.761719 C 20.566406 11.714844 20.566406 11.667969 20.566406 11.621094 Z M 22.851562 12.984375 C 22.429688 13.355469 22.125 13.59375 21.625 13.59375 C 21.226562 13.542969 20.988281 13.308594 20.847656 12.984375 C 21.265625 12.839844 22.886719 12.230469 23.351562 12.039062 C 23.351562 12.417969 23.371094 12.839844 23.371094 12.839844 L 23.371094 13.636719 Z M 30.320312 13.636719 C 29.941406 13.636719 29.863281 13.355469 29.84375 13.171875 C 29.863281 12.984375 29.921875 12.699219 30.523438 12.511719 C 30.542969 12.746094 30.5625 12.933594 30.5625 12.933594 L 30.5625 13.121094 C 30.582031 13.265625 30.582031 13.40625 30.601562 13.542969 C 30.523438 13.59375 30.425781 13.59375 30.320312 13.636719 "/>
<path style=" stroke:none;fill-rule:nonzero;fill:rgb(100%,100%,100%);fill-opacity:1;" d="M 18.179688 9.929688 C 17.980469 9.882812 17.679688 9.789062 17.199219 9.789062 C 16.820312 9.789062 16.320312 9.882812 15.9375 10.070312 C 15.496094 10.355469 15.175781 10.726562 15.15625 11.152344 C 15.117188 11.808594 15.460938 12.089844 15.960938 12.324219 C 16.296875 12.511719 16.621094 12.699219 16.820312 12.792969 C 17.082031 12.933594 17.320312 13.078125 17.300781 13.40625 C 17.277344 13.730469 16.976562 13.96875 16.476562 13.96875 C 16.058594 13.96875 15.460938 13.6875 15.035156 13.308594 L 15.019531 14.296875 C 15.378906 14.484375 15.960938 14.578125 16.5 14.578125 C 17.417969 14.578125 18.5625 14.160156 18.582031 13.121094 C 18.605469 12.324219 18.039062 12.039062 17.703125 11.855469 C 17.359375 11.714844 17.019531 11.523438 16.859375 11.480469 C 16.699219 11.386719 16.378906 11.292969 16.402344 10.914062 C 16.4375 10.585938 16.820312 10.445312 17.222656 10.445312 C 17.558594 10.445312 17.902344 10.539062 18.164062 10.683594 "/>
<path style=" stroke:none;fill-rule:nonzero;fill:rgb(100%,100%,100%);fill-opacity:1;" d="M 9.949219 8.191406 L 7.824219 8.472656 C 7.863281 8.757812 7.78125 9.316406 7.5625 9.976562 C 7.125 11.242188 6.40625 13.355469 5.839844 14.578125 L 7.164062 14.578125 C 7.242188 14.152344 7.339844 13.78125 7.542969 13.265625 L 9.507812 13.214844 C 9.585938 13.59375 9.730469 14.203125 9.746094 14.578125 L 11.53125 14.578125 C 11.308594 14.058594 11.03125 12.984375 10.851562 12.230469 Z M 7.824219 12.460938 L 8.789062 9.695312 L 9.367188 12.417969 "/>
<path style=" stroke:none;fill-rule:nonzero;fill:rgb(100%,100%,100%);fill-opacity:1;" d="M 15.035156 9.929688 L 14.996094 10.871094 C 14.675781 10.820312 14.273438 10.914062 13.953125 11.242188 C 13.675781 11.523438 13.496094 11.945312 13.453125 12.699219 C 13.414062 13.308594 13.394531 14.015625 13.433594 14.578125 L 11.933594 14.578125 C 12.03125 14.015625 12.070312 13.359375 12.089844 12.746094 L 12.128906 11.996094 C 12.171875 11.386719 12.171875 10.777344 12.070312 10.210938 L 13.394531 10.167969 C 13.453125 10.355469 13.496094 10.683594 13.472656 11.007812 C 14.054688 10.117188 14.617188 9.929688 15.035156 9.929688 "/>
<path style=" stroke:none;fill-rule:nonzero;fill:rgb(100%,100%,100%);fill-opacity:1;" d="M 33.929688 8.472656 L 32.5625 8.238281 C 32.703125 8.851562 32.746094 9.273438 32.824219 9.882812 L 33.144531 12.839844 C 33.207031 13.449219 33.265625 14.015625 33.25 14.578125 L 34.730469 14.578125 C 34.585938 14.015625 34.527344 13.449219 34.46875 12.839844 "/>
<path style=" stroke:none;fill-rule:nonzero;fill:rgb(100%,100%,100%);fill-opacity:1;" d="M 27.816406 14.578125 C 27.738281 14.015625 27.699219 13.449219 27.675781 12.839844 L 27.617188 11.292969 C 27.578125 10.445312 27.09375 9.976562 26.292969 9.976562 C 25.855469 9.976562 25.332031 10.117188 24.894531 10.683594 C 24.875 10.539062 24.8125 10.164062 24.730469 9.976562 L 23.53125 9.929688 C 23.632812 10.492188 23.671875 11.054688 23.691406 11.664062 L 23.710938 12.839844 C 23.730469 13.449219 23.710938 14.015625 23.671875 14.578125 L 25.171875 14.578125 C 25.09375 14.015625 25.054688 13.449219 25.03125 12.839844 L 24.992188 11.523438 C 24.972656 11.054688 25.335938 10.726562 25.695312 10.726562 C 26.113281 10.726562 26.316406 11.007812 26.335938 11.429688 L 26.398438 12.839844 C 26.414062 13.449219 26.414062 14.015625 26.375 14.578125 "/>
<path style=" stroke:none;fill-rule:nonzero;fill:rgb(100%,100%,100%);fill-opacity:1;" d="M 32.507812 14.578125 C 32.324219 14.109375 32.226562 13.542969 32.1875 12.933594 L 32.105469 11.996094 C 32.023438 10.871094 31.546875 10.117188 29.699219 10.117188 C 29.378906 10.117188 28.917969 10.164062 28.542969 10.253906 L 28.601562 11.101562 C 28.976562 10.871094 29.363281 10.683594 29.84375 10.683594 C 30.34375 10.683594 30.761719 10.914062 30.804688 11.621094 C 30.320312 11.667969 29.878906 11.757812 29.378906 11.996094 C 28.820312 12.230469 28.238281 12.699219 28.296875 13.449219 C 28.355469 14.296875 29 14.675781 29.804688 14.675781 C 30.425781 14.675781 30.84375 14.390625 31.082031 14.109375 C 31.121094 14.296875 31.1875 14.4375 31.246094 14.578125 Z M 30.320312 13.96875 C 29.878906 13.96875 29.519531 13.730469 29.5 13.214844 C 29.5 12.699219 29.820312 12.277344 30.84375 12.136719 L 30.902344 12.933594 C 30.925781 13.214844 30.925781 13.40625 30.964844 13.636719 C 30.820312 13.828125 30.582031 13.921875 30.320312 13.96875 "/>
<path style=" stroke:none;fill-rule:nonzero;fill:rgb(100%,100%,100%);fill-opacity:1;" d="M 22.289062 10.070312 C 21.945312 9.832031 21.546875 9.738281 21.125 9.738281 C 20.144531 9.738281 18.84375 10.445312 18.882812 12.230469 C 18.902344 14.058594 20.308594 14.625 21.289062 14.625 C 22.148438 14.625 22.671875 14.296875 23.089844 13.875 L 22.789062 13.449219 C 22.566406 13.636719 22.207031 13.921875 21.625 13.921875 C 21.003906 13.875 20.609375 13.449219 20.386719 12.792969 L 23.109375 11.808594 C 23.027344 10.914062 22.707031 10.398438 22.289062 10.070312 Z M 21.347656 11.808594 L 20.265625 12.230469 C 20.242188 12.039062 20.226562 11.851562 20.226562 11.621094 C 20.226562 10.539062 20.824219 10.351562 21.027344 10.351562 C 21.347656 10.304688 21.625 10.492188 21.730469 10.871094 C 21.847656 11.292969 21.808594 11.667969 21.347656 11.808594 "/>
<path style=" stroke:none;fill-rule:nonzero;fill:rgb(100%,100%,100%);fill-opacity:1;" d="M 14.9375 24.035156 L 15.851562 22.648438 L 19.105469 24.765625 L 18.1875 26.15625 Z M 14.9375 24.035156 "/>
<path style=" stroke:none;fill-rule:nonzero;fill:rgb(61.176471%,50.980392%,29.019608%);fill-opacity:1;" d="M 14.636719 23.5625 L 15.265625 22.601562 L 19.398438 25.296875 L 18.765625 26.257812 Z M 14.636719 23.5625 "/>
<path style=" stroke:none;fill-rule:nonzero;fill:rgb(100%,100%,100%);fill-opacity:1;" d="M 21.878906 28.449219 L 22.792969 27.058594 L 26.046875 29.179688 L 25.132812 30.570312 Z M 21.878906 28.449219 "/>
<path style=" stroke:none;fill-rule:nonzero;fill:rgb(61.176471%,50.980392%,29.019608%);fill-opacity:1;" d="M 21.578125 27.976562 L 22.207031 27.015625 L 26.339844 29.710938 L 25.707031 30.667969 Z M 21.578125 27.976562 "/>
</g>
</svg>
