<?xml version="1.0" encoding="utf-8"?>
<svg version="1.1" id="Layer_1" xmlns="http://www.w3.org/2000/svg" xmlns:xlink="http://www.w3.org/1999/xlink" x="0px" y="0px"
	 width="48px" height="48px" viewBox="-7 -17 300 250" style="enable-background:new 0 0 283.5 222.1;" xml:space="preserve">
<style type="text/css">
	.st0{fill:#FFFFFF;}
	.st1{fill:#FFFF00;}
	.st2{fill:#FF0000;}
	.st3{fill:none;}
</style>
<g id="Hintergrund">
</g>
<g id="Hilfslinien_anzeigen">
</g>
<g id="Vordergrund">
	<g>
		<g>
			<path class="st0" d="M82.7,14c1.5-1.5,4.8-4.8,10.9-4.6c3.8-1.8,8.2-1.1,9.8-0.1c0,0,2.7-0.1,4.5,0.8c10.8-3.6,22.5-5.6,34.5-5.6
				s23.7,2,34.5,5.6c1.8-0.9,4.5-0.8,4.5-0.8c1.6-1,6-1.6,9.8,0.1c6.1-0.2,9.4,3,10.9,4.6c0.8-2.4,2.3-4.3,5.7-5.5
				c1.2-6.4,9.5-9.2,21.2-3.4c5.2-4.7,12.9,0.3,15.4,7.1c3.9-1,10,2.6,9.5,14.1c3.9,0.2,5.4,4.3,4.3,11c2.3-0.5,13.7-2.6,21.9,7.8
				c3.9,4.9,1.6,11.3-2.5,14.4c-0.3,0.8-2,7.7-7.2,10.5c-0.3,3.5,5.8,11,8,15.9c6.4,13.9,3.2,37.4-20.6,41.4c1.1,1,3.5,4.3,4.3,7.1
				c1,3.6,0.3,7-1.5,9.9c-2,3.2-9.3,7.8-11.1,10.1c3.4,2,7.3,6.1,5.5,13.9l-6.8,30.4c-1.1,5-4.4,9.1-9.8,10.2
				c-2.7,0.6-5.6,0-7.3-0.5c-11.8-3.1-20.4-0.7-33.5,3.5c-6.8,2.2-14.3,4.7-23.1,6.6c-9,2-19.5,3.3-32.2,3.3
				c-12.7,0-23.1-1.4-32.2-3.3c-8.8-1.9-16.3-4.4-23.1-6.6c-13.1-4.2-21.7-6.7-33.5-3.5c-1.7,0.5-4.6,1-7.3,0.5
				c-5.4-1.1-8.7-5.3-9.8-10.2l-6.8-30.4c-1.7-7.8,2.1-11.9,5.5-13.9c-1.8-2.3-9.2-6.9-11.1-10.1c-1.8-2.9-2.6-6.4-1.5-9.9
				c0.8-2.8,3.2-6.1,4.3-7.1c-23.8-4-27-27.6-20.6-41.4c2.3-4.9,8.3-12.4,8-15.9c-5.2-2.8-7-9.7-7.2-10.5C3,56.3,0.8,50,4.7,45.1
				c8.2-10.4,19.6-8.3,21.9-7.8c-1.1-6.7,0.4-10.8,4.3-11c-0.4-11.5,5.7-15.1,9.5-14.1c2.5-6.8,10.2-11.9,15.4-7.1
				c11.7-5.9,20-3,21.2,3.4C80.4,9.6,81.9,11.6,82.7,14z"/>
		</g>
		<path class="st1" d="M112.6,207.1c-8.4-1.8-15.5-4.2-22-6.3c-12.7-4.1-23.9-7.6-38.6-4.1c-3,0.7-4,0.7-4.7-2.3L41.3,167
			c-0.6-2.5,0.2-3.1,2.6-3.6c18.1-3.9,33-1.2,48,2.6c7.9,2,15.7,4.3,23.9,6.1c8.3,1.8,17,3.1,26.5,3.1s18.2-1.3,26.5-3.1
			c8.2-1.8,16-4.1,23.9-6.1c15-3.8,29.9-6.5,48-2.6c2.5,0.6,3.2,1.1,2.6,3.6l-6.1,27.4c-0.7,3-1.7,3.1-4.7,2.3
			c-14.6-3.5-25.8,0-38.5,4.1c-6.5,2.1-13.6,4.5-22,6.3c-8.4,1.8-18,3.1-29.8,3.1C130.7,210.2,121,208.9,112.6,207.1z M112.3,50.3
			l-0.8-0.5l0.2-0.9c0.5-2.4,0.2-4.5-3.5-4.7l-0.9,0l-2.8-8.8l0.8-0.5c2.5-1.8,1.9-4.1-1.5-5.3l-0.9-0.3v-0.9c0-1.5,0.9-2.3,1.5-2.8
			c0.2-0.1,0.3-0.3,0.5-0.4c0.2-0.1,0.3-0.3,0.5-0.5c0.3-0.3,0.6-0.7,0.9-1.2l0.2-0.4l0.4-0.2c11-4.3,22.9-6.7,35.5-6.7
			s24.5,2.4,35.5,6.7l0.4,0.2l0.2,0.4c0.3,0.5,0.6,0.9,0.9,1.2c0.2,0.2,0.3,0.3,0.5,0.5c0.2,0.2,0.3,0.3,0.5,0.4
			c0.6,0.6,1.5,1.4,1.5,2.8v0.9l-0.9,0.3c-3.4,1.2-4,3.5-1.5,5.3l0.8,0.5l-2.8,8.8l-0.9,0c-3.7,0.1-4,2.3-3.5,4.7l0.2,0.9l-0.8,0.5
			c-1.1,0.7-2.1,3.3-1.4,5.3l1,2.9l-2.7-1.3c-8.1-3.9-17.2-6.1-26.9-6.1c-9.6,0-18.7,2.2-26.9,6.1l-2.7,1.3l1-2.9
			C114.4,53.6,113.4,51,112.3,50.3z"/>
		<path class="st2" d="M243.2,73.7c-0.1,0.1-0.2,0.2-0.3,0.3c-1,1-3,2.1-4.7,2l-1.5,0l0.1,1.5c0.6,6.3,4.3,14.7,8.1,19.1
			c3.8,4.4,5.9,9.2,5.7,13.5l-0.1,1.2l1.2,0.1c7.3,0.7,12.3-2.8,14.2-7.7c2.8-7.5-2.6-15.7-6.3-21.2c-4.8-7.3-4-15.5-2.9-20.8
			l0.2-0.9l-0.7-0.5c-1.5-1-2.2-2.6-2.2-4.5c0-2.1,0.5-4.4,2.6-6.5c2.2-2.2,4.6-2.5,8-2.5c1.7,0,5.9,1.9,7.1,3.7c0,0.1,0,0.1,0,0.2
			c0,0.1-0.1,0.2-0.4,0.4c-1.4,0.8-2.2,2-2.8,3.2c-0.5,1.1-0.8,2.4-1.3,3.6c-0.8,2.1-1.8,3.6-5.1,3.6h-1l-0.3,0.9
			c-0.5,1.7-0.7,3.5-0.8,5.3c-0.2,5.4,1.1,9.1,3.1,12.3c0.7,1.1,1.7,2.7,2.8,4.5c1.1,1.7,2.2,3.7,3.1,5.5
			c4.7,10.2,1.5,22.7-9.9,26.3c-1.8,0.6-6,1.2-10.3,0.4l-0.7-0.1l-0.5,0.6c-0.3,0.3-0.5,0.6-0.8,0.9c-0.4,0.4-1,0.9-1.5,1.4
			l-0.3,0.2L245,120c-1,3.2-0.7,7,2.6,10.8c1.3,1.5,2.4,2.7,3.3,3.8c0.9,1.1,1.3,1.8,1.5,2.4c0.2,0.8,0.1,1.8-3.1,4
			c-8,5.8-11.3,10.7-13,14.2c-0.8,1.6-1.3,2.9-1.8,3.8c-0.4,0.6-0.6,0.7-1,0.7c-1.6-0.1-3.9-0.3-5.6-1l-1-0.4l-0.6,1
			c-1,1.7-5.1,2-6.8,1l-0.5-0.4l-0.6,0.2c-3.4,1.3-5.7,1.1-7.1,0.7c-0.7-0.2-1.2-0.5-1.5-0.7c-0.1-0.1-0.3-0.2-0.3-0.2
			c-6.1-0.5-6.5-6.7-3.9-10c0.6-0.7,2.4-3,6.2-3c2.6,0,14.8-7.7,14.8-11.7c0-0.9-0.6-1.6-1.1-2c-0.5-0.5-1.2-0.9-1.9-1.3
			c-1.4-0.8-3.2-1.8-5.1-3c-3.7-2.4-6.9-5.4-6.9-9.9c0-3.6,1-9.7,11-9.7h1.3V108c0-7.2-7.3-14.5-10.9-17.2c-1.6-1.2-3.3-3.2-4.5-5.8
			l-0.2-0.5l-0.5-0.2c-3.7-1.3-7-5.5-10.1-10.5c-1.5-2.4-3-5-4.3-7.2c-1.4-2.2-2.7-4.3-4-5.7l-0.4-0.4l-0.6,0
			c-1.6,0-3.7-0.6-5.5-1.3l-0.6-0.3l-0.6,0.4c-3.2,2.2-6.7,0.8-6.8-1.1l-0.1-1.2h-1.2c-1.8,0-2.6-1.1-2.6-2.8
			c-0.1-1.8,0.8-3.6,1.6-4.1l0.8-0.5l-0.2-0.9c-0.5-2.2-1.4-9,17.8-0.6c0.5,0.2,1.1,0.5,1.6,0.8l2.4,1.2l-0.6-2.7
			c-0.7-3.3-2.2-6.5-5.4-9.2l-0.7-0.6l-0.8,0.4c-1.3,0.6-2.1,0.5-3.2,0c-0.6-0.3-1.2-0.7-2-1.3c-0.8-0.6-1.7-1.2-2.6-1.9
			c-2.7-1.8-2.1-4.1,1.4-5.4l0.9-0.3v-0.9c0-0.7-0.2-1.3-0.6-1.8c-0.2-0.2-0.3-0.4-0.5-0.6c-0.2-0.2-0.3-0.3-0.5-0.5
			c-0.2-0.1-0.3-0.3-0.5-0.5c-0.2-0.2-0.3-0.3-0.5-0.5c-0.3-0.4-0.6-0.8-0.9-1.4c-1-2,1.2-4.3,4-3l1.8-1c0,0,0.1-0.1,0.3-0.1
			c0.4-0.2,1-0.3,1.8-0.2c1.7,0,2.9,0.6,3.1,0.9l2.2,0c-0.1,0-0.1,0.1-0.2,0.2c0,0,0.1,0,0.3-0.1c0.3,0,0.7,0,1.3,0.2
			c1.1,0.5,2.7,1.8,4.1,5.1l0.4,1.1l1.1-0.3c1-0.3,2-0.5,2.9-0.6c0.6-0.1,2.8-0.2,3.4-0.3c0.6-0.1,1.1-0.4,1.5-0.7
			c0.4-0.3,0.7-0.6,1-0.9c0.1-0.1,0.3-0.3,0.4-0.4c0.1-0.1,0.2-0.2,0.4-0.3c0.2-0.2,0.5-0.4,0.7-0.5c0.1,0,0.8-0.2,1.9-0.3l1.5-0.2
			l-0.4-1.4c-0.1-0.4-0.2-0.9-0.3-1.4c0-0.2-0.1-0.4-0.1-0.6c0-0.1,0-0.1,0-0.2c0.1-0.2,0.3-0.5,1.3-0.8c1-0.3,2.1-0.5,2.8-0.7
			c0.4-0.1,0.8-0.3,1.2-0.4c0.4-0.2,0.9-0.4,1.3-0.7c0.9-0.7,1.4-1.8,0.8-3c0.3,0,0.6,0.1,1.1,0.2c0.9,0.2,1.8,0.4,2.6,0.7
			c0.4,0.1,0.7,0.3,0.9,0.4c0.1,0,0.1,0.1,0.1,0.1c0,0.1,0,0.2-0.1,0.4c-0.1,0.3-1.4,2.8-1.4,2.8s2.7-0.3,3-0.3c0.3,0,0.8,0,1.3,0.1
			c0.7,0.1,1.3,0.3,1.9,0.3c0.6,0.1,1.3,0.2,1.9,0c0.8-0.2,1.5-0.7,1.7-1.7c0.1-0.5,0.1-1,0-1.6c0.5,0.1,1.2,0.3,1.8,0.6
			c2.2,1,3,2.3,2.7,3.2c-0.3,0.7-1.2,1.4-1.3,1.4l-1.5,1c0,0,1.5,1.2,1.6,1.2c0.1,0.1,0.2,0.1,0.3,0.3c0.3,0.3,0.6,0.6,0.9,1.2
			c0.9,1.7,2.9,1.1,3.7,0.7c0.8-0.5,1.7-1.4,2-2.6c1,1.1,2,2.8,2.1,4.1c0.1,1.1-0.2,2.4-0.7,2.8c-0.2,0.1-1.2,0.3-1.3,0.3l-1.9,0.2
			c0,0,1,1.9,1.1,2.2c0.1,0.4,0.2,1,0.2,1.9c-0.1,2.2,2,2.6,3.1,2.4c0.9-0.1,1.8-0.6,2.5-1.3c0.1,0.2,0.2,0.3,0.3,0.6
			c0.6,1.4,0.9,3.3,0.5,4.7c-0.2,0.8-1.4,1.9-1.7,1.9c-0.1,0-0.2,0-0.5,0c-0.2,0-0.5,0-0.7-0.1c-0.3,0-0.6-0.1-0.8-0.1
			c-1.2,0.1-1.5,0.8-1.4,1.6c0,0.3,0.1,0.6,0.1,0.8c0,0.3,0,0.6-0.1,1.2c-0.3,4,3.1,4,5.3,2.8c0.1,0.6,0.2,1.3,0.1,2.1
			c0,1.1-0.2,2.2-0.6,3c-0.4,0.8-0.8,1.1-1.2,1.2c-0.9,0.2-1.3,0-1.4-0.1c-1.7-0.9-2.2-0.3-2.4,0.7c0,0.2-0.1,0.3-0.1,0.5
			c-0.1,0.2-0.2,0.5-0.3,0.8c-1,2-0.1,3.6,1.7,3.9c0.8,0.2,1.8,0.1,2.7-0.2c0,0.5-0.1,1.2-0.3,1.9c-0.6,2.1-1.7,3.3-3.1,3.2
			c0,0-0.1,0-0.2-0.1c-0.2-0.1-0.3-0.2-0.5-0.3c-0.2-0.2-0.5-0.3-0.7-0.4c-0.3-0.1-0.7-0.3-1.2-0.3c-0.4,0-1.2,0.3-1.5,1.3
			c-0.1,0.4-0.2,0.8-0.2,1.2c-0.1,0.8-0.1,2,0.1,3.1c0.1,1.1,0.4,2.3,1,3.3c0.5,1,1.5,1.9,2.9,1.9C243,73.7,243.1,73.7,243.2,73.7z
			 M65.9,12.2c-0.5,1.2-0.1,2.3,0.8,3c0.4,0.3,0.9,0.5,1.3,0.7c0.4,0.2,0.8,0.3,1.2,0.4c0.7,0.2,1.8,0.4,2.8,0.7
			c0.9,0.3,1.2,0.6,1.3,0.8c0,0,0,0.1,0,0.2c0,0.2,0,0.4-0.1,0.6c-0.1,0.5-0.2,1-0.3,1.4l-0.4,1.4l1.5,0.2c1.2,0.2,1.8,0.3,1.9,0.3
			c0.3,0.1,0.5,0.3,0.7,0.5c0.1,0.1,0.3,0.2,0.4,0.3c0.1,0.1,0.3,0.3,0.4,0.4c0.3,0.3,0.6,0.6,1,0.9c0.4,0.3,0.9,0.6,1.5,0.7
			c0.5,0.1,2.7,0.2,3.4,0.3c0.9,0.1,1.9,0.3,2.9,0.6l1.1,0.3l0.4-1.1c1.4-3.3,3-4.6,4.1-5.1c0.6-0.2,1-0.3,1.3-0.2
			c0.1,0,0.2,0,0.3,0.1c0-0.1-0.1-0.1-0.2-0.2l2.2,0c0.2-0.3,1.4-0.8,3.1-0.9c0.7,0,1.4,0.1,1.8,0.2c0.2,0.1,0.3,0.2,0.3,0.2
			c4.6-0.3,6.8,2,5.8,4c-0.3,0.6-0.6,1-0.9,1.4c-0.2,0.2-0.3,0.3-0.5,0.5c-0.2,0.2-0.3,0.3-0.5,0.5c-0.2,0.2-0.4,0.3-0.5,0.5
			c-0.2,0.2-0.4,0.4-0.5,0.6c-0.3,0.5-0.6,1.1-0.6,1.8v0.9l0.9,0.3c3.5,1.2,4.1,3.5,1.4,5.4c-1,0.7-1.9,1.3-2.6,1.9
			c-0.8,0.6-1.4,1-2,1.3c-1.1,0.5-2,0.7-3.2,0l-0.8-0.4l-0.7,0.6c-3.1,2.7-4.6,5.9-5.4,9.2l-0.6,2.7l2.4-1.2
			c0.6-0.3,1.1-0.5,1.6-0.8c19.2-8.4,18.3-1.6,17.8,0.6l-0.2,0.9l0.8,0.5c0.8,0.5,1.7,2.3,1.6,4.1c-0.1,1.7-0.8,2.8-2.6,2.8h-1.2
			l-0.1,1.2c-0.2,1.9-3.7,3.3-6.8,1.1l-0.6-0.4l-0.6,0.3c-1.8,0.7-3.8,1.3-5.5,1.3l-0.6,0L95.5,61c-1.3,1.4-2.7,3.4-4,5.7
			c-1.4,2.2-2.8,4.7-4.3,7.2C84.1,78.8,80.7,83,77,84.3l-0.5,0.2L76.3,85c-1.2,2.6-2.9,4.5-4.5,5.8c-3.6,2.7-10.9,10-10.9,17.2v1.3
			h1.3c10,0,11,6.1,11,9.7c0,4.4-3.2,7.5-6.9,9.9c-1.8,1.2-3.7,2.2-5.1,3c-0.7,0.4-1.4,0.9-1.9,1.3c-0.5,0.4-1.1,1.1-1.1,2
			c0,4,12.2,11.7,14.8,11.7c3.8,0,5.6,2.2,6.2,3c2.6,3.4,2.2,9.6-2.9,9.6h-0.5l-0.5,0.5c-0.1,0.1-0.2,0.1-0.3,0.2
			c-0.3,0.2-0.8,0.5-1.5,0.7c-1.4,0.4-3.7,0.6-7.1-0.7l-0.6-0.2l-0.5,0.4c-1.7,1.1-5.8,0.8-6.8-1l-0.6-1l-1,0.4c-1.7,0.7-4,1-5.6,1
			c-0.4,0-0.7-0.1-1-0.7c-0.5-0.9-1-2.2-1.8-3.8c-1.8-3.5-5-8.4-13-14.2c-3.2-2.3-3.3-3.3-3.1-4c0.2-0.6,0.6-1.3,1.5-2.4
			c0.9-1.1,2-2.3,3.3-3.8c3.3-3.8,3.6-7.6,2.6-10.8l-0.1-0.4l-0.3-0.2c-0.6-0.5-1.1-1-1.5-1.4c-0.3-0.3-0.6-0.6-0.8-0.9l-0.5-0.6
			l-0.7,0.1c-4.4,0.7-8.5,0.2-10.3-0.4C14,112.6,10.8,100.1,15.5,90c0.9-1.9,2-3.8,3.1-5.5c1.1-1.8,2.2-3.4,2.8-4.5
			c2-3.3,3.3-6.9,3.1-12.3c-0.1-1.8-0.3-3.5-0.8-5.3l-0.3-0.9h-1c-3.3,0-4.3-1.5-5.1-3.6c-0.5-1.2-0.8-2.5-1.3-3.6
			c-0.5-1.2-1.3-2.5-2.8-3.2c-0.3-0.2-0.4-0.3-0.4-0.4c0-0.1,0-0.1,0-0.2c1.2-1.8,5.4-3.7,7.1-3.7c3.4,0,5.8,0.3,8,2.5
			c2.1,2.1,2.6,4.4,2.6,6.5c0,1.9-0.8,3.5-2.2,4.5l-0.7,0.5l0.2,0.9c1.1,5.2,1.9,13.5-2.9,20.8c-3.7,5.5-9,13.7-6.3,21.2
			c1.8,5,6.9,8.4,14.2,7.7l1.2-0.1l-0.1-1.2c-0.2-4.3,1.8-9.1,5.7-13.5c3.8-4.4,7.5-12.8,8.1-19.1l0.1-1.5l-1.5,0
			c-1.7,0.1-3.7-1-4.7-2c-0.1-0.1-0.2-0.2-0.3-0.3c0.1,0,0.2,0,0.4,0c1.5,0,2.4-1,2.9-1.9c0.5-1,0.8-2.2,1-3.3
			c0.2-1.1,0.2-2.3,0.1-3.1c0-0.4-0.1-0.8-0.2-1.2c-0.3-1-1.1-1.3-1.5-1.3c-0.5,0-0.9,0.2-1.2,0.3c-0.2,0.1-0.5,0.3-0.7,0.4
			c-0.1,0.1-0.3,0.2-0.5,0.3C41.8,64,41.8,64,41.8,64c-1.5,0.1-2.6-1.1-3.1-3.2c-0.2-0.7-0.3-1.4-0.3-1.9c0.9,0.3,1.8,0.4,2.7,0.2
			c1.8-0.4,2.7-1.9,1.7-3.9c-0.2-0.4-0.3-0.6-0.3-0.8c-0.1-0.2-0.1-0.4-0.1-0.5c-0.2-1-0.7-1.6-2.4-0.7c-0.1,0.1-0.5,0.2-1.4,0.1
			C38,53,37.6,52.7,37.3,52c-0.4-0.8-0.6-1.9-0.6-3c0-0.8,0-1.5,0.1-2.1c2.2,1.2,5.6,1.2,5.3-2.8c0-0.5-0.1-0.9-0.1-1.2
			c0-0.3,0-0.5,0.1-0.8c0.1-0.8-0.2-1.5-1.4-1.6c-0.2,0-0.5,0-0.8,0.1c-0.2,0-0.4,0.1-0.7,0.1c-0.2,0-0.4,0-0.5,0
			c-0.4-0.1-1.5-1.2-1.7-1.9c-0.4-1.4-0.1-3.2,0.5-4.7c0.1-0.2,0.2-0.4,0.3-0.6c0.7,0.7,1.7,1.2,2.5,1.3c1.1,0.2,3.2-0.2,3.1-2.4
			c0-0.9,0.1-1.5,0.2-1.9c0.1-0.3,1.1-2.2,1.1-2.2l-1.9-0.2c-0.2,0-1.2-0.2-1.3-0.3c-0.5-0.4-0.8-1.7-0.7-2.8
			c0.1-1.3,1.1-3.1,2.1-4.1c0.3,1.1,1.2,2.1,2,2.5c0.8,0.5,2.7,1.1,3.7-0.7c0.3-0.6,0.6-0.9,0.9-1.2c0.1-0.1,0.2-0.2,0.3-0.3
			c0-2.2-1-2.9-1.2-3.6c-0.3-0.9,0.5-2.2,2.7-3.2c0.7-0.3,1.3-0.5,1.8-0.6c-0.1,0.6-0.1,1.1,0,1.6c0.2,1,0.9,1.5,1.7,1.7
			c0.6,0.1,1.3,0.1,1.9,0c0.6-0.1,1.2-0.2,1.9-0.3c0.5-0.1,0.9-0.1,1.3-0.1c0.3,0,3,0.3,3,0.3s-1.3-2.4-1.4-2.8
			c-0.1-0.2-0.1-0.3-0.1-0.4c0,0,0,0,0.1,0c0.2-0.2,0.6-0.3,0.9-0.4c0.8-0.3,1.7-0.6,2.6-0.7C65.3,12.3,65.6,12.3,65.9,12.2z"/>
		<path d="M18.5,57.4c0.9,2.4,1.5,3.1,5.9,2.9c0.8,2.5,1.3,5.4,1.3,7.2c0.2,5.7-1.2,9.5-3.3,13c-0.7,1.1-1.7,2.7-2.8,4.5
			c-1.1,1.7-2.2,3.6-3,5.4c-4.5,9.7-1.4,21.3,9.2,24.7c1.6,0.5,5,1,8.8,0.5c-0.6-1-1-2.1-1.2-3.2c-7.8,0.8-13.6-2.8-15.6-8.5
			c-1.5-4.2-0.7-8.5,0.7-12.2c1.5-3.7,3.8-7.2,5.7-10.1c4.6-6.9,4-14.9,2.4-21.8c1.5-0.8,3.1-1.4,3.1-4.2c0-2-0.4-3.9-2.2-5.6
			c-4.1-3.8-10.5-1.4-12.7,0.3c1.3,0.9,2,2.2,2.5,3.3C17.7,54.9,18.1,56.2,18.5,57.4z M71.4,82c0.8,0.8,1.8,1.3,3.4,1.3
			c3.3,0,6.7-3.2,10.3-8.7c1.7-2.6,3.3-5.4,4.8-7.9c1.5-2.5,3.1-5,4.7-6.6l0.8-0.9c2.9,0.4,7.5-1.7,7.5-1.7l1.2,0.8
			c1,0.7,2.4,0.9,3.5,0.8c0.9-0.1,1.2-0.6,1.3-1.3c0.2-1.4-1-2.4-1.8-2.8c-1.6-0.7-0.4-3.1,1.1-2.3c0,0,1.8,0.7,3,3.1
			c1.3,0.1,1.4-0.6,1.5-1.4c0.2-1.5-0.8-4.3-4.9-4.3c-1.7,0.1-1.9-2.5-0.2-2.6c0,0,1.8-0.1,3,0.4c0.2-1.2-0.2-1.8-0.8-2
			c-1.5-0.6-5.6-0.6-15.2,3.6c-2.2,1-6.7,3.7-11.1,5.4c1,1.2,2.5,1.8,3.9,0.6c2.3-1.9,1.9,8-1.8,8.5c-1.4,0.2-2.4-0.6-2.4-0.6
			s-0.2,1.2-0.5,1.9c-0.8,1.6-0.5,3.4,2.1,3.3c0,3.1-2.7,7.3-7.1,5.7c-3.1-1.1-1.8-5.9-5.3-5.3c-0.1,0-0.5,1.7-0.3,3.9
			c0.5,6.4,3.1,5,3.2,5.7C75.5,80.2,73.6,81.6,71.4,82z M74.1,86c-3.5-0.2-5.3-1.9-6.3-4.2c-1.8-0.7-3.4-2.3-3.7-5.4
			c-0.3-2.9,1.4-6.6-1.6-6.6c-0.5,0-1,2.2-1.3,3.3c-1.5,6.9,1.8,5.1,0.6,6.6c-2.1,2.5-9.5,2-8.7-5.3c0.2-2.1,2.3-6,0.1-6
			c-1.5,0-1.3,5.6-4,7.9c-0.2,7.3-4.9,16.9-8.5,21.1c-6.2,7.2-7.1,14.6-2.1,19.6c0.7,0.7,1.7,1.6,2.8,2.5c1.1,1,2.3,2.1,3.4,3.4
			c2.1,2.6,3.7,6.6,0.1,10.5c-0.9,0.9-1.6,1.8-2.3,2.6c-1.6,1.8-0.5,2.4,0.9,3.4c5.9,4.1,9.4,7.8,11.7,11.1c1.1,1.6,2,3.1,2.7,4.5
			c0.6,1.3,1.2,2.4,1.7,3.5c0.4,0.7,3.5,1.8,5.7,0c0.1-1.4-0.5-3.1-1.4-4.3c-1-1.5,1.2-3,2.2-1.5c1.2,1.7,2.1,4.4,1.8,6.5
			c2.5,0.9,4.5,0.8,6.2-0.2c0.2-2.5-0.4-4.4-1.3-5.5c-1.1-1.4,1.1-3.1,2.2-1.6c1.2,1.6,2,4,1.9,6.1c1.5-0.2,2-1.1,2.2-2.3
			c0.3-1.8-0.4-3.9-1.2-4.9c-0.5-0.6-1.9-2.4-5.1-2.4c-2.9,0-16.2-7.9-16.2-13.1c0-1.6,1-2.6,1.5-3.1c0.6-0.5,1.4-1,2.1-1.5
			c1.4-0.8,3.2-1.8,5-3c3.6-2.3,6.2-5,6.2-8.7c0-3.2-1-7.6-7.5-8.2c-1.4-0.1-6.1-0.6-9.2,1c-1.6,0.8-3-1.2-1.6-2.2
			c0,0,1.7-1.2,5.9-1.6c0-8,7.8-15.5,11.4-18.3C72,88.8,73.1,87.5,74.1,86z M41.6,123c0.1,2.8-0.9,5.8-3.4,8.8
			c-1.3,1.5-2.4,2.7-3.3,3.7c-1.6,1.9-1.7,2.3,1.4,4.5c8.2,5.9,11.6,10.9,13.4,14.6c1.2,2.5,1.5,3.9,2,3.8c1-0.1,2-0.2,3.2-0.5
			c0.6-0.1,1.1-0.3,1.5-0.5c-1.9-4-4.6-9.2-14.1-15.9c-5.2-3.7-2.7-6.1,1-10C46.1,128.5,44.2,125.5,41.6,123z M85,42.7h-8.5v-6.6
			c0,0,6.7,0,8.7-0.2c0.5-0.1,1.3-0.1,2.3,0.1c0.1,0,0.5,0,0.5-0.2c0.2-1.2,0.1-3.8,0.1-3.8s1.5-1.5,1.5-4c-2.3-0.8-4.6-1.6-6.4-1.8
			c-0.6-0.1-2.9-0.2-3.4-0.3c-0.8-0.1-1.5-0.4-2-0.8c-0.4-0.3-1.6-1.9-2.2-2.1c-4.8-1.1-10.3-0.6-11.6-0.3c-1.7,0.4-2.1,1.9-2.1,1.9
			c-0.9,0-2.9,0-3.8,0.2c-1,0.2-1.3,0.3-1.4,0.9c0,1.2,2.9,3,2.9,3s-0.6,3.5-1.7,6.4c-0.2,0.6-0.2,1.2,0.3,2.5
			c0.8,1.8,2.7,2.8,5.3,3.2c1.9,0.3,4.3,3.3,5.4,3.7c0.7,0.3,5.2,0.2,6.9,0.2c3.5-0.1,7-0.4,8.2-0.7C84.5,44,84.8,43.2,85,42.7z
			 M77.8,47c-4.2,0.2-8.8,0.3-9.9-0.3c-2.3-1.3-3.7-3.3-4.8-3.5c-2.7-0.5-5.7-1.6-7-4.6c-1.5-3.5,0-4.2,1-8.9
			c-3.3-2.5-3.2-5-1.5-6.4c0.7-0.6,2.9-1,5.1-1c0.6-2.4,6.6-2.5,11-2.2c0.1-0.3,0.2-0.8,0.3-1.1c0.2-0.6,0.2-0.8-0.8-1
			c-2.1-0.4-3.3-0.8-4.7-1.6c-1.3-0.7-2-2-1.7-2.7c0.3-0.7-1.9,0-2.1,0.4c-0.4,0.7,1.5,3.5,1.5,3.5s-2.6-0.2-4.2-0.1
			c-2.3,0.1-3.6,0.7-5.2,0.5c-1.9-0.2-3-1.7-2.8-2.8c0.1-0.7-2.5,1.2-2.4,1.9c0.1,0.6,0.9,1.6,3,3c-3.7,2.1-2.8,4.7-5.9,4.9
			c-0.9,0-3.4-0.7-3.7-2c-0.2-0.8-1.9,2.2-0.9,3.7c0.5,0.8,1.1,0.7,3.7,0.9c-1.1,2.1-1.2,3.1-1.2,4.8c0,1.7-0.5,2.3-1.8,3.1
			c-0.9,0.6-3,0.9-4.4-0.4c-0.4-0.4-0.7,2.4-0.4,3.2c0.3,0.8,0.8,1.2,2.1,1.2c2-0.1,3.1-0.5,3.1-0.1c-0.1,1.1-0.1,2.7,0.1,5.6
			c0.2,3.1-3.1,4.5-5.4,3.3c-0.6-0.3,0,3.6,1,3.7c2,0.2,3.9-1.7,4-1.1c0.5,3.2,1.2,3.5,1.4,5c0.5,3.6-3,4.5-4.3,4
			c-0.9-0.4,0.3,3.5,2.1,2.8c0.6-0.2,1.5-1,2.3-1c1.3,0,2.1,0.5,2.7,2.2c0.3,0.9,0.4,2.7,0.1,4.7c-0.2,1.2-0.4,2.4-1.1,3.6
			c-0.4,0.7-1.1,1.4-1.7,1.6c-1.2,0.3,2,1.7,3.5,0.8c1.3-0.7,2.2-5.5,2.5-6.2c0.8-1.9,2.1-2.5,3.2-2.5c1.6,0,2.9,1,3.3,2.5
			c0.3,1,0.1,2.1-0.1,2.7c-0.1,0.7-0.8,3.1-0.9,3.5c-0.9,4.2,3.8,4.4,3.3,3.9c-0.7-0.8-0.6-3.3,0-6c0.1-0.6,0.7-2.8,1.1-3.6
			c0.8-1.3,1.8-1.7,2.5-1.7c3.7,0,4.2,2.9,4.2,4.6c0,0.7-0.2,3.7-0.2,4.2c0,5,6.3,3.7,5.3,3.2c-1.2-0.6-2-2.5-2.4-6.2
			c-0.3-3,0.5-6,0.7-6.1c2.5-0.8,5.1-0.8,6.7,2.3c0.4,0.8,0.7,2.2,1.2,2.6c1,0.9,3.1,0,3.6-1.4c-2.3-0.9-2.4-4.2-1.3-6.4
			c0.5-1,0.9-2.4,1.2-3.9c0.4,0.4,2.5,2,3.6,1.7c0.8-0.3,1.7-3.7,0.8-3.3c-1.8,1-4-1.3-4.8-2.4c-0.4-0.6-1.4-1.8-1.5-4.1
			C79.7,50.5,79.6,48.4,77.8,47z M88.8,49.4c0.6-4.3,2.1-8.5,6.2-12l1.3-1.1l1.6,0.8c0.8,0.4,1.3,0.4,2,0c0.5-0.3,1.1-0.6,1.8-1.2
			c0.8-0.6,1.7-1.3,2.7-1.9c2-1.3,1.2-2.3-0.9-3l-1.9-0.7v-1.5c0-2.3,1.1-3.3,2-4.2c0.2-0.2,2-1.6,1.7-2.6c-0.3-1.2-2.8-0.8-2.8-0.8
			c-1.1,0.3-2,2-2.3,2.8c-0.7,1.7-3.2,0.6-2.5-1c0,0,0.7-1.6,1.7-2.6c-0.1-0.6-2.3-0.4-3,0.1c-0.6,0.8-1.1,2-1.2,2.7
			c-0.3,1.8-3,1.3-2.7-0.5c0,0,0.2-0.8,0.5-1.6c-1.2-0.1-2.8,1.5-4,4.4c0.9,0.3,1.9,0.7,2.8,1c0.4,2.4,0,4.8-1.3,6.5
			c0,2.5,0.2,6.1-2.6,5.6c-0.6-0.1-1.7-0.2-2.3-0.2c-2.1,0.3-5.2,0.2-6.6,0.2v1.9h8.5c0.9,0.9-0.6,5.6-2.9,6
			c-0.6,0.1-1.9,0.3-3.6,0.4c1.2,1.9,1.3,4.3,1.4,5.7C84.7,51.6,86.9,50.5,88.8,49.4z M196,49.4c2,1,4.1,2.1,6.5,3
			c0.1-1.4,0.3-3.7,1.4-5.7c-1.6-0.1-2.9-0.3-3.6-0.4c-2.4-0.4-3.9-5.1-2.9-6h8.5v-1.9c-1.5,0-4.5,0-6.6-0.2
			c-0.6-0.1-1.7,0.1-2.3,0.2c-2.8,0.4-2.6-3.1-2.6-5.6c-1.3-1.7-1.8-4.1-1.3-6.5c0.9-0.4,1.8-0.7,2.8-1c-1.2-2.9-2.8-4.5-4-4.4
			c0.4,0.8,0.5,1.6,0.5,1.6c0.3,1.8-2.3,2.3-2.7,0.5c-0.1-0.7-0.6-1.9-1.2-2.7c-0.7-0.5-2.9-0.7-3-0.1c1,1.1,1.7,2.6,1.7,2.6
			c0.7,1.7-1.8,2.7-2.5,1c-0.3-0.8-1.2-2.5-2.3-2.8c0,0-2.5-0.4-2.8,0.8c-0.3,1,1.5,2.4,1.7,2.6c0.9,0.8,2,1.8,2,4.2v1.5l-1.9,0.7
			c-2.1,0.7-2.9,1.7-0.9,3c1,0.7,1.9,1.4,2.7,1.9c0.8,0.6,1.3,0.9,1.8,1.2c0.8,0.4,1.2,0.4,2,0l1.6-0.8l1.3,1.1
			C193.9,41,195.4,45.2,196,49.4z M207,47c-1.8,1.4-1.9,3.4-2,5c-0.1,2.3-1.1,3.5-1.5,4.1c-0.8,1.1-3,3.4-4.8,2.4
			c-0.8-0.5,0,3,0.8,3.3c1.1,0.4,3.3-1.3,3.6-1.7c0.3,1.5,0.7,2.9,1.2,3.9c1.1,2.2,1,5.5-1.3,6.4c0.5,1.4,2.6,2.3,3.6,1.4
			c0.5-0.4,0.9-1.8,1.2-2.6c1.6-3.1,4.2-3.1,6.7-2.3c0.2,0.1,1,3.1,0.7,6.1c-0.4,3.6-1.1,5.6-2.4,6.2c-1.1,0.5,5.3,1.8,5.3-3.2
			c0-0.6-0.2-3.5-0.2-4.2c0-1.7,0.5-4.6,4.2-4.6c0.7,0,1.8,0.4,2.5,1.7c0.5,0.8,1,3,1.1,3.6c0.6,2.7,0.7,5.2,0,6
			c-0.5,0.5,4.2,0.4,3.3-3.9c-0.1-0.4-0.8-2.8-0.9-3.5c-0.1-0.6-0.3-1.7-0.1-2.7c0.4-1.5,1.7-2.5,3.3-2.5c1.1,0,2.4,0.6,3.2,2.5
			c0.3,0.7,1.2,5.5,2.5,6.2c1.6,0.9,4.7-0.5,3.5-0.8c-0.7-0.2-1.4-0.9-1.7-1.6c-0.6-1.1-0.9-2.3-1.1-3.6c-0.3-1.9-0.1-3.8,0.1-4.7
			c0.5-1.7,1.3-2.2,2.7-2.2c0.8,0,1.7,0.8,2.3,1c1.8,0.7,2.9-3.2,2.1-2.8c-1.2,0.5-4.7-0.4-4.3-4c0.2-1.5,0.9-1.9,1.4-5
			c0.1-0.5,2,1.3,4,1.1c1.1-0.1,1.6-4,1-3.7c-2.3,1.2-5.7-0.2-5.4-3.3c0.2-2.9,0.1-4.5,0.1-5.6c0-0.4,1.1,0,3.1,0.1
			c1.3,0,1.8-0.4,2.1-1.2c0.3-0.8,0-3.6-0.4-3.2c-1.3,1.3-3.4,1-4.4,0.4c-1.3-0.8-1.8-1.4-1.8-3.1c0-1.8-0.2-2.7-1.2-4.8
			c2.6-0.2,3.2-0.1,3.7-0.9c1-1.5-0.7-4.5-0.9-3.7c-0.3,1.3-2.7,2.1-3.7,2c-3.2-0.1-2.2-2.7-5.9-4.9c2.1-1.4,3-2.4,3-3
			c0.1-0.8-2.5-2.6-2.4-1.9c0.1,1.1-0.9,2.6-2.8,2.8c-1.6,0.2-3-0.4-5.2-0.5c-1.6-0.1-4.2,0.1-4.2,0.1s1.9-2.8,1.5-3.5
			c-0.2-0.4-2.4-1.1-2.1-0.4c0.2,0.7-0.5,1.9-1.7,2.7c-1.4,0.8-2.6,1.2-4.7,1.6c-1,0.2-1,0.4-0.8,1c0.1,0.3,0.2,0.7,0.3,1.1
			c4.5-0.3,10.4-0.2,11,2.2c2.1,0,4.4,0.4,5.1,1c1.7,1.4,1.8,3.9-1.5,6.4c0.9,4.7,2.5,5.3,1,8.9c-1.3,3-4.3,4.1-7,4.6
			c-1.2,0.2-2.5,2.3-4.8,3.5C215.8,47.3,211.1,47.3,207,47z M199.8,42.7c0.2,0.5,0.6,1.3,0.9,1.4c1.2,0.3,4.7,0.5,8.2,0.7
			c1.7,0.1,6.2,0.1,6.9-0.2c1.2-0.5,3.5-3.5,5.4-3.7c2.6-0.4,4.5-1.4,5.3-3.2c0.6-1.3,0.6-1.8,0.3-2.5c-1.1-3-1.7-6.4-1.7-6.4
			s2.9-1.8,2.9-3c0-0.7-0.4-0.7-1.4-0.9c-0.8-0.2-2.8-0.2-3.8-0.2c0,0-0.4-1.5-2.1-1.9c-1.3-0.3-6.7-0.8-11.6,0.3
			c-0.6,0.1-1.9,1.8-2.2,2.1c-0.5,0.4-1.1,0.7-2,0.8c-0.5,0.1-2.8,0.3-3.4,0.3c-1.8,0.2-4.1,0.9-6.4,1.8c0,2.6,1.5,4,1.5,4
			s-0.1,2.6,0.1,3.8c0,0.2,0.3,0.3,0.5,0.2c1-0.2,1.8-0.1,2.3-0.1c2,0.2,8.7,0.2,8.7,0.2v6.6L199.8,42.7L199.8,42.7z M243.2,123
			c-2.6,2.5-4.5,5.5-1.7,8.6c3.6,4,6.2,6.4,1,10c-9.5,6.7-12.2,11.9-14.1,15.9c0.4,0.2,0.9,0.3,1.5,0.5c1.2,0.3,2.2,0.4,3.2,0.5
			c0.5,0,0.8-1.4,2-3.8c1.9-3.7,5.3-8.7,13.4-14.6c3-2.2,2.9-2.6,1.4-4.5c-0.8-1.1-2-2.3-3.3-3.7C244.1,128.8,243.2,125.8,243.2,123
			z M210.7,86c1,1.6,2.1,2.8,3.2,3.6c3.6,2.7,11.4,10.3,11.4,18.3c4.2,0.4,5.9,1.6,5.9,1.6c1.5,1,0,3-1.6,2.2c-3-1.5-7.8-1.1-9.2-1
			c-6.5,0.6-7.5,5-7.5,8.2c0,3.7,2.6,6.3,6.2,8.7c1.8,1.2,3.7,2.1,5,3c0.7,0.4,1.5,0.9,2.1,1.5c0.5,0.5,1.5,1.5,1.5,3.1
			c0,5.2-13.3,13.1-16.2,13.1c-3.1,0-4.6,1.8-5.1,2.4c-0.8,1-1.4,3.2-1.2,4.9c0.2,1.1,0.7,2.1,2.2,2.3c0-2.1,0.7-4.5,1.9-6.1
			c1.1-1.4,3.3,0.2,2.2,1.6c-0.9,1.1-1.5,3-1.3,5.5c1.7,1,3.7,1.1,6.2,0.2c-0.3-2.1,0.7-4.8,1.8-6.5c1-1.5,3.3,0.1,2.2,1.5
			c-0.9,1.2-1.4,2.9-1.4,4.3c2.2,1.8,5.3,0.7,5.7,0c0.5-1.1,1.1-2.2,1.7-3.5c0.7-1.4,1.5-2.9,2.7-4.5c2.3-3.3,5.8-7,11.7-11.1
			c1.4-1,2.5-1.6,0.9-3.4c-0.7-0.8-1.4-1.6-2.3-2.6c-3.6-3.9-2-7.9,0.1-10.5c1-1.3,2.3-2.4,3.4-3.4c1-0.9,2-1.7,2.8-2.5
			c5-5,4.2-12.4-2.1-19.6c-3.6-4.2-8.3-13.8-8.5-21.1c-2.6-2.3-2.5-7.9-4-7.9c-2.1,0-0.1,3.9,0.1,6c0.8,7.2-6.5,7.7-8.7,5.3
			c-1.3-1.5,2.1,0.3,0.6-6.6c-0.2-1.1-0.8-3.3-1.3-3.3c-2.9,0-1.3,3.7-1.6,6.6c-0.3,3.1-1.8,4.7-3.7,5.4C216,84,214.1,85.8,210.7,86
			z M213.5,82c-2.3-0.4-4.1-1.8-3.8-3.4c0.1-0.7,2.7,0.7,3.2-5.7c0.2-2.1-0.2-3.9-0.3-3.9c-3.5-0.6-2.2,4.2-5.3,5.3
			c-4.4,1.6-7.1-2.7-7.1-5.7c2.5,0.1,2.9-1.7,2.1-3.3c-0.3-0.7-0.5-1.9-0.5-1.9s-1,0.8-2.4,0.6c-3.6-0.5-4.1-10.4-1.8-8.5
			c1.4,1.2,3,0.5,3.9-0.6c-4.4-1.7-8.9-4.4-11.1-5.4c-9.6-4.2-13.7-4.2-15.2-3.6c-0.5,0.2-1,0.8-0.8,2c1.2-0.5,3-0.4,3-0.4
			c1.7,0.1,1.5,2.7-0.2,2.6c-4.1,0-5.1,2.8-4.9,4.3c0.1,0.8,0.2,1.5,1.5,1.4c1.2-2.4,3-3.1,3-3.1c1.6-0.7,2.7,1.6,1.1,2.3
			c-0.7,0.4-2,1.4-1.8,2.8c0.1,0.6,0.4,1.1,1.3,1.3c1.1,0.2,2.5-0.1,3.5-0.8l1.2-0.8c0,0,4.5,2.1,7.5,1.7l0.8,0.9
			c1.6,1.7,3.2,4.1,4.7,6.6c1.5,2.5,3.1,5.3,4.8,7.9c3.6,5.5,7,8.7,10.3,8.7C211.6,83.3,212.7,82.8,213.5,82z M266.3,57.4
			c0.5-1.2,0.8-2.5,1.3-3.6c0.5-1.1,1.2-2.4,2.5-3.3c-2.2-1.7-8.7-4.1-12.7-0.3c-1.8,1.7-2.2,3.7-2.2,5.6c0,2.8,1.6,3.4,3.1,4.2
			c-1.6,6.9-2.1,14.9,2.4,21.8c1.9,2.8,4.2,6.3,5.7,10.1c1.5,3.7,2.3,8,0.7,12.2c-2.1,5.7-7.8,9.3-15.6,8.5
			c-0.3,1.1-0.7,2.1-1.2,3.2c3.8,0.5,7.2,0,8.8-0.5c10.6-3.4,13.8-15,9.2-24.7c-0.8-1.8-1.9-3.7-3-5.4c-1.1-1.8-2.2-3.4-2.8-4.5
			c-2.1-3.4-3.5-7.3-3.3-13c0.1-1.8,0.5-4.8,1.3-7.2C264.8,60.5,265.4,59.8,266.3,57.4z M142.4,208.9c11.6,0,21.2-1.3,29.5-3.1
			c8.4-1.8,15.4-4.1,21.9-6.2c12.7-4.1,24.2-7.7,39.3-4.1c2.7,0.7,2.7,0.7,3.1-1.3l6.1-27.4c0.4-1.6,0.4-1.6-1.7-2.1
			c-17.8-3.8-32.5-1.2-47.5,2.6c-7.9,2-15.7,4.3-23.9,6.1c-8.4,1.8-17.2,3.2-26.8,3.2c-9.6,0-18.4-1.3-26.8-3.2
			c-8.2-1.8-16-4.1-23.9-6.1c-15-3.8-29.6-6.4-47.5-2.6c-2,0.5-2,0.5-1.7,2.1l6.1,27.4c0.4,2,0.4,2,3.1,1.3c15-3.5,26.5,0,39.3,4.1
			c6.5,2.1,13.5,4.4,21.9,6.2C121.2,207.6,130.8,208.9,142.4,208.9z M111.3,168.4C92,157.5,79,136.9,79,113.2
			c0-21.2,10.4-39.9,26.3-51.4c-1-0.2-2.1-0.6-2.9-1.2c-1.8,0.7-4.1,1.4-6,1.4C91.6,67,85.9,82.3,77.7,85.4c-1.3,2.8-3.2,5-5,6.3
			c-3.6,2.7-10.4,9.6-10.4,16.2c11,0,12.3,7.1,12.3,11c0,10.3-14.9,13.5-14.9,16.2c0,3,11.2,10.4,13.5,10.4c4.4,0,6.5,2.6,7.2,3.5
			c2.3,2.9,3.2,10.1-2.1,11.4C89.6,162.3,100.2,165.7,111.3,168.4z M205.8,113.2c0,23.7-13,44.4-32.3,55.2c11.1-2.7,21.7-6.1,32.9-8
			c-5.2-1.3-4.3-8.5-2.1-11.4c0.7-0.8,2.8-3.5,7.2-3.5c2.3,0,13.5-7.4,13.5-10.4c0-2.7-14.9-5.9-14.9-16.2c0-3.9,1.3-11,12.3-11
			c0-6.5-6.8-13.4-10.4-16.2c-1.8-1.4-3.7-3.5-5-6.3c-8.3-3.1-13.9-18.4-18.8-23.5c-1.9,0-4.2-0.7-6-1.4c-0.9,0.6-1.9,1-2.9,1.2
			C195.4,73.2,205.8,92,205.8,113.2z M84.9,113.2c0,31.8,25.8,57.5,57.5,57.5s57.5-25.8,57.5-57.5s-25.8-57.5-57.5-57.5
			S84.9,81.4,84.9,113.2z M182.1,38.3l-1.6,5c2.8,0.6,6.3,1.7,10.9,3.7c0.6,0.2,1.1,0.5,1.7,0.8c-0.7-3.1-2.1-6-5-8.5
			C185.8,40.6,184.2,39.8,182.1,38.3z M104.3,43.4l-1.6-5c-2.1,1.5-3.7,2.2-6,1c-2.9,2.5-4.3,5.4-5,8.5c0.6-0.3,1.1-0.6,1.7-0.8
			C98,45.1,101.6,43.9,104.3,43.4z M177.4,24c-10.8-4.3-22.6-6.6-35-6.6c-12.4,0-24.2,2.3-35,6.6c-1.3,2.5-3.2,2.7-3.2,4.4
			c3.7,1.3,5.8,4.7,1.8,7.6l2.2,7c4.9,0.2,5.3,3.5,4.7,6.2c1.7,1.1,2.8,4.4,2,6.8c8.3-4,17.6-6.2,27.4-6.2c9.8,0,19.1,2.2,27.4,6.2
			c-0.8-2.4,0.3-5.7,2-6.8c-0.6-2.7-0.2-6.1,4.7-6.2l2.2-7c-4-2.8-1.9-6.2,1.8-7.6C180.6,26.7,178.7,26.5,177.4,24z M107.2,19.9
			c10.9-4.1,22.8-6.4,35.2-6.4c12.4,0,24.2,2.3,35.2,6.4c1.3-1.3,3.7-1.7,5.4-1c0.3-2.2,6.3-1.8,7.5-0.1c0.6-0.9,4.9-1.4,7.8,5.6
			c1.1-0.3,2.1-0.5,3.1-0.6c0.6-0.1,2.8-0.2,3.3-0.3c1.5-0.2,2-2.1,3.7-2.8c0.3-0.1,1.1-0.3,2.3-0.4c-0.2-0.9-0.6-2.3-0.4-2.9
			c0.5-1.8,3.5-1.9,4.9-2.3c1.6-0.5,3.4-1.1,2.5-2.7c-1.8-3,6.4-0.8,7.3,0.5c0.5,0.8-0.4,2.3-0.4,2.3s1.1-0.1,2.2,0.1
			c2.7,0.4,4.8,1.3,3.7-2.2c-0.7-2.3,8.7,0.8,7.2,4.9c-0.4,1.2-1.8,2.1-1.8,2.1s0.9,0.6,1.7,2c0.7,1.2,3.2-0.2,3.2-1.9
			c0-3.5,4.3,1.3,4.6,4.6c0.1,1.2-0.1,3.1-1.2,4c-0.5,0.4-2,0.6-2,0.6s0.6,1.1,0.6,3.1c-0.1,1.8,3,1.3,3.9-0.7
			c0.7-1.6,3.4,3.7,2.4,7.2c-0.3,1.1-1.7,2.6-2.7,2.8c-1,0.2-2.4-0.3-2.4,0.1c0.1,0.8,0.1,1.1,0,2.3c-0.2,2.5,2.3,2.8,4.2,1
			c1.4-1.4,2.4,8.5-1.6,9.2c-2.3,0.4-2.7-0.8-2.8-0.4c-0.1,0.4-0.1,0.8-0.6,1.7c-1.2,2.6,2.1,2.5,3.8,1.6c1.5-0.8,0.9,8.4-4.1,8
			c-0.9-0.1-1.6-1.1-2.4-1.1c-0.8,0-0.9,8.2,2.3,8.2c4.6,0-0.5,5.2-4.9,5c0.5,6,4.2,14.2,7.8,18.3c4,4.6,6.2,9.7,6,14.4
			c6.9,0.7,11.4-2.5,13-6.9c2.5-6.8-2.4-14.4-6.1-20.1c-5.1-7.7-4.2-16.4-3.1-21.7c-1.9-1.3-2.8-3.4-2.8-5.6c0-2.4,0.5-5.1,3-7.4
			c6.2-5.8,15.7-0.8,17.2,1.4c0.5,0.7,0.3,1.8-0.8,2.4c-4.2,2.3-1.7,10.6-9.7,10.6c-0.5,1.6-0.7,3.3-0.7,5
			c-0.2,5.1,1.1,8.5,2.9,11.6c1.3,2.2,4.2,6.3,6,10.1c4.9,10.6,1.7,24.1-10.7,28.1c-2.1,0.7-6.5,1.3-11.1,0.4
			c-0.3,0.3-0.6,0.7-0.9,1c-0.4,0.4-0.9,0.8-1.4,1.3c-0.9,2.9-0.8,6.3,2.3,9.8c5.2,6,7.7,7.6,1.5,12.1c-12,8.6-12.9,15.2-14.6,17.7
			c2.5,0.4,5.1,0.9,7.8,1.5c1.3,0.3,3.9,1,3,4.9l-6.8,30.4c-1,4.5-4.4,3.4-6,3c-29.3-7.7-43.4,13.2-91.2,13.2
			c-47.8,0-62-20.9-91.2-13.2c-1.6,0.4-5,1.5-6-3l-6.8-30.4c-0.9-3.9,1.8-4.6,3-4.9c2.7-0.6,5.3-1.1,7.8-1.5
			c-1.6-2.6-2.5-9.1-14.6-17.7c-6.2-4.5-3.8-6,1.5-12.1c3.1-3.5,3.2-6.9,2.3-9.8c-0.5-0.4-1-0.9-1.4-1.3c-0.3-0.3-0.6-0.7-0.9-1
			c-4.6,0.8-9,0.2-11.1-0.4c-12.4-3.9-15.7-17.4-10.7-28.1c1.8-3.8,4.6-7.9,6-10.1c1.9-3.1,3.1-6.5,2.9-11.6c-0.1-1.7-0.3-3.4-0.7-5
			c-8,0-5.5-8.3-9.7-10.6c-1.1-0.6-1.3-1.6-0.8-2.4c1.5-2.3,11-7.2,17.2-1.4c2.5,2.3,3,5.1,3,7.4c0,2.2-0.9,4.3-2.8,5.6
			c1.1,5.3,2,14-3.1,21.7c-3.8,5.7-8.6,13.3-6.1,20.1c1.6,4.4,6.1,7.6,13,6.9c-0.2-4.8,2-9.9,6-14.4c3.6-4.2,7.2-12.3,7.8-18.3
			c-4.4,0.3-9.5-5-4.9-5c3.2,0,3.1-8.2,2.3-8.2c-0.8,0-1.5,1-2.4,1.1c-5,0.4-5.6-8.8-4.1-8c1.7,0.9,5,1.1,3.8-1.6
			c-0.4-0.9-0.5-1.3-0.6-1.7c-0.1-0.5-0.4,0.8-2.8,0.4c-4-0.7-3-10.5-1.6-9.2c1.9,1.8,4.4,1.5,4.2-1c-0.1-1.1-0.1-1.4,0-2.3
			c0-0.4-1.4,0.1-2.4-0.1c-0.9-0.2-2.4-1.7-2.7-2.8c-1-3.5,1.7-8.8,2.4-7.2c0.9,1.9,4,2.4,3.9,0.7c-0.1-2,0.6-3.1,0.6-3.1
			s-1.5-0.2-2-0.6c-1.1-0.9-1.3-2.8-1.2-4c0.3-3.3,4.6-8.1,4.6-4.6c0,1.7,2.6,3.1,3.2,1.9c0.7-1.4,1.7-2,1.7-2s-1.4-0.9-1.8-2.1
			c-1.5-4.1,7.9-7.2,7.2-4.9c-1.1,3.5,1,2.6,3.7,2.2c1.1-0.2,2.2-0.1,2.2-0.1S59.5,13.7,60,13c0.8-1.3,9.1-3.5,7.3-0.5
			c-1,1.6,0.9,2.1,2.5,2.7c1.4,0.5,4.3,0.6,4.9,2.3c0.2,0.6-0.2,2-0.4,2.9c1.1,0.1,2,0.3,2.3,0.4c1.7,0.7,2.3,2.5,3.7,2.8
			c0.5,0.1,2.7,0.2,3.3,0.3c0.9,0.1,2,0.3,3.1,0.6c2.9-7,7.2-6.5,7.8-5.6c1.2-1.8,7.2-2.1,7.5,0.1C103.5,18.2,106,18.6,107.2,19.9z
			 M159.3,37.1l4.5,1.2l1.1-4.3c0.3-1,0.6-2,0.9-3.1l-0.1,0c-0.9,1-1.6,1.8-2.5,2.7L159.3,37.1L159.3,37.1z M165.5,46.3l-3.6-1
			l1.1-4.2l-8.1-2.2l0.7-2.4l9.8-8.7l4.7,1.3l-2.7,10.2l2.2,0.6l-0.8,2.8l-2.2-0.6L165.5,46.3z M146.1,40.2c1.9,0.1,3.1-2,3.3-6.2
			c0.2-4.1-0.7-6.3-2.6-6.4c-1.8-0.1-3.1,2-3.3,6.1C143.2,37.9,144.3,40.1,146.1,40.2z M145.9,43.1c-4.5-0.2-6.6-4.2-6.3-9.5
			c0.3-5.3,2.9-9.1,7.4-8.9c4.7,0.2,6.6,4.3,6.3,9.5C153,39.6,150.6,43.3,145.9,43.1z M129.5,28.5c-1.6,0.2-2.6,1.8-2.3,3.7
			c0.2,1.6,1.4,2.8,3.3,2.6c1.3-0.2,2.2-0.9,2.5-1.7c0.1-0.2,0.1-0.5,0.1-0.9C132.7,30.1,131.7,28.2,129.5,28.5z M126.6,44.5l-0.4-3
			c0.5,0,1-0.1,1.9-0.3c1.4-0.3,2.7-0.9,3.6-1.8c1.1-1,1.7-2.3,1.8-3.8l-0.1,0c-0.7,1.1-1.9,1.7-3.7,2c-3.2,0.4-6-1.4-6.5-4.7
			c-0.5-3.5,2-6.8,5.9-7.3c4.6-0.6,7.3,2.5,7.9,6.7c0.5,3.7-0.3,6.5-2,8.5c-1.5,1.8-3.8,2.9-6.5,3.4
			C127.8,44.4,127.1,44.5,126.6,44.5z M120.2,46.2l-4.2-13.7l-0.1,0l-2.8,2.5l-1.5-2.6l3.8-3.4l3.1-0.9l5.2,17L120.2,46.2z
			 M72.4,26.3c-0.1,0-0.9,0.7-1.3,1.5c0.5-0.1,1.7-0.5,2.8-0.9C73.5,26.6,73,26.3,72.4,26.3z M76.4,27.6c0,0-5.5,2.2-6.5,1.3
			c-1.2-1.1,1.3-4,2.3-4C74.7,24.9,76.4,27.6,76.4,27.6z M208.4,27.6c0,0,1.7-2.7,4.2-2.7c1,0,3.5,2.9,2.3,4
			C213.9,29.7,208.4,27.6,208.4,27.6z M212.4,26.3c-0.6,0-1.1,0.3-1.5,0.7c1.1,0.4,2.3,0.7,2.8,0.9C213.3,27,212.5,26.3,212.4,26.3z
			 M211,189.2v-10.4c0-1.9-0.1-3.4-0.1-4.7h3.9l0.2,2.3h0.1c0.6-1,2.3-2.6,5-2.6c2.9,0,5.7,1.9,5.7,6.7v8.8h-4.4v-8.3
			c0-2.2-0.8-3.7-2.8-3.7c-1.5,0-2.5,1.1-2.8,2.1c-0.1,0.3-0.2,0.7-0.2,1.1v8.7L211,189.2L211,189.2z M59.2,189.4l-0.7-20.9l4.4-0.2
			l0.6,17.2l9-0.3l0.1,3.7L59.2,189.4z M89.5,186.2l-10.2-2.4c-0.4,2.2,1.5,3.7,3.8,4.3c1.7,0.4,3.1,0.5,4.5,0.3l-0.1,3.1
			c-1.6,0.3-3.6,0.2-5.8-0.3c-5.1-1.2-7.4-4.8-6.4-9.4c0.9-3.7,4.2-7.4,9.5-6.1c5.1,1.2,5.9,5.6,5.1,8.9
			C89.9,185.3,89.6,185.9,89.5,186.2z M79.9,180.8l6.3,1.5c0.3-1,0.2-3.3-2.3-3.9C81.8,177.9,80.4,179.6,79.9,180.8z M94.2,178.5
			l4.5,1.7l-0.3,7.8c0,1.4-0.2,2.6-0.3,3.8l0.1,0c0.7-1,1.3-2,2.2-3.1l4.7-6.1l4.4,1.6l-10.9,12.2l-4.2-1.5L94.2,178.5z M123.3,196
			l-10.3-2c-0.3,2.2,1.6,3.7,4,4.1c1.7,0.3,3.1,0.4,4.5,0.2l0,3.1c-1.6,0.3-3.6,0.3-5.8-0.1c-5.1-1-7.6-4.6-6.7-9.2
			c0.7-3.7,4-7.5,9.3-6.5c5.2,1,6.1,5.4,5.4,8.8C123.7,195,123.5,195.7,123.3,196z M113.6,191l6.4,1.2c0.2-1,0.1-3.3-2.4-3.8
			C115.3,188,114,189.7,113.6,191z M127.7,203.1l0.9-10.1c0.2-2.3,0.3-3.7,0.3-5l3.8,0.3l-0.1,3l0.1,0c1-2.2,3-3.1,4.6-2.9
			c0.4,0,0.6,0.1,1,0.2l-0.4,4.1c-0.4-0.1-0.8-0.2-1.3-0.3c-1.9-0.2-3.2,0.8-3.7,2.4c-0.1,0.3-0.1,0.7-0.2,1l-0.7,7.7L127.7,203.1z
			 M146.2,181.3l0.5,13.5l0.1,0c0.4-0.6,0.8-1.2,1.1-1.8l3.4-4.8l5.4-0.2l-5.7,6.3l7.1,8.8l-5.5,0.2l-4.5-6.3l-1.3,1.6l0.2,4.9
			l-4.4,0.2l-0.8-22.1L146.2,181.3z M174,184.6l2,10.2c0.4,1.9,0.7,3.5,1,4.6l-3.8,0.7l-0.6-2.2l-0.1,0c-0.4,1.1-1.6,3-4.4,3.6
			c-2.9,0.6-5.8-0.7-6.7-5.5l-1.7-8.7l4.4-0.8l1.5,7.9c0.5,2.4,1.5,3.6,3.5,3.3c1.5-0.3,2.2-1.5,2.4-2.5c0.1-0.3,0.1-0.7,0-1.1
			l-1.7-8.8L174,184.6z M180.9,196.9l-0.1-3.3c1,0.3,3,0.4,4.4,0c1.6-0.4,2-1.2,1.8-2c-0.2-0.9-0.9-1.1-2.9-1.2
			c-3.3,0-5.1-1.3-5.6-3.1c-0.8-2.7,0.9-5.4,4.6-6.4c1.8-0.5,3.4-0.5,4.5-0.3l0.1,3.2c-0.8-0.2-2.2-0.3-3.6,0.1
			c-1.2,0.4-1.8,1.1-1.6,1.9c0.2,0.8,1,1,3.1,1.1c3.1,0.1,4.7,1.1,5.4,3.3c0.8,2.6-0.8,5.3-5,6.5
			C184.1,197.1,182.2,197.2,180.9,196.9z M207.5,183.7l-10.3,2c0.6,2.1,2.9,2.8,5.2,2.3c1.7-0.3,3-0.8,4.2-1.5l1.2,2.8
			c-1.4,0.9-3.2,1.7-5.4,2.1c-5.1,1-8.7-1.4-9.6-6c-0.7-3.7,0.8-8.4,6.2-9.5c5.2-1,7.7,2.8,8.3,6.1
			C207.4,182.7,207.5,183.3,207.5,183.7z M196.6,182.7l6.4-1.2c-0.2-1.1-1.1-3.1-3.7-2.6C197,179.2,196.5,181.3,196.6,182.7z
			 M138.6,68.7h7.4c0.8,0,1.5-0.7,1.5-1.5s-0.7-1.5-1.5-1.5h-7.4V68.7z M138.6,75.8h7.6c0.9,0,1.7-0.8,1.7-1.7
			c0-0.9-0.8-1.7-1.7-1.7h-7.6L138.6,75.8L138.6,75.8z M150.4,70.4c1,1,1.6,2.3,1.6,3.9c0,3-2.4,5.4-5.4,5.4h-12.3V61.9h12.1
			c2.8,0,5.2,2.3,5.2,5.2C151.6,68.3,151.2,69.5,150.4,70.4z M153.3,100.7h-4.5l-1.4-3h-9.9l-1.4,3h-4.5l8.8-17.7h4.1L153.3,100.7z
			 M142.4,87.5l-3.1,6.4h6.2L142.4,87.5z M148.4,104.5h5.1l-9,11.5v6.2h-4.2V116l-9-11.5h5.1l6,8.1L148.4,104.5z M172,104.5v3.8
			h-11.8v3l11.4,0v3.8h-11.4v3.4H172v3.8h-16v-17.7L172,104.5L172,104.5z M185.3,115.5h-3.2v6.7h-4.2v-17.7h10.8
			c3,0,5.5,2.5,5.5,5.5c0,2.5-1.7,4.6-3.9,5.3l5.2,7h-5.1L185.3,115.5z M188.2,108.3h-6.1v3.4h6.1c0.9,0,1.7-0.8,1.7-1.7
			C189.9,109,189.1,108.3,188.2,108.3z M133.3,122.2h-4.5l-1.4-3h-9.9l-1.4,3h-4.5l8.8-17.7h4.1L133.3,122.2z M122.4,109l-3.1,6.4
			h6.2L122.4,109z M95.6,111.3h7.4c0.8,0,1.5-0.7,1.5-1.5s-0.7-1.5-1.5-1.5h-7.4V111.3z M95.6,118.4h7.6c0.9,0,1.7-0.8,1.7-1.7
			c0-0.9-0.8-1.7-1.7-1.7h-7.6L95.6,118.4L95.6,118.4z M107.5,113c1,1,1.6,2.3,1.6,3.9c0,3-2.4,5.4-5.4,5.4H91.4v-17.7h12.1
			c2.8,0,5.2,2.3,5.2,5.2C108.7,110.9,108.2,112.1,107.5,113z M150.4,126v3.8h-11.8v3l11.4,0v3.8h-11.4v3.4h11.8v3.8h-16V126
			L150.4,126L150.4,126z M147.4,153.4c0-0.9-0.7-1.7-1.7-1.7h-7.2v3.4h7.2C146.7,155.1,147.4,154.3,147.4,153.4z M134.4,165.6v-17.7
			h11.8c3,0,5.4,2.5,5.4,5.5c0,2.3-1.4,4.3-3.4,5.1l5.3,7.1h-5.1l-5.1-6.7h-4.8v6.7H134.4z"/>
	</g>
	<g>
		<rect x="-53.5" y="-54.1" class="st3" width="55.9" height="55.9"/>
		<rect x="282" y="-54.1" class="st3" width="55.9" height="55.9"/>
		<rect x="-53.5" y="221.8" class="st3" width="55.9" height="55.9"/>
		<rect x="282" y="221.8" class="st3" width="55.9" height="55.9"/>
	</g>
</g>
</svg>
