<svg fill="none" height="48" viewBox="0 0 48 48" width="48" xmlns="http://www.w3.org/2000/svg"><path d="m23.9997 8c-8.8363 0-15.9997 7.1634-15.9997 15.9997 0 8.8364 7.1634 16.0003 15.9997 16.0003 8.8364 0 16.0003-7.1645 16.0003-16.0003s-7.1645-15.9997-16.0003-15.9997z" fill="#0066b2"/><path d="m23.9997 8.7998c-8.3944 0-15.1999 6.8055-15.1999 15.1999s6.8055 15.2005 15.1999 15.2005 15.2005-6.8055 15.2005-15.2005-6.8055-15.1999-15.2005-15.1999z" fill="#fff"/><path d="m23.9997 9.52002c-7.997 0-14.47968 6.48318-14.47968 14.47968s6.48318 14.4802 14.47968 14.4802 14.4802-6.4826 14.4802-14.4802-6.4826-14.47968-14.4802-14.47968zm0 23.51978c-1.788 0-3.5358-.5302-5.0224-1.5235-1.4867-.9934-2.6454-2.4052-3.3296-4.0571s-.8632-3.4695-.5144-5.2232c.3488-1.7536 1.2098-3.3644 2.4741-4.6286 1.2642-1.2643 2.875-2.1253 4.6286-2.4741 1.7537-.3488 3.5713-.1698 5.2232.5144s3.0637 1.8429 4.0571 3.3296c.9933 1.4866 1.5235 3.2344 1.5235 5.0224.0001 1.1872-.2337 2.3628-.688 3.4596s-1.1201 2.0934-1.9596 2.9329-1.8361 1.5053-2.9329 1.9596-2.2724.6881-3.4596.688z" fill="#dc052d"/><path d="m16.0518 26.4572c.3653 1.1857.9922 2.2742 1.8344 3.1852v-3.7496l-2.12-3.0971c-.1798 1.2265-.0822 2.4777.2856 3.6615zm4.2796 2.9718v-4.2937l-2.4271-3.5453v-3.2517c-.448.4831-.8371 1.0176-1.1594 1.5923l1.1402 1.6656v4.2966l2.4271 3.5447v2.0184c.5903.292 1.2131.5131 1.8553.6587zm2.4457-5.0529 2.4272 3.5447v4.296l-2.4272-3.5453v-4.2931l-2.4271-3.5453v-4.296l2.4271 3.5447zm2.4458-.7569-2.4271-3.5453v-4.2937l2.4271 3.5453v4.296l2.4271 3.5452v4.296l-2.4271-3.5453zm-3.6825-7.5675c-1.1971.3691-2.295 1.0048-3.2111 1.8593l2.0044 2.9277v4.296l2.4271 3.5447v3.5481c1.239.186 2.5041.0903 3.7011-.28 1.197-.3702 2.2951-1.0055 3.2128-1.8587l-2.0044-2.9277v-4.2966l-2.4271-3.5452v-3.5481c-1.2393-.1871-2.505-.0906-3.7016.2822zm8.5751 10.3536v-4.2977l-2.4271-3.5453v-2.0178c-.5905-.2923-1.2134-.5136-1.8559-.6593l1.8367 2.6834v4.2959l2.4271 3.5453v3.2518c.4477-.483.8367-1.0173 1.1588-1.5918zm1.8339-4.8638c-.3653-1.1856-.992-2.2741-1.8339-3.1852v3.753l2.1195 3.0965c.1803-1.2274.0827-2.4796-.2856-3.6643" fill="#0066b2"/><path d="m14.3218 26.9907.4109.8749-.6683 1.2632c-.1005.188-.1874.3415-.1874.3415l.009.0164s.1767.0107.3889.0288l1.4235.1281.508.8213-3.0762 1.7972-.4916-.7903 1.288-.7495c.3003-.1739.5267-.2964.5267-.2964l-.0091-.0163s-.1552-.0113-.4797-.0593l-1.3101-.1947-.009-.0164.5475-1.2051c.1366-.298.2116-.4346.2116-.4346l-.009-.0164s-.2258.1231-.5357.2822l-1.3298.6666-.3951-.8421zm2.3548 3.8828.709.63-1.4236 1.6933c-.2337.2822-.2218.5768.1315.8551.3534.2783.6435.2207.8625-.0722l1.3129-1.7809.7784.5413-1.3479 1.8255c-.6181.8376-1.4185.6722-2.1105.1275s-1.0414-1.2841-.3708-2.0833zm1.4185 1.1526-.8749.6113-.0147-.0118.39-.9935zm1.5003 1.0228.9256.3387.5233 1.787c.1129.3866.1592.591.1592.591l.027.0079s.0604-.2659.1491-.591l.3798-1.4218.9031.2139-.92 3.4431-.9596-.2303-.5943-1.8683c-.1129-.3629-.1637-.5927-.1637-.5927l-.0271-.0079s-.0796.2822-.1801.582l-.4854 1.4489-.872-.3217zm6.9308 3.0824c.0197.8467-.508 1.4247-1.519 1.493-.9443.0655-1.8282-.3647-1.8801-1.7408-.0525-1.3958.7202-1.9191 1.6267-1.9795.9816-.0666 1.5494.4821 1.647 1.2271l-.9539.0644c-.0874-.3229-.2602-.5131-.6807-.4843-.3951.0265-.6688.3883-.6389 1.1046.0321.749.3426 1.038.7823 1.0087.4397-.0294.6316-.2399.6525-.6266zm.2133-2.4615.8845-.3387.5001 1.1978 1.104-.5035-.5785-1.1678.8382-.4437 1.5804 3.1936-.8393.4454-.6254-1.27-1.1554.5266.5492 1.3078-.8845.3387-1.3733-3.2823zm3.3082-1.6719 1.7052-1.6341.5486.5385-1.069 1.0245.4081.4515 1.0352-.9917.5356.5249-1.0696 1.0256.4437.4968 1.2045-1.1543.5486.5384-1.9078 1.8283zm2.1308-2.1392.4877-.8552 1.8502-.2133c.4002-.0463.6096-.0565.6096-.0565l.0124-.0254s-.25-.1061-.5531-.2472l-1.3372-.6147.3635-.8551 3.2315 1.4884-.3889.9031-1.9423.2721c-.377.0531-.6119.0615-.6119.0615l-.0124.0254s.2619.1253.543.276l1.3457.7237-.4646.8049zm-20.3719-11.7918.7146.2822-.5701 1.5821.6672.2207.5339-1.4805.6971.2766-.5181 1.4365 1.2479.4052-.2681.9094-3.4137-1.112zm4.3643-2.3515c.6158.5582.7219 1.3231.1067 2.102-.5645.7129-1.4303 1.0549-2.5519.2224-1.1069-.8207-.9595-1.7916-.3737-2.5344.6209-.7868 1.414-.8528 2.032-.4148l-.5926.7501c-.289-.1626-.5605-.1445-.8309.1976-.2704.342-.2105.7653.3895 1.2152.574.4296 1.0222.4137 1.2722.0977.267-.3387.2151-.6125-.0462-.8783zm2.3413-4.0324c.6293-.2907 1.2457-.3539 1.5172.2896.223.5266.0813.7569-.1936.9878l.0096.0214c.2935-.0683.6869-.0564.9375.5317.3009.7073-.1603 1.1165-.7902 1.4077l-1.3309.6153-1.5957-3.1852zm.5345 1.2909c.2467-.1129.3172-.2292.2179-.4668-.096-.2292-.2585-.2467-.4967-.1366l-.5317.2455.3003.5944zm.6017 1.3016c.2721-.1259.3466-.2325.2314-.5046-.1072-.2546-.2957-.2608-.5684-.1349l-.4594.2122.324.6429zm5.3442-.2517h-1.011l-.2901-.6407-1.2231.105-.1767.6773-.9962.175.9872-3.7253 1.1018-.0948zm-1.5765-1.327-.3043-.6932c-.1049-.2354-.184-.4448-.184-.4448h-.0186s-.0423.2202-.1056.4702l-.1811.7338zm2.4767.2816-.8274-2.5287 1.0679.2032.324 1.0724c.061.2049.1129.4228.1129.4228l.018.004s.1389-.1761.2794-.3387l.7389-.8416 1.0561.258-1.7995 1.9592-.2754 1.1819-.9342-.2026zm3.481-1.4404 2.2419 1.231-.3906.6621-1.3811-.7597-.2766.543 1.2773.701-.3816.6457-1.2361-.6773-.3037.5921 1.3468.7394-.3906.6621-2.1189-1.1633zm3.482 2.1951 1.0877 1.1639c.5565.5954.6898 1.17.0271 1.7497-.4233.3703-.7338.4725-1.1046.3274l-.569 1.436-.6717-.8213.5205-1.1724-.3105-.3319-.8371.8337-.6875-.653zm-.4893 1.8231.368.3951c.2049.219.377.2258.6056.0237.2286-.202.2218-.3866.0169-.6062l-.3872-.4143zm1.3874 6.1361-.3252-.9302 1.0516-1.5364c.2258-.3263.3567-.4979.3567-.4979l-.0107-.0259s-.2438.1213-.552.2591l-1.3406.6067-.4075-.8353 3.2455-1.4676.429.8873-1.0679 1.6448c-.2049.3133-.3545.5023-.3545.5023l.0107.026s.2665-.1129.5645-.2292l1.4286-.5418.3037.8783z" fill="#fff"/></svg>