<?xml version="1.0" encoding="UTF-8"?>
<svg xmlns="http://www.w3.org/2000/svg" xmlns:xlink="http://www.w3.org/1999/xlink" width="48px" height="48px" viewBox="-9.5 -9.5 67 67" version="1.1">
<g id="surface1">
<path style=" stroke:none;fill-rule:nonzero;fill:rgb(100%,100%,100%);fill-opacity:1;" d="M 47.941406 23.972656 C 47.941406 37.210938 37.210938 47.941406 23.972656 47.941406 C 10.730469 47.941406 0 37.210938 0 23.972656 C 0 10.730469 10.730469 0 23.972656 0 C 37.210938 0 47.941406 10.730469 47.941406 23.972656 "/>
<path style=" stroke:none;fill-rule:nonzero;fill:rgb(21.568627%,31.764706%,59.215686%);fill-opacity:1;" d="M 23.449219 6.425781 L 23.335938 4.335938 C 23.058594 4.339844 22.761719 4.355469 22.476562 4.375 C 22.53125 5.070312 22.570312 5.765625 22.585938 6.460938 C 22.214844 6.480469 21.8125 6.503906 21.414062 6.515625 L 21.15625 1.460938 C 21.527344 1.425781 21.917969 1.410156 22.3125 1.386719 C 22.359375 2.027344 22.398438 2.679688 22.433594 3.320312 C 22.730469 3.304688 22.984375 3.28125 23.265625 3.273438 C 23.242188 2.648438 23.226562 1.980469 23.195312 1.347656 C 23.582031 1.3125 23.980469 1.332031 24.363281 1.296875 L 24.636719 6.371094 Z M 23.449219 6.425781 "/>
<path style=" stroke:none;fill-rule:nonzero;fill:rgb(21.568627%,31.764706%,59.215686%);fill-opacity:1;" d="M 18.757812 1.972656 C 19.082031 1.875 19.390625 1.78125 19.746094 1.699219 C 20.1875 3.3125 20.628906 4.921875 21.03125 6.554688 L 21.050781 6.617188 L 19.851562 6.9375 C 19.207031 5.902344 18.527344 4.789062 17.917969 3.753906 L 17.972656 3.96875 L 18.832031 7.195312 C 18.472656 7.296875 18.160156 7.386719 17.84375 7.480469 C 17.402344 5.847656 16.945312 4.207031 16.542969 2.558594 L 17.769531 2.230469 C 18.429688 3.164062 19.050781 4.152344 19.601562 5.140625 Z M 18.757812 1.972656 "/>
<path style=" stroke:none;fill-rule:nonzero;fill:rgb(21.568627%,31.764706%,59.215686%);fill-opacity:1;" d="M 30.644531 2.378906 C 30.515625 3.550781 30.296875 4.738281 30.113281 5.894531 C 30.664062 4.867188 31.21875 3.777344 31.75 2.734375 C 32.125 2.855469 32.519531 3 32.886719 3.105469 L 32.84375 3.203125 L 30.316406 7.558594 L 30.277344 7.597656 L 28.976562 7.167969 L 28.976562 7.121094 L 29.507812 2.011719 C 29.894531 2.140625 30.277344 2.25 30.644531 2.378906 "/>
<path style=" stroke:none;fill-rule:nonzero;fill:rgb(21.568627%,31.764706%,59.215686%);fill-opacity:1;" d="M 27.128906 2.578125 C 26.871094 3.273438 26.671875 4.023438 26.488281 4.703125 L 27.128906 4.8125 C 27.109375 4.082031 27.148438 3.3125 27.128906 2.578125 M 27.988281 1.679688 C 28.117188 3.402344 28.210938 5.140625 28.335938 6.863281 C 27.910156 6.816406 27.539062 6.761719 27.128906 6.695312 C 27.128906 6.34375 27.132812 6.117188 27.128906 5.726562 C 26.816406 5.691406 26.523438 5.636719 26.210938 5.582031 C 26.144531 5.742188 26.121094 5.894531 26.046875 6.058594 L 25.882812 6.515625 C 25.5 6.496094 25.113281 6.386719 24.710938 6.332031 L 24.828125 6.007812 L 26.578125 1.480469 Z M 27.988281 1.679688 "/>
<path style=" stroke:none;fill-rule:nonzero;fill:rgb(21.568627%,31.764706%,59.215686%);fill-opacity:1;" d="M 12.695312 4.355469 L 15.152344 3.109375 C 15.304688 3.382812 15.433594 3.648438 15.570312 3.914062 L 14.179688 4.648438 C 14.328125 4.960938 14.472656 5.269531 14.65625 5.5625 L 15.992188 4.90625 C 16.136719 5.15625 16.296875 5.453125 16.433594 5.71875 C 16.011719 5.941406 15.515625 6.167969 15.078125 6.40625 L 15.628906 7.488281 C 16.121094 7.304688 16.597656 7.011719 17.09375 6.789062 C 17.257812 7.066406 17.378906 7.328125 17.515625 7.601562 L 14.96875 8.894531 L 14.929688 8.804688 Z M 12.695312 4.355469 "/>
<path style=" stroke:none;fill-rule:nonzero;fill:rgb(21.568627%,31.764706%,59.215686%);fill-opacity:1;" d="M 34.765625 4.246094 C 34.527344 5.34375 34.269531 6.460938 33.960938 7.523438 C 34.492188 6.589844 35.058594 5.636719 35.625 4.703125 C 35.949219 4.890625 36.222656 5.050781 36.523438 5.234375 L 33.945312 9.621094 L 33.886719 9.59375 C 33.558594 9.375 33.191406 9.191406 32.859375 8.96875 C 33.136719 7.761719 33.429688 6.570312 33.757812 5.417969 C 33.136719 6.40625 32.585938 7.449219 31.964844 8.4375 L 31.085938 7.890625 L 33.648438 3.550781 L 34.773438 4.171875 Z M 34.765625 4.246094 "/>
<path style=" stroke:none;fill-rule:nonzero;fill:rgb(21.568627%,31.764706%,59.215686%);fill-opacity:1;" d="M 12.550781 8.257812 C 12.238281 8.074219 11.945312 8.347656 11.726562 8.53125 L 12.570312 9.574219 L 12.917969 9.246094 C 13.027344 9.117188 13.027344 8.914062 12.972656 8.75 C 12.898438 8.550781 12.714844 8.402344 12.550781 8.257812 M 11.140625 6.664062 C 10.867188 6.554688 10.628906 6.789062 10.445312 6.957031 L 11.160156 7.835938 L 11.488281 7.542969 C 11.5625 7.449219 11.617188 7.320312 11.578125 7.195312 C 11.488281 6.972656 11.339844 6.789062 11.140625 6.664062 M 12.457031 6.40625 C 12.570312 6.664062 12.625 7.011719 12.457031 7.265625 C 12.53125 7.285156 12.625 7.210938 12.714844 7.210938 C 13.171875 7.15625 13.484375 7.46875 13.777344 7.78125 C 14.035156 8.164062 14.289062 8.640625 14.105469 9.152344 C 13.722656 9.976562 12.882812 10.425781 12.183594 11.003906 L 11.910156 10.691406 L 8.960938 7.046875 C 9.492188 6.570312 10.058594 6.148438 10.609375 5.710938 C 10.867188 5.546875 11.214844 5.472656 11.523438 5.5625 C 11.925781 5.671875 12.257812 6.058594 12.457031 6.40625 "/>
<path style=" stroke:none;fill-rule:nonzero;fill:rgb(21.568627%,31.764706%,59.215686%);fill-opacity:1;" d="M 9.144531 10.453125 C 9.34375 11 9.5625 11.523438 9.765625 12.046875 C 10.117188 12.253906 10.292969 11.941406 10.28125 11.734375 C 10.1875 11.167969 9.554688 10.832031 9.144531 10.453125 M 7.625 9.703125 C 7.570312 9.8125 7.511719 9.917969 7.570312 10.050781 C 7.863281 10.5625 8.410156 10.910156 8.851562 11.316406 C 8.667969 10.746094 8.410156 10.199219 8.191406 9.648438 C 8.046875 9.519531 7.75 9.519531 7.625 9.703125 M 8.28125 8.367188 C 9.234375 8.675781 9.929688 9.574219 10.71875 10.234375 C 11.195312 10.671875 11.597656 11.257812 11.324219 11.9375 C 11.105469 12.433594 10.683594 12.925781 10.1875 13.183594 L 10.316406 13.546875 L 9.820312 13.75 L 9.804688 13.675781 C 9.601562 13.992188 9.410156 14.339844 9.203125 14.667969 L 7.3125 14.355469 L 7.292969 14.371094 L 7.660156 14.921875 C 7.988281 15.125 8.320312 15.324219 8.667969 15.527344 C 8.449219 15.878906 8.261719 16.222656 8.0625 16.550781 L 8.007812 16.515625 L 3.765625 14.03125 L 3.703125 13.988281 C 3.894531 13.632812 4.089844 13.3125 4.289062 12.980469 C 4.9375 13.351562 5.574219 13.714844 6.214844 14.078125 L 6.214844 14.023438 C 5.699219 13.421875 5.242188 12.761719 4.785156 12.121094 C 4.949219 11.773438 5.1875 11.425781 5.390625 11.078125 L 6.78125 13.128906 L 6.855469 13.183594 L 9.765625 13.605469 C 9.710938 13.492188 9.691406 13.277344 9.546875 13.253906 C 8.558594 12.960938 7.824219 11.972656 7 11.296875 C 6.523438 10.894531 6.304688 10.289062 6.507812 9.703125 C 6.707031 9.191406 7.214844 8.644531 7.726562 8.425781 C 7.6875 8.308594 7.640625 8.183594 7.585938 8.054688 L 8.082031 7.871094 Z M 8.28125 8.367188 "/>
<path style=" stroke:none;fill-rule:nonzero;fill:rgb(21.568627%,31.764706%,59.215686%);fill-opacity:1;" d="M 6.726562 17.046875 L 7.789062 17.410156 C 7.664062 17.761719 7.515625 18.144531 7.402344 18.492188 C 7.035156 18.386719 6.671875 18.273438 6.324219 18.144531 Z M 6.726562 17.046875 "/>
<path style=" stroke:none;fill-rule:nonzero;fill:rgb(21.568627%,31.764706%,59.215686%);fill-opacity:1;" d="M 4.015625 17.871094 C 3.980469 18.21875 3.886719 18.601562 3.8125 18.949219 C 3.523438 18.925781 3.171875 18.730469 2.917969 18.953125 C 2.789062 19.0625 2.753906 19.246094 2.769531 19.410156 C 2.808594 19.519531 2.898438 19.609375 3.007812 19.648438 L 5.683594 20.195312 C 5.8125 20.195312 5.9375 20.234375 6.03125 20.125 C 6.160156 19.976562 6.195312 19.757812 6.105469 19.574219 C 5.882812 19.300781 5.496094 19.308594 5.152344 19.226562 C 5.222656 18.84375 5.28125 18.511719 5.351562 18.144531 C 5.992188 18.21875 6.726562 18.367188 7.039062 19.042969 C 7.21875 19.664062 7.074219 20.363281 6.746094 20.875 C 6.398438 21.367188 5.753906 21.460938 5.207031 21.332031 L 2.699219 20.78125 C 2.347656 20.691406 2 20.378906 1.875 20.03125 C 1.707031 19.28125 1.855469 18.476562 2.421875 17.960938 C 2.863281 17.652344 3.539062 17.722656 4.015625 17.871094 "/>
<path style=" stroke:none;fill-rule:nonzero;fill:rgb(21.568627%,31.764706%,59.215686%);fill-opacity:1;" d="M 6.652344 22.140625 L 6.53125 23.335938 C 6.140625 23.292969 5.753906 23.253906 5.390625 23.214844 C 5.425781 22.828125 5.457031 22.40625 5.496094 22.019531 Z M 6.652344 22.140625 "/>
<path style=" stroke:none;fill-rule:nonzero;fill:rgb(21.568627%,31.764706%,59.215686%);fill-opacity:1;" d="M 2.40625 23.769531 C 2.699219 23.804688 3.027344 23.804688 3.355469 23.804688 C 3.378906 23.324219 3.378906 22.789062 3.394531 22.300781 L 4.328125 22.320312 L 4.328125 23.816406 L 6.507812 23.878906 L 6.488281 25.070312 L 6.378906 25.070312 L 1.433594 24.976562 C 1.433594 24.007812 1.433594 23.039062 1.441406 22.113281 L 2.40625 22.15625 Z M 2.40625 23.769531 "/>
<path style=" stroke:none;fill-rule:nonzero;fill:rgb(74.901961%,13.333333%,15.294118%);fill-opacity:1;" d="M 6.636719 26.570312 C 6.945312 28.382812 7.476562 30.105469 8.300781 31.699219 L 8.226562 31.773438 L 6.691406 32.558594 C 5.773438 30.835938 5.1875 28.96875 4.875 26.992188 C 4.859375 26.917969 4.839844 26.789062 4.949219 26.808594 C 5.519531 26.753906 6.066406 26.625 6.636719 26.570312 "/>
<path style=" stroke:none;fill-rule:nonzero;fill:rgb(74.901961%,13.333333%,15.294118%);fill-opacity:1;" d="M 3.484375 27.15625 C 3.796875 29.300781 4.511719 31.277344 5.390625 33.164062 C 4.875 33.457031 4.34375 33.710938 3.796875 33.96875 C 2.753906 31.898438 2.039062 29.683594 1.671875 27.339844 C 2.257812 27.210938 2.84375 27.121094 3.449219 27.066406 Z M 3.484375 27.15625 "/>
<path style=" stroke:none;fill-rule:nonzero;fill:rgb(74.901961%,13.333333%,15.294118%);fill-opacity:1;" d="M 14.253906 38.511719 C 15.40625 39.28125 16.617188 39.902344 17.898438 40.378906 C 17.878906 40.398438 17.898438 40.414062 17.917969 40.414062 L 17.933594 40.414062 L 17.625 42.230469 C 17.183594 42.136719 16.761719 41.953125 16.339844 41.769531 C 12.824219 40.378906 9.382812 37.285156 7.421875 33.933594 C 7.878906 33.585938 8.449219 33.308594 8.960938 32.980469 C 10.261719 35.03125 12.164062 37.15625 14.253906 38.511719 "/>
<path style=" stroke:none;fill-rule:nonzero;fill:rgb(74.901961%,13.333333%,15.294118%);fill-opacity:1;" d="M 6.214844 34.628906 C 8.6875 38.878906 12.988281 42.230469 17.421875 43.640625 C 17.457031 44.261719 17.367188 44.902344 17.402344 45.542969 C 12.386719 44.042969 7.421875 40.398438 4.675781 35.542969 C 5.1875 35.25 5.683594 34.902344 6.214844 34.628906 "/>
<path style=" stroke:none;fill-rule:nonzero;fill:rgb(21.568627%,31.764706%,59.215686%);fill-opacity:1;" d="M 23.90625 18.878906 C 23.0625 18.96875 23.683594 19.957031 23.117188 20.308594 C 22.898438 20.453125 22.421875 20.417969 22.476562 20.800781 C 22.714844 20.765625 22.933594 20.617188 23.15625 20.507812 C 24.070312 20.269531 25.003906 20.179688 25.992188 20.085938 L 26.101562 20.03125 C 26.085938 19.996094 26.066406 19.957031 26.03125 19.921875 C 25.425781 19.335938 24.710938 18.988281 23.90625 18.878906 M 42.695312 11.386719 C 44.546875 14.152344 45.734375 17.195312 46.25 20.527344 C 43.777344 19.777344 41.210938 19.207031 38.574219 18.839844 L 38.554688 18.859375 C 41.304688 19.738281 43.921875 20.929688 46.449219 22.339844 C 46.652344 25.25 46.320312 28.089844 45.496094 30.65625 C 43.246094 29.539062 40.992188 28.402344 38.613281 27.558594 C 39.085938 27.945312 39.636719 28.273438 40.167969 28.640625 C 41.796875 29.738281 43.375 30.964844 44.949219 32.230469 C 43.90625 34.886719 42.367188 37.339844 40.277344 39.535156 C 37.988281 37.667969 35.753906 35.34375 33.851562 33.070312 C 34.453125 34.464844 35.371094 35.765625 36.210938 37.0625 C 37.109375 38.328125 37.988281 39.574219 39.015625 40.765625 C 36.707031 42.851562 34.085938 44.316406 31.324219 45.289062 C 29.875 43.179688 28.90625 40.855469 27.972656 38.53125 C 28.027344 39.480469 28.246094 40.414062 28.410156 41.351562 C 28.757812 42.871094 29.144531 44.351562 29.601562 45.800781 C 26.707031 46.585938 23.136719 46.753906 20.113281 46.167969 C 19.855469 44.445312 19.710938 42.648438 19.839844 40.835938 C 19.875 39.941406 20.003906 39.042969 20.058594 38.179688 C 20.222656 37.539062 20.222656 36.84375 20.222656 36.183594 C 20.207031 36.058594 20.167969 35.929688 20.039062 35.855469 C 19.691406 35.820312 19.453125 36.058594 19.179688 36.167969 C 18.320312 36.570312 17.566406 37.285156 16.632812 37.539062 C 16.285156 37.632812 15.902344 37.558594 15.644531 37.320312 C 15.132812 36.769531 14.96875 36.074219 14.730469 35.414062 C 14.4375 34.28125 13.996094 33.144531 14.125 31.898438 C 14.199219 31.753906 14.289062 31.589844 14.453125 31.496094 C 15.003906 31.351562 15.480469 31.714844 15.9375 31.972656 C 16.855469 32.523438 17.660156 33.347656 18.722656 33.546875 C 18.90625 33.585938 19.070312 33.511719 19.214844 33.417969 C 19.546875 32.90625 19.601562 32.136719 19.398438 31.570312 C 19.199219 31.183594 18.832031 30.800781 18.355469 30.855469 C 17.550781 30.910156 16.871094 31.238281 16.066406 31.277344 C 15.515625 31.296875 14.96875 31.3125 14.453125 31.167969 C 13.996094 31.003906 13.484375 30.890625 13.136719 30.488281 C 12.605469 29.664062 12.496094 28.65625 12.421875 27.648438 C 12.441406 27.375 12.457031 27.082031 12.566406 26.84375 C 13.171875 26.421875 13.921875 26.128906 14.34375 25.472656 C 14.472656 25.140625 14.472656 24.648438 14.382812 24.300781 C 14.160156 24.535156 14.015625 24.828125 13.722656 24.976562 C 13.335938 25.214844 12.859375 25.359375 12.402344 25.25 C 11.890625 24.828125 12.09375 24.078125 12.128906 23.476562 C 12.203125 23.183594 12.292969 22.851562 12.566406 22.652344 C 14.636719 21.113281 16.964844 20.179688 19.269531 19.207031 C 20.277344 18.804688 21.285156 18.402344 22.347656 18.109375 C 22.53125 17.945312 22.53125 17.667969 22.640625 17.46875 C 22.878906 16.972656 23.410156 16.734375 23.832031 16.441406 C 24.820312 15.855469 25.863281 15.378906 26.925781 14.996094 L 27.054688 14.902344 C 27.273438 14.117188 27.660156 13.367188 28.320312 12.761719 C 29.382812 11.9375 30.535156 11.371094 31.796875 11.058594 C 34.253906 10.527344 37.074219 10.5625 39.617188 10.820312 C 40.664062 10.964844 41.707031 11.113281 42.695312 11.386719 "/>
</g>
</svg>
