<svg fill="none" height="48" viewBox="0 0 48 48" width="48" xmlns="http://www.w3.org/2000/svg" xmlns:xlink="http://www.w3.org/1999/xlink"><filter id="a" color-interpolation-filters="sRGB" filterUnits="userSpaceOnUse" height="27.3509" width="16.7516" x="15.3733" y="9.67027"><feFlood flood-opacity="0" result="BackgroundImageFix"/><feBlend in="SourceGraphic" in2="BackgroundImageFix" mode="normal" result="shape"/><feGaussianBlur result="effect1_foregroundBlur_2_21879" stdDeviation=".375801"/></filter><linearGradient id="b"><stop offset="0" stop-color="#ffe500"/><stop offset=".5" stop-color="#ffe500"/><stop offset="1" stop-color="#e15007"/></linearGradient><radialGradient id="c" cx="0" cy="0" gradientTransform="matrix(1.25647 0 0 .934025 23.8327 41.7045)" gradientUnits="userSpaceOnUse" r="1" xlink:href="#b"/><radialGradient id="d" cx="0" cy="0" gradientTransform="matrix(1.32861 0 0 1.1946 20.3811 41.2716)" gradientUnits="userSpaceOnUse" r="1" xlink:href="#b"/><linearGradient id="e" gradientUnits="userSpaceOnUse" x1="23.3823" x2="23.3823" y1="21.0622" y2="28.0372"><stop offset="0" stop-color="#8f0904"/><stop offset=".249601" stop-color="#b40509"/><stop offset="1" stop-color="#da020e"/></linearGradient><radialGradient id="f" cx="0" cy="0" gradientTransform="matrix(1.519 0 0 1.44631 19.7531 7.07628)" gradientUnits="userSpaceOnUse" r="1" xlink:href="#b"/><radialGradient id="g" cx="0" cy="0" gradientTransform="matrix(1.17534092 -2.05833758 1.81067917 1.03392434 8.71124 14.7869)" gradientUnits="userSpaceOnUse" r="1" xlink:href="#b"/><linearGradient id="h" gradientUnits="userSpaceOnUse" x1="8.39268" x2="8.96886" xlink:href="#b" y1="13.8439" y2="14.4772"/><linearGradient id="i"><stop offset="0" stop-color="#740703"/><stop offset="1" stop-color="#da020e" stop-opacity="0"/></linearGradient><linearGradient id="j" gradientUnits="userSpaceOnUse" x1="9.70144" x2="13.6813" xlink:href="#i" y1="29.5647" y2="34.1326"/><linearGradient id="k" gradientUnits="userSpaceOnUse" x1="37.7242" x2="33.7443" xlink:href="#i" y1="29.5647" y2="34.1326"/><linearGradient id="l" gradientUnits="userSpaceOnUse" x1="39.2009" x2="37.047" xlink:href="#i" y1="21.1586" y2="19.1319"/><linearGradient id="m" gradientUnits="userSpaceOnUse" x1="8.29245" x2="10.573" xlink:href="#i" y1="21.1586" y2="18.7519"/><radialGradient id="n" cx="0" cy="0" gradientTransform="matrix(-1.519 0 0 -1.44631 27.7402 7.07628)" gradientUnits="userSpaceOnUse" r="1" xlink:href="#b"/><radialGradient id="o" cx="0" cy="0" gradientTransform="matrix(1.14759 0 0 1.09689 23.7467 6.3728)" gradientUnits="userSpaceOnUse" r="1" xlink:href="#b"/><radialGradient id="p" cx="0" cy="0" gradientTransform="matrix(-1.17534092 -2.05833758 1.81067049 -1.03391938 38.7821 14.7869)" gradientUnits="userSpaceOnUse" r="1" xlink:href="#b"/><linearGradient id="q" gradientUnits="userSpaceOnUse" x1="39.1007" x2="38.5245" xlink:href="#b" y1="13.8439" y2="14.4772"/><radialGradient id="r" cx="0" cy="0" gradientTransform="matrix(-1.32861 0 0 -1.1946 27.3338 41.2716)" gradientUnits="userSpaceOnUse" r="1" xlink:href="#b"/><linearGradient id="s"><stop offset="0" stop-color="#da030e" stop-opacity="0"/><stop offset=".875" stop-color="#da020e" stop-opacity="0"/><stop offset="1" stop-color="#da020e"/></linearGradient><radialGradient id="t" cx="0" cy="0" gradientTransform="matrix(2.47231 0 0 2.43199 8.74446 25.4675)" gradientUnits="userSpaceOnUse" r="1" xlink:href="#s"/><radialGradient id="u" cx="0" cy="0" gradientTransform="matrix(2.47231 0 0 2.43199 38.8476 25.4557)" gradientUnits="userSpaceOnUse" r="1" xlink:href="#s"/><path d="m25.5991 41.0854c-.1485.4367-.6217 1.5075-1.767 1.5075-1.3026 0-1.7544-1.4095-1.7763-1.4689l-.0385-.1334s1.1218.0933 1.7398.0933c.6164 0 1.6726-.061 1.8435-.0933z" fill="#000"/><path d="m29.0173 40.3905.2673.0339c-.3189.8332-.8916 1.7669-2.014 1.7669-1.0947 0-1.6345-.6336-1.8607-1.0572l-.1912-.1168s1.8857-.0609 3.7986-.6268" fill="#000"/><path d="m18.6866 40.3905-.2673.0339c.3173.8332.8926 1.7669 2.0186 1.7669 1.0885 0 1.6752-.667 1.917-1.0572l.1298-.1168s-1.8826-.0609-3.7981-.6268" fill="#000"/><path d="m24.7461 41.1743c-.1777.2543-.297.2412-.507.2412-.1089 0-.2652.0876-.2637.2491.0047.1271.1084.2303.2788.2303.3877 0 .6842-.5372.7628-.7659 0 0 .2272-.0094.2934-.0162 0 0-.4064 1.2151-1.4642 1.2151-1.0593 0-1.4913-1.2005-1.4913-1.2005s.8931.0542 1.4022.0542c.5106 0 .8358-.0047.989-.0073" fill="url(#c)"/><path d="m18.8304 40.6388c.6884.1824 1.1803.3366 2.3396.4773 0 0-.037.1172-.2892.1078-.0964-.0062-.1094-.0302-.1427-.0359-.0745-.0136-.1824.062-.1715.1876.0115.0886.0855.1985.3429.1985s.557-.2095.7086-.4054c0 0 .1538.036.3137.0438 0 0-.4955.692-1.4689.692-1.0687 0-1.4668-.9593-1.6325-1.2657" fill="url(#d)"/><path d="m23.7441 34.9435c3.6912 0 7.7805-2.2656 10.6516-5.5316.3126-.3533.8363-1.0244 2.0832-1.0244 1.249 0 2.9091 1.1385 2.7147 3.2102-.1448 1.509-2.3015 4.9137-5.9943 7.0078-3.6917 2.1025-7.0927 2.5522-9.4552 2.5522-2.3646 0-5.7625-.4497-9.4563-2.5522-3.6923-2.0941-5.84846-5.4988-5.99228-7.0078-.19435-2.0717 1.46628-3.2102 2.71268-3.2102 1.25 0 1.7758.6711 2.0874 1.0244 2.8669 3.266 6.9583 5.5316 10.6485 5.5316z" fill="#ffe500" stroke="#000" stroke-miterlimit="3.863" stroke-width=".255035"/><path d="m23.7128 35.4458c-3.7141 0-7.9405-2.1916-11.0533-5.7369-.3169-.3601-.7202-.8233-1.68-.8233-.5606 0-1.19633.3002-1.61787.7644-.31733.345-.67321.953-.58776 1.8852.12349 1.2735 2.14153 4.5692 5.73853 6.616 2.8992 1.6492 5.9948 2.4823 9.2004 2.4823 3.2087 0 6.3044-.8331 9.2036-2.4823 3.5958-2.0468 5.617-5.3425 5.7359-6.616.0891-.9322-.2694-1.5402-.5826-1.8852-.4236-.4642-1.0609-.7644-1.6189-.7644-.964 0-1.3668.4632-1.6807.8233-3.1111 3.5453-7.3426 5.7369-11.0573 5.7369z" fill="#da020e"/><g fill="#000"><path d="m39.6903 16.9571.013-.8608c.2652.2027.7639.2058 1.0557-.1053.1328-.1417.2084-.3611.1974-.5867-.0125-.2548-.1281-.5195-.3183-.7061-1.0776-1.053-2.0348-2.1045-2.0348-2.1045-.099-.1564-.2537-.2694-.3434-.308-.1318-.063-.6008-.2772-.9582.2658-.3225.4918-.2746 1.1854-.2126 1.4386l1.0104 1.3772c.3459.4387 1.3208 1.372 1.5908 1.5898z"/><path d="m18.0947 8.03065c1.2719-.42727 2.4349-.78055 4.0023-.91915l.2376-.1334c-.8749-.69041-1.744-1.16145-2.6095-1.16145-.5435 0-1.6492.36944-1.8956 2.3203z"/><path d="m29.3961 8.03065c-1.2724-.42727-2.4344-.78055-4.0002-.91915l-.2407-.1334c.8785-.69041 1.7455-1.16145 2.612-1.16145.544 0 1.645.36944 1.8967 2.3203z"/><path d="m22.307 7.04681c.6399-1.23024 1.225-1.67523 1.5523-1.67523.4043 0 .8806.643 1.2547 1.47514l.0787.18862-.3288-.02553c-.2157-.04064-.8301-.04846-1.0646-.04846-.2407 0-.7597 0-1.0723.02918z"/></g><path d="m17.2615 34.7713-.9264 1.6747c-.2798.5033-.568.8227-1.0406.5518-.4653-.2632-.3574-.6446-.0719-1.1646l.9291-1.6768-.7493-.4158-.9817 1.7721c-.5404.9755.1396 1.5804.6722 1.8738.5684.3147 1.3959.5487 1.9315-.4195l.9885-1.7799zm11.9137 3.4503-.3122-.9609.9296-.3001-.1287-.3997-.9306.3017-.2647-.8212.9515-.3121-.1282-.3955-1.7419.5664.9681 2.9763 1.9201-.6226-.1266-.3971zm1.9899-3.8518-1.0604.6112 1.57 2.7226 1.0562-.6107c1.0916-.6294 1.1953-1.583.7654-2.3479-.5174-.9077-1.3714-.9285-2.3312-.3752zm1.6023.8285c.3975.6967.3168 1.2047-.2955 1.5554l-.2918.1699-1.1526-1.9915.3137-.1819c.7352-.4226 1.1526-.0464 1.4262.4481zm-8.4824 1.2758.0568.4079.8764-.124.3788 2.6908.8149-.1131-.3777-2.6892.8634-.1198-.0594-.4137zm-.742.0254-.8207-.0448-.1641 3.1264.8211.0438zm-2.4918-.3822-.5716 2.1364-1.0697-2.5767-.6654-.1787-.8108 3.0248.7248.1923.5763-2.1541 1.0859 2.5985.6508.1756.8077-3.0258z" fill="#ffe500"/><path d="m16.7327 16.3781v14.6638l7.0114 4.5051 7.0109-4.5051.0105-14.6414c-.2246-.198-.691-.6321-1.0562-.8592h-11.9626c-.3028.2126-.9093.7242-1.014.8368z" fill="#ffe500"/><g filter="url(#a)"><path d="m16.7327 10.4219v5.9562 14.6638l7.0114 4.5051 7.0109-4.5051.0105-20.5976" stroke="#b54005" stroke-miterlimit="3.863" stroke-width="1.21563"/></g><path d="m26.5464 26.8991v-.545s-.1449-.2241-.5039-.2241c-.358 0-.5721.1079-.5721.198 0 .1475.3204.5711 1.076.5711zm-2.8273-4.8245.5419-.9463.4246.9463h.7035c-.4231.397-.5961.9978-.5961 1.3985v.4366c0 .1855-.0933.4924-.0933.4924s.6107.4654.7045.5461c.0391.0308.0818.0495.0537.1303-.0485.136-.4633.3231-.5055.3585-.0938.0834-.1182.1334-.0938.2157.0297.0792.1074.0938.2663.0375.1605-.0516.4929-.2261.7717-.3454.2777-.1209.6498-.0902.6498-.0902v-.5341h-1.0505v-1.6971l-.1855-.2991.4632-.8253.4659.8305-.1835.2939v.8863h.5352v-.8863l-.1845-.2939.4648-.8243.4627.8243-.1829.2939v.8863h.5388v-.8863l-.1907-.2939.4664-.8243.4647.8243-.1855.2939.0089 1.6945h-1.0588v.7837c.2402.2256.4669.7363.4669 1.0369 0 .308-.2006.4382-.2006.4382.0672.2418.0541.3424.0255.5612-.0255.2225-.3033.5695-.3033.5695v4.0503c0 .2751-.6372.248-.6372.013v-3.9721c-.3606-.3944-1.3423-.7045-1.3423-.7045-.3601.3601-.5815.9854-.5815.9854.1563.1094.3997 0 .4914-.1063.0901-.1063.2751-.1339.3819-.0667.1047.0667.1308.0922.0948.2485-.0411.1647-.1068.4278-.1068.6118 0 .1886.2121.1464.3705.1605.3199.0281.3726.3855.346.5851-.0261.2006-.1199.6263-.1199.891 0 .2621.0141.5268.0402.6769.0276.1449.0797.3048.0651.4919-.0162.2517-.1709.2918-.3314.1302-.1584-.1589-2.3766-2.5235-2.3766-2.5235-.1474.481.4664 1.3011.6644 1.5544.1995.2532.1865.4392.012.6127-.171.1715-.5039.2632-.569.4247-.0678.1563.1589.6378.6252 1.2349.4648.5961-.5335.9963-1.1291 1.1156-.5998.1178-.5998-.2939-.5581-.5195.0396-.2235.0396-.3595.025-.5559-.013-.2001-.1964-.4773-.4512-.8093-.2517-.3334-.2517-.6367-.1469-1.4094.1057-.7707.0807-1.2626.0807-1.2626s-.2657.011-.6513 0c-.3835-.0146-.7019-.2371-.729-1.1677-.0266-.928-.0484-3.1441-.1115-3.3765-.0615-.2298-.31-.272-.4148-.3027-.1089-.0271-.1141-.184-.0088-.2402.2772-.135.6096-.4753.4867-.6868-.1246-.2121-.6128-.1683-.9395-.0083-.3278.1584-.6732.5064-.7623.6013-.086.0938-.1605.0938-.1511-.0073.0109-.1084-.0605-.6154-.1027-.791-.0469-.1772-.2053-.5122-.259-.6008-.0526-.0891 0-.1235.0897-.0891.0859.0354.2829.1172.4679.1662.1865.0563.3642-.0354.4491-.2094.0886-.1798.2616-.5586.3502-.728.087-.1672.2277-.1297.3434-.1042.1146.0271.2209.098.3267.1402.1052.0438.1933.0354.2308-.0183.036-.051.0797-.0703.1433-.2026.062-.1324.1391-.0693.149-.0167.3168 1.905 1.1422 1.9925 1.1422 1.9925-.124.3174-.4148.8233-.4835.951-.0746.1193-.1022.2892-.1204.421-.0141.1313.0458 1.3897.1339 1.8508.0896.4617.3715.2819.4632.1407.085-.1407.3616-.7264.3616-.7264s.0683-.1594.0683-.2918c0-.1333-.2293-.4225-.2819-.5127-.0547-.0917-.248-.2673-.248-.7107 0-.4419.3981-.7483.5414-.8645.1417-.1162.1417-.2772.1224-.3741-.062-.3418-.4252-1.0609-.5997-1.3365-.1788-.2746-.5237-.7962-.5237-.7962h.717l.4617-.9588.5023.963.5247.0046zm-.1162 2.9044c.2339-.3867.3319-.7884.3319-.7884h-.6764s.1084.4111.3445.7884zm-.7045-1.9493c.0271.198.1746.2735.2866.2157.1115-.0615.0922-.222.0094-.3502-.0792-.1255-.2439-.2657-.2944-.2449-.0516.0214-.0193.2626-.0016.3794zm1.3407-.3794c-.0485-.0208-.222.1194-.3043.2449-.0792.1282-.0995.2887.013.3502.11.0578.2517-.0193.2871-.2157.0193-.1168.0573-.358.0042-.3794" fill="url(#e)"/><path d="m17.2827 20.0338v.8827h12.9358v-.8827h-.9539v.1425h-11.0279v-.1425z" fill="#da020e"/><path d="m17.2834 16.067h12.9333v3.5172h-12.9333z" fill="#da020e"/><path d="m19.5057 18.563.9905.2433.5347-1.4897v-.3772zm8.1635.8782v-.4588h-.9348v-.3856h.7639v-1.7008h-.7039l-.2408-.4679-.235.4679h-.706v1.7008h.767v.3856h-1.8389v-.3856h.765v-1.7008h-.705l-.2382-.4679-.2407.4679h-.7029v1.7008h.7686v.3856h-1.8769v-.3856h.7665v-1.7008h-.7061l-.236-.4679-.2423.4679h-.7034v1.7008h.769v.3856l-1.485.0046-1.4772-.3449.296.7991z" fill="#ffe500"/><path d="m18.1682 7.89206c1.2484-.4179 2.1921-.74356 3.7297-.88008-.7086-.49189-1.3375-.90822-2.0608-.90822-.3804 0-.7055.14538-.7805.41112-.0699.24178.1209.34703.1886.33088.0709-.01824.1214-.03908.1042-.10474-.0182-.0693.0354-.24542.2772-.24542.246 0 .3387.22771.3387.38403s-.248.41737-.704.41737c-.447 0-.6763-.29805-.6591-.57369-.2157.31576-.3413.63518-.434 1.16875" fill="url(#f)"/><path d="m9.4685 15.3671 1.014-1.3772c.0583-.2532.1047-.9462-.2194-1.4381-.35431-.5435-.82118-.3288-.95822-.2658-.0865.0386-.24386.1511-.34077.308 0 0-.97492 1.0734-2.04779 2.1296-.15163.1506-.31837.4257-.33244.6805-.01303.2261.07816.4533.20947.595.29335.3127.80609.3002 1.06818.097l.01824.8608c.26991-.2173 1.24326-1.1511 1.58873-1.5898z" fill="#000"/><path d="m23.7441 13.3629c5.7734 0 9.0582 5.4191 9.7752 6.3706 1.2735 1.6997 2.8325 3.0794 4.639 2.6235 2.6538-.6789 2.5157-4.6098 2.5157-4.6098-.6404-.4612-1.7315-1.0417-3.7209-3.8617-1.9483-2.7642-6.357-6.85925-13.209-6.85925-6.8536 0-11.2613 4.09505-13.2048 6.85925-1.99154 2.82-3.0863 3.4005-3.72044 3.8617 0 0-.14329 3.9309 2.51258 4.6098 1.80546.4559 3.36346-.9238 4.63906-2.6235.7144-.9515 4.0012-6.3706 9.7736-6.3706z" fill="#ffe500" stroke="#000" stroke-miterlimit="3.863" stroke-width=".255035"/><path d="m23.7441 12.8484c5.566 0 8.8763 4.7214 10.0735 6.425 1.5843 2.1148 2.9255 2.913 4.2141 2.5853 1.8623-.4742 2.0936-3.0373 2.1187-3.8132v-.0307l-.0209-.0162c-.6565-.4549-1.7549-1.2088-3.5953-3.8178-1.0979-1.558-5.2659-6.64516-12.7901-6.64516-7.5216 0-11.6932 5.08716-12.7906 6.64516-1.82527 2.5923-2.97317 3.3827-3.58803 3.8048l-.02605.0214.00313.0271c.02501.7774.25688 3.3541 2.11448 3.8246 1.29017.3277 2.63397-.4705 4.21407-2.5853 1.1961-1.7036 4.5096-6.425 10.073-6.425" fill="#da020e"/><path d="m20.7203 8.90432c-1.0212.21625-1.6939.96919-1.4735 1.98998.1282.5513.62 1.5658 2.1759 1.2349.432-.0823.6654-.2543.8916-.4705l-.2835-.3257c-.1068.1188-.2662.2918-.6242.3663-.753.1589-1.2005-.4502-1.3121-.9759-.1657-.77903.2882-1.31573.8009-1.42672.3663-.08076.5883.01876.729.07347h.0047l.0953-.39913c-.247-.099-.5434-.16466-1.0041-.0667zm8.5413 4.49078c.5842.3517 1.2214.2918 1.5195-.2017.2167-.3449.2188-.6315-.0417-1.1448-.0672-.1453-.1553-.2496-.2142-.3819-.1151-.2147-.2214-.3903-.1224-.5565.1094-.1803.3626-.1949.5919-.0547.2402.1454.3397.3856.3903.5497l.3767-.1626c-.1157-.3095-.2871-.5872-.6789-.8191-.6696-.4033-1.2141-.297-1.4408.0808-.2298.3798-.1646.6961.0084 1.0202 0 0 .1073.184.1693.3095.1516.2533.3283.5727.2043.7723-.1501.2516-.4086.3064-.6602.15-.3226-.2032-.3981-.4397-.4653-.6706l-.4143.1772c.0912.3178.3053.6471.7774.9322zm-4.4592-4.65507-.0235 1.27557-1.2266-.01772.0183-1.28025-.8223-.01512-.0547 3.13009.8238.0177.0261-1.435 1.2286.0224-.0234 1.4324.8228.0125.0536-3.13007zm11.7797 9.93917c.0057.0078.4825.2433 1.0124-.2324.4429-.3981.2944-.9437-.1683-1.4559l-.853-.9478-2.3255 2.0957.5497.6097.926-.8306.2673.3017-.5862 1.3225.7019.5606zm.4153-1.5418c.2178.2417.2214.5288-.0318.7519-.2465.2271-.5612.175-.8004-.0876l-.1391-.1558.7873-.7112zm-3.6292-.7997.7789-.6466.6248.7435.3231-.2693-.6284-.7467.6591-.555.6435.7665.3194-.2662-1.1755-1.4012-2.3964 2.0124 1.2944 1.5449.323-.2683zm-.8984-4.7034-.2793.3064.6566.5935-1.8196 2.0186.6138.5518 1.817-2.0191.6482.5836.2783-.3064zm-5.3581.1985.3314-.9546.9218.3178.137-.397-.9233-.3174.2809-.81751.9499.32566.1333-.39496-1.7304-.59558-1.0171 2.96429 1.9071.6529.1354-.3949zm-9.9101-1.5336 1.1755 1.8738-2.6173-.977-.5825.3658 1.6595 2.6589.6321-.398-1.1833-1.8931 2.6444.9817.5711-.358-1.6628-2.65739zm-3.661 2.8314-.5351.5742 1.5001 2.9831.3663-.3918-.4075-.7936.7243-.779.8212.3481.6034-.6461zm1.2651 1.4204-.5434.5836-.5586-1.0734zm-3.0331.4726-.5825.6935 1.0885 2.251-2.3344-.7644-.50231.5951 2.39851 2.0139.3642-.4325-1.695-1.4267 2.2718.74.2392-.2835-1.0833-2.1708 1.7023 1.4272.5315-.6289z" fill="#ffe500"/><path d="m8.10851 16.6186-.00261-.6904c1.17812-1.0817 1.73358-2.1686 1.73358-2.1686s-.433-.1631-.62684-.4096c-.09588-.137-.13287-.3241-.11672-.4497.03752-.2355.22093-.3548.28346-.3819.13548-.0584.38715-.1907.66752.1949.2985.4173.2199 1.2093.1787 1.3917 0 0-.54921.9562-2.1171 2.5136" fill="url(#g)"/><path d="m9.41219 13.8854c-.15893.2772-.55963.9463-1.5731 1.8962-.1683.1578-.58828.2918-.8264.0244-.08911-.1036-.14799-.249-.13913-.4179.01146-.1954.1287-.4225.24646-.5226.20426-.1725 1.07496-1.0515 1.69399-1.7429.01719.1261.12557.3371.12557.3371.08546.1178.18967.2871.47261.4257" fill="url(#h)"/><path d="m23.7128 35.4458c-3.7141 0-7.9405-2.1916-11.0533-5.7369-.3169-.3601-.7202-.8233-1.68-.8233-.5606 0-1.19633.3002-1.61787.7644-.31733.345-.67321.953-.58776 1.8852.12349 1.2735 2.14153 4.5692 5.73853 6.616 2.8992 1.6492 5.9948 2.4823 9.2004 2.4823" fill="url(#j)"/><path d="m23.7128 35.4458c3.7142 0 7.9405-2.1916 11.0534-5.7369.3168-.3601.7201-.8233 1.6799-.8233.5607 0 1.1964.3002 1.6179.7644.3173.345.6732.953.5878 1.8852-.1235 1.2735-2.1416 4.5692-5.7385 6.616-2.8992 1.6492-5.9949 2.4823-9.2005 2.4823" fill="url(#k)"/><path d="m33.8176 19.2734c1.5843 2.1148 2.9255 2.913 4.2141 2.5853 1.8623-.4742 2.0936-3.0373 2.1186-3.8132v-.0307l-.0208-.0162c-.6566-.4549-1.755-1.2088-3.5954-3.8178" fill="url(#l)"/><path d="m13.6758 19.2734c-1.5843 2.1148-2.9255 2.913-4.21413 2.5853-1.86229-.4742-2.09364-3.0373-2.11865-3.8132v-.0307l.02084-.0162c.65654-.4549 1.75494-1.2088 3.59534-3.8178" fill="url(#m)"/><path d="m29.3252 7.89206c-1.2485-.4179-2.1921-.74356-3.7298-.88008.7086-.49189 1.3376-.90822 2.0608-.90822.3804 0 .7055.14538.7806.41112.0698.24178-.1209.34703-.1887.33088-.0708-.01824-.1214-.03908-.1042-.10474.0183-.0693-.0354-.24542-.2772-.24542-.2459 0-.3387.22771-.3387.38403s.2481.41737.704.41737c.4471 0 .6763-.29805.6591-.57369.2158.31576.3413.63518.4341 1.16875" fill="url(#n)"/><path d="m23.8027 6.25328c-.0391.23864-.3137.46739-.5914.46739-.2783 0-.3616-.04481-.3616-.04481-.0423.06566-.0792.1162-.123.18707.2522-.00991.8373-.02606 1.0718-.02606.234 0 .8827.03387 1.0223.04377-.2256-.52888-.6607-1.26097-.9613-1.26097-.0104 0-.0235-.00102-.0396-.00102-.0704 0-.314.21127-.4446.39678-.1715.24371.4274.23785.4274.23785z" fill="url(#o)"/><path d="m39.3848 16.6186.0026-.6904c-1.1781-1.0817-1.7336-2.1686-1.7336-2.1686s.433-.1631.6269-.4096c.0959-.137.1329-.3241.1167-.4497-.0375-.2355-.2209-.3548-.2835-.3819-.1354-.0584-.3871-.1907-.6674.1949-.2986.4173-.2199 1.2093-.1788 1.3917 0 0 .5492.9562 2.1171 2.5136" fill="url(#p)"/><path d="m38.0812 13.8854c.1589.2772.5596.9463 1.5731 1.8962.1683.1578.5883.2918.8264.0244.0891-.1036.148-.249.1391-.4179-.0115-.1954-.1287-.4225-.2465-.5226-.2042-.1725-1.0749-1.0515-1.6939-1.7429-.0172.1261-.1256.3371-.1256.3371-.0855.1178-.1897.2871-.4726.4257" fill="url(#q)"/><path d="m16.7327 16.3781v14.6638l7.0114 4.5051 7.0109-4.5051.0105-14.6414c-.2246-.198-.691-.6321-1.0562-.8592h-11.9626c-.3028.2126-.9093.7242-1.014.8368z" stroke="#000" stroke-miterlimit="3.863" stroke-width=".255035"/><path d="m28.8845 40.6388c-.6883.1824-1.1802.3366-2.3396.4773 0 0 .037.1172.2892.1078.0964-.0062.1095-.0302.1428-.0359.0745-.0136.1824.062.1714.1876-.0114.0886-.0854.1985-.3428.1985s-.557-.2095-.7087-.4054c0 0-.1537.036-.3137.0438 0 0 .4956.692 1.4689.692 1.0687 0 1.4668-.9593 1.6325-1.2657" fill="url(#r)"/><path d="m5.53809 25.5868c0-1.769 1.43553-3.2076 3.20663-3.2076 1.77158 0 3.20608 1.4386 3.20608 3.2076 0 1.7722-1.4345 3.2077-3.20608 3.2077-1.7711 0-3.20663-1.4355-3.20663-3.2077z" fill="#ffe500" stroke="#000" stroke-miterlimit="3.863" stroke-width=".255035"/><path d="m6.27216 25.4675c0-1.3412 1.10688-2.432 2.4725-2.432 1.36604 0 2.47214 1.0908 2.47214 2.432 0 1.3436-1.1061 2.432-2.47214 2.432-1.36562 0-2.4725-1.0884-2.4725-2.432z" fill="url(#t)"/><path d="m9.42574 27.7913c-.14069.0448-.20165-.0536-.26574-.1245-.24959-.2871-.31368-1.0515-.31368-1.1526 0-.1016.03752-.2131.1089-.2157.60183-.0115 1.03171-.186 1.42618-.5138.3939-.322.5648-.6914.5997-.7571.0344-.073.1162-.0599.1313.0412.0167.0844.0485.236.0485.4001 0 1.1016-.7425 2.0014-1.73516 2.3224zm-.63517.0995c-.0172 0-.03648.0021-.05263.0021-.44343 0-.93167-.1693-1.22086-.334-.29961-.1631-.41216-.9322-.41216-1.3209 0-1.2656.51898-2.0191.60339-2.1671.08233-.15.26783-.1657.40383-.1292.14069.0406.19071.0651.35276.1131.08441.0276.25584.0625.38455.0854.1287.0308.2673.0579.18393.2981-.08232.2407-.36266.8191-.3908 1.5048-.02709.6206.05524 1.237.1954 1.6158.09223.2449.09223.3366-.04741.3319zm-1.83207-2.8893c-.11828-.0625-.26053-.3678-.30847-.4569-.03231-.0641-.0323-.2475.01407-.3257.19801-.3465.47886-.6675.84048-.8347.04429-.0193.10629-.023.10629.0833 0 .0568.03075.1454.03179.2017 0 .0568.02397.173-.04794.2647-.07555.0922-.39913.6659-.48198.9874-.01355.0719-.03543.1475-.15424.0802zm-.06669 2.0312c-.33557-.3314-.57474-.9317-.57474-1.5638 0-.2454.03647-.4804.10161-.7034 0 0 .05992-.1.11203-.0151.04012.0625.09535.1256.14016.2089.05003.0834.30952.2809.28763.4419-.09066.5914-.00937 1.3772.01876 1.5095.02501.1308-.01094.1866-.08545.122zm1.05932-3.8549c.24855-.0823.51377-.1287.78681-.1287.41529 0 .81859.0756 1.1552.2903.0865.0562.11096.1219.11096.2193 0 .3173-.49603.4236-.8243.4236-.33036 0-.73678-.1307-1.02441-.2219-.28659-.0897-.34912-.2554-.34912-.3309 0-.0724.05576-.2225.14486-.2517zm2.23957.3528c.0443.0359.1615.1308.1615.1308.2313.211.4403.4517.5617.7404.1516.3637-.3189.9145-.457 1.0416-.62316.5852-1.01344.5742-1.23437.606-.22093.0323-.36423-.1063-.3585-.2725.01407-.4867.36058-1.3256.46011-1.4835.06357-.1016.17403-.1646.17403-.1646.23135-.0641.45593-.1605.57213-.2929.1136-.1344.1204-.3053.1204-.3053zm-1.42879-.6394c-1.48973 0-2.69599 1.2068-2.69599 2.6955 0 1.4897 1.20626 2.696 2.69599 2.696 1.48869 0 2.69759-1.2063 2.69759-2.696 0-1.4887-1.2089-2.6955-2.69759-2.6955" fill="#da020e"/><path d="m35.6046 25.5805c0-1.769 1.4355-3.2024 3.2066-3.2024 1.7721 0 3.2066 1.4334 3.2066 3.2024 0 1.7722-1.4345 3.2082-3.2066 3.2082-1.7711 0-3.2066-1.436-3.2066-3.2082z" fill="#ffe500" stroke="#000" stroke-miterlimit="3.863" stroke-width=".255035"/><path d="m40.6891 27.0216c-.0703.0694-.1099.0089-.0802-.1208.0245-.1287.1063-.9171.0151-1.5085-.0224-.1605.2387-.3575.2866-.4419.0479-.0828.1026-.1474.1412-.2079.0537-.0875.1105.0104.1105.0104.0688.2257.1021.4617.1021.7061 0 .6341-.2423 1.2323-.5753 1.5627zm-.2172-2.1087c-.0834-.3205-.4091-.8967-.4826-.9885-.0739-.0885-.0505-.2063-.0495-.2631 0-.0563.0324-.1464.0324-.2048 0-.1016.0614-.0995.1052-.0802.3637.1672.643.4835.8431.8332.0443.0797.0453.2621.0125.3241-.0469.0896-.1881.3949-.309.4595-.1209.0662-.1386-.0109-.1521-.0802zm-.4049 2.6371c-.2897.1621-.778.333-1.2235.333h-.0516c-.137.0036-.1401-.0917-.0463-.3356.136-.3757.2209-.9947.1928-1.6137-.0282-.6889-.3049-1.261-.3908-1.5033-.0834-.2402.0557-.2694.186-.2965.1292-.0255.3001-.063.385-.0901.1595-.0485.2111-.073.3518-.1131.137-.0354.3215-.0177.4054.1287.0823.1501.6023.9082.6023 2.1708 0 .3866-.1136 1.1546-.4111 1.3198zm-1.9087.2314c-.9952-.3226-1.7362-1.2219-1.7362-2.3224 0-.1621.0318-.3121.0449-.3997.0192-.1011.0953-.1177.1333-.0432.035.0677.2079.4366.5998.7597.397.3251.8227.5028 1.4282.5153.0735.0037.1079.1115.1079.2152 0 .1027-.062.8655-.3106 1.1505-.0661.073-.1297.173-.2673.1246zm-1.4871-3.388c.1183-.2887.3283-.5336.5596-.7399 0 0 .1147-.0969.159-.1308 0 0 .0093.1725.1245.3017.1146.1303.3371.2324.5685.2934 0 0 .1089.0661.174.1677.1027.1532.4466.9911.4617 1.4814.0041.1668-.1376.3054-.359.2736-.222-.0297-.6113-.0229-1.2339-.605-.1376-.1276-.6081-.6774-.4544-1.0421zm1.0171-1.063c.3413-.2157.7394-.2912 1.1552-.2912.2752 0 .5367.0469.7874.1292.0922.0286.1464.1771.1464.2517 0 .0734-.061.2412-.3497.3313-.2876.0886-.6925.221-1.0223.221-.3319 0-.8264-.1079-.8264-.4236 0-.0954.024-.1647.1094-.2184zm1.1297-.446c-1.4882 0-2.695 1.2073-2.695 2.6923 0 1.4934 1.2068 2.696 2.695 2.696 1.4908 0 2.6976-1.2026 2.6976-2.696 0-1.485-1.2068-2.6923-2.6976-2.6923z" fill="#da020e"/><path d="m36.3753 25.4557c0-1.3413 1.1069-2.432 2.4725-2.432 1.366 0 2.4721 1.0907 2.4721 2.432 0 1.3436-1.1061 2.432-2.4721 2.432-1.3656 0-2.4725-1.0884-2.4725-2.432z" fill="url(#u)"/></svg>