<svg opacity="0.2" fill="none" height="48" viewBox="0 0 48 48" width="48" xmlns="http://www.w3.org/2000/svg"><path d="m24 8c-8.823 0-16 7.1775-16 15.9996 0 8.8222 7.177 16.0004 16 16.0004 8.8223 0 16-7.1782 16-16.0004 0-8.8221-7.1777-15.9996-16-15.9996" fill="#004170"/><path d="m23.9779 9.14844c-3.9681 0-7.6991 1.54516-10.5051 4.35106-2.806 2.806-4.35122 6.5369-4.35122 10.5049s1.54522 7.6982 4.35122 10.5049c2.806 2.8059 6.537 4.3511 10.5051 4.3511 3.968 0 7.6991-1.5452 10.5051-4.3511 2.806-2.8067 4.3512-6.5369 4.3512-10.5049s-1.5452-7.6989-4.3512-10.5049c-2.806-2.8059-6.5371-4.35106-10.5051-4.35106zm0 .58842c7.8804 0 14.2678 6.38804 14.2678 14.26754s-6.3874 14.2675-14.2678 14.2675c-7.8797 0-14.26788-6.388-14.26788-14.2675s6.38818-14.26754 14.26788-14.26754" fill="#fff"/><path d="m19.6997 13.7255.0628-1.5712 1.0351 1.1867c-.3747.1094-.7409.2378-1.0979.3845zm.2202-2.3805c-.2611.084-.5193.175-.7733.2745l-.2745 4.1662c.2469-.151.5009-.2914.7613-.4205l.0395-.9708c.5024-.2216 1.0259-.405 1.5664-.5468l.6399.7345c.2815-.0607.5673-.1101.8565-.1454zm11.2943 2.5734c.5503-.1292 1.5614.8755 1.7547 1.5557.1609-.1228.5186-.3852.5186-.3852-.4276-1.2164-2.1294-2.4335-2.938-1.6715-.4797.453-.2074 1.1508.211 1.5917l.4064.4276c.4149.4367.7768.8713.4438 1.1458-.3549.2935-1.3476-.4417-1.9445-1.7039l-.5341.4029c.1277.3323.4156.8135.8022 1.2206.4382.4614.9158.7619 1.3434.8459.3358.0663.671.0162.8918-.1891.5511-.5108.3507-1.2558-.515-2.1674l-.3592-.3775c-.3986-.4198-.2356-.659-.0811-.6956zm-16.1395 1.0676 1.0012-1.0986c.2251-.2469.6096-.2652.8572-.0395.247.2251.2653.6096.0396.8566l-1.0012 1.0992zm2.2091 2.0136-.8326-.7585 1.0316-1.1359c.4671-.5115.4671-1.3356-.0452-1.8019-.5122-.4671-1.3462-.4029-1.8126.1093l-1.5317 1.6849 2.6677 2.4306c.1672-.1835.3429-.3585.5228-.5285zm6.6453-5.6142h1.3659c.3345 0 .6068.2723.6068.6067 0 .3345-.2723.6068-.6068.6068h-1.3659zm0 2.9753v-1.112h.9306l.8029 1.2693c.3182.0579.6308.1305.937.2187l-.9624-1.5345c.5518-.1475 1.0069-.6336 1.0069-1.2101 0-.6928-.6562-1.2572-1.3491-1.2572h-2.1089v3.6568c.2448-.019.4918-.031.7423-.031zm4.0684.8975 1.4118-3.3958c-.2314-.1037-.4664-.2004-.7042-.2907l-1.4111 3.3937c.2392.0882.4735.1862.7035.2928" fill="#fff"/><path d="m26.8215 23.8989c-1.2778-2.2415-2.0334-4.888-2.0899-7.9833-.2448-.0218-.4925-.0352-.7429-.0352-.2526 0-.5017.0134-.7486.036-.0565 3.0945-.8121 5.741-2.0899 7.9825zm.1872.3187h-6.0459c-1.0019 1.6623-2.2959 3.0966-3.8086 4.3172.654.9948 1.5183 1.8387 2.5308 2.4673-.0374-.2159-.0578-.4367-.0578-.6625 0-2.2521 1.9523-4.078 4.361-4.078 2.4088 0 4.3611 1.8259 4.3611 4.078 0 .2258-.0205.4466-.0579.6625 1.0111-.6279 1.8754-1.4703 2.5288-2.4645-1.5142-1.2213-2.8089-2.6563-3.8115-4.32" fill="#e30613"/><path d="m25.1424 15.9635c3.9674.5609 7.0189 3.9686 7.0189 8.0904 0 1.3201-.3146 2.5661-.8706 3.6703-3.6012-2.7015-5.7892-6.5087-6.1483-11.7607zm3.1489 15.0386c.0374-.2158.0579-.4367.0579-.6625 0-2.2521-1.9523-4.078-4.3611-4.078s-4.361 1.8259-4.361 4.078c0 .2258.0204.4467.0585.6625-1.0132-.6286-1.8775-1.4724-2.5308-2.4672 1.512-1.2206 2.806-2.655 3.8079-4.3173h6.0459c1.0026 1.6637 2.2973 3.0988 3.8115 4.3201-.6534.9941-1.517 1.8365-2.5288 2.4644zm-1.3702.6802c-.9108.3507-1.8986.5447-2.933.5447-1.0336 0-2.0214-.194-2.9323-.5447-.3323-.5045-.5249-1.0999-.5249-1.7392 0-1.8132 1.548-3.2836 3.4572-3.2836 1.91 0 3.458 1.4704 3.458 3.2836 0 .6393-.1926 1.2347-.525 1.7392zm-11.1062-7.6284c0-4.1225 3.053-7.5302 7.021-8.0904-.3591 5.252-2.5477 9.0599-6.1496 11.7614-.556-1.1042-.8714-2.3502-.8714-3.671zm8.1732-8.173c.2512 0 .4981.0127.7437.0353.0557 3.0945.8121 5.741 2.0899 7.9825h-5.6721c1.2785-2.2415 2.0342-4.888 2.0906-7.9825.2463-.0219.496-.0353.7479-.0353zm0-.5884c-4.831 0-8.7609 3.9306-8.7609 8.7614 0 4.8309 3.9299 8.7608 8.7609 8.7608s8.7617-3.9299 8.7617-8.7608c0-4.8308-3.9307-8.7614-8.7617-8.7614z" fill="#fff"/><path d="m25.3195 29.3516c-.4233 0-.8305.3408-1.0661.9631-.0042.0085-.0071.019-.0071.0296-.0007.0396.0311.072.0706.0727.0282 0 .0522-.0155.0649-.0388 0-.0016.0007-.002.0007-.0036.0007 0 .0007-.0008.0007-.0016.1806-.3902.5164-.5736.7069-.5736.1073 0 .1941.0867.1941.194 0 .1072-.0868.194-.1941.194-.0098 0-.0254-.0012-.0345-.0028-.0085-.0012-.029-.0063-.0395.0169-.0078.0191-.024.1122.0592.2075.0487.055.1489.1009.2441.1009.3204 0 .5793-.2597.5793-.5793 0-.3203-.2589-.5792-.5793-.5792zm-1.6151.9628c-.2364-.6223-.6435-.963-1.0661-.963-.3203 0-.5793.2596-.5793.5792s.259.5793.5793.5793c.0952 0 .1954-.0459.2441-.1009.0833-.0953.067-.1884.0586-.2068-.0099-.024-.0304-.019-.0388-.0176-.0092.0016-.0247.0028-.0346.0028-.1073 0-.194-.0867-.194-.194 0-.1065.0867-.1933.194-.1933.1898 0 .5263.1827.7063.5736 0 .0008.0006.0008.0006.0016.0007.0008.0015.0016.0015.0028.012.0233.0366.0396.0642.0388.0402-.0008.0719-.0331.0712-.0726 0-.0106-.0028-.0205-.007-.0297zm.8527-1.2314c0-.3338-.4367-1.3758-.5687-1.3758-.0098 0-.0204.0049-.0324.0148-.1595.1284-.5369 1.0505-.5369 1.361 0 .249.503.9052.503 1.2622 0 .0367.0297.0663.0663.0663.036 0 .0664-.0297.0664-.0663 0-.0008-.0008-.0016-.0008-.002.0021-.3571.5031-1.0118.5031-1.2601zm-.2783 1.8344c-.0953-.0586-.1679-.1517-.194-.2632-.012-.0423-.0501-.0741-.0967-.0741-.0459 0-.0847.0318-.0967.0741-.0261.1115-.0987.2046-.194.2632-.0176.0106-.019.0183-.012.0317.0579.115.1559.2576.2759.3542.0169.0134.0233.0141.0268.0141.0042 0 .0099-.0008.0268-.0141.1207-.0966.218-.2392.2759-.3542.007-.0134.0056-.0211-.012-.0317" fill="#ceab5d"/><path d="m22.1936 35.5144-.4882-.1073.0444-.1975.4875.11zm-6.0227-3.925c-.1122-.4184-.5363-.8283-.8566-.8283-.072 0-.1355.0204-.1905.0614-.0649.048-.103.1122-.1143.1898-.0183.1227.0311.2772.1327.412l.146.1954c.1129.151.2223.3091.199.434-.0085.05-.0367.0903-.084.1206-.0254.0169-.055.0247-.0882.0247-.1982 0-.5334-.3528-.6985-.8594l-.0035-.0091-.1439.1354-.0029.0029.0007.0028c.0325.127.1186.3316.2632.5256.1524.2032.326.3443.489.3965.0529.017.1044.0254.1538.0254.0712 0 .1347-.0183.1827-.0529.079-.0585.1263-.1319.139-.2194.0247-.1616-.0614-.3753-.2547-.6336l-.1291-.1728c-.103-.1376-.0988-.2272-.0769-.278.0197-.0445.0607-.0755.1072-.0812.0071-.0008.0148-.0008.0226-.0008.235 0 .568.3902.6548.6929l.0021.007.007-.0036c.0487-.0282.1051-.0607.1404-.0804l.0043-.0028zm13.2766 1.7665-.1756.0897-.0297.9715-.8036-.5468-.1757.0903.5983 1.2326.1792-.0797-.4155-.8763.0035-.002.7965.5397.0304-.961.0035-.002.4664.8523.1707-.0966zm2.3212-1.8416 1.3194.0911.0021-.0029-.774-.6963.1319-.1468 1.0189.9165-.1186.1468-1.3328-.0911-.0028.0029.7839.7055-.1383.1411-1.0217-.92zm-.5434.5369.9356 1.0068-.1474.1305-.9328-1.0033zm-.8078.9468.1009.5137.3514-.2498zm1.2355.4953-.1722.1369-.424-.2596-.4988.3548.0966.4967-.1757.1122-.2892-1.4746.1785-.1263zm-4.7765 1.1541.1164.3866.5842-.1757c.1418-.043.2004-.1404.1616-.2681-.0445-.1488-.1694-.1517-.278-.1185zm.5277-.3648c.2096-.0635.4431-.0169.5236.2505.086.285-.0776.4318-.1856.4741l.4283.4614-.2075.0741-.4254-.4671-.4876.1468.1644.551-.1883.0536-.3952-1.3116zm-1.2451.3455.0282.1955-.9158.1312.0515.3563.4614-.0663.0282.1954-.4614.0663.0593.4142.9496-.1362.0276.1947-1.1445.1644-.1947-1.3567zm-2.1348.8286.6279.0099-.0056.3641c-.0043.2462-.2773.4063-.6209.4007-.3648-.0063-.7423-.2625-.7345-.7281.0056-.3909.3231-.707.762-.6999.3267.0049.496.1792.5743.2575l-.139.1383c-.0663-.067-.17-.194-.4184-.1983-.3641-.0063-.5778.2279-.5821.5144-.0049.2688.2032.5129.5504.5193.2377.0036.4092-.1038.4106-.2202l.0028-.1531-.4311-.007zm-3.0119-1.0232-.0649.1862-.4537-.158-.3901 1.1183-.1863-.0649.3895-1.1183-.4537-.1581.0649-.1862zm-2.3693-1.0134.237 1.3003.0036.0016.484-.9214.175.0917-.6372 1.2142-.1728-.0783-.2392-1.3158-.0028-.0016-.4925.9355-.1694-.0988.64-1.2191zm-.6015-.3829-.7677 1.1642-.1651-.1079.7677-1.1642zm-1.1763-.578-.4727.2244.3281.2787zm-.177 1.3328-.1757-.132.1488-.4896-.4663-.3958-.4636.2201-.1573-.1439 1.3688-.6463.1672.1418z" fill="#fff"/></svg>