<?xml version="1.0" encoding="UTF-8"?>
<svg xmlns="http://www.w3.org/2000/svg" xmlns:xlink="http://www.w3.org/1999/xlink" opacity="0.2" width="48px" height="48px" viewBox="-35 -13 120 120" version="1.1">
<g id="surface1">
<path style=" stroke:none;fill-rule:nonzero;fill:rgb(0%,10.980392%,34.509804%);fill-opacity:1;" d="M 13.785156 62.871094 C 13.53125 62.804688 13.308594 62.648438 13.140625 62.414062 C 12.273438 63.738281 11.910156 64.921875 12.226562 65.984375 C 13.558594 70.445312 17.519531 73.738281 22.265625 74.175781 C 17.730469 72.808594 14.375 68.117188 13.785156 62.871094 M 12.859375 60.234375 C 12.570312 60.03125 12.328125 59.84375 12.152344 59.679688 C 11.851562 60.789062 11.710938 61.960938 11.757812 63.171875 C 11.769531 63.414062 11.785156 63.65625 11.8125 63.898438 C 11.988281 63.183594 12.332031 62.433594 12.828125 61.675781 C 12.730469 61.226562 12.746094 60.722656 12.859375 60.234375 Z M 13.082031 59.554688 C 13.199219 59.285156 13.351562 59.035156 13.53125 58.824219 C 13.671875 58.65625 13.828125 58.523438 13.988281 58.421875 C 14.421875 56.425781 15.320312 54.644531 16.640625 53.300781 C 14.671875 54.691406 13.164062 56.671875 12.371094 58.96875 C 12.476562 59.113281 12.757812 59.328125 13.082031 59.554688 Z M 30.097656 69.808594 C 29.117188 69.699219 27.804688 69.441406 27.230469 69.246094 C 26.589844 69.023438 26.019531 68.492188 25.707031 67.820312 C 25.578125 67.542969 25.460938 67.175781 25.441406 66.730469 C 25.429688 66.460938 25.457031 66.167969 25.535156 65.847656 C 21.933594 64.757812 18.121094 63.242188 15.464844 61.835938 C 15.371094 62.003906 15.265625 62.160156 15.144531 62.300781 C 14.945312 62.539062 14.722656 62.707031 14.492188 62.804688 C 14.742188 65 15.507812 67.148438 16.730469 69.019531 C 18.351562 71.503906 20.554688 73.207031 22.941406 73.746094 C 23.785156 73.933594 24.890625 74.167969 25.878906 73.953125 C 29.542969 73.144531 32.53125 70.628906 33.988281 67.316406 C 33.820312 67.347656 33.625 67.367188 33.421875 67.371094 C 32.585938 69.800781 30.824219 69.886719 30.097656 69.808594 Z M 34.949219 62.234375 C 34.894531 60.953125 34.636719 59.730469 34.203125 58.597656 C 33.667969 57.207031 31.878906 56.222656 29.527344 55.695312 C 25.179688 54.71875 19.464844 56.328125 15.828125 59.367188 C 15.96875 59.921875 15.925781 60.582031 15.738281 61.183594 C 18.359375 62.585938 22.167969 64.097656 25.761719 65.183594 C 26.609375 63.257812 28.230469 62.886719 29.492188 63.203125 C 30.398438 63.425781 30.980469 63.542969 31.402344 63.628906 L 31.871094 63.726562 C 32.472656 63.867188 33 64.261719 33.3125 64.8125 C 33.539062 65.203125 33.742188 65.820312 33.605469 66.671875 C 34.046875 66.644531 34.257812 66.570312 34.308594 66.511719 C 34.78125 65.175781 35.011719 63.734375 34.949219 62.234375 Z M 32.886719 66.671875 C 33.03125 65.957031 32.875 65.464844 32.699219 65.160156 C 32.484375 64.777344 32.121094 64.503906 31.710938 64.410156 L 31.265625 64.316406 C 30.855469 64.234375 30.242188 64.109375 29.320312 63.882812 C 28.089844 63.574219 27.03125 64.136719 26.445312 65.386719 C 27.046875 65.558594 27.640625 65.71875 28.214844 65.863281 C 28.308594 65.417969 28.328125 65.109375 28.328125 65.105469 C 28.339844 64.914062 28.507812 64.765625 28.703125 64.777344 C 28.894531 64.789062 29.042969 64.953125 29.03125 65.148438 C 29.03125 65.171875 29.007812 65.527344 28.902344 66.03125 C 29.015625 66.058594 29.128906 66.085938 29.242188 66.109375 C 29.359375 66.136719 29.472656 66.160156 29.582031 66.183594 C 29.683594 65.691406 29.75 65.273438 29.75 65.265625 C 29.78125 65.074219 29.960938 64.941406 30.152344 64.972656 C 30.34375 65 30.476562 65.179688 30.449219 65.371094 C 30.445312 65.402344 30.378906 65.824219 30.273438 66.324219 C 30.511719 66.371094 30.734375 66.410156 30.949219 66.449219 C 31.027344 66.023438 31.046875 65.683594 31.046875 65.679688 C 31.054688 65.484375 31.222656 65.335938 31.414062 65.347656 C 31.609375 65.355469 31.761719 65.519531 31.75 65.710938 C 31.75 65.742188 31.730469 66.09375 31.648438 66.550781 C 32.136719 66.617188 32.546875 66.65625 32.886719 66.671875 Z M 26.347656 67.527344 C 26.625 68.117188 27.101562 68.460938 27.460938 68.582031 C 27.925781 68.742188 29.15625 69 30.175781 69.109375 C 31.296875 69.234375 32.171875 68.613281 32.671875 67.363281 C 32.296875 67.339844 31.894531 67.296875 31.480469 67.242188 C 31.402344 67.492188 31.304688 67.742188 31.175781 67.964844 C 31.078125 68.132812 30.863281 68.191406 30.695312 68.097656 C 30.523438 68 30.464844 67.789062 30.5625 67.617188 C 30.648438 67.472656 30.71875 67.304688 30.777344 67.128906 C 30.554688 67.09375 30.335938 67.050781 30.117188 67.011719 C 30.042969 67.300781 29.957031 67.578125 29.867188 67.785156 C 29.789062 67.960938 29.582031 68.042969 29.402344 67.964844 C 29.222656 67.886719 29.140625 67.679688 29.21875 67.503906 C 29.292969 67.335938 29.363281 67.113281 29.425781 66.867188 C 29.3125 66.84375 29.199219 66.820312 29.085938 66.792969 C 28.96875 66.765625 28.847656 66.738281 28.726562 66.710938 C 28.664062 66.914062 28.585938 67.125 28.496094 67.335938 C 28.421875 67.515625 28.210938 67.597656 28.035156 67.523438 C 27.855469 67.449219 27.769531 67.242188 27.84375 67.066406 C 27.921875 66.890625 27.984375 66.714844 28.039062 66.542969 C 27.445312 66.394531 26.832031 66.226562 26.214844 66.046875 C 26.0625 66.695312 26.191406 67.199219 26.347656 67.527344 Z M 14.722656 58.792969 C 14.566406 58.765625 14.253906 58.769531 13.945312 59.101562 C 13.453125 59.632812 13.222656 60.347656 13.257812 61.230469 C 13.269531 61.457031 13.300781 61.582031 13.363281 61.761719 C 13.480469 62.085938 13.753906 62.296875 13.953125 62.332031 C 14.195312 62.375 14.464844 62.238281 14.714844 61.941406 C 15.265625 61.292969 15.503906 60.105469 15.234375 59.347656 C 15.121094 59.03125 14.941406 58.832031 14.722656 58.792969 Z M 14.722656 58.792969 "/>
<path style=" stroke:none;fill-rule:nonzero;fill:rgb(100%,100%,100%);fill-opacity:1;" d="M 18.324219 1.199219 C 13.78125 1.199219 12.703125 3.515625 12.703125 3.515625 C 12.703125 3.515625 17.949219 3.136719 17.949219 8.28125 C 17.949219 10.597656 16.679688 12.167969 15.335938 13.828125 C 13.777344 15.757812 12.007812 17.945312 12.007812 21.613281 C 12.007812 27.683594 15.9375 30.53125 19.402344 33.042969 C 22.417969 35.234375 25.269531 37.300781 25.269531 41.195312 C 25.269531 45.109375 23.542969 48.144531 22.753906 48.925781 C 21.429688 50.242188 20.238281 50.480469 19.277344 50.671875 C 18.296875 50.871094 17.367188 51.058594 17.171875 52.464844 C 13.53125 54.632812 11.324219 58.5 11.324219 62.695312 C 11.324219 62.859375 11.328125 63.023438 11.335938 63.1875 C 11.464844 66.375 12.839844 69.324219 15.203125 71.484375 C 17.5625 73.648438 20.632812 74.765625 23.84375 74.636719 C 27.054688 74.507812 30.019531 73.140625 32.199219 70.796875 C 34.375 68.453125 35.503906 65.402344 35.371094 62.214844 C 35.171875 57.347656 32.0625 53.132812 27.449219 51.46875 L 27.464844 51.476562 C 27.464844 51.476562 27.402344 51.453125 27.402344 51.453125 C 27.402344 51.453125 27.296875 51.414062 27.296875 51.414062 C 26.710938 51.214844 26.050781 50.988281 26.050781 49.496094 C 26.050781 48.050781 26.710938 47.933594 28.023438 47.691406 C 28.804688 47.550781 29.761719 47.375 30.695312 46.808594 C 32.363281 45.796875 32.679688 44.578125 32.375 44.277344 C 31.960938 43.867188 31.503906 44.730469 29.828125 45.230469 C 29.222656 45.414062 28.613281 45.519531 28.199219 45.519531 C 27.859375 45.519531 27.601562 45.488281 27.414062 45.457031 C 28.296875 43.816406 29.285156 42.472656 29.296875 42.457031 L 29.511719 42.167969 L 29.253906 41.910156 C 28.914062 41.574219 28.714844 40.867188 28.714844 39.925781 C 28.714844 38.757812 29.015625 37.226562 29.707031 35.566406 C 30.527344 33.601562 33.78125 27.195312 41.238281 27.195312 L 41.664062 27.195312 L 41.664062 26.773438 C 41.664062 24.125 41.421875 21.6875 40.941406 19.535156 L 40.847656 19.113281 C 40.847656 19.113281 40.121094 19.320312 39.519531 19.453125 C 39.445312 19.46875 38.882812 19.605469 38.855469 19.488281 C 38.835938 19.382812 39.269531 19.167969 39.421875 19.089844 C 39.988281 18.8125 40.695312 18.515625 40.695312 18.515625 L 40.597656 18.179688 C 40.0625 16.335938 39.527344 15.453125 39.503906 15.417969 L 39.332031 15.136719 L 39.015625 15.234375 C 32.804688 17.179688 31.476562 21.273438 30.683594 23.71875 C 30.296875 24.90625 30.058594 25.578125 29.625 25.578125 C 28.34375 25.578125 27.28125 24.527344 26.933594 24.179688 C 23.0625 20.332031 23.355469 17.558594 23.808594 13.359375 C 23.964844 11.878906 24.144531 10.199219 24.144531 8.28125 C 24.144531 3.449219 22.296875 1.199219 18.324219 1.199219 "/>
<path style=" stroke:none;fill-rule:nonzero;fill:rgb(0%,10.980392%,34.509804%);fill-opacity:1;" d="M 25.695312 41.195312 C 25.695312 45.09375 24.019531 48.265625 23.050781 49.222656 C 20.054688 52.203125 17.582031 50.035156 17.554688 53.019531 C 16.195312 54.246094 15.214844 56.105469 14.734375 58.230469 C 14.765625 58.234375 14.792969 58.238281 14.824219 58.242188 C 15.105469 58.292969 15.347656 58.453125 15.53125 58.707031 C 19.339844 55.625 25.203125 54.003906 29.683594 55.007812 C 31.109375 55.328125 32.316406 55.851562 33.234375 56.652344 C 31.855469 54.441406 29.753906 52.734375 27.265625 51.847656 C 26.675781 51.640625 25.625 51.398438 25.625 49.496094 C 25.625 45.945312 29.535156 48.707031 32.113281 44.839844 C 32.238281 44.648438 32.058594 44.480469 31.90625 44.632812 C 31.128906 45.40625 29.214844 45.9375 28.199219 45.9375 C 27.1875 45.9375 26.804688 45.707031 26.804688 45.707031 C 27.761719 43.816406 28.953125 42.207031 28.953125 42.207031 C 26.5625 39.832031 30.589844 26.773438 41.242188 26.773438 C 41.242188 23.742188 40.917969 21.382812 40.527344 19.625 C 40.273438 19.683594 38.265625 20.15625 38.175781 19.734375 C 38.09375 19.363281 39.652344 18.558594 40.191406 18.296875 C 39.667969 16.484375 39.144531 15.636719 39.144531 15.636719 C 30.015625 18.492188 31.851562 26 29.625 26 C 28.179688 26 27.039062 24.878906 26.632812 24.476562 C 21.179688 19.0625 23.722656 15.476562 23.722656 8.28125 C 23.722656 3.433594 21.828125 1.621094 18.328125 1.621094 C 14.824219 1.621094 13.574219 3.125 13.574219 3.125 C 13.574219 3.125 18.371094 3.28125 18.371094 8.28125 C 18.371094 13.519531 12.433594 14.964844 12.433594 21.609375 C 12.433594 32.671875 25.695312 32.464844 25.695312 41.195312 M 19.371094 8.28125 C 19.371094 7.640625 19.300781 7.0625 19.175781 6.539062 C 19.175781 6.539062 20.21875 6.484375 20.21875 5.222656 C 20.21875 4.183594 19.519531 3.472656 19.332031 3.472656 C 19.183594 3.472656 19.144531 3.632812 18.816406 3.632812 C 18.019531 3.632812 17.960938 2.621094 17.960938 2.621094 C 18.082031 2.617188 18.203125 2.613281 18.324219 2.613281 C 20.609375 2.613281 22.722656 3.300781 22.722656 8.285156 C 22.722656 10.125 22.546875 11.765625 22.390625 13.210938 C 22.238281 14.640625 22.09375 15.96875 22.136719 17.265625 C 22.136719 17.265625 18.160156 16.800781 18.160156 13.832031 C 18.160156 11.902344 19.371094 11.433594 19.371094 8.28125 Z M 13.785156 62.871094 C 13.53125 62.804688 13.308594 62.648438 13.140625 62.414062 C 12.273438 63.738281 11.910156 64.921875 12.226562 65.984375 C 13.558594 70.445312 17.519531 73.738281 22.265625 74.175781 C 17.730469 72.808594 14.375 68.117188 13.785156 62.871094 Z M 12.859375 60.234375 C 12.570312 60.03125 12.328125 59.84375 12.152344 59.679688 C 11.851562 60.789062 11.710938 61.960938 11.757812 63.171875 C 11.769531 63.414062 11.785156 63.65625 11.8125 63.898438 C 11.988281 63.183594 12.332031 62.433594 12.828125 61.675781 C 12.730469 61.226562 12.746094 60.722656 12.859375 60.234375 Z M 13.082031 59.554688 C 13.199219 59.285156 13.351562 59.035156 13.53125 58.824219 C 13.671875 58.65625 13.828125 58.523438 13.988281 58.421875 C 14.421875 56.425781 15.320312 54.644531 16.640625 53.300781 C 14.671875 54.691406 13.164062 56.671875 12.371094 58.96875 C 12.476562 59.113281 12.757812 59.328125 13.082031 59.554688 Z M 30.097656 69.808594 C 29.117188 69.699219 27.804688 69.441406 27.230469 69.246094 C 26.589844 69.023438 26.019531 68.492188 25.707031 67.820312 C 25.578125 67.542969 25.460938 67.175781 25.441406 66.730469 C 25.429688 66.460938 25.457031 66.167969 25.535156 65.847656 C 21.933594 64.757812 18.121094 63.242188 15.464844 61.835938 C 15.371094 62.003906 15.265625 62.160156 15.144531 62.300781 C 14.945312 62.539062 14.722656 62.707031 14.492188 62.804688 C 14.742188 65 15.507812 67.148438 16.730469 69.019531 C 18.351562 71.503906 20.554688 73.207031 22.941406 73.746094 C 23.785156 73.933594 24.890625 74.167969 25.878906 73.953125 C 29.542969 73.144531 32.53125 70.628906 33.988281 67.316406 C 33.820312 67.347656 33.625 67.367188 33.421875 67.371094 C 32.585938 69.800781 30.824219 69.886719 30.097656 69.808594 Z M 34.203125 58.597656 C 33.667969 57.207031 31.878906 56.222656 29.527344 55.695312 C 25.179688 54.71875 19.464844 56.328125 15.828125 59.367188 C 15.96875 59.921875 15.925781 60.582031 15.738281 61.183594 C 18.359375 62.585938 22.167969 64.097656 25.761719 65.183594 C 26.609375 63.257812 28.230469 62.886719 29.492188 63.203125 C 30.398438 63.425781 30.980469 63.542969 31.402344 63.628906 L 31.871094 63.726562 C 32.472656 63.867188 33 64.261719 33.3125 64.8125 C 33.539062 65.203125 33.742188 65.820312 33.605469 66.671875 C 34.046875 66.644531 34.257812 66.570312 34.308594 66.511719 C 34.78125 65.175781 35.007812 63.734375 34.949219 62.234375 C 34.894531 60.953125 34.636719 59.730469 34.203125 58.597656 Z M 26.347656 67.527344 C 26.625 68.117188 27.101562 68.460938 27.460938 68.582031 C 27.925781 68.742188 29.15625 69 30.175781 69.109375 C 31.296875 69.234375 32.171875 68.613281 32.671875 67.363281 C 32.296875 67.339844 31.894531 67.296875 31.480469 67.242188 C 31.402344 67.492188 31.304688 67.742188 31.175781 67.964844 C 31.078125 68.132812 30.863281 68.191406 30.695312 68.097656 C 30.523438 68 30.464844 67.789062 30.5625 67.617188 C 30.648438 67.472656 30.71875 67.304688 30.777344 67.128906 C 30.554688 67.09375 30.335938 67.050781 30.117188 67.011719 C 30.042969 67.300781 29.957031 67.578125 29.867188 67.785156 C 29.789062 67.960938 29.582031 68.042969 29.402344 67.964844 C 29.222656 67.886719 29.140625 67.679688 29.21875 67.503906 C 29.292969 67.335938 29.363281 67.113281 29.425781 66.867188 C 29.3125 66.84375 29.199219 66.820312 29.085938 66.792969 C 28.96875 66.765625 28.847656 66.738281 28.726562 66.710938 C 28.664062 66.914062 28.585938 67.125 28.496094 67.335938 C 28.421875 67.515625 28.210938 67.597656 28.035156 67.523438 C 27.855469 67.449219 27.769531 67.242188 27.84375 67.066406 C 27.921875 66.890625 27.984375 66.714844 28.039062 66.542969 C 27.445312 66.394531 26.832031 66.226562 26.214844 66.046875 C 26.0625 66.695312 26.191406 67.199219 26.347656 67.527344 Z M 32.886719 66.671875 C 33.03125 65.957031 32.875 65.464844 32.699219 65.160156 C 32.484375 64.777344 32.121094 64.503906 31.710938 64.410156 L 31.265625 64.316406 C 30.855469 64.234375 30.242188 64.109375 29.320312 63.882812 C 28.089844 63.574219 27.03125 64.136719 26.445312 65.386719 C 27.046875 65.558594 27.640625 65.71875 28.214844 65.863281 C 28.308594 65.417969 28.328125 65.109375 28.328125 65.105469 C 28.339844 64.914062 28.507812 64.765625 28.703125 64.777344 C 28.894531 64.789062 29.042969 64.953125 29.03125 65.148438 C 29.03125 65.171875 29.007812 65.527344 28.902344 66.03125 C 29.015625 66.058594 29.128906 66.085938 29.242188 66.109375 C 29.359375 66.136719 29.472656 66.160156 29.582031 66.183594 C 29.683594 65.691406 29.75 65.273438 29.75 65.265625 C 29.78125 65.074219 29.960938 64.941406 30.152344 64.972656 C 30.34375 65 30.476562 65.179688 30.449219 65.371094 C 30.445312 65.402344 30.378906 65.824219 30.273438 66.324219 C 30.511719 66.371094 30.734375 66.410156 30.949219 66.449219 C 31.027344 66.023438 31.046875 65.683594 31.046875 65.679688 C 31.054688 65.484375 31.222656 65.335938 31.414062 65.347656 C 31.609375 65.355469 31.761719 65.519531 31.75 65.710938 C 31.75 65.742188 31.730469 66.09375 31.648438 66.550781 C 32.136719 66.617188 32.546875 66.65625 32.886719 66.671875 Z M 14.722656 58.792969 C 14.566406 58.765625 14.253906 58.769531 13.945312 59.101562 C 13.453125 59.632812 13.222656 60.347656 13.257812 61.230469 C 13.269531 61.457031 13.300781 61.582031 13.363281 61.761719 C 13.480469 62.085938 13.753906 62.296875 13.953125 62.332031 C 14.195312 62.375 14.464844 62.238281 14.714844 61.941406 C 15.265625 61.292969 15.503906 60.105469 15.234375 59.347656 C 15.121094 59.03125 14.941406 58.832031 14.722656 58.792969 Z M 14.722656 58.792969 "/>
<path style=" stroke:none;fill-rule:nonzero;fill:rgb(0%,10.980392%,34.509804%);fill-opacity:1;" d="M 5.59375 72.785156 C 6.484375 73.367188 7.425781 73.890625 7.425781 73.890625 L 7.097656 74.742188 C 6.972656 74.226562 6.460938 73.949219 5.796875 73.539062 L 3.625 76.65625 C 3.359375 77.035156 2.84375 77.855469 2.800781 78.175781 C 2.800781 78.175781 2.445312 77.953125 2.121094 77.710938 C 1.78125 77.460938 1.457031 77.226562 1.457031 77.226562 C 1.78125 77.148438 2.339844 76.332031 2.675781 75.875 L 4.789062 72.882812 C 3.996094 72.277344 3.6875 72.15625 3.128906 72.128906 L 3.882812 71.570312 C 3.882812 71.570312 4.605469 72.136719 5.59375 72.785156 "/>
<path style=" stroke:none;fill-rule:nonzero;fill:rgb(0%,10.980392%,34.509804%);fill-opacity:1;" d="M 40 83.347656 L 40.066406 83.417969 C 40.003906 83.414062 39.953125 83.445312 39.886719 83.484375 L 40.078125 83.847656 C 40.113281 83.914062 40.167969 84.015625 40.203125 84.023438 C 40.203125 84.023438 40.160156 84.046875 40.113281 84.070312 C 40.070312 84.09375 40.03125 84.109375 40.03125 84.109375 C 40.03125 84.0625 40.015625 84.027344 39.964844 83.921875 L 39.765625 83.542969 C 39.699219 83.574219 39.625 83.609375 39.605469 83.664062 L 39.589844 83.558594 C 39.589844 83.558594 39.6875 83.507812 39.792969 83.453125 C 39.917969 83.390625 40 83.347656 40 83.347656 "/>
<path style=" stroke:none;fill-rule:nonzero;fill:rgb(0%,10.980392%,34.509804%);fill-opacity:1;" d="M 7 80.519531 C 5.492188 79.804688 5.289062 78.152344 6.035156 76.609375 C 6.78125 75.058594 8.199219 74.183594 9.703125 74.898438 C 11.203125 75.609375 11.414062 77.253906 10.667969 78.808594 C 9.925781 80.351562 8.507812 81.234375 7 80.519531 M 9.488281 75.34375 C 8.523438 74.886719 7.765625 75.96875 7.191406 77.160156 C 6.621094 78.347656 6.246094 79.621094 7.210938 80.078125 C 8.175781 80.535156 8.9375 79.445312 9.507812 78.257812 C 10.082031 77.066406 10.449219 75.800781 9.488281 75.34375 Z M 9.488281 75.34375 "/>
<path style=" stroke:none;fill-rule:nonzero;fill:rgb(0%,10.980392%,34.509804%);fill-opacity:1;" d="M 13.75 76.492188 C 14.769531 76.777344 15.597656 76.96875 15.597656 76.96875 L 15.511719 77.875 C 15.238281 77.484375 15.109375 77.386719 14.242188 77.167969 L 13.183594 80.691406 C 13.101562 81.015625 12.679688 82.234375 12.8125 82.464844 C 12.8125 82.464844 12.519531 82.402344 12.046875 82.273438 C 11.515625 82.125 11.265625 82.027344 11.265625 82.027344 C 11.539062 81.847656 11.882812 80.804688 11.996094 80.382812 L 13.054688 76.832031 C 12.152344 76.535156 11.945312 76.515625 11.511719 76.710938 L 12.035156 75.941406 C 12.035156 75.941406 12.625 76.175781 13.75 76.492188 "/>
<path style=" stroke:none;fill-rule:nonzero;fill:rgb(0%,10.980392%,34.509804%);fill-opacity:1;" d="M 17.957031 77.429688 C 18.960938 77.578125 19.90625 77.664062 19.90625 77.664062 L 19.945312 78.574219 C 19.570312 78.242188 19.429688 78.136719 18.4375 78.011719 L 17.863281 81.628906 C 17.820312 81.960938 17.609375 83.222656 17.773438 83.429688 C 17.773438 83.429688 17.425781 83.390625 16.945312 83.324219 C 16.464844 83.257812 16.167969 83.1875 16.167969 83.1875 C 16.402344 83.007812 16.597656 81.816406 16.636719 81.484375 L 17.226562 77.820312 C 16.367188 77.648438 16.191406 77.714844 15.777344 77.953125 L 16.152344 77.089844 C 16.152344 77.089844 16.957031 77.277344 17.957031 77.429688 "/>
<path style=" stroke:none;fill-rule:nonzero;fill:rgb(0%,10.980392%,34.509804%);fill-opacity:1;" d="M 21.683594 80.871094 L 21.609375 83.300781 C 22.890625 83.320312 23.769531 83.238281 24.164062 82.683594 L 23.964844 83.789062 C 23.964844 83.789062 23.253906 83.804688 22.214844 83.789062 C 21.066406 83.773438 20.167969 83.699219 20.167969 83.699219 C 20.359375 83.511719 20.40625 82.328125 20.410156 81.992188 L 20.515625 79.605469 C 20.519531 78.96875 20.578125 77.945312 20.363281 77.726562 C 21.292969 77.792969 21.175781 77.789062 22.027344 77.824219 C 23.148438 77.867188 23.78125 77.835938 23.78125 77.835938 L 23.921875 78.746094 C 23.484375 78.382812 22.832031 78.34375 21.761719 78.335938 L 21.703125 80.378906 L 23.34375 80.386719 C 23.492188 80.386719 23.5 80.46875 23.5 80.632812 C 23.5 80.796875 23.496094 80.878906 23.339844 80.878906 L 21.683594 80.871094 "/>
<path style=" stroke:none;fill-rule:nonzero;fill:rgb(0%,10.980392%,34.509804%);fill-opacity:1;" d="M 28.855469 81.601562 C 28.949219 82.488281 29.042969 83.121094 29.246094 83.238281 C 29.195312 83.328125 29.035156 83.449219 28.820312 83.472656 C 28.5625 83.5 28.367188 83.375 28.191406 83.167969 L 25.277344 79.851562 L 25.386719 81.960938 C 25.421875 82.292969 25.460938 83.550781 25.667969 83.71875 L 24.699219 83.761719 C 24.867188 83.554688 24.824219 82.359375 24.789062 82.023438 L 24.652344 79.644531 C 24.613281 79.3125 24.550781 77.996094 24.34375 77.828125 L 25.234375 77.796875 L 28.21875 81.316406 L 27.96875 79.292969 C 27.933594 78.957031 27.75 77.753906 27.550781 77.585938 C 27.550781 77.585938 27.65625 77.574219 28.019531 77.523438 C 28.382812 77.476562 28.511719 77.449219 28.511719 77.449219 C 28.34375 77.65625 28.539062 78.894531 28.574219 79.226562 L 28.855469 81.601562 "/>
<path style=" stroke:none;fill-rule:nonzero;fill:rgb(0%,10.980392%,34.509804%);fill-opacity:1;" d="M 34.324219 80.347656 C 34.425781 80.757812 34.632812 81.816406 34.9375 82.023438 C 34.9375 82.023438 34.476562 82.15625 34.195312 82.242188 C 33.945312 82.316406 33.394531 82.460938 33.394531 82.460938 C 33.523438 82.230469 33.234375 80.960938 33.152344 80.644531 L 32.875 79.542969 L 31.027344 79.992188 L 31.234375 81.113281 C 31.296875 81.476562 31.488281 82.699219 31.738281 82.847656 C 31.738281 82.847656 31.480469 82.902344 30.941406 83.011719 C 30.488281 83.105469 30.175781 83.152344 30.175781 83.152344 C 30.3125 82.925781 30.128906 81.792969 30.070312 81.429688 L 29.621094 79.054688 C 29.539062 78.613281 29.335938 77.492188 29.085938 77.363281 C 29.085938 77.363281 29.328125 77.316406 29.855469 77.214844 C 30.382812 77.113281 30.644531 77.042969 30.644531 77.042969 C 30.511719 77.308594 30.742188 78.382812 30.804688 78.761719 L 30.945312 79.515625 L 32.765625 79.074219 L 32.570312 78.304688 C 32.464844 77.894531 32.238281 76.917969 31.984375 76.734375 C 31.984375 76.734375 32.234375 76.664062 32.742188 76.519531 C 33.25 76.378906 33.464844 76.296875 33.464844 76.296875 C 33.367188 76.570312 33.648438 77.523438 33.765625 78.011719 L 34.324219 80.347656 "/>
<path style=" stroke:none;fill-rule:nonzero;fill:rgb(0%,10.980392%,34.509804%);fill-opacity:1;" d="M 37.703125 78.941406 L 35.898438 79.640625 L 35.960938 80.625 C 36 80.960938 36.003906 81.269531 36.078125 81.445312 C 36.113281 81.53125 36.175781 81.589844 36.234375 81.621094 C 36.234375 81.621094 36.046875 81.6875 35.738281 81.789062 C 35.425781 81.886719 35.257812 81.9375 35.257812 81.9375 C 35.363281 81.75 35.390625 81.496094 35.382812 81.175781 L 35.222656 76.511719 C 35.207031 76.339844 35.1875 76.179688 35.128906 76.046875 C 35.078125 75.929688 34.996094 75.863281 34.9375 75.8125 C 35.140625 75.679688 35.398438 75.535156 35.660156 75.425781 C 36.074219 75.253906 36.25 75.257812 36.554688 75.609375 L 39.199219 78.871094 C 39.683594 79.496094 40.109375 79.914062 40.386719 79.996094 C 40.386719 79.996094 40.113281 80.121094 39.605469 80.347656 C 39.097656 80.570312 38.761719 80.699219 38.761719 80.699219 C 38.789062 80.59375 38.792969 80.480469 38.726562 80.3125 C 38.65625 80.128906 38.394531 79.824219 38.226562 79.589844 L 37.703125 78.941406 M 37.375 78.554688 L 35.773438 76.347656 L 35.886719 79.117188 Z M 37.375 78.554688 "/>
<path style=" stroke:none;fill-rule:nonzero;fill:rgb(0%,10.980392%,34.509804%);fill-opacity:1;" d="M 45.265625 77.246094 C 44.902344 77.492188 44.632812 77.675781 44.632812 77.675781 C 44.605469 77.320312 43.914062 76.445312 43.714844 76.179688 L 42.15625 74.164062 L 43.410156 78.136719 C 43.359375 78.214844 43.273438 78.324219 43.1875 78.386719 C 42.941406 78.574219 42.703125 78.535156 42.480469 78.367188 L 39.519531 75.925781 L 40.558594 77.824219 C 40.808594 78.304688 41.300781 79.304688 41.628906 79.402344 C 41.628906 79.402344 41.425781 79.511719 41.164062 79.632812 C 40.90625 79.757812 40.75 79.832031 40.75 79.832031 C 40.808594 79.550781 40.328125 78.722656 40.046875 78.191406 L 38.894531 76.035156 C 38.542969 75.386719 38.15625 74.726562 37.824219 74.597656 C 38.082031 74.472656 38.160156 74.433594 38.527344 74.253906 C 38.832031 74.105469 39.101562 73.957031 39.101562 73.957031 L 42.4375 76.777344 L 41.125 72.785156 C 41.125 72.785156 41.300781 72.667969 41.632812 72.449219 C 41.96875 72.226562 42.265625 72.007812 42.265625 72.007812 C 42.292969 72.363281 42.988281 73.273438 43.238281 73.597656 L 44.675781 75.433594 C 44.980469 75.8125 45.550781 76.652344 45.957031 76.75 C 45.957031 76.746094 45.628906 77.003906 45.265625 77.246094 "/>
<path style=" stroke:none;fill-rule:nonzero;fill:rgb(0%,10.980392%,34.509804%);fill-opacity:1;" d="M 40.742188 83.167969 L 40.90625 83.375 C 40.953125 83.433594 41 83.507812 41.054688 83.527344 C 41.054688 83.527344 41.011719 83.558594 40.96875 83.585938 C 40.925781 83.613281 40.898438 83.632812 40.898438 83.632812 C 40.886719 83.578125 40.816406 83.492188 40.792969 83.460938 L 40.617188 83.234375 L 40.761719 83.683594 C 40.753906 83.691406 40.746094 83.703125 40.734375 83.710938 C 40.699219 83.738281 40.671875 83.722656 40.644531 83.703125 L 40.304688 83.433594 L 40.4375 83.648438 C 40.46875 83.703125 40.527344 83.804688 40.570312 83.828125 C 40.570312 83.828125 40.546875 83.84375 40.515625 83.859375 C 40.488281 83.875 40.460938 83.890625 40.460938 83.890625 C 40.46875 83.835938 40.398438 83.726562 40.378906 83.691406 L 40.230469 83.445312 C 40.199219 83.390625 40.144531 83.308594 40.097656 83.292969 C 40.097656 83.292969 40.144531 83.269531 40.1875 83.246094 C 40.21875 83.230469 40.246094 83.210938 40.261719 83.203125 L 40.640625 83.515625 L 40.496094 83.070312 C 40.511719 83.0625 40.53125 83.050781 40.566406 83.027344 C 40.609375 83 40.644531 82.976562 40.644531 82.976562 C 40.644531 83.03125 40.710938 83.125 40.742188 83.167969 "/>
<path style=" stroke:none;fill-rule:nonzero;fill:rgb(0%,10.980392%,34.509804%);fill-opacity:1;" d="M 11.132812 84.5 C 11.445312 84.613281 11.84375 84.75 11.84375 84.75 C 11.507812 84.992188 11.199219 85.953125 10.996094 86.476562 L 10.222656 88.609375 C 10.015625 89.191406 9.664062 90.03125 9.78125 90.328125 C 9.78125 90.328125 9.355469 90.183594 9.011719 90.0625 C 8.714844 89.957031 8.546875 89.902344 8.234375 89.769531 C 8.613281 89.667969 8.972656 88.414062 9.089844 88.101562 L 9.441406 87.105469 L 7.585938 86.335938 L 7.050781 87.472656 C 6.875 87.871094 6.457031 88.765625 6.554688 89.046875 C 6.554688 89.046875 6.230469 88.914062 5.75 88.695312 C 5.183594 88.4375 5.058594 88.367188 5.058594 88.367188 C 5.457031 88.171875 5.695312 87.535156 5.996094 86.890625 L 6.96875 84.753906 C 7.296875 84.023438 7.59375 83.390625 7.570312 82.972656 C 7.570312 82.972656 7.742188 83.074219 8.222656 83.289062 C 8.601562 83.457031 8.796875 83.542969 9.007812 83.628906 C 8.707031 83.75 8.285156 84.824219 8.066406 85.308594 L 7.78125 85.914062 L 9.59375 86.652344 L 9.871094 85.96875 C 10.003906 85.621094 10.453125 84.578125 10.355469 84.21875 C 10.355469 84.21875 10.726562 84.355469 11.132812 84.5 "/>
<path style=" stroke:none;fill-rule:nonzero;fill:rgb(0%,10.980392%,34.509804%);fill-opacity:1;" d="M 13.230469 91.425781 C 11.613281 91.003906 11.101562 89.449219 11.527344 87.832031 C 11.960938 86.203125 13.183594 85.113281 14.792969 85.53125 C 16.402344 85.953125 16.925781 87.5 16.496094 89.128906 C 16.066406 90.75 14.847656 91.851562 13.230469 91.425781 M 14.667969 86 C 13.636719 85.730469 13.101562 86.90625 12.769531 88.15625 C 12.441406 89.402344 12.320312 90.695312 13.355469 90.964844 C 14.386719 91.234375 14.921875 90.050781 15.253906 88.804688 C 15.585938 87.558594 15.703125 86.273438 14.667969 86 Z M 14.667969 86 "/>
<path style=" stroke:none;fill-rule:nonzero;fill:rgb(0%,10.980392%,34.509804%);fill-opacity:1;" d="M 17.609375 92 C 17.609375 92 17.714844 91.890625 17.785156 91.664062 C 17.882812 91.347656 17.945312 90.742188 18.023438 90.265625 L 18.476562 86.792969 C 17.511719 86.671875 17.265625 86.742188 16.84375 86.988281 L 17.238281 86.097656 C 17.539062 86.164062 18.203125 86.238281 19.015625 86.339844 C 19.554688 86.40625 21.167969 86.550781 21.167969 86.550781 L 21.222656 87.441406 C 20.867188 87.03125 20.5 86.996094 19.695312 86.933594 L 19.246094 90.417969 C 19.203125 90.746094 19.023438 91.871094 19.203125 92.203125 C 19.007812 92.183594 18.6875 92.144531 18.417969 92.121094 C 18.140625 92.089844 17.769531 92.027344 17.609375 92 "/>
<path style=" stroke:none;fill-rule:nonzero;fill:rgb(0%,10.980392%,34.509804%);fill-opacity:1;" d="M 25.296875 90.792969 C 25.304688 91.839844 24.449219 92.597656 23.132812 92.578125 C 22.105469 92.5625 21.570312 92.144531 21.363281 91.972656 L 21.578125 90.980469 C 21.898438 91.613281 22.425781 92.074219 23.019531 92.082031 C 23.636719 92.089844 24.125 91.730469 24.136719 91.117188 C 24.144531 90.675781 23.898438 90.40625 22.863281 89.871094 C 21.871094 89.363281 21.5 88.855469 21.5 88.097656 C 21.5 87.070312 22.402344 86.546875 23.464844 86.546875 C 24.242188 86.542969 24.789062 86.78125 25.128906 86.964844 L 24.910156 87.871094 C 24.4375 87.246094 24.007812 87.011719 23.492188 87.007812 C 22.980469 86.996094 22.621094 87.273438 22.625 87.792969 C 22.628906 88.359375 23.253906 88.664062 24.101562 89.132812 C 25.074219 89.671875 25.289062 90.214844 25.296875 90.792969 "/>
<path style=" stroke:none;fill-rule:nonzero;fill:rgb(0%,10.980392%,34.509804%);fill-opacity:1;" d="M 30.09375 87.589844 C 30.132812 87.710938 30.15625 87.859375 30.167969 87.976562 C 30.175781 88.085938 30.183594 88.226562 30.171875 88.363281 C 30.140625 88.703125 29.980469 89.097656 29.710938 89.375 C 29.300781 89.796875 28.769531 90.011719 28.0625 90.042969 C 27.789062 90.058594 27.722656 89.976562 27.707031 89.78125 L 27.703125 89.738281 C 27.703125 89.738281 27.699219 89.664062 27.757812 89.660156 L 27.824219 89.652344 C 28.035156 89.625 28.34375 89.5625 28.59375 89.261719 C 28.832031 88.953125 28.914062 88.542969 28.871094 88.097656 C 28.828125 87.640625 28.6875 87.308594 28.378906 87.070312 C 28.109375 86.867188 27.792969 86.796875 27.464844 86.824219 C 27.464844 86.824219 27.332031 86.835938 27.1875 86.859375 C 27.1875 86.859375 27.101562 86.867188 27.109375 86.949219 L 27.460938 90.554688 C 27.492188 90.871094 27.578125 91.988281 27.839844 92.21875 C 27.839844 92.21875 27.542969 92.25 26.980469 92.296875 C 26.550781 92.332031 26.21875 92.339844 26.21875 92.339844 C 26.332031 92.0625 26.3125 91.652344 26.285156 91.175781 L 26.011719 88.335938 C 25.980469 88.007812 25.925781 86.894531 25.660156 86.617188 C 25.660156 86.617188 26.378906 86.511719 27.707031 86.386719 C 28.402344 86.324219 28.972656 86.410156 29.460938 86.742188 C 29.785156 86.957031 30.003906 87.269531 30.09375 87.589844 "/>
<path style=" stroke:none;fill-rule:nonzero;fill:rgb(0%,10.980392%,34.509804%);fill-opacity:1;" d="M 35.535156 88.75 C 35.820312 90 35.230469 91.0625 33.917969 91.390625 C 33 91.617188 31.675781 91.28125 31.304688 89.679688 L 30.855469 87.785156 C 30.738281 87.257812 30.542969 86.320312 30.234375 86.074219 C 30.234375 86.074219 30.578125 86.027344 31.121094 85.925781 C 31.660156 85.824219 31.914062 85.765625 31.914062 85.765625 C 31.769531 85.988281 31.921875 86.867188 32.0625 87.507812 L 32.636719 89.914062 C 32.738281 90.355469 32.882812 90.65625 33.132812 90.835938 C 33.316406 90.96875 33.5625 91.003906 33.820312 90.957031 C 34.054688 90.914062 34.296875 90.785156 34.425781 90.546875 C 34.558594 90.300781 34.558594 89.945312 34.457031 89.503906 L 33.808594 87.097656 C 33.632812 86.4375 33.429688 85.609375 33.210938 85.46875 C 33.210938 85.46875 33.476562 85.398438 33.972656 85.257812 C 34.351562 85.152344 34.574219 85.085938 34.738281 85.027344 C 34.589844 85.390625 34.941406 86.5 35.019531 86.820312 L 35.535156 88.75 "/>
<path style=" stroke:none;fill-rule:nonzero;fill:rgb(0%,10.980392%,34.509804%);fill-opacity:1;" d="M 41.414062 88.257812 C 41.539062 88.304688 41.675781 88.339844 41.792969 88.289062 C 41.777344 88.367188 41.703125 88.527344 41.582031 88.652344 C 41.050781 89.191406 40.554688 89.097656 40.386719 89.03125 C 39.472656 88.6875 37.945312 87.34375 37.882812 87.195312 C 37.882812 87.195312 37.867188 87.15625 37.90625 87.140625 L 37.964844 87.117188 C 38.203125 87.019531 38.472656 86.75 38.578125 86.496094 C 38.75 86.125 38.71875 85.792969 38.546875 85.386719 C 38.367188 84.960938 38.054688 84.691406 37.808594 84.621094 C 37.445312 84.515625 37.171875 84.597656 37.007812 84.664062 C 37.007812 84.664062 36.789062 84.75 36.722656 84.8125 C 36.722656 84.8125 36.679688 84.851562 36.730469 85 L 37.882812 88.269531 C 38.058594 88.75 38.363281 89.6875 38.640625 89.847656 C 38.640625 89.847656 38.328125 89.96875 37.855469 90.136719 C 37.382812 90.308594 37.09375 90.386719 37.09375 90.386719 C 37.191406 90.019531 36.828125 89.027344 36.734375 88.75 L 35.988281 86.539062 C 35.804688 86.007812 35.464844 85.054688 35.1875 84.902344 C 35.1875 84.902344 35.730469 84.75 36.953125 84.238281 C 37.605469 83.96875 38.234375 83.851562 38.804688 84.015625 C 39.148438 84.117188 39.382812 84.289062 39.574219 84.566406 C 39.648438 84.671875 39.699219 84.777344 39.746094 84.882812 C 39.789062 84.984375 39.820312 85.101562 39.839844 85.207031 C 39.898438 85.539062 39.847656 85.894531 39.652344 86.230469 C 39.652344 86.230469 39.476562 86.566406 39.105469 86.832031 C 39.105469 86.832031 40.304688 87.84375 41.414062 88.257812 "/>
</g>
</svg>
